<?xml version="1.0" encoding="utf-8"?>
<!-- Generator: Adobe Illustrator 19.1.0, SVG Export Plug-In . SVG Version: 6.00 Build 0)  -->
<svg version="1.1" id="Layer_1" xmlns:sketch="http://www.bohemiancoding.com/sketch/ns"
	 xmlns="http://www.w3.org/2000/svg" xmlns:xlink="http://www.w3.org/1999/xlink" x="0px" y="0px" viewBox="-989 991 20 20"
	 style="enable-background:new -989 991 20 20;" xml:space="preserve">
<style type="text/css">
	.st0{fill:#FFFFFF;}
</style>
<g id="Page-1" sketch:type="MSPage">
	<g id="_x30_0a-Home" transform="translate(-731.000000, -2004.000000)" sketch:type="MSArtboardGroup">
		<g id="Footer" transform="translate(0.000000, 1983.000000)" sketch:type="MSLayerGroup">
			<g id="fb" transform="translate(731.000000, 21.000000)" sketch:type="MSShapeGroup">
				<path id="Fill-1" class="st0" d="M-970.1,991h-17.8c-0.6,0-1.1,0.5-1.1,1.1v17.8c0,0.6,0.5,1.1,1.1,1.1h9.6v-7.7h-2.6v-3h2.6
					V998c0-2.6,1.6-4,3.9-4c1.1,0,2.1,0.1,2.3,0.1v2.7l-1.6,0c-1.3,0-1.5,0.6-1.5,1.5v1.9h3l-0.4,3h-2.6v7.7h5.1
					c0.6,0,1.1-0.5,1.1-1.1v-17.8C-969,991.5-969.5,991-970.1,991"/>
			</g>
		</g>
	</g>
</g>
</svg>
