<?xml version="1.0" encoding="UTF-8" standalone="no"?>
<svg width="22px" height="22px" viewBox="0 0 22 22" version="1.1" xmlns="http://www.w3.org/2000/svg" xmlns:xlink="http://www.w3.org/1999/xlink" xmlns:sketch="http://www.bohemiancoding.com/sketch/ns">
    <!-- Generator: Sketch 3.4.4 (17249) - http://www.bohemiancoding.com/sketch -->
    <title>mobilemenu_options</title>
    <desc>Created with Sketch.</desc>
    <defs></defs>
    <g id="Page-1" stroke="none" stroke-width="1" fill="none" fill-rule="evenodd" sketch:type="MSPage">
        <g id="13e---mobile-view---Topic---admin-role---Create-singing-phase" sketch:type="MSArtboardGroup" transform="translate(-184.000000, -14.000000)" fill="#FFFFFF">
            <g id="menu" sketch:type="MSLayerGroup">
                <path d="M193.675804,35.9992664 C193.495331,35.9992664 193.337602,35.8760171 193.293584,35.7014139 L192.614246,32.9847939 C192.085301,32.8211951 191.563692,32.5996399 191.059691,32.3259971 L188.643858,33.7763772 C188.489062,33.8695478 188.290249,33.8438709 188.162598,33.7176871 L186.285247,31.8403361 C186.157596,31.7126851 186.133387,31.5138722 186.226557,31.359077 L187.676937,28.9461785 C187.407696,28.4473123 187.191277,27.9271709 187.030612,27.3930906 L184.29932,26.7093504 C184.124717,26.6660664 184,26.507603 184,26.3278645 L184,23.6758037 C184,23.4938642 184.124717,23.3361345 184.29932,23.2935841 L187.014472,22.615713 C187.181006,22.080899 187.402561,21.560024 187.674737,21.0582233 L186.224356,18.6423903 C186.131186,18.4861278 186.155395,18.2873149 186.283047,18.1596639 L188.157463,16.2852474 C188.286581,16.1561291 188.485394,16.1304522 188.640189,16.2265573 L191.056022,17.6754702 C191.553421,17.4091637 192.073563,17.1912765 192.607643,17.0306122 L193.289916,14.2993197 C193.334667,14.1232493 193.491663,14 193.672136,14 L196.324196,14 C196.504669,14 196.663866,14.1232493 196.706416,14.2993197 L197.385754,17.017407 C197.919101,17.1839402 198.44071,17.4040283 198.938842,17.6740029 L201.35761,16.2221555 C201.50947,16.1333867 201.709751,16.1561291 201.838869,16.2823129 L203.713285,18.1567294 C203.842404,18.2843804 203.866613,18.4831933 203.773443,18.6394558 L202.323063,21.0582233 C202.589369,21.554155 202.805789,22.0742964 202.966453,22.6054422 L205.70068,23.2906496 C205.876751,23.3339336 206,23.492397 206,23.6728691 L206,26.3219955 C206,26.5024677 205.876751,26.6616647 205.70068,26.704215 L202.966453,27.3894224 C202.805789,27.92497 202.589369,28.4451114 202.32453,28.9381086 L203.776377,31.3554088 C203.869548,31.5116713 203.845338,31.7104842 203.71622,31.8381353 L201.841803,33.7154862 C201.712685,33.8431373 201.513872,33.8644124 201.360544,33.7756436 L198.941777,32.3237962 C198.44291,32.5959717 197.921302,32.8153261 197.387222,32.982593 L196.710818,35.699213 C196.666066,35.8738162 196.50907,35.9970655 196.327131,35.9970655 L193.675804,35.9992664 L193.675804,35.9992664 Z M195.003746,29.7304255 C192.39586,29.7304255 190.27332,27.6101649 190.27332,25 C190.27332,22.3898351 192.39586,20.2695745 195.003746,20.2695745 C197.609354,20.2695745 199.729614,22.3898351 199.729614,25 C199.729614,27.6101649 197.609354,29.7304255 195.003746,29.7304255 L195.003746,29.7304255 Z" id="mobilemenu_options" sketch:type="MSShapeGroup"></path>
            </g>
        </g>
    </g>
</svg>