<?xml version="1.0" encoding="UTF-8" standalone="no"?>
<svg width="60px" height="60px" viewBox="0 0 60 60" version="1.1" xmlns="http://www.w3.org/2000/svg" xmlns:xlink="http://www.w3.org/1999/xlink" xmlns:sketch="http://www.bohemiancoding.com/sketch/ns">
    <!-- Generator: Sketch 3.4.4 (17249) - http://www.bohemiancoding.com/sketch -->
    <title>done-phase</title>
    <desc>Created with Sketch.</desc>
    <defs></defs>
    <g id="Page-1" stroke="none" stroke-width="1" fill="none" fill-rule="evenodd" sketch:type="MSPage">
        <g id="Artboard-3" sketch:type="MSArtboardGroup" transform="translate(-300.000000, -63.000000)" fill="#FFFFFF">
            <path d="M314.380769,96.9615385 C314.126923,96.7076923 314,96.3269231 314,96.0730769 C314,95.8192308 314.126923,95.4384615 314.380769,95.1846154 L316.157692,93.4076923 C316.665385,92.9 317.426923,92.9 317.934615,93.4076923 L318.061538,93.5346154 L325.042308,101.023077 C325.296154,101.276923 325.676923,101.276923 325.930769,101.023077 L342.938462,83.3807692 L343.065385,83.3807692 L343.065385,83.3807692 C343.573077,82.8730769 344.334615,82.8730769 344.842308,83.3807692 L346.619231,85.1576923 C347.126923,85.6653846 347.126923,86.4269231 346.619231,86.9346154 L346.619231,86.9346154 L326.311538,108.003846 C326.057692,108.257692 325.803846,108.384615 325.423077,108.384615 C325.042308,108.384615 324.788462,108.257692 324.534615,108.003846 L314.634615,97.3423077 L314.380769,96.9615385 L314.380769,96.9615385 Z" id="Shape" sketch:type="MSShapeGroup"></path>
        </g>
    </g>
</svg>