<?xml version="1.0" encoding="UTF-8" standalone="no"?>
<svg width="60px" height="60px" viewBox="0 0 60 60" version="1.1" xmlns="http://www.w3.org/2000/svg" xmlns:xlink="http://www.w3.org/1999/xlink" xmlns:sketch="http://www.bohemiancoding.com/sketch/ns">
    <!-- Generator: Sketch 3.4.4 (17249) - http://www.bohemiancoding.com/sketch -->
    <title>effect-phase</title>
    <desc>Created with Sketch.</desc>
    <defs></defs>
    <g id="Page-1" stroke="none" stroke-width="1" fill="none" fill-rule="evenodd" sketch:type="MSPage">
        <g id="Artboard-3" sketch:type="MSArtboardGroup" transform="translate(-240.000000, -63.000000)" fill="#FFFFFF">
            <g id="effect-phase" sketch:type="MSLayerGroup" transform="translate(252.000000, 78.000000)">
                <path d="M9.89785005,22.277167 C10.2433701,22.0778503 10.3616485,21.6354577 10.1623535,21.2899001 C9.96277617,20.9446249 9.52071382,20.8260513 9.1751938,21.0253679 C8.82967379,21.2249669 8.71111299,21.6673596 8.91069034,22.0126348 C9.10998535,22.3581923 9.55233004,22.476766 9.89785005,22.277167 L9.89785005,22.277167 Z" id="Shape" sketch:type="MSShapeGroup"></path>
                <path d="M6.93637085,27.2654478 L10.5756226,33.5698962 C11.3609467,34.9317994 13.1275024,35.4360198 14.5245437,34.6283073 C15.9069062,33.8293467 16.3819961,32.0628815 15.5822754,30.6792398 L13.4143066,26.9232781 L15.2918015,25.8391761 C15.6373215,25.6392948 15.7558823,25.1974668 15.5563049,24.8519093 L14.6165695,23.2240624 C14.7286377,23.2023238 15.4654083,23.0577769 28.4582596,20.5087256 C30.064476,20.4214893 31.0267944,18.6646229 30.2154999,17.2600897 L27.813797,13.0998482 L29.3485947,10.7749576 C29.4993362,10.5462798 29.5083694,10.2523866 29.37146,10.0152393 L27.9261475,7.51164119 C27.789238,7.27449388 27.5292511,7.13559331 27.2568435,7.15168543 L24.476593,7.31853552 L21.8103867,2.69980926 C21.4242172,2.03071502 20.7323303,1.62558841 19.9599915,1.61598956 C19.950676,1.61570725 19.9416428,1.61570725 19.9323272,1.61570725 C19.1859589,1.61570725 18.5084687,1.98723805 18.1070557,2.61539609 L8.66679386,14.6427173 L2.52957914,18.1863758 C0.115737879,19.5796163 -0.720397949,22.6766473 0.678054773,25.0972438 C1.95568848,27.3106187 4.64927677,28.1812881 6.93637085,27.2654478 L6.93637085,27.2654478 Z M14.3308945,31.4022569 C14.7300491,32.0928072 14.4937744,32.9764633 13.801323,33.3765083 C13.1066132,33.7782471 12.2219238,33.5315009 11.8272857,32.8474439 L8.21400448,26.5876017 L10.717331,25.1421324 C14.8991394,32.3869829 14.26371,31.2862241 14.3308945,31.4022569 L14.3308945,31.4022569 Z M12.6916504,25.6711967 L11.9689941,24.4193977 L13.2206573,23.696663 L13.9433136,24.9484621 L12.6916504,25.6711967 Z M26.8977737,8.62115181 L27.8965073,10.3511979 L27.0058899,11.7001145 L25.2845001,8.71798698 L26.8977737,8.62115181 Z M19.3158111,3.40786339 C19.5097427,3.09053769 19.8174362,3.05778878 19.9422073,3.0611766 C20.065567,3.06258817 20.3729782,3.10098345 20.5584412,3.42226156 L28.9638367,17.9828244 C29.2376557,18.4568367 28.9048386,19.0528105 28.3557891,19.0663618 C28.2572708,19.0686203 28.2118225,19.0864064 27.9594574,19.1335535 L19.0682449,3.73168234 C19.254837,3.49171188 19.2788315,3.46856182 19.3158111,3.40786339 L19.3158111,3.40786339 Z M18.1064911,4.95694354 L26.460228,19.4277291 L13.8526993,21.9008368 L10.0192337,15.2604297 L18.1064911,4.95694354 Z M1.92971802,24.3745091 C1.61242676,23.8254002 1.44474796,23.2020415 1.44474796,22.5713426 C1.44474796,21.2822775 2.13748169,20.0818604 3.25223539,19.4381749 L8.88471981,16.1858688 L12.4980011,22.444864 L6.86551664,25.6974524 C5.13989258,26.6934711 2.92591093,26.1000381 1.92971802,24.3745091 L1.92971802,24.3745091 Z" id="Shape" sketch:type="MSShapeGroup"></path>
                <path d="M7.6590271,22.7353695 C7.45944975,22.389812 7.01738741,22.2712383 6.67186739,22.4708373 L5.42020414,23.1935719 C5.07524874,23.3928886 4.63233944,23.2740327 4.43304443,22.9290398 C4.23346708,22.5834822 3.79140474,22.4649086 3.44588472,22.6645076 C3.1003647,22.8641066 2.98180391,23.3062169 3.18138126,23.6517744 C3.77616118,24.682236 5.10291288,25.0455795 6.14286039,24.445371 L7.39452364,23.7226363 C7.74004366,23.5230373 7.85860445,23.0812093 7.6590271,22.7353695 L7.6590271,22.7353695 Z" id="Shape" sketch:type="MSShapeGroup"></path>
                <path d="M35.9258957,3.16168189 L31.8990631,5.40272397 C31.5504379,5.59695891 31.4248199,6.03709305 31.6190338,6.38575609 C31.8126831,6.73413675 32.2524872,6.86033302 32.6019592,6.66581577 L36.6285095,4.42477362 C36.977417,4.23053868 37.1027527,3.79040454 36.9085388,3.44174157 C36.7146072,3.09279624 36.2745209,2.96744695 35.9258957,3.16168189 L35.9258957,3.16168189 Z" id="Shape" sketch:type="MSShapeGroup"></path>
                <path d="M35.5035935,10.6470674 L32.7114868,9.89892416 C32.3258819,9.79559565 31.9295502,10.0242735 31.8262329,10.4099201 C31.7229156,10.7955669 31.9518509,11.1916593 32.3374558,11.2949878 L35.1298447,12.0431311 C35.5177078,12.1473065 35.9120636,11.9149586 36.0148163,11.5321351 C36.1181335,11.1464884 35.8891983,10.7501136 35.5035935,10.6470674 L35.5035935,10.6470674 Z" id="Shape" sketch:type="MSShapeGroup"></path>
                <path d="M28.4870529,0.535839967 L27.738144,3.32853198 C27.6348267,3.71417865 27.8634796,4.11027115 28.2490845,4.21388195 C28.634407,4.31692809 29.0307388,4.08881496 29.1343384,3.70288592 L29.8829651,0.910193977 C29.9862823,0.524547237 29.7576294,0.128172513 29.3720245,0.0248440043 C28.9867019,-0.0784845044 28.5903702,0.150193299 28.4870529,0.535839967 L28.4870529,0.535839967 Z" id="Shape" sketch:type="MSShapeGroup"></path>
            </g>
        </g>
    </g>
</svg>