<svg
	xmlns="http://www.w3.org/2000/svg"
	version="1.1"
	viewBox="0 0 178.7 41.84"
	width="178.7"
	height="41.84"
	alt="Demokraatia töövihik"
>
 <g id="logo-svg-group" transform="translate(0)">
  <path d="m0 24.78v3.333h4.819v12.55h3.887v-12.55h4.819v-3.333z" fill="currentColor"/>
  <g>
   <g clip-path="url(#clip-path)" fill="currentColor">
    <path d="m22.43 24.52a8.032 8.032 0 0 0-8.306 8.106 8.13 8.13 0 0 0 8.306 8.307 8.13 8.13 0 0 0 8.307-8.307 8.032 8.032 0 0 0-8.307-8.106m0 12.86a4.479 4.479 0 0 1-4.286-4.753 4.294 4.294 0 1 1 8.573 0 4.479 4.479 0 0 1-4.287 4.753"/>
    <path d="M57.106,33.825c-.311,1-.6,2.554-.6,2.554h-.044s-.289-1.555-.6-2.554l-2.8-9.04h-4.22l5.619,15.88h4.042l5.6-15.88H59.948Z"/>
    <path d="m40.53 24.52a8.032 8.032 0 0 0-8.306 8.106 8.306 8.306 0 1 0 16.61 0 8.032 8.032 0 0 0-8.306-8.106m0 12.86a4.479 4.479 0 0 1-4.287-4.753 4.294 4.294 0 1 1 8.573 0 4.479 4.479 0 0 1-4.286 4.753"/>
    <rect transform="translate(18.72 20.43)" width="2.798" height="3.109"/>
    <rect transform="translate(36.82 20.43)" width="2.798" height="3.109"/>
    <rect transform="translate(23.36 20.43)" width="2.798" height="3.109"/>
    <rect transform="translate(41.46 20.43)" width="2.798" height="3.109"/>
    <rect transform="translate(90.06 24.79)" width="3.887" height="15.88"/>
    <rect transform="translate(65.66 24.79)" width="3.887" height="15.88"/>
    <path d="m106.1 32.38 4.286-7.6h-4.175l-3.287 6.13h-1.6v-6.13h-3.887v15.88h3.887v-6.437h1.6l3.354 6.441h4.353l-4.531-8.24z"/>
    <path d="M82.672,31.137H76.9V24.785H73.011v15.88H76.9V34.446h5.774v6.219h3.887V24.785H82.672Z"/>
    <path d="M103.063,1.052l-5.4,15.88h4l.955-3.331h4.953l.977,3.331h4l-5.4-15.88Zm.466,9.439L104.44,7.4c.288-1,.644-2.732.644-2.732h.044s.355,1.733.644,2.732l.888,3.087Z"/>
    <path d="M118.58,1.052l-5.4,15.88h4l.955-3.331h4.952l.978,3.331h4l-5.4-15.88Zm.466,9.439.911-3.087c.289-1,.644-2.732.644-2.732h.044s.356,1.733.644,2.732l.889,3.087Z"/>
    <path d="M35.025,9.781a23.588,23.588,0,0,0,0-2.665h.045s.533,1.665.888,2.665l1.666,4.6h3.331l1.666-4.6c.355-1,.888-2.665.888-2.665h.044a23.855,23.855,0,0,0,0,2.665l.489,7.151h3.887L46.641,1.052h-4.22L40.111,7.76c-.355,1.021-.8,2.62-.8,2.62h-.044s-.444-1.6-.8-2.62l-2.31-6.708h-4.22l-1.31,15.88h3.908Z"/>
    <path d="M152.264,13.6h4.952l.978,3.331h4l-5.4-15.88h-4.086l-5.4,15.88h4Zm1.821-6.2c.289-1,.644-2.732.644-2.732h.044s.356,1.733.645,2.732l.888,3.087h-3.132Z"/>
    <rect transform="translate(141.9 1.052)" width="3.887" height="15.88"/>
    <path d="m58.08 17.2a8.13 8.13 0 0 0 8.306-8.307 8.309 8.309 0 0 0-16.61 0 8.131 8.131 0 0 0 8.307 8.307m0-12.86a4.368 4.368 0 0 1 4.286 4.553 4.309 4.309 0 1 1-8.573 0 4.368 4.368 0 0 1 4.287-4.553"/>
    <path d="M93.057,10.425V10.38a4.834,4.834,0,0,0,2.377-4.331A4.616,4.616,0,0,0,92.5,1.43a8.2,8.2,0,0,0-3.087-.378h-5.53v15.88h3.887V11.58h1.821l2.82,5.352h4.331L93.657,11.38a9.044,9.044,0,0,0-.6-.955m-3.6-2.177H87.772V4.384h1.31c1.954,0,2.4.71,2.4,1.91a1.818,1.818,0,0,1-2.022,1.954"/>
    <path d="M77.749,16.932H82.1l-4.531-8.24V8.648l4.287-7.6H77.682L74.4,7.182H72.8V1.052H68.91v15.88H72.8V10.491h1.6Z"/>
    <path d="M15.612,8.959c0-5-3.2-7.907-8.2-7.907H1.776v15.88H7.417c5,0,8.2-2.976,8.2-7.973M5.663,13.6V4.384h1.6c2.62,0,4.33,1.554,4.33,4.575,0,3.043-1.643,4.642-4.33,4.642Z"/>
    <path d="M28.438,13.6H22.064v-3h4.841V7.271H22.064V4.384h6.063V1.052h-9.95v15.88H28.438Z"/>
    <path d="m135.4 16.93v-12.55h4.819v-3.332h-13.52v3.332h4.819v12.55z"/>
    <path d="M160.9,38.674a5.725,5.725,0,0,0-1.018.78,5.758,5.758,0,0,1-.632.518,2.409,2.409,0,0,1-2.455.126,2.5,2.5,0,0,1-1.26-1.63,4.275,4.275,0,0,0,.274-2.172.7.7,0,0,0-.581-.6.715.715,0,0,0-.745.375,3.939,3.939,0,0,0-.4,2.2,3.83,3.83,0,0,1-.462.682,4.135,4.135,0,0,1-2.914,1.471,5.305,5.305,0,0,1-3.092-.96,8.214,8.214,0,0,0,1.543-2.707,6.114,6.114,0,0,0,.262-3.565A3.463,3.463,0,0,0,146.7,30.6a.748.748,0,0,0-.116-.012,3.5,3.5,0,0,0-3.5,3.021,6.169,6.169,0,0,0,1.117,4.314,9.673,9.673,0,0,0,1.266,1.587,3.307,3.307,0,0,1-2.295.6,5.017,5.017,0,0,1-2.3-1.087,10.477,10.477,0,0,1-4.055-7.252,9.4,9.4,0,0,1,2.912-7.669c1.483-1.337,3.874-2.139,5.574-1.089a.7.7,0,0,0,.741-1.2c-2.4-1.484-5.445-.4-7.266,1.249a10.83,10.83,0,0,0-3.363,8.842,11.881,11.881,0,0,0,4.581,8.219,6.4,6.4,0,0,0,2.959,1.375,4.835,4.835,0,0,0,3.619-1.049,6.894,6.894,0,0,0,4,1.381c.061,0,.123,0,.184,0a5.506,5.506,0,0,0,3.887-1.9,3.83,3.83,0,0,0,5.4,1.216,6.96,6.96,0,0,0,.792-.642,4.783,4.783,0,0,1,.821-.633.676.676,0,0,1,.9.121.7.7,0,1,0,1.067-.918,2.064,2.064,0,0,0-2.706-.4m-14.38-.11a8.48,8.48,0,0,1-1.16-1.435,4.783,4.783,0,0,1-.883-3.337A2.1,2.1,0,0,1,146.5,32a2.047,2.047,0,0,1,1.544,1.517,4.726,4.726,0,0,1-.213,2.765,6.936,6.936,0,0,1-1.31,2.287"/>
    <path d="M175.328,6.281l-5.143-.933a.7.7,0,0,0-.818.567l-4.791,26.47a.717.717,0,0,0,0,.273l1.436,6.735a.7.7,0,0,0,.563.546.672.672,0,0,0,.126.012.7.7,0,0,0,.593-.326l3.707-5.8a.7.7,0,0,0,.1-.253L175.9,7.1a.7.7,0,0,0-.568-.818m-5.584,26.9-2.708,4.239-1.05-4.922,4.641-25.64,3.758.681Z"/>
    <path d="M170.948,1.395l5.067.919a.691.691,0,0,0,.127.012.7.7,0,0,0,.124-1.4L171.2.009a.712.712,0,0,0-.818.568.7.7,0,0,0,.567.818"/>
    <path d="M178.119,6.9a.7.7,0,0,0-.817.569l-1.71,9.546a.7.7,0,0,0,.569.817.66.66,0,0,0,.125.011.7.7,0,0,0,.692-.58l1.71-9.546a.7.7,0,0,0-.569-.817"/>
    <path d="M170.527,3.718l5.067.919a.691.691,0,0,0,.127.012.7.7,0,0,0,.124-1.4l-5.067-.92a.711.711,0,0,0-.818.568.7.7,0,0,0,.567.818"/>
   </g>
  </g>
 </g>
</svg>
