<svg width="60" height="60" viewBox="0 0 60 60" fill="none" xmlns="http://www.w3.org/2000/svg">
<g clip-path="url(#clip0_1016_434)">
<mask id="mask0_1016_434" style="mask-type:luminance" maskUnits="userSpaceOnUse" x="0" y="0" width="60" height="60">
<rect width="60" height="60" fill="white"/>
</mask>
<g mask="url(#mask0_1016_434)">
</g>
<path d="M27.3771 12.4783V15.5589" stroke="white" stroke-width="2" stroke-linecap="round"/>
<path d="M32.035 12.4783V15.5589" stroke="white" stroke-width="2" stroke-linecap="round"/>
<path d="M25.7878 17.9067C26.1987 18.5654 26.7755 19.1097 27.4629 19.4873C28.1504 19.865 28.9254 20.0633 29.7136 20.0633C30.5019 20.0633 31.2769 19.865 31.9643 19.4873C32.6518 19.1097 33.2286 18.5654 33.6394 17.9067" stroke="white" stroke-width="2" stroke-linecap="round"/>
<path d="M29.7136 23.1595C34.0006 23.1595 37.4759 19.7566 37.4759 15.5589C37.4759 11.3612 34.0006 7.95833 29.7136 7.95833C25.4266 7.95833 21.9513 11.3612 21.9513 15.5589C21.9513 19.7566 25.4266 23.1595 29.7136 23.1595Z" stroke="white" stroke-width="2" stroke-linecap="round"/>
<path d="M13.4058 26.8792V29.9598" stroke="white" stroke-width="2" stroke-linecap="round"/>
<path d="M18.0625 26.8792V29.9598" stroke="white" stroke-width="2" stroke-linecap="round"/>
<path d="M11.8158 32.3083C12.2266 32.967 12.8034 33.5113 13.4909 33.8889C14.1783 34.2666 14.9533 34.4649 15.7416 34.4649C16.5298 34.4649 17.3048 34.2666 17.9923 33.8889C18.6797 33.5113 19.2565 32.967 19.6674 32.3083" stroke="white" stroke-width="2" stroke-linecap="round"/>
<path d="M15.741 37.5603C20.028 37.5603 23.5033 34.1574 23.5033 29.9597C23.5033 25.762 20.028 22.3591 15.741 22.3591C11.4541 22.3591 7.97876 25.762 7.97876 29.9597C7.97876 34.1574 11.4541 37.5603 15.741 37.5603Z" stroke="white" stroke-width="2" stroke-linecap="round"/>
<path d="M27.3771 41.3606V44.4411" stroke="white" stroke-width="2" stroke-linecap="round"/>
<path d="M32.035 41.3606V44.4411" stroke="white" stroke-width="2" stroke-linecap="round"/>
<path d="M25.7878 46.7889C26.1987 47.4476 26.7755 47.9919 27.4629 48.3695C28.1504 48.7472 28.9254 48.9455 29.7136 48.9455C30.5019 48.9455 31.2769 48.7472 31.9643 48.3695C32.6518 47.9919 33.2286 47.4476 33.6394 46.7889" stroke="white" stroke-width="2" stroke-linecap="round"/>
<path d="M29.7136 52.0417C34.0006 52.0417 37.4759 48.6388 37.4759 44.4411C37.4759 40.2434 34.0006 36.8405 29.7136 36.8405C25.4266 36.8405 21.9513 40.2434 21.9513 44.4411C21.9513 48.6388 25.4266 52.0417 29.7136 52.0417Z" stroke="white" stroke-width="2" stroke-linecap="round"/>
<path d="M41.3497 26.8792V29.9598" stroke="white" stroke-width="2" stroke-linecap="round"/>
<path d="M46.0066 26.8792V29.9598" stroke="white" stroke-width="2" stroke-linecap="round"/>
<path d="M39.7596 32.3083C40.1705 32.967 40.7473 33.5113 41.4347 33.8889C42.1222 34.2666 42.8972 34.4649 43.6854 34.4649C44.4737 34.4649 45.2487 34.2666 45.9361 33.8889C46.6236 33.5113 47.2004 32.967 47.6112 32.3083" stroke="white" stroke-width="2" stroke-linecap="round"/>
<path d="M43.6849 37.5603C47.9719 37.5603 51.4472 34.1574 51.4472 29.9597C51.4472 25.762 47.9719 22.3591 43.6849 22.3591C39.3979 22.3591 35.9226 25.762 35.9226 29.9597C35.9226 34.1574 39.3979 37.5603 43.6849 37.5603Z" stroke="white" stroke-width="2" stroke-linecap="round"/>
</g>
<defs>
<clipPath id="clip0_1016_434">
<rect width="60" height="60" fill="white"/>
</clipPath>
</defs>
</svg>
