<?xml version="1.0" encoding="UTF-8" standalone="no"?>
<svg width="60px" height="60px" viewBox="0 0 60 60" version="1.1" xmlns="http://www.w3.org/2000/svg" xmlns:xlink="http://www.w3.org/1999/xlink" xmlns:sketch="http://www.bohemiancoding.com/sketch/ns">
    <!-- Generator: Sketch 3.4.4 (17249) - http://www.bohemiancoding.com/sketch -->
    <title>edit-phase</title>
    <desc>Created with Sketch.</desc>
    <defs>
        <rect id="path-1" x="0" y="0" width="60" height="60"></rect>
    </defs>
    <g id="Page-1" stroke="none" stroke-width="1" fill="none" fill-rule="evenodd" sketch:type="MSPage">
        <g id="Artboard-3" sketch:type="MSArtboardGroup" transform="translate(0.000000, -63.000000)">
            <g id="edit-phase" sketch:type="MSLayerGroup" transform="translate(0.000000, 63.000000)">
                <mask id="mask-2" sketch:name="Mask" fill="white">
                    <use xlink:href="#path-1"></use>
                </mask>
                <use id="Mask" sketch:type="MSShapeGroup" xlink:href="#path-1"></use>
                <path d="M36.6317239,44.2524989 C35.9649796,43.9821525 34.9053325,43.6995175 34.5719604,43.2694208 C34.2266822,42.8516126 34.2266822,39.816359 34.2266822,39.816359 C34.2266822,39.816359 35.0601125,39.0176081 35.4053907,38.1205493 C35.750669,37.2234906 35.9768858,34.7903723 35.9768858,34.7903723 C35.9768858,34.7903723 36.0483227,34.8149492 36.155478,34.8149492 C36.4055071,34.8149492 36.8579406,34.6429106 37.0722513,33.5123708 C37.3341865,32.123773 37.8342447,31.3987529 37.7032771,30.3788093 C37.6080279,29.6906547 37.3222804,29.5800584 37.1555943,29.5800584 C37.0722513,29.5800584 37.0127206,29.6046354 37.0127206,29.6046354 C37.0127206,29.6046354 37.6913709,28.5724034 37.6913709,25.0578992 C37.6913709,21.4450872 34.9886756,17.8814291 30,17.8691406 C24.9994183,17.8814291 22.3086291,21.4450872 22.3086291,25.0578992 C22.3086291,28.5601149 22.9872794,29.6046354 22.9872794,29.6046354 C22.9872794,29.6046354 22.9277487,29.5800584 22.8444057,29.5800584 C22.6658135,29.5800584 22.3800659,29.6906547 22.2967229,30.3788093 C22.1657553,31.3987529 22.6539073,32.1360614 22.9277487,33.5123708 C23.1420594,34.6429106 23.5944929,34.8149492 23.844522,34.8149492 C23.9516773,34.8149492 24.0231142,34.7903723 24.0231142,34.7903723 C24.0231142,34.7903723 24.249331,37.235779 24.5946093,38.1205493 C24.9398875,39.0176081 25.7733178,39.816359 25.7733178,39.816359 C25.7733178,39.816359 25.7733178,42.8516126 25.4280396,43.2694208 C25.0827613,43.687229 24.0350204,43.9821525 23.3682761,44.2524989 C22.4157844,44.6334417 20.2369595,44.7809034 18.903471,45.260154 C17.5699826,45.7394045 13.4504557,64.6010451 13.4504557,70.1308594 L46.5495443,70.1308594 C46.5495443,64.6010451 42.4419236,45.7394045 41.096529,45.260154 C39.7630405,44.7809034 37.5842156,44.6334417 36.6317239,44.2524989 Z" id="Shape" fill="#FFFFFF" sketch:type="MSShapeGroup" mask="url(#mask-2)"></path>
                <path d="M19.6469166,42.1771618 C19.6469166,42.1771618 20.0855087,41.4150118 18.6427714,41.1445714 C18.6427714,41.1445714 16.6691066,40.6159835 16.4382687,40.3209576 C16.2074307,40.0259318 16.3459335,38.390997 16.3459335,38.390997 C16.3459335,38.390997 19.1044473,38.292655 20.2009277,37.2600646 C18.4119334,34.4081483 19.369911,31.0768149 19.0005702,27.9667509 C18.6427714,24.8689797 16.8999446,22.9267263 13.5643358,22.9267263 C13.5527939,22.9267263 13.5643358,22.9267263 13.4489168,22.9267263 C10.2171851,22.9267263 8.55515163,24.8689797 8.18581086,27.9790437 C7.81647009,31.0891077 8.8783248,34.7892233 7.04316285,37.2846501 C8.07039187,38.2557768 10.6096097,38.3049478 10.8981571,38.3049478 C10.9327828,38.292655 11.0482018,40.0382245 10.8173638,40.3332504 C10.5865259,40.6282762 9.90555381,40.8987166 9.44387785,41.0093512 C8.42819074,41.2429134 7.35479413,41.6239884 6.4660679,41.9558925 C5.57734168,42.2755038 3.86914062,61.0517906 3.86914062,63.3874118 L10.7335949,63.5652175 C10.9875167,62.5817981 15.1224922,43.7506329 16.8076094,42.8409699 C17.8463803,42.2877965 18.8620674,42.2877965 19.6469166,42.1771618 Z" id="Shape" fill="#FFFFFF" sketch:type="MSShapeGroup" mask="url(#mask-2)"></path>
                <path d="M50.3094704,61.9435633 L56.1308594,63.3874118 C56.1308594,61.0517906 54.4238647,42.2755038 53.5357661,41.9435997 C52.6476675,41.6116956 51.5634952,41.2306206 50.5600591,40.9970585 C50.0871754,40.8864238 49.4182181,40.6159835 49.1875431,40.3209576 C48.9568681,40.0259318 49.0722056,38.2803623 49.0722056,38.2803623 C49.3951506,38.292655 51.9441089,38.2557768 52.9706124,37.2723574 C51.1367465,34.7769305 52.1863176,31.0768149 51.8172376,27.9667509 C51.4481577,24.8689797 49.787298,22.9267263 46.5578486,22.9267263 L46.4425111,22.9267263 C43.1092579,22.9267263 41.3561282,24.8689797 40.9985821,27.9790437 C40.6295021,31.0891077 41.5868032,34.420441 39.7990723,37.2723574 C40.8947783,38.3049478 43.6513441,38.4032897 43.6513441,38.4032897 C43.6513441,38.4032897 43.7897491,40.0382245 43.5590741,40.3332504 C43.3283991,40.6282762 41.3561282,41.1568642 41.3561282,41.1568642 C39.9144097,41.4273045 40.3526922,42.1894546 40.3526922,42.1894546 C41.136987,42.3000893 42.1634906,42.3000893 43.1899942,42.8532627 C44.8854551,43.7506329 46.6270511,45.5453734 46.8807935,46.5287928 L50.3094704,61.9435633 Z" id="Shape" fill="#FFFFFF" sketch:type="MSShapeGroup" mask="url(#mask-2)"></path>
            </g>
        </g>
    </g>
</svg>