<?xml version="1.0" encoding="UTF-8" standalone="no"?>
<svg width="60px" height="60px" viewBox="0 0 60 60" version="1.1" xmlns="http://www.w3.org/2000/svg" xmlns:xlink="http://www.w3.org/1999/xlink" xmlns:sketch="http://www.bohemiancoding.com/sketch/ns">
    <!-- Generator: Sketch 3.4.4 (17249) - http://www.bohemiancoding.com/sketch -->
    <title>edit-phase</title>
    <desc>Created with Sketch.</desc>
    <defs>
        <rect id="path-1" x="0" y="0" width="60" height="60"></rect>
    </defs>
    <g id="Page-1" stroke="none" stroke-width="1" fill="none" fill-rule="evenodd" sketch:type="MSPage">
        <g id="Artboard-3" sketch:type="MSArtboardGroup" transform="translate(0.000000, -63.000000)">
            <g id="edit-phase" sketch:type="MSLayerGroup" transform="translate(0.000000, 63.000000)">
                <mask id="mask-2" sketch:name="Mask" fill="white">
                    <use xlink:href="#path-1"></use>
                </mask>
                <use id="Mask" sketch:type="MSShapeGroup" xlink:href="#path-1"></use>
                <g id="People-Icon" mask="url(#mask-2)" fill="#FFFFFF" sketch:type="MSShapeGroup">
                    <g transform="translate(7.000000, 17.000000)" id="Shape">
                        <path d="M28.5569196,21.6346021 C27.9944196,21.4138408 27.1004464,21.183045 26.8191964,20.8318339 C26.5279018,20.4906574 26.5279018,18.0121107 26.5279018,18.0121107 C26.5279018,18.0121107 27.2310268,17.3598616 27.5223214,16.6273356 C27.8136161,15.8948097 28.0044643,13.9079585 28.0044643,13.9079585 C28.0044643,13.9079585 28.0647321,13.9280277 28.1551339,13.9280277 C28.3660714,13.9280277 28.7477679,13.7875433 28.9285714,12.8643599 C29.1495536,11.7304498 29.5714286,11.1384083 29.4609375,10.3055363 C29.3805804,9.74359862 29.1395089,9.6532872 28.9988839,9.6532872 C28.9285714,9.6532872 28.8783482,9.6733564 28.8783482,9.6733564 C28.8783482,9.6733564 29.4508929,8.83044983 29.4508929,5.96055363 C29.4508929,3.01038062 27.1707589,0.100346021 22.9620536,0.0903114187 C18.7433036,0.100346021 16.4732143,3.01038062 16.4732143,5.96055363 C16.4732143,8.82041522 17.0457589,9.6733564 17.0457589,9.6733564 C17.0457589,9.6733564 16.9955357,9.6532872 16.9252232,9.6532872 C16.7745536,9.6532872 16.5334821,9.74359862 16.4631696,10.3055363 C16.3526786,11.1384083 16.7645089,11.7404844 16.9955357,12.8643599 C17.1763393,13.7875433 17.5580357,13.9280277 17.7689732,13.9280277 C17.859375,13.9280277 17.9196429,13.9079585 17.9196429,13.9079585 C17.9196429,13.9079585 18.1104911,15.9048443 18.4017857,16.6273356 C18.6930804,17.3598616 19.3962054,18.0121107 19.3962054,18.0121107 C19.3962054,18.0121107 19.3962054,20.4906574 19.1049107,20.8318339 C18.8136161,21.1730104 17.9296875,21.4138408 17.3671875,21.6346021 C16.5636161,21.9456747 14.7254464,22.06609 13.6004464,22.4574394 C12.4754464,22.8487889 9,24.4844291 9,29 C9,30.6049808 36.9241219,30.3916019 36.9241071,29 C36.9240594,24.4844291 33.4587054,22.8487889 32.3236607,22.4574394 C31.1986607,22.06609 29.3604911,21.9456747 28.5569196,21.6346021 Z"></path>
                        <path d="M11.2600446,22.1730104 C12.1640625,21.7214533 13.0479911,21.7214533 13.7310268,21.6311419 C13.7310268,21.6311419 14.1127232,21.0089965 12.8571429,20.7882353 C12.8571429,20.7882353 11.1395089,20.3567474 10.9386161,20.115917 C10.7377232,19.8750865 10.8582589,18.5404844 10.8582589,18.5404844 C10.8582589,18.5404844 13.2589286,18.4602076 14.2131696,17.617301 C12.65625,15.2892734 13.4899554,12.5698962 13.1685268,10.0311419 C12.8571429,7.50242215 11.3404018,5.91695502 8.4375,5.91695502 C8.42745536,5.91695502 8.4375,5.91695502 8.33705357,5.91695502 L8.33705357,5.91695502 C5.52455357,5.91695502 4.078125,7.50242215 3.75669643,10.0411765 C3.43526786,12.5799308 4.359375,15.600346 2.76227679,17.6373702 C3.65625,18.4301038 5.86607143,18.4702422 6.1171875,18.4702422 L6.13727679,18.4702422 L6.14732143,18.4602076 C6.14732143,18.4602076 6.24776786,19.8851211 6.046875,20.1259516 C5.84598214,20.366782 5.25334821,20.5875433 4.8515625,20.6778547 C3.96763393,20.8685121 3.03348214,21.1795848 2.26004464,21.450519 C1.48660714,21.7114187 0,23.2768166 0,25.183391 L8.05580357,25.183391 C8.27678571,24.3806228 9.79352679,22.9155709 11.2600446,22.1730104 L11.2600446,22.1730104 Z"></path>
                        <path d="M46.2232143,25.183391 C46.2232143,23.2768166 44.7366071,21.7114187 43.9631696,21.4404844 C43.1897321,21.1695502 42.2455357,20.8584775 41.3716518,20.6678201 C40.9598214,20.5775087 40.3772321,20.3567474 40.1763393,20.115917 C39.9754464,19.8750865 40.0758929,18.450173 40.0758929,18.450173 C40.3571429,18.4602076 42.5770089,18.4301038 43.4709821,17.6273356 C41.8738839,15.5903114 42.7879464,12.5698962 42.4665179,10.0311419 C42.1450893,7.50242215 40.6986607,5.91695502 37.8861607,5.91695502 L37.7857143,5.91695502 C34.8828125,5.91695502 33.3560268,7.50242215 33.0446429,10.0411765 C32.7232143,12.5799308 33.5569196,15.299308 32,17.6273356 C32.9542411,18.4702422 35.3549107,18.550519 35.3549107,18.550519 C35.3549107,18.550519 35.4754464,19.8851211 35.2745536,20.1259516 C35.0736607,20.366782 33.3560268,20.7982699 33.3560268,20.7982699 C32.1004464,21.0190311 32.4821429,21.6411765 32.4821429,21.6411765 C33.1651786,21.7314879 34.0591518,21.7314879 34.953125,22.183045 C36.4296875,22.9155709 37.9464286,24.3806228 38.1674107,25.183391 L46.2232143,25.183391 Z"></path>
                    </g>
                </g>
            </g>
        </g>
    </g>
</svg>