<svg width="827" height="168" viewBox="0 0 827 168" fill="none" xmlns="http://www.w3.org/2000/svg">
<g clip-path="url(#clip0_322_210)">
<path d="M204.952 70.5156C210.11 77.8605 212.128 85.3305 209.46 87.199C206.792 89.0689 200.446 84.6301 195.288 77.2852C190.13 69.939 188.112 62.4703 190.78 60.6004C193.449 58.7319 199.794 63.1707 204.952 70.5156Z" fill="#182440"/>
<path d="M270.961 146.125C270.219 145.619 271.746 146.552 270.961 146.125C266.472 143.677 278.426 146.612 273.949 144.141C268.128 140.929 262.322 137.687 256.51 134.457C256.57 132.985 256.991 131.573 257.236 130.132C257.704 127.38 258.223 124.637 258.723 121.89C258.833 121.282 258.968 120.678 259.063 120.068C259.165 119.408 259.51 119.03 260.109 118.682C262.759 117.14 264.848 115.074 265.769 112.052C266.232 110.535 266.358 108.991 265.87 107.445C265.654 106.76 265.196 106.256 264.611 105.858C264.59 105.608 264.543 105.356 264.551 105.107C264.658 102.08 264.812 99.0624 264.613 96.0244C264.377 92.4097 263.238 89.2697 260.597 86.7321C259.37 85.5544 258.162 84.3549 256.927 83.1854C255.09 81.4447 253.146 79.836 250.986 78.5032C247.61 76.4212 243.954 75.1714 240.004 74.7771C237.768 74.554 235.561 74.6832 233.357 75.1347C232.315 75.3496 231.588 79.8564 230.567 80.1134C230.556 76.7965 225.859 92.3349 225.847 89.0167L226.371 107.086C226.371 107.086 220.104 119.355 223.512 118.045C226.533 116.885 223.045 123.544 223.045 132.038C223.045 146.703 231.919 164.22 231.919 164.22C231.919 164.737 269.658 151.165 269.138 151.158C266.859 151.124 274.394 151.158 272.113 151.158C272.022 150.59 265.768 146.662 265.877 146.125C266.607 142.502 270.218 149.745 270.961 146.125Z" fill="white"/>
<path d="M234.809 166.662C224.328 166.662 213.848 166.661 203.367 166.667C196.205 166.673 197.211 166.36 197.219 159.86C197.223 156.672 197.132 153.128 197.5 150.208C198.581 141.614 200.593 138.873 208.77 136.446C212.933 135.21 217.308 134.239 221.372 132.723C222.577 132.272 231.565 125.64 231.402 125.584" fill="#182440"/>
<path d="M272.132 155.064C270.924 156.228 267.371 164.636 265.876 164.636C256.262 164.636 262.15 161.525 252.103 169.907C250.531 167.334 258.002 131.297 258.261 131.245C265.861 135.467 273.45 139.71 281.081 143.881" fill="#182440"/>
<path d="M255.783 101.53C255.676 101.032 255.348 100.647 255.028 100.285C254.434 99.6135 253.857 98.9037 253.158 98.3543C250.646 96.3769 251.471 92.3475 253.301 90.7727C254.728 89.5434 256.393 88.8294 258.173 88.3222C258.631 88.193 259.094 88.0787 259.577 87.8353C259.106 87.77 258.637 87.6667 258.165 87.6436C254.1 87.4464 250.054 86.9745 245.971 87.0275C241.967 87.0806 237.973 87.1703 234.002 87.7619C232.59 87.9727 231.206 88.2841 229.828 88.654C228.97 88.8852 228.45 89.4074 228.131 90.2097C227.522 91.7464 227.359 93.3702 227.153 94.9871C227.13 95.1693 227.097 95.3502 227.055 95.5283C227.043 95.58 226.982 95.6195 226.873 95.7446C226.688 95.0755 226.758 94.469 226.723 93.8761C226.553 90.9332 226.788 88.0039 227.013 85.072C227.16 83.1477 227.235 81.2234 227.791 79.3563C228.332 77.5313 229.375 76.1183 231.076 75.2153C231.234 75.131 231.419 75.0671 231.497 74.8781C232.518 74.6197 233.484 74.1954 234.525 73.9819C236.73 73.5304 238.936 73.4012 241.171 73.6242C245.122 74.0186 248.779 75.2684 252.153 77.3504C254.314 78.6831 256.257 80.2919 258.094 82.0326C259.329 83.2021 260.537 84.4015 261.764 85.5792C264.407 88.1168 265.544 91.2569 265.781 94.8715C265.979 97.9096 265.826 100.927 265.719 103.953C265.71 104.203 265.758 104.455 265.779 104.705C264.619 104.712 263.488 104.845 262.447 105.416C261.078 106.17 260.331 107.41 259.761 108.796C259.194 110.175 258.603 111.543 258.045 112.924C257.848 113.411 257.567 113.653 257.009 113.598C256.554 113.551 256.09 113.611 255.63 113.615C255.177 113.618 254.972 113.448 255.195 112.98C255.902 111.503 256.384 109.949 256.708 108.35C257.009 106.856 257.042 105.347 256.786 103.837" fill="#182440"/>
<path d="M223.639 161.856C218.081 157.574 205.817 150.446 206.894 142.287C212.796 143.314 219.115 143.576 221.749 137.295C225.377 128.65 225.114 116.926 224.395 107.738C224.255 105.957 224.515 100.457 223.174 99.1273C222.291 98.2529 216.369 98.4147 214.723 97.9973C211.388 97.1527 204.775 95.5154 202.6 99.2497C201.617 100.94 202.362 103.471 201.954 105.363C201.506 107.442 200.514 109.252 199.034 110.793C195.811 114.144 194.109 115.581 193.484 120.5C191.631 119.718 187.811 114.129 185.949 118.48C184.676 121.454 189.03 123.804 188.854 126.187C188.773 127.301 186.713 128.368 185.78 128.831C182.999 130.211 182.976 129.502 182.654 132.799C182.255 136.877 181.319 141.175 179.904 145.035C173.935 161.323 154.136 160.031 141.24 167.509H232.58C229.601 165.624 226.62 163.741 223.639 161.856Z" fill="white"/>
<path d="M223.12 99.7783C216.592 99.6654 203.418 92.0445 202.198 102.389C201.724 106.398 201.048 108.956 197.943 111.789C194.98 114.491 193.996 116.469 193.483 120.501C191.469 119.649 189.409 115.425 186.74 117.429C183.913 119.55 187.977 123.121 188.343 125.122C188.708 127.121 188.464 126.639 187.068 127.967C186.516 128.493 183.715 130.259 182.839 129.819C182.384 129.59 180.964 124.655 180.746 124.103C180.003 122.221 179.209 120.357 178.38 118.511C175.259 111.571 169.213 104.265 171.913 96.2901C174.642 88.2258 180.328 92.3817 186.047 89.3614C188.66 87.981 189.401 84.841 191.457 82.8637C193.335 81.0577 195.723 79.9943 198.292 79.6448C204.822 78.7554 208.836 82.7413 214.137 85.5754C219.473 88.4285 227.071 82.8011 231.19 88.6012C232.706 90.7349 232.527 93.8137 231.239 96.0277C229.387 99.2085 226.453 99.3282 223.12 99.7783Z" fill="#182440"/>
<path d="M195.044 124.039C195.044 124.039 191.414 109.374 181.975 110.945C172.534 112.515 168.995 110.814 168.995 110.814C168.828 109.84 168.406 108.457 169.26 104.731C170.939 97.4149 172.206 89.5655 169.337 82.2301L166.143 73.3186C166.132 67.0371 151.599 57.8169 147.507 65.1659C145.736 68.3481 149.486 72.3286 149.341 75.5638C149.115 80.6825 145.481 80.9749 142.001 83.4799C133.429 89.6484 141.404 98.9271 145.986 105.838C150.03 111.937 158.523 111.225 165.259 106.82C163.354 109.435 162.402 111.169 159.281 112.118C154.876 113.458 151.738 109.715 147.56 110.356C152.724 128.467 126.467 121.366 117.315 127.997C108.744 134.209 101.724 143.868 94.178 151.293C91.1633 154.259 79.9732 161.123 80.2891 165.645C90.3668 165.7 100.628 167.104 110.669 165.715C118.929 164.573 126.626 159.404 133.843 165.877C137.31 168.986 140.137 178.92 143.64 180.608C145.324 181.42 150.1 180.088 151.979 179.937C161.5 179.173 171.019 178.407 180.54 177.642C183.215 177.427 194.769 178.22 196.736 176.256C199.486 173.513 198.271 157.762 198.596 153.851" fill="white"/>
<path d="M86.4032 157.536C91.8416 156.893 100.534 146.049 101.975 144.632C109.521 137.205 108.815 135.451 117.386 129.24C126.538 122.608 152.724 128.466 147.559 110.355C151.738 109.715 154.875 113.457 159.282 112.119C162.403 111.17 163.354 109.434 165.259 106.821C158.523 111.225 150.031 111.938 145.986 105.839C141.404 98.9263 133.429 89.649 142.001 83.4791C145.48 80.9741 149.114 80.6831 149.342 75.5644C149.486 72.3278 145.735 68.3487 147.507 65.1665C151.599 57.8161 166.132 67.0377 166.143 73.3191L169.337 82.2307C169.565 82.81 169.757 83.3947 169.934 83.9795C172.919 78.9913 176.346 71.5322 170.969 67.5137C169.017 66.0572 165.88 66.9819 164.163 65.8627C161.138 63.8895 162.748 63.0259 160.876 60.5835C155.755 53.8982 146.146 52.4458 138.549 56.38C128.973 61.3397 129.422 72.102 118.994 75.8119C110.506 78.8322 103.045 81.8417 105.258 92.8883C106.831 100.745 116.986 113.37 102.197 115.774C94.9775 116.948 91.361 113.288 84.0639 117.802C80.2213 120.178 77.4775 122.487 76.2602 127.086C73.5873 137.181 76.6115 158.095 86.4032 157.536Z" fill="#182440"/>
<path d="M182.892 96.3008C183.001 96.2424 183.105 96.1703 183.221 96.1268C188.918 93.9931 194.63 91.9056 200.423 90.0439C203.179 89.1586 205.919 88.1944 208.818 87.8422C209.274 87.7864 209.654 87.5403 209.978 87.2003C210.499 86.6495 210.596 85.9533 210.645 85.2543C210.786 83.2225 210.325 81.2738 209.644 79.3917C206.964 71.9829 202.72 65.6266 196.696 60.5038C195.404 59.405 193.993 58.4599 192.328 57.9866C190.844 57.5651 190.023 57.901 189.268 59.2364C188.958 59.7858 188.601 60.3039 188.22 60.8057C186.589 62.9626 184.814 65.0011 183.018 67.0192C177.819 72.86 172.48 78.5703 166.947 84.097C166.323 84.7212 165.927 85.4242 165.797 86.2987C165.757 86.5693 165.811 86.8766 165.612 87.116V89.6019C165.754 89.6767 165.716 89.8181 165.733 89.9364C166.154 92.7664 167.463 95.0987 169.763 96.8094C171.598 98.1748 173.656 99.0207 175.995 99.0166L182.892 96.3008ZM208.677 84.5593C208.498 85.888 207.566 86.4646 206.263 86.062C204.948 85.6541 203.849 84.8694 202.817 83.9977C199.192 80.9352 196.375 77.2158 194 73.1361C192.721 70.9371 191.665 68.6402 190.876 66.2236C190.417 64.8188 190.07 63.3896 190.187 61.895C190.242 61.1756 190.411 60.4902 191.188 60.1897C191.64 60.0156 192.103 60.0523 192.562 60.1842C193.909 60.5691 195.014 61.3701 196.068 62.2445C198.783 64.502 201.01 67.1878 202.995 70.0926C205.085 73.151 206.823 76.3876 207.987 79.9084C208.391 81.131 208.749 82.3808 208.683 83.6972C208.683 83.9855 208.717 84.2778 208.677 84.5593" fill="white"/>
<path d="M242.077 117.777C240.462 116.778 238.824 116.13 236.907 116.247C236.159 116.294 235.108 115.773 234.43 115.917C233.536 116.106 232.89 117.263 232.499 117.995C233.819 117.799 235.142 117.524 236.467 117.376C237.935 117.21 238.838 117.742 240.185 118.211C237.992 119.63 234.449 119.292 232.476 118.184C232.787 120.216 235.441 121.033 237.005 120.798C237.776 120.681 243.704 118.784 242.077 117.777Z" fill="#182440"/>
<path d="M219.668 131.197C218.496 130.299 217.503 131.043 216.039 130.678C215.134 131.114 214.209 131.579 213.267 132.006C212.129 132.524 212.065 133.19 212.823 134.135C214.825 136.629 218.994 136.159 220.365 133.279C220.83 132.305 220.484 131.821 219.668 131.197ZM218.406 133.247C217.721 134.687 215.636 134.923 214.635 133.676C214.256 133.202 214.288 132.869 214.857 132.611C215.327 132.397 215.79 132.165 216.244 131.947C216.975 132.129 217.472 131.758 218.057 132.206C218.466 132.518 218.639 132.76 218.406 133.247" fill="#182440"/>
<path d="M162.688 94.5564C160.605 95.8864 154.515 100.157 163.117 99.992C169.348 99.8736 168.254 92.0351 162.688 94.5564ZM163.058 98.545C158.655 98.6293 161.772 96.4426 162.839 95.7626C165.689 94.4707 166.247 98.4838 163.058 98.545Z" fill="#182440"/>
<path d="M221.131 73.4378C220.9 73.6934 220.615 73.7941 220.271 73.8254C217.887 74.0389 215.504 74.2687 213.12 74.489C212.845 74.5148 212.566 74.5148 212.289 74.5311C211.963 74.5502 211.75 74.3952 211.675 74.0892C211.598 73.7682 211.777 73.5534 212.055 73.4351C212.759 73.1345 213.47 72.8489 214.179 72.5593C215.988 71.8195 217.797 71.077 219.607 70.3399C220.25 70.0774 220.496 70.2066 220.673 70.8703C220.847 71.5257 220.877 72.2139 221.131 72.8503V73.4378Z" fill="#E62417"/>
<path d="M220.936 63.2913C220.928 63.6707 220.682 63.8651 220.379 64.0243C218.719 64.8973 217.062 65.7731 215.404 66.6462C214.061 67.352 212.719 68.055 211.376 68.7595C211.047 68.9322 210.731 68.9757 210.434 68.6874C210.189 68.4494 210.183 68.1611 210.296 67.8755C210.353 67.7314 210.477 67.6063 210.592 67.4934C213.002 65.1067 215.413 62.7201 217.83 60.3389C218.345 59.8316 218.79 59.882 219.203 60.4817C219.72 61.2337 220.23 61.9898 220.74 62.7459C220.85 62.9091 220.928 63.0886 220.936 63.2913Z" fill="#E62417"/>
<path d="M211.644 58.338C211.656 58.561 211.549 58.7242 211.422 58.8765C209.723 60.9191 208.019 62.9589 206.324 65.0043C206.087 65.2885 205.815 65.4489 205.476 65.2586C205.127 65.0627 205.145 64.7391 205.287 64.4032C206.33 61.9268 207.366 59.4476 208.413 56.974C208.677 56.347 208.982 56.2668 209.554 56.6408C210.142 57.0229 210.724 57.4146 211.31 57.7981C211.512 57.9313 211.67 58.0823 211.644 58.338Z" fill="#E62417"/>
<path d="M814.585 97.5483C806.381 116.569 803.09 136.604 802.664 157.159C802.359 171.885 803.781 186.464 808.044 200.637C811.2 211.127 815.562 221 824.09 228.409C834.941 237.836 841.259 249.6 843.218 263.864C846.723 289.372 831.812 314.499 807.65 323.448C797.37 327.255 787.065 327.899 776.637 323.998C772.202 322.341 767.661 320.965 763.224 319.311C752.915 315.473 743.199 316.946 734.305 322.999C727.912 327.349 721.791 332.143 715.84 337.086C697.125 352.625 675.364 360.841 651.538 364.203C638.547 366.036 625.552 365.636 612.633 363.579C600.106 361.582 588.031 357.954 576.586 352.452C546.322 337.902 524.662 315.067 511.145 284.437C506.25 273.346 500.147 263.029 491.269 254.608C478.268 242.274 463.043 237.16 445.291 241.306C433.885 243.97 424.484 250.259 416.025 258.19C401.076 272.206 383.276 280.249 362.899 282.066C340.09 284.099 319.289 278.024 301.547 263.677C272.82 240.451 260.23 210.601 268.193 173.833C272.676 153.133 284.481 136.594 301.393 123.902C320.547 109.526 342.097 103.064 366.104 105.577C379.695 107.001 392.139 111.681 403.518 119.165C412.47 125.054 421.808 130.171 432.083 133.326C458.126 141.324 482.297 138.173 503.545 120.336C518.319 107.935 526.826 91.5946 531.382 73.1039C536.493 52.357 547.682 35.8422 565.772 24.3672C581.398 14.4548 598.494 10.3166 616.993 13.2581C627.474 14.924 636.962 19.3791 646.409 23.9538C655.255 28.2389 663.918 33.1169 673.148 36.3535C694.216 43.7378 713.871 38.4288 727.615 22.6089C774 -22.0005 857.521 -2 814.585 97.5483Z" fill="#45A0E6"/>
<path d="M11.2217 166.269C14.8641 155.354 14.3739 143.668 15.5926 139.348C16.0501 135.074 17.9782 127.82 21.8861 124.861C24.3221 123.017 28.9068 122.244 31.8303 121.296C34.7442 120.353 37.7194 119.541 40.647 118.621C42.5274 118.031 45.5204 117.905 46.0024 116.163C46.3197 115.016 45.0874 112.083 44.924 110.884C44.3616 106.752 43.2546 98.4336 45.9942 94.6788C47.7603 92.2582 52.232 91.959 55.0547 91.6367C60.4073 91.0288 64.3452 92.2595 69.3752 93.0837C75.858 94.1444 79.4868 78.5883 75.7464 73.3146C75.7464 73.3146 74.4256 69.3586 68.9245 67.3813C68.9245 67.3813 65.2943 66.8319 59.9035 67.0522C56.0814 67.2072 52.5438 68.3835 50.0016 69.3586C47.4594 70.3337 45.1595 71.4474 45.1595 71.4474C45.1595 71.4474 34.3344 55.4453 47.3232 49.9472C52.861 47.6027 51.6519 55.4045 73.3253 54.526C78.343 54.322 87.5573 64.1637 85.3174 66.5028C82.8978 69.0295 88.9122 71.9968 88.6181 73.9742C88.4846 74.8717 86.7049 74.2203 86.8888 76.184C88.8169 76.1147 90.7 77.3726 91.9705 78.9501C94.3942 81.9609 93.4819 84.0661 92.0181 85.9427C91.0568 87.1748 90.0642 88.4695 89.3711 89.8702C89.5127 90.3067 89.6556 90.7908 89.7986 91.3498C92.1025 100.371 86.69 112.71 80.7205 119.375C75.794 124.876 68.3621 129.147 60.839 129.305C57.1543 129.382 53.5922 128.224 51.0119 125.481C50.1336 124.547 48.0571 119.743 47.2674 119.705C46.2393 119.658 45.7709 121.526 45.3066 122.175C45.3066 122.175 45.3066 127.449 50.8812 130.379C56.4558 133.309 68.4152 133.443 68.4152 133.443C68.4152 133.443 57.0495 183.783 48.742 189.916C40.4332 196.05 -7.72031 219.701 -6.99182 191.371" fill="#182440"/>
<path d="M61.3819 103.394C59.8228 102.43 58.2405 101.803 56.3887 101.917C55.667 101.96 54.6526 101.457 53.9962 101.596C53.133 101.78 52.5093 102.897 52.1321 103.605C53.4066 103.416 54.6852 103.15 55.9638 103.006C57.3813 102.846 58.2541 103.36 59.5532 103.813C57.4371 105.183 54.0139 104.856 52.1104 103.787C52.4099 105.749 54.9725 106.538 56.484 106.311C57.2274 106.198 62.9532 104.366 61.3819 103.394Z" fill="white"/>
</g>
<defs>
<clipPath id="clip0_322_210">
<rect width="827" height="168" fill="white"/>
</clipPath>
</defs>
</svg>
