<svg width="1200" height="350" viewBox="0 0 1200 350" fill="none" xmlns="http://www.w3.org/2000/svg">
<g clip-path="url(#clip0_331_62)">
<path d="M790.367 235.495H602.974C589.966 235.495 579.421 224.969 579.421 211.981V148.104C579.421 135.118 589.966 124.59 602.974 124.59H790.367C803.377 124.59 813.922 135.118 813.922 148.104V211.981C813.922 224.969 803.377 235.495 790.367 235.495Z" fill="#59B047"/>
<path d="M841.193 178.699C852.091 194.209 856.356 209.984 850.718 213.931C845.078 217.879 831.674 208.504 820.777 192.994C809.879 177.482 805.614 161.709 811.252 157.76C816.89 153.814 830.295 163.188 841.193 178.699Z" fill="#1B2543"/>
<path d="M434.427 241.498H528.23C539.325 241.498 548.318 232.518 548.318 221.444V68.3295C548.318 57.2535 539.325 48.2761 528.23 48.2761H434.427C423.334 48.2761 414.339 57.2535 414.339 68.3295V221.444C414.339 232.518 423.334 241.498 434.427 241.498Z" fill="#FFD400"/>
<path d="M468.595 233.66L485.214 256.886L440.897 238.084L468.595 233.66Z" fill="#FFD400"/>
<path d="M350.054 285.087H276.422C264.866 285.087 255.497 275.735 255.497 264.198V114.934C255.497 103.398 264.866 94.0454 276.422 94.0454H350.054C361.611 94.0454 370.982 103.398 370.982 114.934V264.198C370.982 275.735 361.611 285.087 350.054 285.087Z" fill="#3BBEEF"/>
<path d="M488.653 181.269C488.653 181.269 491.786 256.329 495.704 262.586C499.62 268.842 505.885 282.915 519.984 282.915C534.083 282.915 552.098 283.697 557.58 277.442C563.062 271.186 575.857 267.453 575.726 253.681C575.595 239.911 577.942 196.907 577.942 193.778C577.942 190.651 564.629 183.615 558.363 182.051C552.098 180.487 488.653 181.269 488.653 181.269Z" fill="white"/>
<path d="M1146.91 282.925H922.929C911.834 282.925 902.841 273.947 902.841 262.871V151.234C902.841 140.158 911.834 131.18 922.929 131.18H1146.91C1158.01 131.18 1167 140.158 1167 151.234V262.871C1167 273.947 1158.01 282.925 1146.91 282.925Z" fill="#E4261B"/>
<path d="M1020.57 346.466C1019.01 345.398 1020.76 343.83 1019.11 342.926C1009.62 337.758 1000.12 332.611 990.662 327.396C978.364 320.608 966.098 313.763 953.818 306.942C953.945 303.836 954.834 300.854 955.353 297.809C956.342 291.999 957.437 286.205 958.492 280.406C958.727 279.121 959.01 277.845 959.211 276.555C959.427 275.164 960.156 274.363 961.421 273.629C967.02 270.375 971.434 266.012 973.381 259.631C974.359 256.427 974.623 253.167 973.595 249.903C973.138 248.454 972.17 247.392 970.934 246.55C970.888 246.021 970.788 245.49 970.807 244.963C971.031 238.572 971.357 232.199 970.936 225.783C970.437 218.15 968.034 211.52 962.452 206.161C959.857 203.675 957.306 201.143 954.699 198.671C950.819 194.996 946.71 191.597 942.146 188.785C935.016 184.389 927.292 181.747 918.946 180.913C914.222 180.442 909.56 180.718 904.903 181.672C902.703 182.122 901.165 191.641 899.007 192.186C898.984 185.181 889.063 217.992 889.038 210.987L890.145 249.144C890.145 249.144 889.038 268.499 896.238 265.734C902.624 263.283 897.075 277.053 897.075 294.989C897.075 325.957 983.213 365.829 983.213 365.829C983.213 366.92 1010.9 365.844 1009.8 365.829C1004.98 365.759 1027.63 381.735 1022.81 381.735C1022.62 380.536 1023.12 379.445 1023.35 378.311C1024.89 370.663 1026.41 363.007 1027.98 355.363" fill="white"/>
<path d="M904.271 381.735C882.13 381.735 859.987 381.73 837.843 381.747C822.711 381.757 824.839 381.098 824.855 367.369C824.863 360.64 824.672 353.154 825.449 346.991C827.732 328.841 831.985 323.053 849.26 317.925C858.053 315.316 867.296 313.267 875.883 310.063C878.43 309.111 897.417 295.109 897.075 294.989" fill="#1B2543"/>
<path d="M953.819 306.943C969.875 315.862 985.908 324.821 1002.03 333.626C1012.51 339.356 1026.29 342.765 1027.97 355.363C1028.42 358.694 1025.12 379.515 1022.81 381.734C1020.26 384.193 1003.12 381.734 999.959 381.734H939.015C935.692 376.302 953.268 307.053 953.819 306.943Z" fill="#1B2543"/>
<path d="M949.816 239.845C949.59 238.792 948.896 237.981 948.217 237.215C946.964 235.799 945.745 234.298 944.27 233.138C938.962 228.964 940.705 220.453 944.573 217.127C947.587 214.533 951.104 213.023 954.864 211.955C955.832 211.679 956.811 211.441 957.829 210.926C956.836 210.785 955.845 210.57 954.85 210.52C946.262 210.103 937.711 209.108 929.086 209.22C920.625 209.329 912.189 209.52 903.801 210.769C900.815 211.215 897.89 211.874 894.98 212.656C893.167 213.141 892.068 214.244 891.395 215.941C890.109 219.186 889.762 222.612 889.33 226.03C889.28 226.411 889.211 226.795 889.122 227.172C889.097 227.278 888.966 227.363 888.738 227.626C888.345 226.216 888.493 224.935 888.42 223.682C888.058 217.467 888.557 211.283 889.033 205.089C889.346 201.026 889.502 196.962 890.674 193.019C891.818 189.168 894.027 186.182 897.616 184.276C897.949 184.098 898.341 183.961 898.507 183.561C900.664 183.017 902.702 182.124 904.904 181.672C909.559 180.718 914.221 180.442 918.947 180.915C927.291 181.746 935.017 184.388 942.147 188.785C946.711 191.597 950.818 194.996 954.7 198.672C957.305 201.142 959.858 203.674 962.451 206.161C968.035 211.519 970.438 218.149 970.937 225.783C971.356 232.199 971.032 238.572 970.806 244.963C970.789 245.49 970.889 246.023 970.933 246.55C968.481 246.562 966.092 246.844 963.892 248.051C961.001 249.642 959.424 252.261 958.219 255.189C957.021 258.1 955.774 260.989 954.594 263.907C954.179 264.936 953.585 265.448 952.405 265.328C951.445 265.23 950.464 265.359 949.49 265.365C948.537 265.373 948.1 265.014 948.574 264.023C950.068 260.904 951.085 257.621 951.767 254.245C952.405 251.093 952.473 247.906 951.935 244.718" fill="#1B2543"/>
<path d="M880.673 371.586C868.932 362.545 843.019 347.493 845.293 330.26C857.768 332.429 871.111 332.983 876.678 319.721C884.344 301.464 883.789 276.705 882.27 257.305C881.973 253.543 882.524 241.93 879.688 239.12C877.827 237.272 865.311 237.615 861.838 236.735C854.789 234.948 840.817 231.491 836.226 239.379C834.148 242.948 835.721 248.29 834.859 252.289C833.912 256.679 831.818 260.503 828.691 263.752C821.88 270.83 818.284 273.866 816.962 284.254C813.047 282.603 804.98 270.799 801.044 279.988C798.353 286.267 807.554 291.232 807.184 296.265C807.01 298.615 802.656 300.867 800.688 301.845C794.814 304.759 794.764 303.264 794.08 310.226C793.239 318.836 791.263 327.911 788.274 336.065C775.662 370.462 733.833 367.735 706.59 383.525H899.562C893.266 379.546 886.969 375.566 880.673 371.586Z" fill="white"/>
<path d="M879.575 240.495C865.782 240.255 837.951 224.162 835.373 246.009C834.372 254.475 832.945 259.879 826.385 265.857C820.123 271.564 818.046 275.739 816.962 284.254C812.707 282.458 808.355 273.539 802.715 277.767C796.743 282.246 805.331 289.791 806.101 294.015C806.874 298.235 806.357 297.217 803.409 300.021C802.239 301.132 796.323 304.861 794.474 303.934C793.512 303.449 790.515 293.028 790.052 291.863C788.481 287.889 786.807 283.949 785.053 280.052C778.46 265.399 765.688 249.968 771.391 233.127C777.157 216.097 789.169 224.876 801.255 218.497C806.772 215.581 808.337 208.949 812.68 204.775C816.65 200.961 821.694 198.717 827.122 197.977C840.918 196.1 849.398 204.515 860.597 210.5C871.871 216.525 887.924 204.644 896.626 216.89C899.83 221.398 899.45 227.901 896.73 232.573C892.819 239.29 886.618 239.545 879.575 240.495Z" fill="#1B2543"/>
<path d="M919.627 278.503C916.214 276.394 912.751 275.026 908.703 275.272C907.124 275.37 904.905 274.269 903.47 274.574C901.579 274.976 900.217 277.419 899.392 278.966C902.18 278.551 904.976 277.97 907.774 277.655C910.875 277.307 912.783 278.429 915.626 279.42C910.996 282.417 903.509 281.701 899.342 279.364C900.001 283.653 905.605 285.38 908.91 284.882C910.537 284.636 923.063 280.629 919.627 278.503Z" fill="#1B2543"/>
<path d="M869.617 311.172C868.171 314.214 863.765 314.712 861.65 312.078C860.848 311.078 860.919 310.375 862.119 309.83C863.112 309.378 864.091 308.886 865.049 308.428C866.594 308.812 867.643 308.026 868.881 308.973C869.743 309.633 870.107 310.145 869.617 311.172ZM872.282 306.842C869.808 304.948 867.71 306.518 864.616 305.749C862.703 306.667 860.748 307.648 858.758 308.552C856.355 309.645 856.218 311.051 857.821 313.048C862.051 318.316 870.861 317.32 873.757 311.238C874.737 309.183 874.004 308.161 872.282 306.842" fill="#1B2543"/>
<path d="M820.259 291.728C820.259 291.728 812.591 260.756 792.649 264.074C772.704 267.394 765.228 263.798 765.228 263.798C764.872 261.741 763.981 258.821 765.786 250.956C769.33 235.506 772.012 218.928 765.951 203.439L759.201 184.62C759.178 171.356 728.475 151.881 719.829 167.401C716.086 174.122 724.009 182.527 723.705 189.36C723.225 200.171 715.548 200.785 708.196 206.075C690.087 219.102 706.937 238.697 716.615 253.293C725.159 266.173 743.102 264.667 757.332 255.366C753.31 260.887 751.299 264.551 744.703 266.552C735.397 269.383 728.768 261.478 719.939 262.83C730.849 301.079 675.376 286.081 656.042 300.085C637.933 313.202 623.105 333.599 607.161 349.281C600.792 355.544 577.15 370.038 577.816 379.587C599.107 379.706 620.787 382.669 642.003 379.735C659.45 377.325 675.712 366.409 690.962 380.079C698.285 386.647 704.257 407.621 711.661 411.185C715.217 412.9 725.307 410.088 729.277 409.771C749.39 408.156 769.503 406.538 789.616 404.923C795.27 404.469 819.679 406.142 823.836 401.997C829.644 396.205 827.077 362.943 827.762 354.684" fill="white"/>
<path d="M590.735 362.463C602.225 361.105 617.978 332.041 621.023 329.048C636.965 313.367 637.933 313.203 656.041 300.086C675.377 286.082 730.851 301.077 719.941 262.831C728.767 261.479 735.396 269.382 744.705 266.553C751.298 264.55 753.309 260.888 757.333 255.365C743.103 264.668 725.159 266.172 716.617 253.292C706.936 238.696 690.087 219.103 708.195 206.076C715.547 200.786 723.225 200.17 723.705 189.359C724.008 182.528 716.085 174.123 719.831 167.402C728.475 151.882 759.178 171.355 759.201 184.619L765.95 203.438C766.43 204.664 766.835 205.898 767.209 207.134C773.518 196.599 780.758 180.844 769.396 172.363C765.275 169.283 758.646 171.237 755.019 168.872C748.625 164.706 752.03 162.883 748.074 157.724C737.253 143.608 716.953 140.541 700.902 148.85C680.67 159.323 681.62 182.049 659.591 189.884C641.657 196.261 625.892 202.617 630.568 225.945C633.892 242.535 655.347 269.197 624.104 274.276C608.852 276.752 601.209 269.025 585.793 278.556C577.675 283.575 571.879 288.45 569.307 298.162C563.659 319.48 570.049 363.643 590.735 362.463Z" fill="#1B2543"/>
<path d="M752.684 237.891C743.379 238.069 749.965 233.451 752.218 232.014C758.241 229.289 759.423 237.762 752.684 237.891ZM751.903 229.467C747.499 232.277 734.636 241.294 752.808 240.948C765.971 240.697 763.663 224.144 751.903 229.467Z" fill="#1B2543"/>
<path d="M507.317 364.024C506.366 332.706 560.599 308.777 553.437 282.106C557.591 297.573 597.032 291.542 581.321 323.507C580.077 326.041 562.924 337.754 564.696 336.103C539.967 359.159 544.888 381.143 507.317 364.024Z" fill="#1B2543"/>
<path d="M570.68 235.647C570.74 235.858 570.813 236.064 570.881 236.271C570.813 236.064 570.74 235.856 570.68 235.647ZM571.066 236.841C571.205 237.238 571.359 237.625 571.527 238.007C571.359 237.619 571.205 237.231 571.066 236.841V236.841ZM569.759 243.125C569.724 250.244 563.874 263.699 559.395 269.06C553.726 275.847 543.047 277.603 534.762 279.07C532.535 279.466 513.419 281.067 513.413 281.761C513.415 281.473 523.671 285.654 525.034 286.691C528.594 289.399 529.752 290.627 534.768 290.498C545.743 290.22 555.972 284.648 566.085 281.127C571.203 279.345 575.991 278.402 576.214 271.814C576.392 266.509 573.964 258.687 575.726 253.68C577.163 249.601 579.164 252.028 581.937 248.479C582.107 248.556 582.278 248.635 582.448 248.705C590.34 251.932 600.081 249.803 606.998 245.398C608.51 244.436 622.346 232.202 616.71 230.085C615.85 229.764 608.766 239.579 606.815 234.828C606.067 233.007 614.051 228.422 613.043 225.614C611.845 222.286 610.278 227.194 607.09 225.848C604.545 224.776 613.338 218.375 611.543 213.823C610.708 215.166 605.097 217.748 604.431 214.756C603.936 212.545 610.42 208.779 608.116 205.971C607.576 205.316 598.77 208.964 600.195 204.323C600.238 204.182 604.744 201.884 604.973 201.66C606.637 200.028 607.63 198.07 607.993 195.781C608.394 193.242 606.013 183.125 601.177 185.903C605.399 189.255 605.756 199.045 599.547 194.914C594.598 191.623 594.164 178.558 591.717 173.347C586.532 162.294 577.036 154.691 565.497 150.962C551.85 146.549 536.711 143.856 522.45 142.429C509.144 141.1 492.914 141.892 485.952 155.201C479.891 166.792 481.083 183.102 491.102 191.984C500.976 200.737 518.737 200.712 529.041 192.649C533.327 189.296 534.916 187.253 540.749 190.457C545.953 193.315 549.497 200.094 554.476 203.746C557.127 205.689 560.496 207.763 563.741 208.574" fill="#1B2543"/>
<path d="M519.161 256.794C516.969 258.982 514.372 260.041 511.291 259.805C510.107 259.886 508.967 259.788 507.845 259.459C507.05 259.224 506.42 258.77 505.942 258.121C505.616 257.679 505.485 257.244 505.753 256.634C506.268 255.477 506.815 254.345 507.675 253.422C508.248 252.806 508.903 252.088 509.881 252.891C509.983 252.972 510.261 252.953 510.382 252.87C511.622 252.02 512.82 252.507 513.959 253.04C515.648 253.83 517.276 254.745 518.953 255.564C519.665 255.912 519.763 256.192 519.161 256.794ZM522.536 255.249C519.917 253.969 517.37 252.543 514.732 251.307C512.953 250.473 511.082 249.712 509.143 251.043C508.957 251.17 508.518 251.201 508.362 251.072C506.831 249.822 505.809 250.942 504.914 251.902C503.57 253.345 502.716 255.112 501.914 256.922C501.49 257.874 501.698 258.552 502.205 259.243C502.955 260.259 503.938 260.968 505.18 261.333C506.933 261.85 508.713 262.005 510.566 261.877C515.378 262.246 519.437 260.587 522.86 257.169C523.801 256.232 523.648 255.794 522.536 255.249" fill="#1B2543"/>
<path d="M981.549 274.583L964.93 297.807L1009.25 279.006L981.549 274.583Z" fill="#E4261B"/>
<path d="M236.977 193.135C251.263 170.79 303.723 209.3 310.738 177.98C316.933 150.334 281.796 169.703 273.846 168.772C256.87 166.781 246.057 141.141 227.81 153.806C220.98 158.544 219.492 165.141 210.911 168.384C203.632 171.136 196.367 169.579 190.469 175.927C175.201 192.363 193.806 215.643 200.399 231.294C202.254 235.697 205.219 252.851 210.073 249.699C214.853 246.597 209.789 242.343 209.053 239.096C207.367 231.655 202.213 233.246 211.403 228.13C213.771 226.811 217.733 230.531 219.766 230.278C220.103 230.239 223.67 221.448 224.837 220.419C227.573 218.008 231.271 221.023 233.649 218.945C238.533 214.679 239.476 215.077 239.888 208.151C240.054 205.358 232.226 195.461 236.977 193.135Z" fill="#1B2543"/>
<path d="M204.331 355.014C219.926 339.778 237.413 326.479 256.256 315.495C255.369 314.424 254.545 313.118 253.78 311.496C249.821 303.095 256.317 294.919 254.838 287.057L248.502 274.141C251.308 274.6 254.275 274.674 257.434 274.258C273.501 272.138 280.157 258.908 282.539 243.987C284.058 234.481 283.902 207.391 278.501 208.428L281.744 198.297C281.484 193.642 280.917 191.099 279.837 189.505C263.157 186.635 244.613 181.191 236.977 193.134C232.228 195.463 240.053 205.357 239.889 208.154C239.476 215.078 238.532 214.678 233.651 218.946C231.272 221.024 227.572 218.009 224.836 220.42C223.669 221.449 220.102 230.238 219.768 230.279C217.732 230.532 213.77 226.812 211.402 228.129C202.212 233.245 207.366 231.656 209.053 239.097C209.788 242.342 214.853 246.598 210.073 249.7C208.103 250.977 206.446 248.912 205.045 245.714C204.136 257.759 203.211 282.105 191.902 289.832C190.421 290.846 188.938 291.607 187.456 292.169C194.871 312.583 200.531 333.632 204.331 355.014Z" fill="white"/>
<path d="M297.427 338.679C292.468 318.415 276.971 314.815 258.904 314.632H258.9C250.813 335.368 241.085 355.427 230.621 375.138C237.509 373.469 244.415 372.223 251.311 371.694C256.334 365.742 277.598 366.275 284.478 365.191C294.703 363.583 297.476 363.177 298.339 351.931C298.694 347.296 298.393 342.628 297.427 338.679Z" fill="#1B2543"/>
<path d="M271.764 250.37C270.029 253.454 260.555 254.053 260.65 249.466C260.719 246.222 275.208 244.248 271.764 250.37ZM256.772 249.381C256.612 257.027 272.402 256.029 275.293 250.886C281.031 240.683 256.884 243.974 256.772 249.381Z" fill="#1B2543"/>
<path d="M141.526 361.681C127.07 317.767 128.26 266.578 125.69 220.652C124.702 202.973 120.42 180.245 120.713 174.231C121.004 168.217 115.104 159.922 118.013 152.871C120.37 147.149 126.322 145.405 131.1 136.073C133.046 132.27 140.504 137.27 140.656 137.318C128.399 157.641 156.975 149.692 159.975 151.005C162.973 152.317 155.39 193.471 154.734 201.636C153.826 212.944 154.329 224.808 155.577 236.067C156.647 245.722 157.79 256.441 163.224 264.342C168.245 271.642 182.535 268.173 186.889 275.296C208.344 310.384 162.832 343.355 141.526 361.681Z" fill="#1B2543"/>
<path d="M271.764 250.37L289.926 230.619L294.081 253.014L271.764 250.37Z" fill="#3BBEEF"/>
<path d="M852.284 146.81C852.344 146.215 851.978 145.86 851.505 145.551C850.136 144.657 848.779 143.743 847.406 142.851C846.075 141.98 845.362 142.167 844.743 143.627C842.3 149.398 839.882 155.18 837.449 160.955C837.119 161.739 837.08 162.494 837.892 162.95C838.681 163.394 839.321 163.019 839.869 162.357C843.827 157.585 847.801 152.828 851.766 148.065C852.064 147.71 852.315 147.328 852.284 146.81ZM873.967 158.361C873.947 157.888 873.766 157.471 873.51 157.09C872.318 155.325 871.125 153.56 869.919 151.808C868.957 150.412 867.918 150.292 866.717 151.476C861.079 157.029 855.454 162.593 849.828 168.161C849.562 168.425 849.272 168.717 849.139 169.053C848.875 169.719 848.889 170.391 849.463 170.947C850.152 171.618 850.89 171.519 851.658 171.115C854.791 169.47 857.926 167.832 861.056 166.185C864.927 164.149 868.793 162.106 872.667 160.072C873.371 159.7 873.949 159.246 873.967 158.361" fill="#E4261B"/>
<path d="M874.419 182.026C873.883 182.621 873.216 182.857 872.414 182.93C866.849 183.428 861.292 183.963 855.729 184.477C855.085 184.537 854.436 184.537 853.79 184.574C853.028 184.62 852.531 184.259 852.357 183.546C852.174 182.795 852.596 182.295 853.244 182.02C854.887 181.319 856.545 180.653 858.196 179.977C862.42 178.249 866.641 176.522 870.864 174.801C872.362 174.189 872.937 174.492 873.349 176.039C873.758 177.567 873.831 179.172 874.419 180.655V182.026Z" fill="#E4261B"/>
<path d="M873.966 158.362C873.948 159.247 873.372 159.701 872.666 160.073C868.794 162.107 864.926 164.15 861.055 166.184C857.925 167.831 854.792 169.471 851.659 171.113C850.891 171.518 850.151 171.619 849.462 170.947C848.89 170.392 848.876 169.72 849.14 169.054C849.27 168.718 849.563 168.426 849.829 168.162C855.455 162.594 861.08 157.03 866.718 151.477C867.919 150.293 868.958 150.413 869.92 151.809C871.126 153.561 872.317 155.326 873.509 157.09C873.765 157.47 873.945 157.887 873.966 158.362Z" fill="#E4261B"/>
<path d="M852.284 146.81C852.315 147.328 852.064 147.71 851.767 148.065C847.801 152.828 843.827 157.585 839.869 162.357C839.321 163.019 838.681 163.394 837.892 162.95C837.08 162.494 837.119 161.739 837.449 160.955C839.882 155.18 842.3 149.398 844.743 143.627C845.362 142.167 846.075 141.98 847.406 142.851C848.779 143.743 850.136 144.657 851.505 145.551C851.978 145.86 852.344 146.215 852.284 146.81Z" fill="#E4261B"/>
<path d="M848.324 208.358C847.941 211.161 845.976 212.379 843.224 211.529C840.444 210.67 838.124 209.011 835.943 207.172C828.283 200.706 822.33 192.848 817.315 184.234C814.612 179.59 812.381 174.742 810.715 169.638C809.745 166.671 809.012 163.651 809.257 160.495C809.375 158.977 809.733 157.53 811.374 156.895C812.327 156.526 813.308 156.603 814.278 156.883C817.12 157.698 819.457 159.386 821.684 161.235C827.419 166.001 832.124 171.673 836.319 177.807C840.735 184.267 844.404 191.1 846.863 198.536C847.717 201.118 848.473 203.756 848.336 206.535C848.336 207.145 848.405 207.763 848.324 208.358ZM793.845 233.152C794.078 233.027 794.298 232.876 794.541 232.785C806.575 228.278 818.649 223.87 830.884 219.94C836.707 218.071 842.493 216.033 848.621 215.29C849.581 215.172 850.387 214.654 851.068 213.934C852.173 212.771 852.377 211.3 852.481 209.826C852.782 205.535 851.803 201.419 850.364 197.443C844.705 181.799 835.737 168.375 823.009 157.557C820.279 155.236 817.3 153.241 813.781 152.241C810.645 151.354 808.912 152.063 807.319 154.879C806.66 156.041 805.906 157.136 805.102 158.197C801.654 162.749 797.908 167.054 794.111 171.316C783.128 183.651 771.85 195.708 760.161 207.381C758.841 208.698 758.004 210.183 757.73 212.03C757.647 212.603 757.761 213.25 757.342 213.756V219.007C757.639 219.164 757.558 219.461 757.595 219.712C758.484 225.688 761.249 230.613 766.108 234.226C769.987 237.108 774.332 238.896 779.274 238.888" fill="white"/>
<path d="M121.521 366.667H-1.33995C-13.0085 366.667 -22.556 357.136 -22.556 345.488V229.214C-22.556 217.565 -13.0085 208.034 -1.33995 208.034H121.521C133.19 208.034 142.737 217.565 142.737 229.214V345.488C142.737 357.136 133.19 366.667 121.521 366.667Z" fill="#E85C0C"/>
<path d="M90.6593 357.771L121.847 390.389L126.303 345.911" fill="#E85C0C"/>
<path d="M443.331 164.273C439.263 161.141 435.079 164.542 431.12 161.28C427.009 157.894 421.157 157.855 415.835 158.153C407.621 158.614 399.428 159.478 391.299 160.747C382.925 162.052 373.706 164.379 369.152 171.514C367.314 174.395 366.454 177.783 365.864 181.149C363.853 192.628 364.854 204.981 370.735 215.049C376.618 225.115 387.938 232.384 399.579 231.515C405.712 231.057 412.071 228.504 417.792 230.758C422.86 232.755 425.864 238.045 427.374 243.273C431.631 220.874 441.496 221.034 437.217 197.841C437.217 197.841 433.854 183.727 438.744 177.014C443.636 170.299 443.331 164.273 443.331 164.273Z" fill="white"/>
<path d="M500.846 375.203C500.376 359.953 497.165 333.686 495.542 318.537C494.591 309.637 495.391 294.434 487.245 288.269C482.168 284.43 472.614 282.819 466.521 280.847C460.449 278.879 454.25 277.186 448.149 275.272C444.233 274.045 437.993 273.783 436.99 270.154C436.329 267.765 438.899 261.656 439.237 259.157C440.409 250.553 442.715 233.224 437.006 225.404C433.327 220.363 424.01 219.737 418.127 219.069C406.974 217.8 398.766 220.365 388.284 222.08C374.775 224.293 367.213 191.89 375.008 180.903C375.008 180.903 377.76 172.664 389.223 168.546C389.223 168.546 396.789 167.401 408.023 167.859C415.988 168.183 423.36 170.634 428.657 172.664C433.955 174.694 438.745 177.013 438.745 177.013C438.745 177.013 461.303 143.683 434.237 132.23C422.695 127.348 425.217 143.598 380.053 141.767C369.596 141.342 350.395 161.843 355.063 166.714C360.107 171.978 347.574 178.158 348.185 182.276C348.463 184.149 352.171 182.79 351.789 186.878C347.769 186.735 343.845 189.356 341.198 192.643C336.148 198.912 338.049 203.298 341.101 207.207C343.103 209.774 345.17 212.47 346.616 215.388C346.319 216.298 346.022 217.304 345.723 218.47C340.922 237.26 352.204 262.96 364.644 276.842C374.908 288.3 390.397 297.198 406.072 297.528C413.752 297.688 421.173 295.274 426.549 289.561C428.381 287.615 432.708 277.609 434.354 277.533C436.495 277.433 437.472 281.324 438.44 282.676C438.44 282.676 438.44 293.662 426.823 299.763C415.207 305.867 406.037 305.257 406.037 305.257L402.269 374.705C402.269 374.705 417.163 363.752 430.49 365.313C443.816 366.879 442.248 371.576 464.199 373.924C486.148 376.271 500.846 375.203 500.846 375.203Z" fill="#1B2543"/>
<path d="M404.941 243.557C408.19 241.546 411.489 240.243 415.347 240.48C416.849 240.571 418.963 239.524 420.332 239.812C422.131 240.196 423.43 242.522 424.217 243.995C421.56 243.601 418.897 243.049 416.232 242.746C413.278 242.415 411.46 243.485 408.749 244.43C413.163 247.284 420.293 246.604 424.263 244.376C423.638 248.462 418.297 250.106 415.149 249.631C413.598 249.397 401.667 245.581 404.941 243.557Z" fill="white"/>
<path d="M1004.17 199.587C1004.22 199.348 1004.27 199.106 1004.34 198.851Z" fill="#1B2543"/>
<path d="M1089.32 319.256C1089.32 319.256 1103.85 322.373 1105.27 320.374C1107.95 316.597 1090.6 314.621 1088.8 312.524C1085.76 308.993 1087.83 295.252 1088.13 290.439C1088.13 290.443 1088.12 290.453 1088.11 290.46C1088.12 290.416 1088.12 290.37 1088.13 290.327C1088.32 289.392 1088.69 288.502 1089.09 287.618C1090.33 285.781 1090.27 285.29 1092.86 283.519C1095.57 281.656 1098.08 279.709 1100.1 277.057C1101.98 274.593 1103.64 271.516 1104.35 268.484C1104.83 266.393 1102.56 261.995 1102.89 260.085C1103.23 258.084 1104.94 259.39 1106.21 257.597C1106.21 257.597 1106.8 249.399 1110.92 246.398C1117.4 241.678 1125.27 231.117 1124.6 223.589C1123.93 216.063 1115.71 208.514 1108.58 203.486C1093.74 193.03 1073.31 191.995 1056.09 188.119C1040.67 184.647 1017.75 182.408 1006.72 196.563C998.315 207.359 997.696 225.281 1005.82 236.618C1006.52 238.543 1006.2 244.482 1006.36 246.952C1006.73 252.752 1003.71 253.517 1002.44 259.61C997.357 283.933 1009.09 304.068 1009.62 305.086C1013.36 312.344 1017.15 314.911 1026.63 316.052C1036.46 317.234 1045.81 314.719 1055.59 314.905C1060.3 314.994 1063.6 314.383 1067.47 311.602C1069.81 309.924 1073.39 303.36 1075.61 302.498C1074.44 309.87 1066.84 316.017 1059.4 318.319C1050.89 320.952 1046.95 320.127 1038.38 321.823C1037.56 321.987 1027.74 321.898 1027.37 322.86C1026.87 324.129 1029.82 331.122 1030.29 331.995C1031.53 334.347 1034.11 338.619 1033.27 341.209C1032.13 344.732 1028.1 347.086 1027.99 351.406C1027.9 355.317 1031.82 355.524 1031.57 358.689C1031.57 358.689 1046.25 339.027 1061.48 338.474C1074.51 338.001 1089.32 319.256 1089.32 319.256Z" fill="#1B2543"/>
<path d="M1017.8 291.669C1017.11 291.53 1016.14 291.366 1015.2 291.138C1014.45 290.954 1013.84 290.595 1013.42 290.039C1014.13 289.629 1014.98 289.469 1015.94 289.523C1016.92 289.575 1017.9 289.674 1018.62 289.73C1020.42 290.087 1021.89 290.622 1023.35 291.142C1021.58 291.416 1019.81 291.74 1017.8 291.669ZM1028.5 291.377C1026.79 289.481 1024.46 288.142 1021.74 287.157C1020.71 286.783 1019.58 286.503 1018.5 286.883C1017.38 287.277 1016.42 287.198 1015.44 286.738C1014.66 286.373 1013.84 286.404 1013.04 286.599C1011.68 286.926 1010.59 288.063 1011.35 289.197C1011.41 289.286 1011.47 289.374 1011.52 289.463C1011.27 289.699 1011.02 289.942 1010.77 290.18C1009.4 291.495 1009.72 293.376 1010.78 294.234C1011.41 294.747 1012.15 295.037 1013.08 294.776C1014.26 294.45 1015.2 294.635 1015.99 295.512C1016.76 296.362 1017.98 296.325 1019.16 296.13C1022.25 295.618 1025.2 294.502 1027.91 292.441C1028.24 292.19 1028.32 292.047 1028.22 291.893C1028.71 291.8 1028.8 291.717 1028.5 291.377" fill="white"/>
<path d="M131.864 142.695C134.631 156.189 143.42 151.38 153.017 151.992C160.24 152.452 159.684 152.626 161.321 146.994C162.472 143.039 163.354 141.046 165.237 137.907C171.674 127.169 182.142 120.918 187.088 108.26C188.432 104.818 189.488 101.394 191.428 98.2146C193.027 95.5975 197.313 92.6113 198.323 89.8988C201.526 81.2844 189.986 84.8098 185.576 88.4244C181.101 92.0949 179.178 100.896 174.585 95.695C171.28 91.9518 171.377 76.2099 170.949 71.3925C170.339 64.4599 171.24 52.6871 167.979 46.3911C163.724 38.1727 161.263 46.474 160.772 52.096C160.594 54.1242 162.143 72.1992 159.729 72.6782C158.171 72.9872 156.47 53.7281 156.242 52.0753C155.753 48.5644 154.835 36.0451 148.032 39.643C142.157 42.7516 150.199 55.1735 145.861 59.5844C144.976 58.3277 142.955 54.0806 141.993 50.6029C140.24 44.2758 135.946 43.998 136.363 51.6025C136.55 55.047 136.777 56.5795 137.61 61.2808C137.61 61.2808 138.482 66.6062 138.023 66.9484C136.949 67.753 134.996 65.8099 133.592 64.3209C131.739 62.3571 128.191 61.8324 129.23 66.6021C131.92 78.9597 134.028 91.3297 135.385 103.729C136.918 117.745 135.079 129.22 131.864 142.695Z" fill="#E4261B"/>
</g>
<path d="M600.284 43H623.846V35.35H609.209V28.465H620.327V20.815H609.209V14.185H623.132V6.535H600.284V43ZM627.889 33.769C627.889 41.164 632.02 43.612 637.222 43.612C640.741 43.612 644.005 41.878 645.433 39.073H645.535C645.535 39.073 645.433 39.838 645.433 40.705V43H653.899V16.735H645.076V28.363C645.076 32.29 643.291 35.605 639.517 35.605C637.681 35.605 636.712 34.585 636.712 32.137V16.735H627.889V33.769ZM659.42 43H668.243V33.055C668.243 31.627 668.396 30.454 668.702 29.485C669.977 25.558 673.394 24.895 675.485 24.895C676.556 24.895 677.27 25.048 677.27 25.048V16.378C677.27 16.378 676.76 16.276 676.25 16.276C672.323 16.276 669.008 19.234 667.886 22.804H667.784C667.784 22.804 667.886 22.039 667.886 21.172V16.735H659.42V43ZM678.396 29.944C678.396 38.155 685.026 43.612 693.288 43.612C701.55 43.612 708.18 38.155 708.18 29.944C708.18 21.682 701.55 16.123 693.237 16.123C685.026 16.123 678.396 21.682 678.396 29.944ZM687.321 29.944C687.321 25.966 690.075 23.467 693.288 23.467C696.501 23.467 699.255 25.966 699.255 29.944C699.255 33.871 696.501 36.268 693.288 36.268C690.075 36.268 687.321 33.871 687.321 29.944ZM709.819 29.944C709.819 38.155 716.449 43.612 724.711 43.612C732.973 43.612 739.603 38.155 739.603 29.944C739.603 21.682 732.973 16.123 724.66 16.123C716.449 16.123 709.819 21.682 709.819 29.944ZM718.744 29.944C718.744 25.966 721.498 23.467 724.711 23.467C727.924 23.467 730.678 25.966 730.678 29.944C730.678 33.871 727.924 36.268 724.711 36.268C721.498 36.268 718.744 33.871 718.744 29.944ZM743.18 53.2H752.003V43.357C752.003 42.031 751.901 41.113 751.901 41.113H752.003C752.003 41.113 754.4 43.612 758.684 43.612C765.671 43.612 770.924 38.206 770.924 29.893C770.924 21.733 766.232 16.123 759.092 16.123C753.533 16.123 751.136 19.744 751.136 19.744H751.034C751.034 19.744 751.136 18.928 751.136 18.061V16.735H743.18V53.2ZM751.748 30.046C751.748 25.507 754.247 23.569 756.899 23.569C759.959 23.569 762.05 26.119 762.05 30.046C762.05 34.075 759.653 36.319 756.899 36.319C753.431 36.319 751.748 33.208 751.748 30.046ZM772.664 35.146C772.664 40.348 776.693 43.612 781.589 43.612C787.097 43.612 789.035 39.787 789.035 39.787H789.137C789.137 39.787 789.035 40.552 789.035 41.419V43H797.093V26.833C797.093 20.152 792.656 16.123 785.261 16.123C778.784 16.123 774.245 19.54 774.245 19.54L777.305 25.762C777.305 25.762 781.079 23.263 784.394 23.263C786.587 23.263 788.27 23.977 788.27 26.17V26.629H787.913C783.833 26.629 772.664 27.496 772.664 35.146ZM781.538 34.687C781.538 32.494 784.751 31.678 787.556 31.678H788.372V32.239C788.372 34.381 786.332 36.88 784.037 36.88C782.303 36.88 781.538 35.911 781.538 34.687ZM599.264 94H608.087V83.8H610.841L616.4 94H626.447L617.675 79.771V79.669L625.376 67.735H615.788L610.586 76.405H608.087V57.535H599.264V94ZM626.508 80.944C626.508 89.155 633.138 94.612 641.4 94.612C649.662 94.612 656.292 89.155 656.292 80.944C656.292 72.682 649.662 67.123 641.349 67.123C633.138 67.123 626.508 72.682 626.508 80.944ZM635.433 80.944C635.433 76.966 638.187 74.467 641.4 74.467C644.613 74.467 647.367 76.966 647.367 80.944C647.367 84.871 644.613 87.268 641.4 87.268C638.187 87.268 635.433 84.871 635.433 80.944ZM658.083 80.842C658.083 89.002 662.775 94.612 669.915 94.612C675.321 94.612 677.514 90.787 677.514 90.787H677.616C677.616 90.787 677.565 91.45 677.565 92.266V94H685.827V57.535H677.004V68.041C677.004 68.704 677.055 69.214 677.055 69.214H676.953C676.953 69.214 675.372 67.123 670.068 67.123C663.081 67.123 658.083 72.529 658.083 80.842ZM666.957 80.842C666.957 76.813 669.354 74.569 672.108 74.569C675.576 74.569 677.259 77.68 677.259 80.842C677.259 85.381 674.76 87.319 672.108 87.319C669.048 87.319 666.957 84.769 666.957 80.842ZM689.352 86.146C689.352 91.348 693.381 94.612 698.277 94.612C703.785 94.612 705.723 90.787 705.723 90.787H705.825C705.825 90.787 705.723 91.552 705.723 92.419V94H713.781V77.833C713.781 71.152 709.344 67.123 701.949 67.123C695.472 67.123 690.933 70.54 690.933 70.54L693.993 76.762C693.993 76.762 697.767 74.263 701.082 74.263C703.275 74.263 704.958 74.977 704.958 77.17V77.629H704.601C700.521 77.629 689.352 78.496 689.352 86.146ZM698.226 85.687C698.226 83.494 701.439 82.678 704.244 82.678H705.06V83.239C705.06 85.381 703.02 87.88 700.725 87.88C698.991 87.88 698.226 86.911 698.226 85.687ZM718.879 94H727.702V82.372C727.702 81.097 727.855 79.924 728.212 78.904C728.977 76.66 730.66 75.13 733.414 75.13C735.352 75.13 736.321 76.15 736.321 78.598V94H745.144V76.966C745.144 69.571 741.013 67.123 735.709 67.123C731.068 67.123 728.569 69.622 727.345 71.662H727.243C727.243 71.662 727.345 70.897 727.345 70.03V67.735H718.879V94ZM750.404 64.42H759.023V57.535H750.404V64.42ZM750.302 94H759.125V67.735H750.302V94ZM764.642 94H773.465V83.8H776.219L781.778 94H791.825L783.053 79.771V79.669L790.754 67.735H781.166L775.964 76.405H773.465V57.535H764.642V94ZM793.815 84.769C793.815 92.164 797.946 94.612 803.148 94.612C806.667 94.612 809.931 92.878 811.359 90.073H811.461C811.461 90.073 811.359 90.838 811.359 91.705V94H819.825V67.735H811.002V79.363C811.002 83.29 809.217 86.605 805.443 86.605C803.607 86.605 802.638 85.585 802.638 83.137V67.735H793.815V84.769ZM823.357 86.146C823.357 91.348 827.386 94.612 832.282 94.612C837.79 94.612 839.728 90.787 839.728 90.787H839.83C839.83 90.787 839.728 91.552 839.728 92.419V94H847.786V77.833C847.786 71.152 843.349 67.123 835.954 67.123C829.477 67.123 824.938 70.54 824.938 70.54L827.998 76.762C827.998 76.762 831.772 74.263 835.087 74.263C837.28 74.263 838.963 74.977 838.963 77.17V77.629H838.606C834.526 77.629 823.357 78.496 823.357 86.146ZM832.231 85.687C832.231 83.494 835.444 82.678 838.249 82.678H839.065V83.239C839.065 85.381 837.025 87.88 834.73 87.88C832.996 87.88 832.231 86.911 832.231 85.687ZM852.527 84.31C852.527 93.133 857.525 94.255 862.217 94.255C863.645 94.255 864.869 94.102 864.869 94.102V86.452C864.869 86.452 864.359 86.503 863.798 86.503C861.809 86.503 861.35 85.636 861.35 83.137V57.535H852.527V84.31ZM871.633 95.683L869.134 102.364C871.684 103.69 875.56 104.71 879.079 104.71C886.27 104.71 893.92 101.191 893.92 91.603V67.735H885.658V69.061C885.658 69.367 885.709 69.673 885.709 69.673H885.556C885.556 69.673 883.21 67.123 878.416 67.123C870.46 67.123 866.635 73.345 866.635 80.026C866.635 86.758 870.562 93.235 878.467 93.235C881.527 93.235 883.516 92.317 885.046 90.481H885.148C885.148 90.481 885.097 91.144 885.097 91.45V92.317C885.097 96.193 882.19 97.366 879.028 97.366C874.897 97.366 871.633 95.683 871.633 95.683ZM880.558 85.891C877.039 85.891 875.509 82.984 875.509 79.72C875.509 76.711 877.09 74.467 880.201 74.467C882.853 74.467 885.301 75.487 885.301 80.128C885.301 84.718 882.853 85.891 880.558 85.891ZM897.455 86.146C897.455 91.348 901.484 94.612 906.38 94.612C911.888 94.612 913.826 90.787 913.826 90.787H913.928C913.928 90.787 913.826 91.552 913.826 92.419V94H921.884V77.833C921.884 71.152 917.447 67.123 910.052 67.123C903.575 67.123 899.036 70.54 899.036 70.54L902.096 76.762C902.096 76.762 905.87 74.263 909.185 74.263C911.378 74.263 913.061 74.977 913.061 77.17V77.629H912.704C908.624 77.629 897.455 78.496 897.455 86.146ZM906.329 85.687C906.329 83.494 909.542 82.678 912.347 82.678H913.163V83.239C913.163 85.381 911.123 87.88 908.828 87.88C907.094 87.88 906.329 86.911 906.329 85.687ZM928.308 84.31C928.308 93.133 936.417 94.255 940.599 94.255C942.027 94.255 942.996 94.102 942.996 94.102V86.452C942.996 86.452 942.537 86.503 941.823 86.503C940.14 86.503 937.131 86.095 937.131 83.137V75.079H942.639V68.194H937.131V60.646H928.563V68.194H924.942V75.079H928.308V84.31ZM946.792 84.769C946.792 92.164 950.923 94.612 956.125 94.612C959.644 94.612 962.908 92.878 964.336 90.073H964.438C964.438 90.073 964.336 90.838 964.336 91.705V94H972.802V67.735H963.979V79.363C963.979 83.29 962.194 86.605 958.42 86.605C956.584 86.605 955.615 85.585 955.615 83.137V67.735H946.792V84.769ZM976.283 90.736C976.283 90.736 980.21 94.612 986.789 94.612C993.572 94.612 997.55 90.787 997.55 86.299C997.55 77.833 985.259 77.527 985.259 75.538C985.259 74.62 986.534 74.263 987.86 74.263C991.532 74.263 994.082 76.405 994.082 76.405L997.091 70.132C997.091 70.132 993.98 67.123 987.86 67.123C981.791 67.123 977.048 70.183 977.048 75.13C977.048 83.698 989.339 83.953 989.339 86.248C989.339 87.115 988.064 87.472 986.738 87.472C982.964 87.472 980.057 84.82 980.057 84.82L976.283 90.736Z" fill="#1C71A2"/>
<defs>
<clipPath id="clip0_331_62">
<rect width="1167" height="311" fill="white" transform="translate(0 39)"/>
</clipPath>
</defs>
</svg>
