<svg width="60" height="60" viewBox="0 0 60 60" fill="none" xmlns="http://www.w3.org/2000/svg">
<g clip-path="url(#clip0_0_2333)">
<mask id="mask0_0_2333" style="mask-type:luminance" maskUnits="userSpaceOnUse" x="0" y="0" width="60" height="60">
<path fill-rule="evenodd" clip-rule="evenodd" d="M30 60C46.5685 60 60 46.5685 60 30C60 13.4315 46.5685 0 30 0C13.4315 0 0 13.4315 0 30C0 46.5685 13.4315 60 30 60Z" fill="white"/>
</mask>
<g mask="url(#mask0_0_2333)">
</g>
<g clip-path="url(#clip1_0_2333)">
<path fill-rule="evenodd" clip-rule="evenodd" d="M24.6149 36.7119C24.6149 37.0834 24.9164 37.385 25.288 37.385H27.9806C28.3521 37.385 28.6537 37.0834 28.6537 36.7119V32.6731C28.6537 32.3016 28.3521 32 27.9806 32H25.2881C24.9165 32 24.6149 32.3016 24.6149 32.6731V36.7119H24.6149ZM25.9612 33.3463H27.3074V36.0388H25.9612V33.3463Z" fill="white"/>
<path fill-rule="evenodd" clip-rule="evenodd" d="M25.2881 29.3075H27.9806C28.3521 29.3075 28.6537 29.0059 28.6537 28.6344V24.5956C28.6537 24.2241 28.3521 23.9225 27.9806 23.9225H25.2881C24.9166 23.9225 24.615 24.2241 24.615 24.5956V28.6344C24.6149 29.0059 24.9165 29.3075 25.2881 29.3075ZM25.9612 25.2687H27.3075V27.9612H25.9612V25.2687Z" fill="white"/>
<path fill-rule="evenodd" clip-rule="evenodd" d="M20.2497 24.4993L30 18.6491L39.7503 24.4993C39.8587 24.5646 39.9785 24.5955 40.0963 24.5955C40.3251 24.5955 40.548 24.4791 40.6738 24.269C40.8657 23.9499 40.762 23.5367 40.4437 23.3455L30.6731 17.4832V13.1523H34.0388V14.4986H32.0194C31.6479 14.4986 31.3463 14.8002 31.3463 15.1717C31.3463 15.5433 31.6479 15.8448 32.0194 15.8448H34.7119C35.0834 15.8448 35.385 15.5433 35.385 15.1717V12.4792C35.385 12.1076 35.0834 11.806 34.7119 11.806H30C29.6285 11.806 29.3269 12.1076 29.3269 12.4792V17.4832L19.5564 23.3455C19.238 23.5367 19.1344 23.95 19.3262 24.2691C19.5167 24.5875 19.9313 24.6911 20.2497 24.4993Z" fill="white"/>
<path fill-rule="evenodd" clip-rule="evenodd" d="M17.2105 37.3851C17.5821 37.3851 17.8836 37.0835 17.8836 36.712V32.6732C17.8836 32.3016 17.5821 32.0001 17.2105 32.0001H14.518C14.1464 32.0001 13.8448 32.3016 13.8448 32.6732V34.0194C13.8448 34.3909 14.1464 34.6925 14.518 34.6925C14.8895 34.6925 15.1911 34.3909 15.1911 34.0194V33.3463H16.5373V36.712C16.5373 37.0835 16.8389 37.3851 17.2105 37.3851Z" fill="white"/>
<path fill-rule="evenodd" clip-rule="evenodd" d="M21.9224 46.1358V26.6149C21.9224 26.2434 21.6208 25.9418 21.2493 25.9418C20.8777 25.9418 20.5762 26.2434 20.5762 26.6149V46.1358C20.5762 46.5073 20.8777 46.8089 21.2493 46.8089C21.6208 46.8089 21.9224 46.5073 21.9224 46.1358Z" fill="white"/>
<path fill-rule="evenodd" clip-rule="evenodd" d="M18.5568 49.5015H41.4432C41.8148 49.5015 42.1163 49.1999 42.1163 48.8284C42.1163 48.4568 41.8148 48.1552 41.4432 48.1552H35.385V41.424H36.0581C36.4297 41.424 36.7313 41.1224 36.7313 40.7508C36.7313 40.3793 36.4297 40.0777 36.0581 40.0777H23.9419C23.5703 40.0777 23.2687 40.3793 23.2687 40.7508C23.2687 41.1224 23.5703 41.424 23.9419 41.424H24.615V48.1552H18.5568C18.1852 48.1552 17.8837 48.4567 17.8837 48.8283C17.8837 49.1998 18.1852 49.5015 18.5568 49.5015ZM30.6731 45.4627C31.0447 45.4627 31.3462 45.1611 31.3462 44.7896C31.3462 44.418 31.0447 44.1165 30.6731 44.1165V41.424H34.0388V48.1552H30.6731V45.4627ZM25.9612 41.4239H29.3269V44.1164C28.9554 44.1164 28.6538 44.4179 28.6538 44.7895C28.6538 45.161 28.9554 45.4626 29.3269 45.4626V48.1552H25.9612V41.4239Z" fill="white"/>
<path fill-rule="evenodd" clip-rule="evenodd" d="M45.4821 40.7507H42.7896C42.418 40.7507 42.1165 41.0523 42.1165 41.4238V45.4626C42.1165 45.8341 42.418 46.1357 42.7896 46.1357H45.4821C45.8536 46.1357 46.1552 45.8341 46.1552 45.4626V41.4238C46.1552 41.0523 45.8536 40.7507 45.4821 40.7507ZM44.8089 44.7895H43.4626V42.097H44.8089V44.7895Z" fill="white"/>
<path fill-rule="evenodd" clip-rule="evenodd" d="M45.4821 32.6731H42.7896C42.418 32.6731 42.1165 32.9747 42.1165 33.3462V37.385C42.1165 37.7565 42.418 38.0581 42.7896 38.0581H45.4821C45.8536 38.0581 46.1552 37.7565 46.1552 37.385V33.3462C46.1552 32.9747 45.8536 32.6731 45.4821 32.6731ZM44.8089 36.7119H43.4626V34.0194H44.8089V36.7119Z" fill="white"/>
<path fill-rule="evenodd" clip-rule="evenodd" d="M44.1358 50.8477H15.8643C15.4927 50.8477 15.1912 51.1492 15.1912 51.5208C15.1912 51.8923 15.4927 52.1939 15.8643 52.1939H44.1358C44.5073 52.1939 44.8089 51.8924 44.8089 51.5208C44.8089 51.1493 44.5073 50.8477 44.1358 50.8477Z" fill="white"/>
<path fill-rule="evenodd" clip-rule="evenodd" d="M49.5208 26.6149C49.1493 26.6149 48.8477 26.9165 48.8477 27.288V27.9611H41.4432C41.0717 27.9611 40.7701 28.2627 40.7701 28.6342C40.7701 29.0058 41.0717 29.3073 41.4432 29.3073H48.8477V51.5207C48.8477 51.8922 49.1493 52.1938 49.5208 52.1938C49.8924 52.1938 50.1939 51.8922 50.1939 51.5207V27.2879C50.1939 26.9165 49.8924 26.6149 49.5208 26.6149Z" fill="white"/>
<path fill-rule="evenodd" clip-rule="evenodd" d="M31.3463 36.7119C31.3463 37.0834 31.6479 37.385 32.0194 37.385H34.7119C35.0835 37.385 35.385 37.0834 35.385 36.7119V32.6731C35.385 32.3016 35.0835 32 34.7119 32H32.0194C31.6479 32 31.3463 32.3016 31.3463 32.6731V36.7119ZM32.6925 33.3463H34.0388V36.0388H32.6925V33.3463Z" fill="white"/>
<path fill-rule="evenodd" clip-rule="evenodd" d="M16.5373 44.7895C16.5373 44.702 16.499 36.0388 13.1716 36.0388C9.84437 36.0388 9.80603 44.702 9.80603 44.7895C9.80603 46.4151 10.9645 47.7742 12.4985 48.0872V51.5208C12.4985 51.8924 12.8001 52.194 13.1716 52.194C13.5432 52.194 13.8447 51.8924 13.8447 51.5208V48.0872C15.3789 47.7742 16.5373 46.4151 16.5373 44.7895ZM13.1717 46.8089C12.0584 46.8089 11.1523 45.9028 11.1523 44.7895C11.1523 41.4359 12.053 37.385 13.1717 37.385C14.2904 37.385 15.1911 41.4359 15.1911 44.7895C15.1911 45.9028 14.2851 46.8089 13.1717 46.8089Z" fill="white"/>
<path fill-rule="evenodd" clip-rule="evenodd" d="M39.4238 46.1358V25.9418C39.4238 25.5703 39.1223 25.2687 38.7507 25.2687C38.3792 25.2687 38.0776 25.5703 38.0776 25.9418V46.1358C38.0776 46.5073 38.3792 46.8089 38.7507 46.8089C39.1223 46.8089 39.4238 46.5073 39.4238 46.1358Z" fill="white"/>
<path fill-rule="evenodd" clip-rule="evenodd" d="M32.0194 29.3075H34.7119C35.0835 29.3075 35.385 29.0059 35.385 28.6344V24.5956C35.385 24.2241 35.0835 23.9225 34.7119 23.9225H32.0194C31.6479 23.9225 31.3463 24.2241 31.3463 24.5956V28.6344C31.3463 29.0059 31.6479 29.3075 32.0194 29.3075ZM32.6925 25.2687H34.0388V27.9612H32.6925V25.2687Z" fill="white"/>
<path fill-rule="evenodd" clip-rule="evenodd" d="M10.4791 35.3657C10.8507 35.3657 11.1522 35.0641 11.1522 34.6926V29.3075H18.5567C18.9283 29.3075 19.2298 29.0059 19.2298 28.6344C19.2298 28.2629 18.9283 27.9613 18.5567 27.9613H11.1523V27.2882C11.1523 26.9167 10.8508 26.6151 10.4792 26.6151C10.1077 26.6151 9.80603 26.9165 9.80603 27.2881V34.6926C9.80603 35.0641 10.1076 35.3657 10.4791 35.3657Z" fill="white"/>
</g>
</g>
<defs>
<clipPath id="clip0_0_2333">
<rect width="60" height="60" fill="white"/>
</clipPath>
<clipPath id="clip1_0_2333">
<rect width="42" height="42" fill="white" transform="translate(9 11)"/>
</clipPath>
</defs>
</svg>
