<?xml version="1.0" encoding="UTF-8" standalone="no"?>
<svg width="60px" height="60px" viewBox="0 0 60 60" version="1.1" xmlns="http://www.w3.org/2000/svg" xmlns:xlink="http://www.w3.org/1999/xlink" xmlns:sketch="http://www.bohemiancoding.com/sketch/ns">
    <!-- Generator: Sketch 3.4.4 (17249) - http://www.bohemiancoding.com/sketch -->
    <title>government-phase</title>
    <desc>Created with Sketch.</desc>
    <defs></defs>
    <g id="Page-1" stroke="none" stroke-width="1" fill="none" fill-rule="evenodd" sketch:type="MSPage">
        <g id="Artboard-3" sketch:type="MSArtboardGroup" transform="translate(-180.000000, -63.000000)" fill="#FFFFFF">
            <g id="government-phase" sketch:type="MSLayerGroup" transform="translate(180.000000, 63.000000)">
                <g id="university" transform="translate(9.000000, 11.000000)" sketch:type="MSShapeGroup">
                    <path d="M15.6149194,25.7118963 C15.6149194,26.0834335 15.9164877,26.3850018 16.2880249,26.3850018 L18.9806046,26.3850018 C19.3521418,26.3850018 19.6537101,26.0834335 19.6537101,25.7118963 L19.6537101,21.6731055 C19.6537101,21.3015683 19.3521418,21 18.9806046,21 L16.2881037,21 C15.9165665,21 15.6149982,21.3015683 15.6149982,21.6731055 L15.6149982,25.7118963 L15.6149194,25.7118963 Z M16.9612092,22.3462899 L18.3074991,22.3462899 L18.3074991,25.0387908 L16.9612092,25.0387908 L16.9612092,22.3462899 L16.9612092,22.3462899 Z" id="Shape"></path>
                    <path d="M16.2881037,18.3074991 L18.9806046,18.3074991 C19.3521418,18.3074991 19.6537101,18.0059308 19.6537101,17.6343936 L19.6537101,13.5956029 C19.6537101,13.2240657 19.3521418,12.9224974 18.9806046,12.9224974 L16.2881037,12.9224974 C15.9165665,12.9224974 15.6149982,13.2240657 15.6149982,13.5956029 L15.6149982,17.6343936 C15.6149194,18.0059308 15.9164877,18.3074991 16.2881037,18.3074991 L16.2881037,18.3074991 Z M16.9612092,14.2687084 L18.3074991,14.2687084 L18.3074991,16.9612092 L16.9612092,16.9612092 L16.9612092,14.2687084 L16.9612092,14.2687084 Z" id="Shape"></path>
                    <path d="M11.2497123,13.4992872 L21,7.64911453 L30.7502877,13.4992872 C30.8586725,13.564602 30.9784952,13.595524 31.096267,13.595524 C31.3251055,13.595524 31.5479489,13.4790932 31.6738456,13.2690288 C31.8656882,12.9499485 31.7620364,12.5366824 31.4436661,12.3454709 L21.6731055,6.48322922 L21.6731055,2.15233608 L25.0387908,2.15233608 L25.0387908,3.49862596 L23.0193954,3.49862596 C22.6478582,3.49862596 22.3462899,3.80019426 22.3462899,4.17173146 C22.3462899,4.54326865 22.6478582,4.84483696 23.0193954,4.84483696 L25.7118963,4.84483696 C26.0834335,4.84483696 26.3850018,4.54326865 26.3850018,4.17173146 L26.3850018,1.47915169 C26.3850018,1.1076145 26.0834335,0.806046196 25.7118963,0.806046196 L21,0.806046196 C20.6284628,0.806046196 20.3268945,1.1076145 20.3268945,1.47915169 L20.3268945,6.48322922 L10.5564128,12.3455498 C10.2380425,12.5366824 10.1343907,12.9500274 10.3262333,13.2691076 C10.516656,13.5874779 10.9312631,13.6911297 11.2497123,13.4992872 L11.2497123,13.4992872 Z" id="Shape"></path>
                    <path d="M8.21052222,26.3850806 C8.58205942,26.3850806 8.88362772,26.0835123 8.88362772,25.7119751 L8.88362772,21.6731844 C8.88362772,21.3016472 8.58205942,21.0000789 8.21052222,21.0000789 L5.51794246,21.0000789 C5.14640526,21.0000789 4.84483696,21.3016472 4.84483696,21.6731844 L4.84483696,23.0193954 C4.84483696,23.3909326 5.14640526,23.6925009 5.51794246,23.6925009 C5.88947965,23.6925009 6.19104796,23.3909326 6.19104796,23.0193954 L6.19104796,22.3462899 L7.53733784,22.3462899 L7.53733784,25.7119751 C7.53733784,26.0835123 7.83890614,26.3850806 8.21052222,26.3850806 L8.21052222,26.3850806 Z" id="Shape"></path>
                    <path d="M12.9224185,35.1357677 L12.9224185,15.6149194 C12.9224185,15.2433822 12.6208502,14.9418139 12.249313,14.9418139 C11.8777758,14.9418139 11.5762075,15.2433822 11.5762075,15.6149194 L11.5762075,35.1357677 C11.5762075,35.5073049 11.8777758,35.8088732 12.249313,35.8088732 C12.6208502,35.8088732 12.9224185,35.5073049 12.9224185,35.1357677 L12.9224185,35.1357677 Z" id="Shape"></path>
                    <path d="M9.55673322,38.5014529 L32.4431879,38.5014529 C32.8147251,38.5014529 33.1162934,38.1998846 33.1162934,37.8283474 C33.1162934,37.4568102 32.8147251,37.1552419 32.4431879,37.1552419 L26.3850018,37.1552419 L26.3850018,30.4239503 L27.0581073,30.4239503 C27.4296445,30.4239503 27.7312128,30.122382 27.7312128,29.7508448 C27.7312128,29.3793076 27.4296445,29.0777393 27.0581073,29.0777393 L14.9418139,29.0777393 C14.5702767,29.0777393 14.2687084,29.3793076 14.2687084,29.7508448 C14.2687084,30.122382 14.5702767,30.4239503 14.9418139,30.4239503 L15.6149194,30.4239503 L15.6149194,37.155163 L9.55673322,37.155163 C9.18519602,37.155163 8.88362772,37.4567313 8.88362772,37.8282685 C8.88362772,38.1998057 9.18519602,38.5014529 9.55673322,38.5014529 L9.55673322,38.5014529 Z M21.6731055,34.4626622 C22.0446427,34.4626622 22.346211,34.1610939 22.346211,33.7895567 C22.346211,33.4180195 22.0446427,33.1164512 21.6731055,33.1164512 L21.6731055,30.4239503 L25.0387908,30.4239503 L25.0387908,37.155163 L21.6731055,37.155163 L21.6731055,34.4626622 L21.6731055,34.4626622 Z M16.9612092,30.4238714 L20.3268945,30.4238714 L20.3268945,33.1163723 C19.9553573,33.1163723 19.653789,33.4179406 19.653789,33.7894778 C19.653789,34.161015 19.9553573,34.4625833 20.3268945,34.4625833 L20.3268945,37.155163 L16.9612092,37.155163 L16.9612092,30.4238714 L16.9612092,30.4238714 Z" id="Shape"></path>
                    <path d="M36.4820575,29.750687 L33.7895567,29.750687 C33.4180195,29.750687 33.1164512,30.0522553 33.1164512,30.4237925 L33.1164512,34.4625833 C33.1164512,34.8341205 33.4180195,35.1356888 33.7895567,35.1356888 L36.4820575,35.1356888 C36.8535947,35.1356888 37.155163,34.8341205 37.155163,34.4625833 L37.155163,30.4237925 C37.155163,30.0522553 36.8535947,29.750687 36.4820575,29.750687 L36.4820575,29.750687 Z M35.8088732,33.7894778 L34.4625833,33.7894778 L34.4625833,31.0969769 L35.8088732,31.0969769 L35.8088732,33.7894778 L35.8088732,33.7894778 Z" id="Shape"></path>
                    <path d="M36.4820575,21.6731055 L33.7895567,21.6731055 C33.4180195,21.6731055 33.1164512,21.9746738 33.1164512,22.346211 L33.1164512,26.3850018 C33.1164512,26.756539 33.4180195,27.0581073 33.7895567,27.0581073 L36.4820575,27.0581073 C36.8535947,27.0581073 37.155163,26.756539 37.155163,26.3850018 L37.155163,22.346211 C37.155163,21.9746738 36.8535947,21.6731055 36.4820575,21.6731055 L36.4820575,21.6731055 Z M35.8088732,25.7118963 L34.4625833,25.7118963 L34.4625833,23.0193954 L35.8088732,23.0193954 L35.8088732,25.7118963 L35.8088732,25.7118963 Z" id="Shape"></path>
                    <path d="M35.1357677,39.8476639 L6.86423234,39.8476639 C6.49269514,39.8476639 6.19112684,40.1492322 6.19112684,40.5207694 C6.19112684,40.8923066 6.49269514,41.1939538 6.86423234,41.1939538 L35.1357677,41.1939538 C35.5073049,41.1939538 35.8088732,40.8923855 35.8088732,40.5208483 C35.8088732,40.1493111 35.5073049,39.8476639 35.1357677,39.8476639 L35.1357677,39.8476639 Z" id="Shape"></path>
                    <path d="M40.5208483,15.6149194 C40.1493111,15.6149194 39.8477428,15.9164877 39.8477428,16.2880249 L39.8477428,16.9611304 L32.4432668,16.9611304 C32.0717296,16.9611304 31.7701613,17.2626987 31.7701613,17.6342359 C31.7701613,18.0057731 32.0717296,18.3073414 32.4432668,18.3073414 L39.8477428,18.3073414 L39.8477428,40.5206905 C39.8477428,40.8922277 40.1493111,41.193796 40.5208483,41.193796 C40.8923855,41.193796 41.1939538,40.8922277 41.1939538,40.5206905 L41.1939538,16.287946 C41.1939538,15.9164877 40.8923855,15.6149194 40.5208483,15.6149194 L40.5208483,15.6149194 Z" id="Shape"></path>
                    <path d="M22.3462899,25.7118963 C22.3462899,26.0834335 22.6478582,26.3850018 23.0193954,26.3850018 L25.7118963,26.3850018 C26.0834335,26.3850018 26.3850018,26.0834335 26.3850018,25.7118963 L26.3850018,21.6731055 C26.3850018,21.3015683 26.0834335,21 25.7118963,21 L23.0193954,21 C22.6478582,21 22.3462899,21.3015683 22.3462899,21.6731055 L22.3462899,25.7118963 L22.3462899,25.7118963 Z M23.6925009,22.3462899 L25.0387908,22.3462899 L25.0387908,25.0387908 L23.6925009,25.0387908 L23.6925009,22.3462899 L23.6925009,22.3462899 Z" id="Shape"></path>
                    <path d="M7.53733784,33.7894778 C7.53733784,33.7019969 7.49900088,25.0387908 4.17165257,25.0387908 C0.844383155,25.0387908 0.806046196,33.7019969 0.806046196,33.7894778 C0.806046196,35.4150911 1.96451653,36.7741599 3.49854708,37.0871662 L3.49854708,40.5208483 C3.49854708,40.8923855 3.80011538,41.1939538 4.17165257,41.1939538 C4.54318977,41.1939538 4.84475807,40.8923855 4.84475807,40.5208483 L4.84475807,37.0871662 C6.3788675,36.7741599 7.53733784,35.4150911 7.53733784,33.7894778 L7.53733784,33.7894778 Z M4.17173146,35.8088732 C3.05838199,35.8088732 2.15233608,34.9028273 2.15233608,33.7894778 C2.15233608,30.4359404 3.05301797,26.3850018 4.17173146,26.3850018 C5.29044494,26.3850018 6.19112684,30.4359404 6.19112684,33.7894778 C6.19112684,34.9028273 5.28508093,35.8088732 4.17173146,35.8088732 L4.17173146,35.8088732 Z" id="Shape"></path>
                    <path d="M30.4238714,35.1357677 L30.4238714,14.9418139 C30.4238714,14.5702767 30.1223031,14.2687084 29.7507659,14.2687084 C29.3792287,14.2687084 29.0776604,14.5702767 29.0776604,14.9418139 L29.0776604,35.1357677 C29.0776604,35.5073049 29.3792287,35.8088732 29.7507659,35.8088732 C30.1223031,35.8088732 30.4238714,35.5073049 30.4238714,35.1357677 L30.4238714,35.1357677 Z" id="Shape"></path>
                    <path d="M23.0193954,18.3074991 L25.7118963,18.3074991 C26.0834335,18.3074991 26.3850018,18.0059308 26.3850018,17.6343936 L26.3850018,13.5956029 C26.3850018,13.2240657 26.0834335,12.9224974 25.7118963,12.9224974 L23.0193954,12.9224974 C22.6478582,12.9224974 22.3462899,13.2240657 22.3462899,13.5956029 L22.3462899,17.6343936 C22.3462899,18.0059308 22.6478582,18.3074991 23.0193954,18.3074991 L23.0193954,18.3074991 Z M23.6925009,14.2687084 L25.0387908,14.2687084 L25.0387908,16.9612092 L23.6925009,16.9612092 L23.6925009,14.2687084 L23.6925009,14.2687084 Z" id="Shape"></path>
                    <path d="M1.47915169,24.3656853 C1.85068889,24.3656853 2.15225719,24.064117 2.15225719,23.6925798 L2.15225719,18.3074991 L9.55673322,18.3074991 C9.92827041,18.3074991 10.2298387,18.0059308 10.2298387,17.6343936 C10.2298387,17.2628564 9.92827041,16.9612881 9.55673322,16.9612881 L2.15233608,16.9612881 L2.15233608,16.2881826 C2.15233608,15.9166454 1.85076777,15.6150771 1.47923058,15.6150771 C1.10769338,15.6150771 0.806046196,15.9164877 0.806046196,16.2881037 L0.806046196,23.6925798 C0.806046196,24.064117 1.1076145,24.3656853 1.47915169,24.3656853 L1.47915169,24.3656853 Z" id="Shape"></path>
                </g>
            </g>
        </g>
    </g>
</svg>