<svg id="Layer_1" data-name="Layer 1" xmlns="http://www.w3.org/2000/svg" viewBox="0 0 303.64 195.64"><title>ID-kaart</title><rect x="9.64" y="8.04" width="284.36" height="179.56" rx="8.5" ry="8.5" style="fill:#fff"/><path d="M609.81,1070.77H368.33a31.11,31.11,0,0,1-31.08-31.08V906.21a31.11,31.11,0,0,1,31.08-31.08H609.81a31.11,31.11,0,0,1,31.08,31.08v133.48A31.11,31.11,0,0,1,609.81,1070.77Zm-241.48-185a20.49,20.49,0,0,0-20.47,20.47v133.48a20.49,20.49,0,0,0,20.47,20.47H609.81a20.5,20.5,0,0,0,20.47-20.47V906.21a20.5,20.5,0,0,0-20.47-20.47Z" transform="translate(-337.25 -875.13)" style="fill:#003168"/><path d="M386,1022.43V991.35a15.9,15.9,0,0,1,15.86-15.86h77.29A15.9,15.9,0,0,1,495,991.35v56.25" transform="translate(-337.25 -875.13)" style="fill:#fff"/><path d="M500.28,1047.6H489.67V991.34a10.56,10.56,0,0,0-10.55-10.55H401.83a10.56,10.56,0,0,0-10.55,10.55v31.09H380.67V991.34a21.18,21.18,0,0,1,21.16-21.16h77.29a21.18,21.18,0,0,1,21.16,21.16Z" transform="translate(-337.25 -875.13)" style="fill:#003168"/><circle cx="103.23" cy="57.14" r="23.31" style="fill:#fff"/><path d="M440.47,960.88a28.62,28.62,0,1,1,28.62-28.61A28.64,28.64,0,0,1,440.47,960.88Zm0-46.62a18,18,0,1,0,18,18A18,18,0,0,0,440.47,914.26Z" transform="translate(-337.25 -875.13)" style="fill:#003168"/><rect x="181.52" y="45.95" width="77.39" height="10.61" style="fill:#003168"/><rect x="181.52" y="73.92" width="77.39" height="10.61" style="fill:#003168"/></svg>