<?xml version="1.0" encoding="UTF-8"?>
<svg width="62.67mm" height="12.39mm" version="1.1" viewBox="0 0 62.67 12.39" xmlns="http://www.w3.org/2000/svg">
 <g transform="translate(-7.972 -14.32)">
  <g transform="matrix(.3528 0 0 -.3528 2.269 29.82)" opacity=".97">
   <g transform="scale(.1)">
    <path d="m589.4 439.6h-382.1c-25.17 0-45.64-19.71-45.64-43.93v-263.3c0-24.22 20.47-43.92 45.64-43.92h382.1c25.17 0 45.63 19.7 45.63 43.92v263.3c0 24.22-20.46 43.93-45.63 43.93" fill="#fff"/>
    <path d="m447.6 208h-36.43v111.6h37.76s53.14 3.969 53.14-54.35c0-58.32-54.47-57.26-54.47-57.26m18.29 179.5h-122.8c-5.582 0-10.15-4.558-10.15-10.14v-226.4c0-5.59 4.571-10.15 10.15-10.15h115.7c115.1 0 124.2 90.33 124.2 115.2v19.09c-3.981 98.88-84.57 112.4-117.2 112.4" fill="#003167"/>
    <path d="m304.6 330v47.34c0 5.578-4.57 10.15-10.15 10.15h-57.93c-5.57 0-10.14-4.57-10.14-10.15v-78.62" fill="#f04e22"/>
    <path d="m226.4 270.1v-119.2c0-5.578 4.566-10.15 10.15-10.15h57.93c5.57 0 10.14 4.571 10.14 10.15v150.5" fill="#003167"/>
    <path d="m589.4 439.6h-382.1c-25.17 0-45.64-19.71-45.64-43.93v-263.3c0-24.22 20.47-43.92 45.64-43.92h382.1c25.17 0 45.63 19.7 45.63 43.92v263.3c0 24.22-20.46 43.93-45.63 43.93m0-13.06c17.96 0 32.58-13.85 32.58-30.87v-263.3c0-17.02-14.62-30.87-32.58-30.87h-382.1c-17.97 0-32.58 13.85-32.58 30.87v263.3c0 17.02 14.61 30.87 32.58 30.87h382.1" fill="#003167"/>
    <g transform="scale(10)">
     <g transform="matrix(1 0 0 -1 69.33 14.1)" fill="#003167" aria-label="KAART">
      <path d="m7.445 0v-12.78l10.8 12.78h5.232v-0.8049l-10.56-12.24 10.46-11v-0.7714h-4.997l-10.93 11.87v-11.87h-4.762v24.82z"/>
      <path d="m25.46-0.872v0.872h4.628l2.616-6.909h10.26l2.717 6.909h4.729v-0.872l-9.424-23.95h-6.037zm11.81-17.94 0.436-1.375h0.1677l0.436 1.375 3.22 8.25h-7.412z"/>
      <path d="m52.35-0.872v0.872h4.628l2.616-6.909h10.26l2.717 6.909h4.729v-0.872l-9.424-23.95h-6.037zm11.81-17.94 0.436-1.375h0.1677l0.436 1.375 3.22 8.25h-7.412z"/>
      <path d="m85.35 0v-9.726h2.314c2.582 0 4.025 1.241 5.064 3.589l2.683 6.137h4.729v-0.9055l-2.515-6.037c-0.8384-1.912-1.945-3.287-3.354-3.79 2.918-0.7714 5.467-3.052 5.467-6.842 0-3.957-3.186-7.244-8.15-7.244h-11v24.82zm4.829-20.96c2.884 0 4.427 1.61 4.427 3.79 0 2.281-1.778 3.689-4.326 3.689h-4.93v-7.479z"/>
      <path d="m115.8 0v-20.83h8.72v-3.991h-22.2v3.991h8.72v20.83z"/>
     </g>
    </g>
   </g>
  </g>
 </g>
</svg>
