<?xml version="1.0" encoding="utf-8"?>
<!-- Generator: Adobe Illustrator 24.0.3, SVG Export Plug-In . SVG Version: 6.00 Build 0)  -->
<svg version="1.1" id="Layer_1" xmlns="http://www.w3.org/2000/svg" xmlns:xlink="http://www.w3.org/1999/xlink" x="0px" y="0px"
	 viewBox="0 0 198.43 84.5" style="enable-background:new 0 0 198.43 84.5;" xml:space="preserve">
<g fill="#1C71A2">
	<g>
		<path d="M150.95,61.65v11.53c-1.24,1.46-3.07,2.66-5.07,2.66c-2.69,0-4.31-1.74-4.31-4.94v-9.25h-2.22v9.57
			c0,4.18,2.35,6.66,6.12,6.66c2.41,0,4.09-1.01,5.48-2.54v2.22h2.22V61.65H150.95z M126.66,75.72c-3.36,0-5.48-2.47-5.48-5.99
			c0-3.58,2.44-6.37,6.05-6.37c2.44,0,3.99,0.95,5.04,1.87v4.63C132.27,72.9,130.05,75.72,126.66,75.72 M132.33,61.65l-0.06,1.46
			c-1.24-0.98-3.07-1.77-5.32-1.77c-4.72,0-8.02,3.52-8.02,8.4c0,4.72,2.85,8.02,7.32,8.02c2.63,0,4.85-1.33,5.99-3.49v2.79
			c0,3.67-2.41,5.39-5.58,5.39c-2.79,0-4.75-0.79-6.15-1.65l-0.92,1.97c1.58,0.95,3.71,1.74,7.07,1.74c4.5,0,7.8-2.47,7.8-7.38
			V61.65H132.33z M107.87,75.79c-3.45,0-6.05-2.5-6.05-6.21c0-3.61,2.53-6.15,6.05-6.15c3.55,0,6.08,2.5,6.08,6.18
			C113.95,73.25,111.48,75.79,107.87,75.79 M107.87,77.88c4.91,0,8.37-3.42,8.37-8.27s-3.45-8.27-8.37-8.27
			c-4.82,0-8.33,3.42-8.33,8.27S103.05,77.88,107.87,77.88 M97.76,75.5c-1.74,0-2.98-1.01-4.75-3.14l-4.98-6.02l9.28-11.28h-2.63
			l-8.65,10.46h-1.65V55.06h-2.35v22.53h2.35V67.55h1.81l4.72,5.83c2.38,2.91,3.87,4.28,6.34,4.28h0.32l0.51-2.15H97.76z"/>
		<path d="M190.06,48.54c-3.45,0-6.05-2.5-6.05-6.21c0-3.61,2.53-6.15,6.05-6.15c3.55,0,6.08,2.5,6.08,6.18
			C196.14,46,193.67,48.54,190.06,48.54 M190.06,50.63c4.91,0,8.37-3.42,8.37-8.27s-3.45-8.27-8.37-8.27
			c-4.82,0-8.33,3.42-8.33,8.27S185.24,50.63,190.06,50.63 M193.39,30.76c0.89,0,1.59-0.7,1.59-1.55c0-0.89-0.7-1.58-1.59-1.58
			c-0.86,0-1.55,0.7-1.55,1.58C191.83,30.06,192.53,30.76,193.39,30.76 M186.67,30.76c0.89,0,1.55-0.7,1.55-1.55
			c0-0.89-0.67-1.58-1.55-1.58s-1.58,0.7-1.58,1.58C185.08,30.06,185.78,30.76,186.67,30.76 M170.74,48.54
			c-3.45,0-6.05-2.5-6.05-6.21c0-3.61,2.54-6.15,6.05-6.15c3.55,0,6.08,2.5,6.08,6.18C176.83,46,174.35,48.54,170.74,48.54
			 M170.74,50.63c4.91,0,8.37-3.42,8.37-8.27s-3.45-8.27-8.37-8.27c-4.82,0-8.33,3.42-8.33,8.27S165.92,50.63,170.74,50.63
			 M174.07,30.76c0.89,0,1.59-0.7,1.59-1.55c0-0.89-0.7-1.58-1.59-1.58c-0.86,0-1.55,0.7-1.55,1.58
			C172.52,30.06,173.21,30.76,174.07,30.76 M167.35,30.76c0.89,0,1.55-0.7,1.55-1.55c0-0.89-0.67-1.58-1.55-1.58
			c-0.89,0-1.58,0.7-1.58,1.58C165.77,30.06,166.46,30.76,167.35,30.76 M160.4,50.6h0.13l0.44-2.12h-0.25
			c-2.92,0-4.25-1.24-4.25-4.22v-7.83h4.72v-2.03h-4.72v-3.9h-2.19v3.9h-3.04v2.03h3.04v8.11C154.29,48.73,156.35,50.6,160.4,50.6
			 M143.58,50.63c3.49,0,5.77-1.84,5.77-4.66c0-2.92-2.22-3.71-5.01-4.66c-2.38-0.79-3.87-1.27-3.87-3.01
			c0-1.46,1.33-2.35,2.88-2.35c1.68,0,2.98,0.7,3.74,1.71l1.52-1.24c-0.95-1.43-2.73-2.35-5.23-2.35c-2.88,0-5.13,1.65-5.13,4.37
			c0,2.85,2.41,3.9,4.85,4.66c2.6,0.79,4.02,1.33,4.02,2.95c0,1.68-1.46,2.63-3.55,2.63c-2,0-3.74-0.57-5.1-1.46l-0.92,1.81
			C139.05,50,140.95,50.63,143.58,50.63 M127.18,48.54c-3.45,0-6.05-2.5-6.05-6.21c0-3.61,2.53-6.15,6.05-6.15
			c3.55,0,6.09,2.5,6.09,6.18C133.27,46,130.8,48.54,127.18,48.54 M127.18,50.63c4.91,0,8.37-3.42,8.37-8.27s-3.45-8.27-8.37-8.27
			c-4.82,0-8.33,3.42-8.33,8.27S122.37,50.63,127.18,50.63 M107.87,48.54c-3.45,0-6.05-2.5-6.05-6.21c0-3.61,2.53-6.15,6.05-6.15
			c3.55,0,6.08,2.5,6.08,6.18C113.95,46,111.48,48.54,107.87,48.54 M107.87,50.63c4.91,0,8.37-3.42,8.37-8.27s-3.45-8.27-8.37-8.27
			c-4.82,0-8.33,3.42-8.33,8.27S103.05,50.63,107.87,50.63 M97.76,48.25c-1.74,0-2.98-1.01-4.75-3.14l-4.98-6.02l9.28-11.28h-2.63
			l-8.65,10.46h-1.65V27.81h-2.35v22.53h2.35V40.3h1.81l4.72,5.83c2.38,2.91,3.87,4.28,6.34,4.28h0.32l0.51-2.15H97.76z"/>
		<path d="M142.11,23.06h2.15V7.16h-2.15V23.06z M143.25,3.61c0.95,0,1.68-0.73,1.68-1.68s-0.73-1.68-1.68-1.68
			c-0.95,0-1.68,0.73-1.68,1.68S142.3,3.61,143.25,3.61 M138.33,23.35h0.13l0.44-2.12h-0.25c-2.92,0-4.25-1.24-4.25-4.22V9.18h4.72
			V7.16h-4.72v-3.9h-2.19v3.9h-3.04v2.03h3.04v8.11C132.22,21.48,134.28,23.35,138.33,23.35 M121.51,23.38
			c3.49,0,5.77-1.84,5.77-4.66c0-2.92-2.22-3.71-5.01-4.66c-2.38-0.79-3.87-1.27-3.87-3.01c0-1.46,1.33-2.35,2.88-2.35
			c1.68,0,2.98,0.7,3.74,1.71l1.52-1.24c-0.95-1.43-2.73-2.35-5.23-2.35c-2.88,0-5.13,1.65-5.13,4.37c0,2.85,2.41,3.9,4.85,4.66
			c2.6,0.79,4.02,1.33,4.02,2.95c0,1.68-1.46,2.63-3.55,2.63c-2,0-3.74-0.57-5.1-1.46l-0.92,1.81
			C116.97,22.75,118.88,23.38,121.51,23.38 M100.74,13.97c0.32-3.26,2.6-5.16,5.26-5.16s4.53,1.9,4.88,5.16H100.74z M113.22,15.52
			c0-5.36-3.01-8.68-7.23-8.68c-4.31,0-7.57,3.45-7.57,8.27c0,4.56,3.04,8.24,8.33,8.24c2.63,0,4.34-0.54,5.89-1.3l-0.6-1.93
			c-1.33,0.73-3.14,1.2-5.23,1.2c-3.64,0-5.83-2.12-6.12-5.55h12.52V15.52z M82.04,23.06h13.5v-2.15H84.38v-8.08h10.27V10.7H84.38
			V2.72h10.9V0.56H82.04V23.06z"/>
	</g>
	<g>
		<path d="M8.1,21.05h2.71l6.9,8.89c0.92,1.16,1.78,2.18,2.58,3.07c0.8,0.88,1.63,1.62,2.48,2.2c0.85,0.58,1.75,1.01,2.68,1.3
			c0.94,0.29,1.98,0.43,3.14,0.43h0.77l0.92-4.6H29.6c-1.43,0-2.72-0.4-3.86-1.2c-1.14-0.8-2.36-2.02-3.65-3.65l-7.25-8.99
			L29.09,0.51h-5.77L10.45,16.86H8.1V0.51H2.89v36.32H8.1V21.05z"/>
		<path d="M18.8,73.3c-1.97,0-3.78-0.32-5.42-0.97c-1.63-0.65-3.04-1.58-4.21-2.78s-2.09-2.65-2.76-4.32c-0.66-1.67-1-3.52-1-5.57
			c0-2.08,0.32-3.96,0.97-5.65c0.65-1.69,1.53-3.13,2.66-4.34c1.12-1.21,2.44-2.14,3.96-2.78c1.52-0.65,3.14-0.97,4.88-0.97
			c2.42,0,4.44,0.51,6.08,1.53c1.63,1.02,3.03,2.25,4.19,3.68l4.09-3.12c-1.53-2.04-3.49-3.73-5.87-5.06
			c-2.38-1.33-5.19-1.99-8.43-1.99c-2.49,0-4.83,0.44-7.02,1.33c-2.2,0.88-4.1,2.14-5.7,3.78c-1.6,1.63-2.87,3.6-3.81,5.9
			C0.47,54.27,0,56.83,0,59.66c0,2.72,0.45,5.23,1.35,7.51s2.18,4.24,3.83,5.87c1.65,1.64,3.63,2.91,5.95,3.83
			c2.32,0.92,4.89,1.38,7.71,1.38c1.6,0,3.05-0.08,4.34-0.26c1.29-0.17,2.49-0.41,3.6-0.71c1.11-0.31,2.12-0.66,3.04-1.07
			c0.92-0.41,1.81-0.83,2.66-1.28V59.56H20.13v4.55h7.25v7.41c-0.99,0.51-2.14,0.94-3.45,1.28C22.62,73.13,20.91,73.3,18.8,73.3"/>
		<path d="M35.77,18.64c0-1.97,0.34-3.8,1.02-5.47c0.68-1.67,1.62-3.12,2.81-4.34c1.19-1.23,2.61-2.18,4.27-2.86
			c1.65-0.68,3.46-1.02,5.44-1.02c1.97,0,3.79,0.34,5.44,1.02c1.65,0.68,3.08,1.64,4.29,2.86c1.21,1.23,2.14,2.67,2.81,4.34
			c0.66,1.67,1,3.49,1,5.47c0,1.97-0.33,3.8-1,5.47c-0.66,1.67-1.6,3.12-2.81,4.34c-1.21,1.23-2.64,2.18-4.29,2.86
			c-1.65,0.68-3.47,1.02-5.44,1.02c-1.97,0-3.79-0.34-5.44-1.02c-1.65-0.68-3.07-1.64-4.27-2.86c-1.19-1.23-2.13-2.67-2.81-4.34
			C36.11,22.44,35.77,20.62,35.77,18.64 M30.36,18.64c0,2.72,0.48,5.23,1.43,7.51c0.95,2.28,2.27,4.25,3.96,5.9
			c1.69,1.65,3.69,2.94,6,3.86c2.32,0.92,4.82,1.38,7.51,1.38c2.73,0,5.25-0.46,7.56-1.38c2.32-0.92,4.32-2.21,6-3.88
			c1.69-1.67,3.01-3.64,3.96-5.92c0.95-2.28,1.43-4.79,1.43-7.51s-0.48-5.23-1.43-7.51c-0.95-2.28-2.27-4.24-3.96-5.87
			c-1.69-1.63-3.68-2.91-5.98-3.83C54.54,0.46,52.03,0,49.31,0s-5.24,0.46-7.56,1.38c-2.32,0.92-4.32,2.21-6,3.86
			c-1.69,1.65-3.01,3.62-3.96,5.9C30.83,13.42,30.36,15.92,30.36,18.64"/>
		<path d="M37.75,41.47v22.88c0,2.11,0.32,4.02,0.97,5.72c0.65,1.7,1.58,3.16,2.81,4.37c1.23,1.21,2.72,2.15,4.5,2.81
			c1.77,0.66,3.78,1,6.03,1c2.25,0,4.26-0.33,6.03-1c1.77-0.66,3.27-1.6,4.49-2.81c1.23-1.21,2.16-2.66,2.81-4.37
			c0.65-1.7,0.97-3.61,0.97-5.72V41.47h-5.11v22.12c0,1.64-0.23,3.07-0.69,4.29c-0.46,1.23-1.1,2.24-1.92,3.04
			c-0.82,0.8-1.79,1.4-2.91,1.79c-1.12,0.39-2.35,0.59-3.68,0.59c-1.33,0-2.55-0.2-3.68-0.59c-1.12-0.39-2.09-0.99-2.89-1.79
			c-0.8-0.8-1.43-1.81-1.89-3.04c-0.46-1.23-0.69-2.66-0.69-4.29V41.47H37.75z"/>
	</g>
</g>
</svg>
