<svg width="22" height="22" viewBox="0 0 22 22" fill="none" xmlns="http://www.w3.org/2000/svg">
<circle cx="11" cy="11" r="10.25" fill="#FEEF7F" stroke="#1B1B1B" stroke-width="1.5"/>
<g clip-path="url(#clip0_706_469)">
<path d="M10.7549 5.19788C10.0151 5.34499 9.53471 6.06368 9.68174 6.80334C9.82876 7.543 10.5475 8.02332 11.2874 7.87621C12.0269 7.72911 12.5073 7.01042 12.3603 6.27076C12.2134 5.53118 11.4944 5.05086 10.7549 5.19788Z" fill="black"/>
<path d="M10.3709 7.93042C10.3587 7.92091 10.346 7.91254 10.3334 7.90409C10.1947 7.79445 10.0302 7.71318 9.84549 7.67401C9.66441 7.6354 9.48472 7.64166 9.31632 7.68303L7.44007 8.02705C7.38472 8.03721 7.331 8.05477 7.28037 8.07939L5.91239 8.74314C5.60266 8.89342 5.47336 9.26638 5.62371 9.5761C5.73148 9.79814 5.95368 9.92744 6.18498 9.92744C6.27633 9.92744 6.36906 9.90729 6.45667 9.86478L7.74842 9.23809L8.32163 9.13293L7.88081 11.2073C7.87195 11.249 7.86561 11.2905 7.8613 11.332L7.06256 13.3866L5.37973 14.7979C5.0657 15.0613 5.02465 15.5294 5.28806 15.8433C5.43484 16.0184 5.64517 16.1086 5.85705 16.1086C6.02528 16.1086 6.19449 16.0517 6.33355 15.9351L8.16217 14.4015C8.25783 14.3213 8.33171 14.2181 8.37698 14.1018L8.94653 12.6366C8.95897 12.6376 8.97132 12.638 8.98376 12.6384L10.1018 13.6173L10.4211 15.7124C10.477 16.0798 10.7933 16.3429 11.1538 16.3428C11.191 16.3428 11.2287 16.3401 11.2665 16.3343C11.6717 16.2726 11.9501 15.8941 11.8883 15.489L11.5282 13.1258C11.5018 12.9526 11.4151 12.7944 11.2834 12.6791L10.1966 11.728C10.1987 11.7189 10.2015 11.7102 10.2035 11.7011L10.6263 9.71191L11.1892 10.1515C11.2482 10.1976 11.3151 10.2327 11.3865 10.2551L12.9898 10.7574C13.0518 10.7768 13.1146 10.786 13.1763 10.786C13.4415 10.786 13.6875 10.6153 13.7709 10.3488C13.8738 10.0203 13.691 9.67054 13.3625 9.56765L11.8673 9.0992L10.3709 7.93042Z" fill="black"/>
<path d="M16.6615 10.9067C17.1106 10.8173 17.4027 10.3805 17.3134 9.93109C17.2239 9.48166 16.7871 9.18973 16.3377 9.27904C15.8882 9.36844 15.5961 9.80528 15.6857 10.2546C15.775 10.7042 16.2117 10.996 16.6615 10.9067Z" fill="black"/>
<path d="M13.2195 11.9397C13.285 12.0746 13.42 12.1532 13.5606 12.1532C13.6161 12.1532 13.6724 12.141 13.7256 12.1151L14.5105 11.7342L14.8588 11.6703L14.5908 12.931C14.5855 12.9564 14.5816 12.9817 14.579 13.007L14.0937 14.2554L13.071 15.113C12.8801 15.273 12.8552 15.5574 13.0152 15.7483C13.1045 15.8546 13.2322 15.9094 13.361 15.9094C13.4633 15.9094 13.5661 15.8748 13.6506 15.804L14.762 14.8721C14.8201 14.8232 14.8651 14.7606 14.8925 14.6898L15.2386 13.7995C15.2461 13.8002 15.2537 13.8004 15.2612 13.8007L15.9407 14.3954L16.1346 15.6686C16.1686 15.8918 16.3608 16.0517 16.5799 16.0517C16.6025 16.0517 16.6253 16.05 16.6483 16.0465C16.8946 16.0091 17.0637 15.7791 17.0263 15.5328L16.8076 14.0967C16.7915 13.9916 16.7388 13.8953 16.6587 13.8253L15.9983 13.2473C15.9996 13.2418 16.0014 13.2365 16.0025 13.231L16.2595 12.0222L16.6017 12.2894C16.6375 12.3174 16.6782 12.3386 16.7216 12.3522L17.6958 12.6575C17.7335 12.6693 17.7716 12.6749 17.8092 12.6749C17.9703 12.6749 18.1198 12.5712 18.1705 12.4093C18.2331 12.2097 18.1219 11.9971 17.9223 11.9346L17.0137 11.6499L16.1043 10.9396C16.1009 10.937 16.0971 10.9354 16.0937 10.933C16.0071 10.8614 15.9027 10.8088 15.7851 10.7838C15.6749 10.7602 15.5655 10.7641 15.4631 10.7893L14.3234 10.9983C14.2897 11.0045 14.2571 11.0152 14.2263 11.0302L13.3952 11.4335C13.2067 11.5249 13.1281 11.7514 13.2195 11.9397Z" fill="black"/>
</g>
<defs>
<clipPath id="clip0_706_469">
<rect width="14.08" height="12.32" fill="white" transform="translate(4.40015 4.39996)"/>
</clipPath>
</defs>
</svg>
