<?xml version="1.0" encoding="UTF-8"?>
<svg id="Ikoonid" xmlns="http://www.w3.org/2000/svg" xmlns:xlink="http://www.w3.org/1999/xlink" viewBox="0 0 19.84 19.84">
  <defs>
    <style>
      .cls-1 {
        fill: #fff;
        filter: url(#drop-shadow-92);
        stroke: #ffde17;
        stroke-linecap: round;
        stroke-linejoin: round;
        stroke-width: .4px;
      }

      .cls-2 {
        stroke-width: 0px;
      }
    </style>
    <filter id="drop-shadow-92" filterUnits="userSpaceOnUse">
      <feOffset dx=".28" dy=".28"/>
      <feGaussianBlur result="blur" stdDeviation=".57"/>
      <feFlood flood-color="#231f20" flood-opacity=".4"/>
      <feComposite in2="blur" operator="in"/>
      <feComposite in="SourceGraphic"/>
    </filter>
  </defs>
  <path class="cls-1" d="m15.29,9.2c0-2.97-2.41-5.37-5.37-5.37s-5.37,2.41-5.37,5.37c0,2.47,1.66,4.54,3.93,5.17l1.45,1.65,1.45-1.65c2.26-.63,3.93-2.7,3.93-5.17Z"/>
  <g>
    <path class="cls-2" d="m12.35,6.72l-.79-.17c-.05-.01-.11,0-.15.03s-.08.08-.09.13l-.74,4.07s0,.05,0,.08l.22,1.07c.02.08.08.14.16.16.01,0,.02,0,.04,0,.07,0,.13-.03.17-.09l.57-.9s.02-.05.03-.07l.74-4.07c.02-.11-.05-.21-.16-.23Zm-.97,4.19l-.29.45-.11-.55.69-3.83.4.09-.69,3.84Z"/>
    <path class="cls-2" d="m11.64,6.16l.78.17s.03,0,.04,0c.09,0,.17-.06.2-.16.02-.11-.04-.21-.15-.24l-.78-.17c-.11-.03-.21.05-.24.15-.02.11.04.21.15.24Z"/>
    <path class="cls-2" d="m12.96,6.82c-.11-.02-.21.05-.23.16l-.26,1.48c-.02.11.05.21.16.23.01,0,.02,0,.04,0,.1,0,.18-.07.2-.17l.26-1.48c.02-.11-.05-.21-.16-.23Z"/>
    <path class="cls-2" d="m10.05,11.72c-.07.04-.12.09-.17.13-.03.03-.06.05-.09.07-.09.06-.2.06-.29.02-.07-.04-.12-.1-.14-.17.04-.11.05-.23.04-.35-.01-.09-.08-.16-.17-.17-.09-.02-.17.03-.21.11-.06.11-.08.24-.07.36-.02.03-.03.05-.05.07-.1.12-.25.19-.38.19-.13,0-.23-.03-.34-.08.08-.11.14-.23.19-.36.07-.19.09-.4.04-.6-.06-.24-.25-.42-.53-.47h0c-.31,0-.58.23-.62.55-.03.26.04.52.19.73.04.06.08.12.13.17-.06.03-.13.04-.19.03-.11-.02-.22-.07-.32-.15-.33-.26-.55-.64-.59-1.06-.04-.41.12-.83.42-1.11.2-.18.53-.29.75-.16.09.06.22.03.27-.07.06-.09.03-.22-.07-.27-.41-.25-.93-.07-1.23.2-.39.37-.6.9-.55,1.44.05.53.33,1.01.74,1.33.14.12.31.2.5.23.21.03.41-.03.57-.14.19.12.41.19.62.19h.03c.21,0,.43-.1.59-.25.05.06.12.12.2.16.22.12.49.1.69-.04.05-.03.09-.07.14-.11.04-.03.07-.06.13-.09.07.08.2.1.28.02.08-.07.09-.2.02-.28-.14-.16-.37-.2-.53-.08Zm-2.06-.32c-.03.08-.07.17-.12.24-.04-.04-.07-.09-.1-.13-.1-.13-.14-.29-.12-.45.02-.12.12-.2.2-.2.09.02.16.08.18.17.03.12.02.25-.03.38Z"/>
  </g>
</svg>