<?xml version="1.0" encoding="UTF-8"?>
<svg width="64.8mm" height="12.39mm" version="1.1" viewBox="0 0 64.8 12.39" xmlns="http://www.w3.org/2000/svg">
 <g transform="translate(-33.37 -59.48)">
  <g transform="matrix(.3528 0 0 -.3528 27.67 74.99)">
   <g transform="scale(.1)">
    <path d="m1953 439.6h-382.1c-25.16 0-45.63-19.71-45.63-43.93v-263.3c0-24.21 20.47-43.92 45.63-43.92h382.1c25.17 0 45.63 19.71 45.63 43.92v263.3c0 24.22-20.46 43.93-45.63 43.93" fill="#fff"/>
    <path d="m1811 208h-36.43v111.6h37.77s53.13 3.981 53.13-54.35c0-58.32-54.47-57.26-54.47-57.26m18.29 179.5h-122.8c-5.59 0-10.16-4.562-10.16-10.14v-226.4c0-5.582 4.57-10.15 10.16-10.15h115.7c115.1 0 124.2 90.34 124.2 115.2v19.09c-3.97 98.89-84.57 112.4-117.2 112.4" fill="#003167"/>
    <path d="m1668 330v47.34c0 5.578-4.56 10.14-10.14 10.14h-57.93c-5.57 0-10.14-4.558-10.14-10.14v-78.63" fill="#f04e22"/>
    <path d="m1590 270.1v-119.2c0-5.582 4.57-10.15 10.14-10.15h57.93c5.57 0 10.14 4.571 10.14 10.15v150.5" fill="#003167"/>
    <path d="m1953 439.6h-382.1c-25.16 0-45.63-19.71-45.63-43.93v-263.3c0-24.21 20.47-43.92 45.63-43.92h382.1c25.17 0 45.63 19.71 45.63 43.92v263.3c0 24.22-20.46 43.93-45.63 43.93m0-13.06c17.96 0 32.58-13.84 32.58-30.87v-263.3c0-17.01-14.62-30.86-32.58-30.86h-382.1c-17.96 0-32.57 13.85-32.57 30.86v263.3c0 17.03 14.61 30.87 32.57 30.87h382.1" fill="#003167"/>
    <g transform="scale(10)">
     <g transform="matrix(1 0 0 -1 13.49 14.08)" fill="#003167" aria-label="MOBIIL">
      <path d="m2.664 0h4.63v-18.58l1.565 3.764 6.994 14.82h4.13l6.928-14.85 1.599-3.764v18.62h4.63v-24.65h-6.095l-9.093 19.32-9.226-19.32h-6.062z"/>
      <path d="m49.93 0.3664c7.227 0 12.59-5.695 12.59-12.72 0-7.061-5.329-12.72-12.59-12.72-7.161 0-12.59 5.662-12.59 12.72 0 7.028 5.429 12.72 12.59 12.72zm-0.06661-4.396c-4.43 0-7.66-3.83-7.66-8.326 0-4.53 3.197-8.36 7.66-8.36 4.53 0 7.827 3.83 7.827 8.36 0 4.496-3.264 8.326-7.827 8.326z"/>
      <path d="m76.9 0c5.928 0 9.359-2.998 9.359-7.194 0-3.397-3.064-5.029-4.53-5.129v-0.2998c1.465 0 4.33-1.399 4.33-5.063 0-3.863-3.431-6.961-8.993-6.961h-10.36v24.65zm0.2331-10.49c2.731 0 4.197 1.465 4.197 3.197 0 1.865-1.199 3.464-4.563 3.464h-5.329v-6.661zm-0.03331-10.32c2.565 0 3.997 1.632 3.997 3.297 0 1.699-1.432 3.197-3.997 3.197h-5.662v-6.495z"/>
      <path d="m96.25 0v-24.65h-4.729v24.65z"/>
      <path d="m107.2 0v-24.65h-4.729v24.65z"/>
      <path d="m113.4 0h17.09v-3.997h-12.36v-20.65h-4.729z"/>
     </g>
    </g>
   </g>
  </g>
 </g>
</svg>
