<svg id="Layer_1" data-name="Layer 1" xmlns="http://www.w3.org/2000/svg" viewBox="0 0 176.63 298.64"><defs><style>.cls-1{fill:#003168;}</style></defs><title>mobiil-ID</title><rect class="cls-1" x="63.61" y="263.85" width="51.87" height="10.6"/><rect class="cls-1" x="7.89" y="240.91" width="163.3" height="10.6"/><path class="cls-1" d="M1212.54,1121.6H1098a31.08,31.08,0,0,1-31-31V854a31.08,31.08,0,0,1,31-31h114.54a31.08,31.08,0,0,1,31,31v236.55A31.09,31.09,0,0,1,1212.54,1121.6ZM1098,833.55A20.47,20.47,0,0,0,1077.56,854v236.55A20.47,20.47,0,0,0,1098,1111h114.54a20.47,20.47,0,0,0,20.45-20.45V854a20.47,20.47,0,0,0-20.45-20.45Z" transform="translate(-1066.96 -822.96)"/><path class="cls-1" d="M1141.82,902.09a82.4,82.4,0,0,1,37.92,2,1.67,1.67,0,0,0,.49.08,1.75,1.75,0,0,0,.49-3.42,85.69,85.69,0,0,0-39.53-2.06,1.74,1.74,0,0,0,.63,3.43Z" transform="translate(-1066.96 -822.96)"/><path class="cls-1" d="M1180.23,905.39a2.94,2.94,0,0,1-.84-.12,81.23,81.23,0,0,0-37.34-1.95,3,3,0,0,1-3.49-2.41,2.92,2.92,0,0,1,.48-2.24,3,3,0,0,1,1.93-1.25,87.25,87.25,0,0,1,40.1,2.09,3,3,0,0,1-.84,5.88Zm-23.66-5.9a83.33,83.33,0,0,1,23.52,3.37c.37,0,.55-.13.61-.33a.57.57,0,0,0-.34-.61,84.85,84.85,0,0,0-38.94-2,.5.5,0,0,0-.39.57.47.47,0,0,0,.21.32.46.46,0,0,0,.35.07h0A83.78,83.78,0,0,1,1156.57,899.49Z" transform="translate(-1066.96 -822.96)"/><path class="cls-1" d="M1120.66,924.92a68.21,68.21,0,0,1,74.9,2,1.74,1.74,0,0,0,2-2.86,71.76,71.76,0,0,0-78.73-2.13,1.75,1.75,0,0,0,1.84,3Z" transform="translate(-1066.96 -822.96)"/><path class="cls-1" d="M1196.55,928.51a3,3,0,0,1-1.72-.54,67,67,0,0,0-73.51-2,3,3,0,0,1-3.16-5.11,73,73,0,0,1,80.11,2.17,3,3,0,0,1-1.72,5.46Zm-40-15.06a69,69,0,0,1,39.7,12.46.49.49,0,0,0,.68-.12.54.54,0,0,0-.12-.68,69.91,69.91,0,0,0-40.26-12.64A70.56,70.56,0,0,0,1119.49,923a.54.54,0,0,0-.16.67.48.48,0,0,0,.67.16h0a69.58,69.58,0,0,1,36.57-10.4Z" transform="translate(-1066.96 -822.96)"/><path class="cls-1" d="M1201.64,946.89a57.58,57.58,0,0,0-91.31,1.56,1.74,1.74,0,1,0,2.8,2.07,53.35,53.35,0,0,1,30.5-20.29,54.36,54.36,0,0,1,12.94-1.57,53.75,53.75,0,0,1,42.34,20.4,1.74,1.74,0,0,0,2.73-2.17Z" transform="translate(-1066.96 -822.96)"/><path class="cls-1" d="M1111.73,952.49a3,3,0,0,1-2.42-4.79,58,58,0,0,1,33.19-22.07,58.86,58.86,0,0,1,60.12,20.47h0a3,3,0,0,1-4.7,3.73,52.85,52.85,0,0,0-83.78,1.43A3,3,0,0,1,1111.73,952.49Zm44.84-26.06a56.68,56.68,0,0,0-13.47,1.63,55.55,55.55,0,0,0-31.76,21.13.49.49,0,0,0,.1.69.43.43,0,0,0,.68-.11A54.63,54.63,0,0,1,1143.33,929a55.85,55.85,0,0,1,13.24-1.61,55,55,0,0,1,43.32,20.88.52.52,0,0,0,.33.18.5.5,0,0,0,.36-.11.49.49,0,0,0,.08-.68A56,56,0,0,0,1156.57,926.43Z" transform="translate(-1066.96 -822.96)"/><path class="cls-1" d="M1182.73,947.82a43.26,43.26,0,0,0-26.16-8.69A43.66,43.66,0,0,0,1113,980.06a1.75,1.75,0,0,0,1.64,1.85h.1a1.74,1.74,0,0,0,1.74-1.64,40.12,40.12,0,0,1,40.07-37.65A39.82,39.82,0,0,1,1195,971.36a1.75,1.75,0,0,0,3.35-1A43.27,43.27,0,0,0,1182.73,947.82Z" transform="translate(-1066.96 -822.96)"/><path class="cls-1" d="M1114.76,983.17a3,3,0,0,1-3-3.18,44.91,44.91,0,0,1,71.71-33.18h0A44.44,44.44,0,0,1,1199.59,970a3,3,0,1,1-5.75,1.7,38.58,38.58,0,0,0-37.27-27.85,38.92,38.92,0,0,0-38.81,36.48A3,3,0,0,1,1114.76,983.17Zm41.81-42.79a43,43,0,0,0-10.14,1.23,42.09,42.09,0,0,0-26.11,19.21,42.57,42.57,0,0,0-6,19.32.49.49,0,0,0,.46.51h0a.5.5,0,0,0,.52-.45,41.39,41.39,0,0,1,81-9.19.49.49,0,1,0,.93-.28,42.27,42.27,0,0,0-40.61-30.35Z" transform="translate(-1066.96 -822.96)"/><path class="cls-1" d="M1156.57,953.08a29.67,29.67,0,0,0-28.8,36.75c.41,1.65.57,4.95-1,11.28a1.74,1.74,0,0,0,1.28,2.11,2,2,0,0,0,.42,0,1.75,1.75,0,0,0,1.69-1.33c1.39-5.63,1.73-10,1-12.94a26.18,26.18,0,0,1,19.15-31.67,26.48,26.48,0,0,1,6.26-.76A26.12,26.12,0,0,1,1182,976.48a65.78,65.78,0,0,1,1.79,15.85,1.75,1.75,0,0,0,1.74,1.75h0a1.76,1.76,0,0,0,1.75-1.74,68.65,68.65,0,0,0-1.9-16.69A29.59,29.59,0,0,0,1156.57,953.08Z" transform="translate(-1066.96 -822.96)"/><path class="cls-1" d="M1128.47,1004.52a3,3,0,0,1-2.92-3.71c1.58-6.41,1.31-9.44,1-10.67a30.91,30.91,0,1,1,60-14.79,70.19,70.19,0,0,1,1.93,17,3,3,0,0,1-6,0,64.17,64.17,0,0,0-1.75-15.54,24.91,24.91,0,1,0-48.38,11.92c.78,3.15.44,7.71-1,13.54A3,3,0,0,1,1128.47,1004.52Zm28.1-50.18a29,29,0,0,0-6.8.82A28.41,28.41,0,0,0,1129,989.53c.64,2.6.31,6.59-1,11.88a.57.57,0,0,0,.36.59c.39,0,.54-.14.59-.36,1.34-5.43,1.68-9.59,1-12.34a27.42,27.42,0,0,1,53.25-13.12,66.15,66.15,0,0,1,1.83,16.15.55.55,0,0,0,.49.49.49.49,0,0,0,.49-.49,67.22,67.22,0,0,0-1.86-16.38A28.33,28.33,0,0,0,1156.57,954.34Z" transform="translate(-1066.96 -822.96)"/><path class="cls-1" d="M1156.57,967a15.71,15.71,0,0,0-15.25,19.46c1.3,5.25.59,12.6-2.09,21.85a1.76,1.76,0,0,0,1.19,2.17,2.07,2.07,0,0,0,.49.07,1.75,1.75,0,0,0,1.67-1.26c2.86-9.85,3.57-17.81,2.13-23.67a12.22,12.22,0,0,1,8.94-14.78,12.54,12.54,0,0,1,2.92-.35,12.19,12.19,0,0,1,11.86,9.29c1.8,7.34,1.87,15.91.18,25.48a1.74,1.74,0,1,0,3.43.61c1.78-10,1.7-19.11-.23-26.93A15.66,15.66,0,0,0,1156.57,967Z" transform="translate(-1066.96 -822.96)"/><path class="cls-1" d="M1140.91,1011.84a2.94,2.94,0,0,1-.84-.12,3,3,0,0,1-2-3.71c2.63-9,3.33-16.18,2.08-21.21a17,17,0,1,1,32.93-8.12c2,8,2.06,17.23.25,27.45a3,3,0,0,1-5.91-1c1.66-9.4,1.6-17.8-.16-25a11,11,0,1,0-21.28,5.24c1.5,6.07.78,14.26-2.14,24.32A3,3,0,0,1,1140.91,1011.84Zm15.66-43.55a14.46,14.46,0,0,0-14,17.91c1.35,5.47.64,13-2.1,22.5a.49.49,0,0,0,.33.61.55.55,0,0,0,.61-.33c2.79-9.64,3.5-17.38,2.11-23a13.47,13.47,0,0,1,26.16-6.44c1.85,7.51,1.91,16.26.19,26a.5.5,0,0,0,.4.57.5.5,0,0,0,.57-.4c1.74-9.87,1.67-18.76-.22-26.41A14.41,14.41,0,0,0,1156.57,968.29Z" transform="translate(-1066.96 -822.96)"/><path class="cls-1" d="M1156.15,981.05a1.75,1.75,0,0,0-1.33,1.69,2,2,0,0,0,0,.42,37.81,37.81,0,0,1,1,9.07,70.59,70.59,0,0,1-2.61,17.83,1.73,1.73,0,0,0,0,.45,1.75,1.75,0,0,0,1.3,1.69,1.65,1.65,0,0,0,.44,0,1.74,1.74,0,0,0,1.69-1.3,74.26,74.26,0,0,0,2.72-18.73,41,41,0,0,0-1.12-9.9A1.73,1.73,0,0,0,1156.15,981.05Z" transform="translate(-1066.96 -822.96)"/><path class="cls-1" d="M1155,1013.51a2.84,2.84,0,0,1-.76-.1,3,3,0,0,1-2.24-2.9,2.84,2.84,0,0,1,.1-.76,69.86,69.86,0,0,0,2.56-17.52,36.86,36.86,0,0,0-1-8.77,3,3,0,0,1,2.19-3.63h0a3,3,0,0,1,3.63,2.19,42.65,42.65,0,0,1,1.15,10.2,75.67,75.67,0,0,1-2.76,19A3,3,0,0,1,1155,1013.51Zm1.6-31.26-.12,0h0a.49.49,0,0,0-.37.47,40.45,40.45,0,0,1,1.07,9.49,73.06,73.06,0,0,1-2.65,18.16.51.51,0,0,0,.35.59c.33,0,.54-.13.59-.35a73,73,0,0,0,2.68-18.41,40.25,40.25,0,0,0-1.08-9.6.46.46,0,0,0-.22-.3A.5.5,0,0,0,1156.57,982.25Z" transform="translate(-1066.96 -822.96)"/></svg>