<svg width="60" height="60" viewBox="0 0 60 60" fill="none" xmlns="http://www.w3.org/2000/svg">
<g clip-path="url(#clip0_1016_593)">
<path d="M24 22.2H36.8" stroke="white" stroke-width="2" stroke-linecap="round"/>
<path d="M24 30.2H36.8" stroke="white" stroke-width="2" stroke-linecap="round"/>
<path d="M24 38.2H36.8" stroke="white" stroke-width="2" stroke-linecap="round"/>
<path d="M30.4 13.3432C30.0247 13.0337 29.5976 12.7932 29.1384 12.6328C28.6312 12.4236 28.0869 12.3191 27.5384 12.3256C26.8271 12.331 26.1184 12.4114 25.424 12.5656C24.3088 12.7872 23.7288 13.1624 22.648 13.4536C21.7293 13.7679 20.7606 13.91 19.7904 13.8728C19.2821 13.8547 18.7781 13.7741 18.2896 13.6328C18.0762 14.1021 17.8108 14.546 17.4984 14.956C17.1182 15.4492 16.6915 15.9047 16.224 16.316C15.7032 16.8208 15.3176 17.0088 14.8272 17.5424C14.4006 17.925 14.0526 18.3869 13.8024 18.9024C13.6413 19.1829 13.5525 19.4991 13.544 19.8224C13.533 20.0565 13.5885 20.2889 13.704 20.4928C13.8354 20.7564 14.0653 20.9575 14.344 21.0528C14.4547 21.1115 14.5764 21.1467 14.7013 21.1563C14.8263 21.166 14.9519 21.1498 15.0704 21.1088C15.2057 21.0643 15.3269 20.985 15.4218 20.8789C15.5167 20.7727 15.582 20.6434 15.6112 20.504C15.6704 20.3509 15.6704 20.1811 15.6112 20.028C15.5739 19.9245 15.5064 19.8345 15.4176 19.7696C15.6412 19.8216 15.8541 19.9117 16.0472 20.036C16.2937 20.1917 16.512 20.3881 16.6928 20.6168C16.9556 20.9204 17.178 21.2568 17.3544 21.6176C17.8966 22.5454 18.2272 23.5816 18.3224 24.652C18.4001 25.3191 18.4111 25.9923 18.3552 26.6616C18.3276 27.7916 18.1733 28.9149 17.8952 30.0104C17.7537 30.7301 17.5392 31.4334 17.2552 32.1096C16.6903 33.562 15.742 34.8338 14.5112 35.7896L14.14 37.2584C14.3527 38.2955 14.6887 39.3035 15.1408 40.2608C15.4921 41.1368 15.9589 41.962 16.5288 42.7144C17.0738 43.4794 17.746 44.1453 18.516 44.6832C19.5459 45.4093 20.7119 45.9198 21.944 46.184C23.0824 46.504 23.7928 46.5472 24.9544 46.8624C25.7233 47.0395 26.4786 47.2716 27.2144 47.5568C27.9162 47.8338 28.5782 48.2027 29.1832 48.6536C29.6172 48.9532 30.0243 49.2899 30.4 49.66C30.775 49.2922 31.181 48.9573 31.6136 48.6592C32.2184 48.2074 32.8804 47.8378 33.5824 47.56C34.3181 47.2748 35.0734 47.0427 35.8424 46.8656C37.004 46.5504 37.7144 46.5104 38.8528 46.1872C40.0849 45.923 41.2509 45.4125 42.2808 44.6864C43.0508 44.1485 43.7229 43.4826 44.268 42.7176C44.8378 41.9652 45.3046 41.14 45.656 40.264C46.108 39.3067 46.444 38.2987 46.6568 37.2616L46.2856 35.7928C45.0546 34.8372 44.1062 33.5653 43.5416 32.1128C43.2793 31.4292 43.0654 30.728 42.9016 30.0144C42.6202 28.9192 42.4658 27.7953 42.4416 26.6648C42.3856 25.9955 42.3966 25.3223 42.4744 24.6552C42.5696 23.5848 42.9001 22.5486 43.4424 21.6208C43.6188 21.26 43.8411 20.9236 44.104 20.62C44.2848 20.3913 44.5031 20.1949 44.7496 20.0392C44.9426 19.9149 45.1556 19.8248 45.3792 19.7728C45.2908 19.8378 45.2235 19.9274 45.1856 20.0304C45.1256 20.1848 45.1256 20.356 45.1856 20.5104C45.2148 20.6498 45.2802 20.779 45.3751 20.8851C45.47 20.9912 45.5911 21.0706 45.7264 21.1152C45.8448 21.1562 45.9704 21.1724 46.0954 21.1627C46.2204 21.1531 46.342 21.1179 46.4528 21.0592C46.7314 20.9639 46.9613 20.7628 47.0928 20.4992C47.2084 20.2956 47.2638 20.0634 47.2528 19.8296C47.2442 19.5063 47.1554 19.1901 46.9944 18.9096C46.7441 18.3941 46.3961 17.9322 45.9696 17.5496C45.4792 17.016 45.0896 16.8296 44.5728 16.3232C44.1053 15.9119 43.6785 15.4564 43.2984 14.9632C42.9857 14.553 42.7203 14.1089 42.5072 13.6392C42.0186 13.7805 41.5146 13.8611 41.0064 13.8792C40.0361 13.9165 39.0673 13.7741 38.1488 13.4592C37.0672 13.1688 36.488 12.7936 35.3728 12.572C34.6784 12.4178 33.9696 12.3374 33.2584 12.332C32.7099 12.3255 32.1657 12.4298 31.6584 12.6384C31.2008 12.7976 30.7748 13.0362 30.4 13.3432Z" stroke="white" stroke-width="2" stroke-linecap="round" stroke-linejoin="round"/>
</g>
<defs>
<clipPath id="clip0_1016_593">
<rect width="36.8" height="40" fill="white" transform="translate(12 11)"/>
</clipPath>
</defs>
</svg>
