<?xml version="1.0" encoding="UTF-8" standalone="no"?>
<svg width="60px" height="60px" viewBox="0 0 60 60" version="1.1" xmlns="http://www.w3.org/2000/svg" xmlns:xlink="http://www.w3.org/1999/xlink" xmlns:sketch="http://www.bohemiancoding.com/sketch/ns">
    <!-- Generator: Sketch 3.4.4 (17249) - http://www.bohemiancoding.com/sketch -->
    <title>parliament-phase</title>
    <desc>Created with Sketch.</desc>
    <defs></defs>
    <g id="Page-1" stroke="none" stroke-width="1" fill="none" fill-rule="evenodd" sketch:type="MSPage">
        <g id="Artboard-3" sketch:type="MSArtboardGroup" transform="translate(-120.000000, -63.000000)" fill="#FFFFFF">
            <g id="parliament-phase" sketch:type="MSLayerGroup" transform="translate(120.000000, 63.000000)">
                <path d="M30.0203064,11.7537125 C29.5082456,11.3548347 29.1752037,11.1686366 28.5663727,10.9404699 C27.8821966,10.6840485 27.400131,10.5894716 26.7251202,10.5894716 C25.9067989,10.5894716 25.2267888,10.681093 24.2887248,10.8665818 C23.0040497,11.1205206 22.3359425,11.5500177 21.0898327,11.8825735 C19.8367001,12.2169026 19.0937239,12.4333653 17.7979792,12.3629056 C17.1158266,12.3257842 16.7277935,12.2635999 16.0683754,12.0857954 C15.7718753,12.7077564 15.5680984,13.0464597 15.1570928,13.6005617 C14.6593154,14.2714661 14.290446,14.5814417 13.6878044,15.1614342 C13.0881386,15.7388258 12.6439241,15.9542245 12.0790146,16.5653091 C11.5605263,17.126268 11.2010601,17.4266677 10.8980134,18.1261816 C10.7282787,18.5179661 10.5903246,18.7526349 10.600442,19.1790582 C10.6078218,19.4865512 10.6347222,19.6775964 10.7864836,19.9456035 C10.9728823,20.2749673 11.1667798,20.4453239 11.5211278,20.5829332 C11.826079,20.7013907 12.0510429,20.7607376 12.3580175,20.6476001 C12.6999865,20.5215764 12.885433,20.3045226 12.9810129,19.954943 C13.0371944,19.7499477 13.0615953,19.6070184 12.9810129,19.4100622 C12.9264979,19.2765906 12.8716257,19.2038847 12.7578344,19.1145095 C13.0551677,19.1911168 13.2207364,19.260749 13.4831944,19.4192834 C13.8167124,19.6207321 13.9664503,19.7958174 14.2271228,20.0842768 C14.5871841,20.4827999 14.7268046,20.7619198 14.9896197,21.2296023 C15.687484,22.4708051 15.9211371,23.2924413 16.1055123,24.7023455 C16.2219222,25.5919589 16.179548,26.1057476 16.1427682,27.0020996 C16.0808734,28.5095361 15.9633922,29.3665205 15.6132102,30.8345895 C15.3858657,31.7872146 15.2677894,32.3370607 14.8780899,33.2363682 C14.0628634,35.1184473 13.2998904,36.1347936 11.7163346,37.447993 L11.288546,39.1289781 C11.5983773,40.5074355 11.8566693,41.2774092 12.4416946,42.5648364 C12.9628016,43.7115805 13.2715616,44.3732637 14.0412002,45.3725862 C14.8051254,46.3644608 15.3106396,46.8969284 16.3313094,47.6261158 C17.6963288,48.6015577 18.6631977,48.8882437 20.2809147,49.3439859 C21.5921331,49.7134266 22.4111685,49.7594146 23.7495255,50.1198706 C24.7748374,50.3960349 25.3768838,50.5169751 26.353275,50.914316 C27.2907438,51.2955789 27.7949487,51.5895946 28.6223162,52.1702964 C29.1996046,52.5755582 29.5101501,52.8299699 30.0204255,53.3156219 C30.5307008,52.8300881 30.8412463,52.5755582 31.4184157,52.1702964 C32.2457832,51.5895946 32.7501071,51.2955789 33.6874569,50.914316 C34.6638481,50.5170933 35.2660135,50.3960349 36.2912064,50.1198706 C37.6294443,49.7594146 38.4485988,49.7134266 39.7598172,49.3439859 C41.3776532,48.8882437 42.3444031,48.6015577 43.7095415,47.6261158 C44.7302113,46.8969284 45.2357255,46.3644608 45.9995317,45.3725862 C46.7691703,44.3732637 47.0780493,43.7115805 47.5990373,42.5648364 C48.1839436,41.2774092 48.4423545,40.5075537 48.7521858,39.1289781 L48.3243973,37.447993 C46.7408415,36.1349119 45.9778685,35.1185655 45.162642,33.2363682 C44.7732996,32.337179 45.1533577,33.1624801 44.4279978,30.8349441 C44.1558985,29.9614088 43.9598585,28.5096543 43.8979637,27.0019813 C43.8610648,26.1056294 43.8189287,25.5918407 43.9352196,24.7022273 C44.1195948,23.2923231 44.3533669,22.4706868 45.0511122,21.2294841 C45.3140463,20.7619198 45.4535477,20.4827999 45.8136091,20.0841586 C46.0744006,19.7956992 46.2240195,19.6206138 46.5575375,19.4191652 C46.8199955,19.2606308 46.9855642,19.1909986 47.2828975,19.1143913 C47.1692252,19.2037664 47.114353,19.2764724 47.0597189,19.4099439 C46.9792556,19.6069002 47.0035375,19.7498295 47.0597189,19.9548247 C47.1555369,20.3044044 47.3407453,20.5214582 47.6827144,20.6474819 C47.989689,20.7606194 48.214772,20.7012724 48.5196041,20.5828149 C48.873952,20.4452056 49.0678496,20.2749673 49.2542483,19.9454853 C49.4060097,19.6773599 49.4329101,19.4863147 49.4402899,19.17894 C49.4505263,18.7525167 49.3124532,18.5178479 49.1427185,18.1260634 C48.8397909,17.4265494 48.4803246,17.1261498 47.9617173,16.5651909 C47.3969268,15.9541063 46.9527123,15.7387076 46.3529274,15.161316 C45.7504049,14.5813235 45.3814164,14.2713479 44.8836391,13.6004435 C44.4726335,13.0463414 44.2689756,12.7076381 43.9723565,12.0856772 C43.3129384,12.2634817 42.9250243,12.3255477 42.2427527,12.3627873 C40.9470079,12.4333653 40.2040318,12.2169026 38.9508992,11.8824552 C37.7047894,11.5498994 37.0366821,11.1205206 35.752007,10.8664636 C34.8139431,10.681093 34.133933,10.5893534 33.3156117,10.5893534 C32.6407199,10.5893534 32.1585352,10.6839303 31.4743591,10.9403517 C30.8652901,11.1686366 30.5323672,11.3548347 30.0203064,11.7537125 Z M39.7517233,19.797488 L40.3141332,19.7976062 C40.6446754,19.7976062 40.8982062,20.1224776 40.9634339,20.4475855 C41.1901833,20.5439356 41.3544427,20.7938549 41.4053869,21.0477937 C41.6801048,21.1645961 41.8625755,21.5038905 41.8640039,21.8064182 C42.1080124,22.0448701 42.2573932,22.4530873 42.1784773,22.7205033 C42.1784773,22.7205033 42.0942051,22.5911695 42.0100519,22.550265 C41.9435149,22.5178725 41.8976889,22.5143258 41.8236532,22.5143258 L41.4244314,22.5143258 C41.5110842,22.7054893 41.5320333,23.0340255 41.4869214,23.2640837 C41.8246054,23.6630797 41.8444832,24.3690958 41.2042286,24.4707659 C41.0319943,24.498075 40.9398662,24.4875533 40.7989364,24.4494861 C40.555166,24.5286942 40.4353042,24.6074295 40.2268852,24.8917511 C40.1086899,24.7478761 40.0171569,24.6846278 39.9776395,24.5123797 C39.9618087,24.444048 39.9524054,24.3867108 39.9537147,24.3307922 C39.8471842,24.3919125 39.7155386,24.4284428 39.5443756,24.407163 C39.1263473,24.5512745 38.9693487,24.6316648 38.6210711,24.9365569 C38.5068037,24.7872437 38.4470514,24.6763523 38.4435996,24.4886173 C38.4419332,24.3977053 38.4474085,24.318379 38.4681194,24.2460277 C38.228396,24.2957988 38.0730637,24.3744158 37.8210803,24.5573037 C37.7308566,24.390021 37.6805076,24.2819669 37.7265716,24.0582927 C37.7677555,23.857908 37.8530989,23.7331848 37.9855777,23.6388444 C37.9335622,23.2352378 38.2905289,22.7473395 38.8615088,22.7741757 C39.2651346,22.7930911 39.9743067,22.9593098 39.7486285,22.254476 C39.7136342,22.1451215 39.6734025,22.1140294 39.6181733,22.0263093 L39.0887343,22.0263093 C38.9441146,22.3439693 38.6749911,22.4963562 38.2389895,22.5171631 C38.3321888,22.4275516 38.2768406,22.2832037 38.2408939,22.2236203 C38.1097245,22.0064482 37.9274918,22.0492442 37.5894507,21.8661198 C36.9939509,21.5434946 36.8769458,21.5017626 36.6751925,20.6893475 C36.6227009,20.4774954 36.5968717,20.0923312 36.5450943,19.8148664 C36.281446,20.1183399 35.9655443,20.383155 35.6358352,20.6287001 C35.497286,20.7320253 35.1646012,21.0389272 35.1986433,21.2420309 C35.2575625,21.5944479 35.3480242,21.7312296 35.1699575,21.9888333 C35.1403193,22.0317475 35.0942553,22.0960598 35.0360503,22.1559978 C34.9495166,22.2449001 34.8957157,22.2806028 34.7839479,22.350235 C34.713721,22.5800567 34.5275604,22.8323404 34.3146183,22.947606 C34.2333218,23.2910381 33.8865917,23.5939204 33.5506931,23.7688876 C33.5506931,23.7688876 33.5867588,23.6889701 33.5958049,23.6344702 C33.6081839,23.5605821 33.6066365,23.5148305 33.5862826,23.4427157 L33.4746339,23.0470299 C33.3421551,23.2495425 33.1724204,23.4291203 32.9613828,23.5478142 C32.937339,23.9808579 32.3899267,24.2794843 31.944879,24.2794843 C31.6855158,24.53496 31.2783191,24.5954891 30.9339695,24.5049318 C30.6562759,24.5896963 30.4266699,24.6849825 30.2350339,24.8682251 C30.0795826,24.6605107 30.0193542,24.5359057 30.0623235,24.3628301 C29.7615384,24.415202 29.5745445,24.4925186 29.2624517,24.7036614 C29.1696094,24.5269209 29.1311632,24.4635544 29.1572304,24.2526481 C29.1619916,24.2138716 29.1702045,24.1767502 29.1815123,24.1416385 C29.0549849,24.1289889 28.9603572,24.1367915 28.6940904,24.2915428 C28.5977963,24.0675139 28.5533986,23.8574351 28.7571755,23.6166189 C28.8388291,23.5202687 28.9164357,23.4694337 29.000946,23.4440161 C28.9924949,22.9375572 29.6229891,22.4101731 30.231106,22.5817118 C30.7906592,22.7395369 31.1084654,22.9267991 31.7013466,22.6429503 C31.7687167,22.5315861 31.7583613,22.5333594 31.8004974,22.4666827 C31.8567979,22.3778987 31.8920303,22.3296646 31.9598766,22.249156 C31.8827461,22.2566039 31.8388246,22.2584955 31.761456,22.2576679 C31.6330242,22.2561311 31.5585123,22.2550671 31.4336514,22.2248025 C31.3392617,22.2018676 31.1990461,22.1412202 31.1990461,22.1412202 C31.6411181,21.9201468 31.7069409,21.6439825 32.053195,20.8686889 C32.391117,20.1120742 33.0244679,19.8681841 34.0078818,19.8353187 C34.8158475,19.8082461 34.9478502,19.0554144 34.4554291,19.059434 C33.8532637,19.2716407 33.1648026,19.6690999 32.7514164,19.9282404 C31.9729697,20.3395315 31.1886906,20.7384093 30.377273,21.0813685 C30.3202584,21.1053674 29.6701244,21.3277412 29.8166486,21.4956151 C29.9849549,21.68867 30.1439771,21.6612428 30.4071492,21.7064032 C30.056015,21.9727552 29.7967708,22.197257 29.3307741,22.2024587 C29.1713948,22.4163206 28.8864405,22.5551121 28.6186263,22.551329 C28.442226,22.7361085 28.1579858,22.8409706 27.9023125,22.8149619 C27.712581,23.0113271 27.4075108,23.1222184 27.1349354,23.0945547 C26.8690257,23.3480206 26.4474266,23.3964913 26.1171223,23.2484785 C25.9653609,23.1805014 25.3764077,22.8326951 25.2573791,22.8345866 C24.8626805,22.8403795 24.9621884,23.4898859 24.2919386,23.6429822 C24.1339877,23.6791578 24.0131738,23.6797489 23.8711727,23.6414453 C23.6746566,23.7928864 23.3829176,23.8472681 23.1436702,23.7788181 C22.8440754,23.9879512 22.6379179,23.9289589 22.3039238,23.8763505 C22.4602083,23.7718431 22.6106604,23.4223817 22.3189214,23.3865607 C22.1324037,23.3636258 21.9018454,23.5531342 22.021231,23.7239636 C22.0964571,23.8314265 22.1866807,23.9838134 22.0092091,24.2436633 C21.9610026,24.3142413 21.8575668,24.4008973 21.7321107,24.4368365 C21.6696207,24.556358 21.5736837,24.6596832 21.4377531,24.7485854 C21.2731366,24.8561665 21.103878,24.879929 20.953664,24.8918693 C20.9890155,24.7016516 20.9837782,24.6095574 20.9335482,24.4566976 C20.899268,24.4492497 20.8649877,24.4400285 20.8364209,24.4289157 C20.8074969,24.4176847 20.7751212,24.4008973 20.7444118,24.3830459 C20.5891986,24.5536389 20.3375722,24.5876865 20.1170123,24.4955923 C19.7646878,24.6282364 19.5781701,24.7743576 19.4080783,24.9486154 C19.2876214,24.8085235 19.1947792,24.6134587 19.2084675,24.3656674 C18.9967157,24.2680168 18.6702204,24.2788932 18.3465817,24.5573037 C18.1842268,24.3363486 18.1989864,24.0058026 18.3826474,23.7478442 C18.4484702,23.6553954 18.5026282,23.6026688 18.5905903,23.5493511 C18.6015409,23.1870036 18.7543735,23.0352078 18.9811229,22.8966527 C19.0256396,22.4467034 19.5866211,22.2149901 19.9795344,22.2873414 C20.4487449,22.3735246 20.7553624,22.5844309 21.1939826,22.3339205 L22.5194845,21.5695032 L22.8033676,21.4156976 L22.7612315,21.4156976 C22.484133,21.4156976 22.0382521,21.1195539 21.9388633,20.891742 L21.8551862,20.7406555 L21.7581779,20.7406555 C21.4809605,20.7406555 21.1751761,20.4445117 21.0757873,20.2166998 L20.9966333,20.0353487 C20.7595284,19.9719822 20.5394447,19.723718 20.453506,19.5267618 L20.3892306,19.3793401 C20.1266537,19.3513217 19.8710994,19.0737387 19.7768288,18.8577489 L19.6339945,18.5418622 C19.790279,18.6852643 20.0910641,18.6882199 20.2263996,18.5410347 C20.4338663,18.3151142 20.1847396,17.8820706 19.9558477,18.0579835 C19.7001744,18.2543486 19.481876,18.3735154 19.1558568,18.1536243 C19.0618243,18.0901396 18.9767189,18.0066755 18.9169665,17.9096161 C18.7659193,17.882307 18.6417725,17.8110197 18.5206015,17.6625341 C18.4052628,17.5212599 18.360151,17.3941723 18.3608652,17.2122301 L18.3615793,17.0157467 C18.5823773,17.1001566 18.6825993,17.1477996 18.8497154,17.122855 C18.8666175,17.0515677 18.9036353,16.9925754 18.9905262,16.9348835 C19.0518259,16.8942155 19.1062219,16.8899595 19.1829953,16.8930333 C19.223465,16.8946884 19.2457234,16.9021363 19.2852409,16.9108847 C19.3413033,16.9234161 19.3699892,16.9629019 19.4266468,16.9527349 C19.5293684,16.9341742 19.5879305,16.8017666 19.5379385,16.7105 C19.5216316,16.6809447 19.506753,16.6654578 19.47771,16.6480793 C19.3936759,16.6934761 19.3236871,16.7142831 19.2461995,16.728706 C19.1627605,16.7444294 19.0099278,16.7419468 18.9455334,16.722795 C18.5410744,16.6023277 18.4099049,16.1073362 18.5985652,15.7553921 C18.5882097,15.6621157 18.5516679,15.5829076 18.4915585,15.4892766 C18.4360912,15.4032116 18.3940741,15.3587605 18.3109922,15.2983496 C18.4041916,15.1158163 18.6346308,15.0538685 18.8703074,15.068055 C19.0036193,15.076094 19.1451443,15.1622772 19.2536983,15.2460959 C19.2933348,15.1417067 19.3427317,15.0522134 19.4043884,14.9761972 C19.3622523,14.7483853 19.2853599,14.5982445 19.1140778,14.4319075 C19.2552457,14.3220802 19.4667594,14.2303406 19.723623,14.3048199 C19.9434687,14.368541 20.0492851,14.489363 20.1084423,14.6488431 C20.186644,14.6496707 20.2600847,14.6661034 20.3291212,14.6955405 C20.4164882,14.579211 20.4518396,14.4598077 20.4130363,14.1900273 C20.7137024,14.2497289 20.9771126,14.4593348 21.0625751,14.793191 C21.0857857,14.8838666 21.0916181,14.9495975 21.0854286,15.0176928 C21.3239618,15.2586273 21.3722874,15.6877697 21.145538,15.9966813 C20.7809536,16.4930915 20.8548703,16.7382819 21.2233827,17.2062008 C21.5547582,17.6270678 22.1971552,18.0672047 22.7035027,18.3415958 C22.7223092,18.2474918 22.7580177,18.1558705 22.8147943,18.0693327 C22.692314,17.4725528 22.867643,16.8282481 23.1604532,16.3044107 C22.9287047,15.8055179 22.9388221,15.3279048 23.0799899,14.8106878 C23.3895832,14.7612714 23.6881068,14.750395 23.9919867,14.8430803 C24.2042146,14.5989539 24.6341457,14.5256568 24.9443341,14.5183271 C25.1352559,14.251384 25.4350888,14.2402712 25.77801,14.2402712 C26.1209312,14.2402712 26.4206451,14.2515022 26.6114479,14.5183271 C26.9215173,14.525775 27.3514484,14.5989539 27.5637953,14.8430803 C27.8676752,14.750395 28.1664368,14.7612714 28.475792,14.8106878 C28.617674,15.3306239 28.6268392,15.8088281 28.3927101,16.3099671 C28.6277915,16.7966831 28.8179991,17.3998469 28.6971851,17.9429544 C29.4728941,18.2307044 30.7724478,18.4502409 31.5757715,18.3116858 C32.2722075,18.1915733 32.707852,18.114966 33.3878621,17.9286496 C35.2630378,17.4149792 35.7461746,17.0967281 37.6944339,17.4052851 C38.0947269,17.4686516 38.8191346,17.7188073 39.2412099,17.5141667 C39.6532867,17.3142549 39.4639123,16.860286 39.0819497,16.8632416 C38.7298632,16.8658424 38.7571208,17.1798375 38.8534148,17.3381355 C38.5759593,17.3433372 38.353614,17.3494847 38.182689,17.0932997 C38.1044872,17.0979104 38.036641,17.101457 37.945227,17.0872705 C37.8484568,17.0722564 37.7938227,17.0559419 37.7046703,17.0156285 C37.5764766,17.04743 37.4829202,17.0601978 37.3678196,17.0514495 C37.2115351,17.0395092 36.9889517,16.9798075 36.9889517,16.9798075 C36.9572901,16.9861915 36.8913483,17.0124365 36.8265968,17.0216578 C36.7312549,17.0350168 36.6548386,17.0235493 36.5799696,17.0156285 C36.3514348,16.9917479 36.3096558,16.9975407 36.1530142,17.0365536 C36.060172,17.0596067 36.010537,17.0781674 35.9243604,17.1172986 C35.8398501,17.1556022 35.793548,17.1816109 35.7168936,17.2337463 C35.76022,17.1394059 35.7874776,17.0872705 35.8402072,16.9977771 C35.868417,16.9498976 35.9116243,16.8842849 35.9328114,16.8524835 C35.5009758,16.9472967 35.1666247,17.0190569 34.6462319,17.1560751 C33.5767604,17.4377959 31.8721526,18.0245269 30.7486421,17.8628005 C29.9863833,17.7530914 29.1854402,17.4694791 29.0816473,16.5552757 C29.0084448,15.9102617 29.5130068,15.4506183 30.0843438,15.2295449 C30.4959445,15.0703012 30.773043,15.0366082 31.1807157,15.0379086 C31.6871822,15.0396819 31.9370231,15.1160527 32.4600345,15.1878129 C32.6100105,15.2083834 32.8087882,15.2398302 33.0313716,15.2236339 C33.2341962,15.2088562 33.3515584,15.1913595 33.5427182,15.1222002 C33.7310214,15.0539867 33.8342191,14.9978317 33.9937174,14.8772462 C33.9175391,15.0297514 33.8681422,15.1132154 33.771253,15.253662 C33.6673411,15.403921 33.5241497,15.5687211 33.4764193,15.6180193 C33.0794591,16.0302561 32.5441877,16.5081055 31.4976887,16.2631515 C31.3353338,16.5798657 30.8843346,16.6694773 30.4933259,16.5857768 C30.6197342,16.4933279 30.7460235,16.2691808 30.5385567,16.1705845 C30.1470718,15.984741 29.7115464,16.6963135 30.6679407,16.9119486 C31.9524968,17.2013538 33.3911949,16.5451087 34.5823135,16.1974206 C35.4343199,15.9486836 36.2012208,15.6629433 37.1002434,15.5404663 C37.1934427,15.053632 37.8396487,14.7376272 38.3068358,14.7668278 C38.3068358,14.7668278 38.4130092,14.774985 38.4802604,14.7846791 C38.5547722,14.7954372 38.5966703,14.8032398 38.6698728,14.8206183 C38.5888144,14.8533656 38.545607,14.8501736 38.4685956,14.9131854 C38.3129062,15.0405095 38.237085,15.2417217 38.3486148,15.3872518 C38.3819428,15.4307571 38.4325299,15.4763905 38.4987098,15.5284077 C38.787473,15.7553921 39.3423841,15.8189951 39.6716171,15.9824948 C40.2971121,16.2930615 40.6399143,16.7949098 40.4955327,17.4639227 C40.3322255,18.2211285 39.554374,18.6825453 38.7758082,18.6494434 C38.8306804,18.7454389 39.0892104,19.1728079 39.2762042,19.4401057 C39.3490497,19.5441402 39.408683,19.6578689 39.5453278,19.7309295 C39.6190065,19.77077 39.6664988,19.797488 39.7517233,19.797488 Z M39.7517233,31.0541876 L40.3141332,31.0543058 C40.6446754,31.0543058 40.8982062,31.3791773 40.9634339,31.7042852 C41.1901833,31.8006353 41.3544427,32.0505546 41.4053869,32.3044934 C41.6801048,32.4212958 41.8625755,32.7605902 41.8640039,33.0631179 C42.1080124,33.3015697 42.2573932,33.709787 42.1784773,33.977203 C42.1784773,33.977203 42.0942051,33.8478692 42.0100519,33.8069647 C41.9435149,33.7745721 41.8976889,33.7710255 41.8236532,33.7710255 L41.4244314,33.7710255 C41.5110842,33.9621889 41.5320333,34.2907252 41.4869214,34.5207834 C41.8246054,34.9197794 41.8444832,35.6257955 41.2042286,35.7274656 C41.0319943,35.7547747 40.9398662,35.744253 40.7989364,35.7061858 C40.555166,35.7853939 40.4353042,35.8641291 40.2268852,36.1484507 C40.1086899,36.0045757 40.0171569,35.9413275 39.9776395,35.7690794 C39.9618087,35.7007476 39.9524054,35.6434104 39.9537147,35.5874919 C39.8471842,35.6486122 39.7155386,35.6851425 39.5443756,35.6638627 C39.1263473,35.8079741 38.9693487,35.8883644 38.6210711,36.1932565 C38.5068037,36.0439433 38.4470514,35.933052 38.4435996,35.745317 C38.4419332,35.654405 38.4474085,35.5750787 38.4681194,35.5027274 C38.228396,35.5524984 38.0730637,35.6311154 37.8210803,35.8140034 C37.7308566,35.6467206 37.6805076,35.5386666 37.7265716,35.3149924 C37.7677555,35.1146077 37.8530989,34.9898845 37.9855777,34.8955441 C37.9335622,34.4919374 38.2905289,34.0040392 38.8615088,34.0308754 C39.2651346,34.0497907 39.9743067,34.2160095 39.7486285,33.5111756 C39.7136342,33.4018212 39.6734025,33.370729 39.6181733,33.283009 L39.0887343,33.283009 C38.9441146,33.600669 38.6749911,33.7530559 38.2389895,33.7738628 C38.3321888,33.6842512 38.2768406,33.5399033 38.2408939,33.4803199 C38.1097245,33.2631479 37.9274918,33.3059439 37.5894507,33.1228195 C36.9939509,32.8001943 36.8769458,32.7584622 36.6751925,31.9460472 C36.6227009,31.7341951 36.5968717,31.3490309 36.5450943,31.0715661 C36.281446,31.3750395 35.9655443,31.6398547 35.6358352,31.8853998 C35.497286,31.988725 35.1646012,32.2956268 35.1986433,32.4987306 C35.2575625,32.8511475 35.3480242,32.9879293 35.1699575,33.2455329 C35.1403193,33.2884472 35.0942553,33.3527594 35.0360503,33.4126975 C34.9495166,33.5015997 34.8957157,33.5373025 34.7839479,33.6069347 C34.713721,33.8367564 34.5275604,34.0890401 34.3146183,34.2043056 C34.2333218,34.5477378 33.8865917,34.8506201 33.5506931,35.0255872 C33.5506931,35.0255872 33.5867588,34.9456698 33.5958049,34.8911699 C33.6081839,34.8172818 33.6066365,34.7715302 33.5862826,34.6994154 L33.4746339,34.3037295 C33.3421551,34.5062422 33.1724204,34.68582 32.9613828,34.8045139 C32.937339,35.2375576 32.3899267,35.5361839 31.944879,35.5361839 C31.6855158,35.7916596 31.2783191,35.8521888 30.9339695,35.7616315 C30.6562759,35.846396 30.4266699,35.9416821 30.2350339,36.1249248 C30.0795826,35.9172104 30.0193542,35.7926054 30.0623235,35.6195298 C29.7615384,35.6719017 29.5745445,35.7492183 29.2624517,35.9603611 C29.1696094,35.7836206 29.1311632,35.7202541 29.1572304,35.5093478 C29.1619916,35.4705713 29.1702045,35.4334499 29.1815123,35.3983382 C29.0549849,35.3856885 28.9603572,35.3934911 28.6940904,35.5482425 C28.5977963,35.3242136 28.5533986,35.1141348 28.7571755,34.8733185 C28.8388291,34.7769684 28.9164357,34.7261333 29.000946,34.7007158 C28.9924949,34.1942568 29.6229891,33.6668728 30.231106,33.8384115 C30.7906592,33.9962366 31.1084654,34.1834987 31.7013466,33.89965 C31.7687167,33.7882858 31.7583613,33.7900591 31.8004974,33.7233824 C31.8567979,33.6345984 31.8920303,33.5863642 31.9598766,33.5058557 C31.8827461,33.5133036 31.8388246,33.5151951 31.761456,33.5143676 C31.6330242,33.5128307 31.5585123,33.5117667 31.4336514,33.4815021 C31.3392617,33.4585673 31.1990461,33.3979199 31.1990461,33.3979199 C31.6411181,33.1768465 31.7069409,32.9006821 32.053195,32.1253885 C32.391117,31.3687738 33.0244679,31.1248838 34.0078818,31.0920184 C34.8158475,31.0649457 34.9478502,30.3121141 34.4554291,30.3161336 C33.8532637,30.5283404 33.1648026,30.9257996 32.7514164,31.1849401 C31.9729697,31.5962311 31.1886906,31.9951089 30.377273,32.3380682 C30.3202584,32.3620671 29.6701244,32.5844408 29.8166486,32.7523147 C29.9849549,32.9453697 30.1439771,32.9179424 30.4071492,32.9631029 C30.056015,33.2294549 29.7967708,33.4539566 29.3307741,33.4591584 C29.1713948,33.6730202 28.8864405,33.8118118 28.6186263,33.8080287 C28.442226,33.9928082 28.1579858,34.0976702 27.9023125,34.0716616 C27.712581,34.2680268 27.4075108,34.3789181 27.1349354,34.3512544 C26.8690257,34.6047203 26.4474266,34.6531909 26.1171223,34.5051782 C25.9653609,34.4372011 25.3764077,34.0893948 25.2573791,34.0912863 C24.8626805,34.0970791 24.9621884,34.7465856 24.2919386,34.8996818 C24.1339877,34.9358575 24.0131738,34.9364486 23.8711727,34.898145 C23.6746566,35.0495861 23.3829176,35.1039678 23.1436702,35.0355178 C22.8440754,35.2446508 22.6379179,35.1856585 22.3039238,35.1330502 C22.4602083,35.0285428 22.6106604,34.6790814 22.3189214,34.6432604 C22.1324037,34.6203255 21.9018454,34.8098338 22.021231,34.9806632 C22.0964571,35.0881262 22.1866807,35.2405131 22.0092091,35.500363 C21.9610026,35.5709409 21.8575668,35.657597 21.7321107,35.6935362 C21.6696207,35.8130576 21.5736837,35.9163828 21.4377531,36.0052851 C21.2731366,36.1128662 21.103878,36.1366286 20.953664,36.148569 C20.9890155,35.9583513 20.9837782,35.8662571 20.9335482,35.7133973 C20.899268,35.7059494 20.8649877,35.6967281 20.8364209,35.6856153 C20.8074969,35.6743843 20.7751212,35.657597 20.7444118,35.6397456 C20.5891986,35.8103385 20.3375722,35.8443862 20.1170123,35.752292 C19.7646878,35.884936 19.5781701,36.0310572 19.4080783,36.2053151 C19.2876214,36.0652231 19.1947792,35.8701584 19.2084675,35.6223671 C18.9967157,35.5247165 18.6702204,35.5355928 18.3465817,35.8140034 C18.1842268,35.5930483 18.1989864,35.2625022 18.3826474,35.0045439 C18.4484702,34.912095 18.5026282,34.8593684 18.5905903,34.8060508 C18.6015409,34.4437032 18.7543735,34.2919074 18.9811229,34.1533524 C19.0256396,33.7034031 19.5866211,33.4716898 19.9795344,33.5440411 C20.4487449,33.6302242 20.7553624,33.8411306 21.1939826,33.5906202 L22.5194845,32.8262029 L22.8033676,32.6723973 L22.7612315,32.6723973 C22.484133,32.6723973 22.0382521,32.3762536 21.9388633,32.1484416 L21.8551862,31.9973551 L21.7581779,31.9973551 C21.4809605,31.9973551 21.1751761,31.7012114 21.0757873,31.4733994 L20.9966333,31.2920484 C20.7595284,31.2286819 20.5394447,30.9804177 20.453506,30.7834614 L20.3892306,30.6360398 C20.1266537,30.6080214 19.8710994,30.3304384 19.7768288,30.1144485 L19.6339945,29.7985619 C19.790279,29.941964 20.0910641,29.9449195 20.2263996,29.7977343 C20.4338663,29.5718139 20.1847396,29.1387702 19.9558477,29.3146831 C19.7001744,29.5110483 19.481876,29.6302151 19.1558568,29.410324 C19.0618243,29.3468393 18.9767189,29.2633752 18.9169665,29.1663157 C18.7659193,29.1390067 18.6417725,29.0677194 18.5206015,28.9192337 C18.4052628,28.7779596 18.360151,28.650872 18.3608652,28.4689298 L18.3615793,28.2724464 C18.5823773,28.3568562 18.6825993,28.4044993 18.8497154,28.3795547 C18.8666175,28.3082674 18.9036353,28.2492751 18.9905262,28.1915832 C19.0518259,28.1509152 19.1062219,28.1466592 19.1829953,28.1497329 C19.223465,28.151388 19.2457234,28.158836 19.2852409,28.1675843 C19.3413033,28.1801158 19.3699892,28.2196016 19.4266468,28.2094346 C19.5293684,28.1908739 19.5879305,28.0584663 19.5379385,27.9671996 C19.5216316,27.9376444 19.506753,27.9221574 19.47771,27.9047789 C19.3936759,27.9501758 19.3236871,27.9709827 19.2461995,27.9854057 C19.1627605,28.0011291 19.0099278,27.9986464 18.9455334,27.9794946 C18.5410744,27.8590274 18.4099049,27.3640359 18.5985652,27.0120918 C18.5882097,26.9188154 18.5516679,26.8396073 18.4915585,26.7459762 C18.4360912,26.6599113 18.3940741,26.6154602 18.3109922,26.5550492 C18.4041916,26.3725159 18.6346308,26.3105681 18.8703074,26.3247546 C19.0036193,26.3327937 19.1451443,26.4189768 19.2536983,26.5027955 C19.2933348,26.3984064 19.3427317,26.308913 19.4043884,26.2328969 C19.3622523,26.0050849 19.2853599,25.8549442 19.1140778,25.6886072 C19.2552457,25.5787798 19.4667594,25.4870403 19.723623,25.5615196 C19.9434687,25.6252407 20.0492851,25.7460626 20.1084423,25.9055428 C20.186644,25.9063704 20.2600847,25.9228031 20.3291212,25.9522401 C20.4164882,25.8359106 20.4518396,25.7165074 20.4130363,25.4467269 C20.7137024,25.5064286 20.9771126,25.7160345 21.0625751,26.0498907 C21.0857857,26.1405663 21.0916181,26.2062972 21.0854286,26.2743925 C21.3239618,26.515327 21.3722874,26.9444694 21.145538,27.253381 C20.7809536,27.7497911 20.8548703,27.9949816 21.2233827,28.4629005 C21.5547582,28.8837674 22.1971552,29.3239044 22.7035027,29.5982954 C22.7223092,29.5041915 22.7580177,29.4125702 22.8147943,29.3260324 C22.692314,28.7292525 22.867643,28.0849478 23.1604532,27.5611104 C22.9287047,27.0622175 22.9388221,26.5846045 23.0799899,26.0673874 C23.3895832,26.017971 23.6881068,26.0070947 23.9919867,26.09978 C24.2042146,25.8556535 24.6341457,25.7823565 24.9443341,25.7750268 C25.1352559,25.5080837 25.4350888,25.4969709 25.77801,25.4969709 C26.1209312,25.4969709 26.4206451,25.5082019 26.6114479,25.7750268 C26.9215173,25.7824747 27.3514484,25.8556535 27.5637953,26.09978 C27.8676752,26.0070947 28.1664368,26.017971 28.475792,26.0673874 C28.617674,26.5873236 28.6268392,27.0655277 28.3927101,27.5666667 C28.6277915,28.0533828 28.8179991,28.6565466 28.6971851,29.1996541 C29.4728941,29.4874041 30.7724478,29.7069406 31.5757715,29.5683855 C32.2722075,29.4482729 32.707852,29.3716657 33.3878621,29.1853493 C35.2630378,28.6716789 35.7461746,28.3534278 37.6944339,28.6619847 C38.0947269,28.7253512 38.8191346,28.975507 39.2412099,28.7708663 C39.6532867,28.5709545 39.4639123,28.1169857 39.0819497,28.1199412 C38.7298632,28.1225421 38.7571208,28.4365372 38.8534148,28.5948352 C38.5759593,28.6000369 38.353614,28.6061844 38.182689,28.3499994 C38.1044872,28.35461 38.036641,28.3581566 37.945227,28.3439701 C37.8484568,28.328956 37.7938227,28.3126415 37.7046703,28.2723282 C37.5764766,28.3041296 37.4829202,28.3168975 37.3678196,28.3081491 C37.2115351,28.2962088 36.9889517,28.2365072 36.9889517,28.2365072 C36.9572901,28.2428911 36.8913483,28.2691362 36.8265968,28.2783574 C36.7312549,28.2917164 36.6548386,28.280249 36.5799696,28.2723282 C36.3514348,28.2484475 36.3096558,28.2542403 36.1530142,28.2932533 C36.060172,28.3163064 36.010537,28.3348671 35.9243604,28.3739983 C35.8398501,28.4123019 35.793548,28.4383105 35.7168936,28.490446 C35.76022,28.3961056 35.7874776,28.3439701 35.8402072,28.2544768 C35.868417,28.2065973 35.9116243,28.1409846 35.9328114,28.1091831 C35.5009758,28.2039964 35.1666247,28.2757566 34.6462319,28.4127748 C33.5767604,28.6944955 31.8721526,29.2812266 30.7486421,29.1195002 C29.9863833,29.0097911 29.1854402,28.7261788 29.0816473,27.8119754 C29.0084448,27.1669614 29.5130068,26.707318 30.0843438,26.4862446 C30.4959445,26.3270008 30.773043,26.2933078 31.1807157,26.2946083 C31.6871822,26.2963816 31.9370231,26.3727524 32.4600345,26.4445126 C32.6100105,26.465083 32.8087882,26.4965298 33.0313716,26.4803335 C33.2341962,26.4655559 33.3515584,26.4480592 33.5427182,26.3788999 C33.7310214,26.3106863 33.8342191,26.2545313 33.9937174,26.1339459 C33.9175391,26.286451 33.8681422,26.3699151 33.771253,26.5103617 C33.6673411,26.6606206 33.5241497,26.8254208 33.4764193,26.874719 C33.0794591,27.2869557 32.5441877,27.7648052 31.4976887,27.5198512 C31.3353338,27.8365654 30.8843346,27.9261769 30.4933259,27.8424764 C30.6197342,27.7500276 30.7460235,27.5258805 30.5385567,27.4272841 C30.1470718,27.2414406 29.7115464,27.9530131 30.6679407,28.1686483 C31.9524968,28.4580534 33.3911949,27.8018084 34.5823135,27.4541203 C35.4343199,27.2053832 36.2012208,26.919643 37.1002434,26.7971659 C37.1934427,26.3103317 37.8396487,25.9943268 38.3068358,26.0235274 C38.3068358,26.0235274 38.4130092,26.0316847 38.4802604,26.0413788 C38.5547722,26.0521369 38.5966703,26.0599395 38.6698728,26.077318 C38.5888144,26.1100652 38.545607,26.1068733 38.4685956,26.1698851 C38.3129062,26.2972091 38.237085,26.4984214 38.3486148,26.6439515 C38.3819428,26.6874568 38.4325299,26.7330901 38.4987098,26.7851074 C38.787473,27.0120918 39.3423841,27.0756947 39.6716171,27.2391944 C40.2971121,27.5497611 40.6399143,28.0516095 40.4955327,28.7206224 C40.3322255,29.4778282 39.554374,29.9392449 38.7758082,29.906143 C38.8306804,30.0021385 39.0892104,30.4295076 39.2762042,30.6968054 C39.3490497,30.8008399 39.408683,30.9145686 39.5453278,30.9876292 C39.6190065,31.0274697 39.6664988,31.0541876 39.7517233,31.0541876 Z M39.7517233,42.3108873 L40.3141332,42.3110055 C40.6446754,42.3110055 40.8982062,42.6358769 40.9634339,42.9609848 C41.1901833,43.057335 41.3544427,43.3072543 41.4053869,43.5611931 C41.6801048,43.6779955 41.8625755,44.0172899 41.8640039,44.3198175 C42.1080124,44.5582694 42.2573932,44.9664867 42.1784773,45.2339027 C42.1784773,45.2339027 42.0942051,45.1045688 42.0100519,45.0636644 C41.9435149,45.0312718 41.8976889,45.0277252 41.8236532,45.0277252 L41.4244314,45.0277252 C41.5110842,45.2188886 41.5320333,45.5474249 41.4869214,45.777483 C41.8246054,46.1764791 41.8444832,46.8824952 41.2042286,46.9841653 C41.0319943,47.0114743 40.9398662,47.0009526 40.7989364,46.9628855 C40.555166,47.0420936 40.4353042,47.1208288 40.2268852,47.4051504 C40.1086899,47.2612754 40.0171569,47.1980271 39.9776395,47.0257791 C39.9618087,46.9574473 39.9524054,46.9001101 39.9537147,46.8441915 C39.8471842,46.9053118 39.7155386,46.9418421 39.5443756,46.9205623 C39.1263473,47.0646738 38.9693487,47.1450641 38.6210711,47.4499562 C38.5068037,47.300643 38.4470514,47.1897517 38.4435996,47.0020166 C38.4419332,46.9111047 38.4474085,46.8317783 38.4681194,46.7594271 C38.228396,46.8091981 38.0730637,46.8878151 37.8210803,47.0707031 C37.7308566,46.9034203 37.6805076,46.7953662 37.7265716,46.571692 C37.7677555,46.3713074 37.8530989,46.2465841 37.9855777,46.1522438 C37.9335622,45.7486371 38.2905289,45.2607388 38.8615088,45.287575 C39.2651346,45.3064904 39.9743067,45.4727092 39.7486285,44.7678753 C39.7136342,44.6585208 39.6734025,44.6274287 39.6181733,44.5397087 L39.0887343,44.5397087 C38.9441146,44.8573686 38.6749911,45.0097556 38.2389895,45.0305625 C38.3321888,44.9409509 38.2768406,44.796603 38.2408939,44.7370196 C38.1097245,44.5198475 37.9274918,44.5626436 37.5894507,44.3795192 C36.9939509,44.0568939 36.8769458,44.0151619 36.6751925,43.2027469 C36.6227009,42.9908947 36.5968717,42.6057306 36.5450943,42.3282658 C36.281446,42.6317392 35.9655443,42.8965543 35.6358352,43.1420995 C35.497286,43.2454247 35.1646012,43.5523265 35.1986433,43.7554303 C35.2575625,44.1078472 35.3480242,44.2446289 35.1699575,44.5022326 C35.1403193,44.5451468 35.0942553,44.6094591 35.0360503,44.6693972 C34.9495166,44.7582994 34.8957157,44.7940021 34.7839479,44.8636343 C34.713721,45.0934561 34.5275604,45.3457398 34.3146183,45.4610053 C34.2333218,45.8044374 33.8865917,46.1073198 33.5506931,46.2822869 C33.5506931,46.2822869 33.5867588,46.2023695 33.5958049,46.1478696 C33.6081839,46.0739814 33.6066365,46.0282299 33.5862826,45.956115 L33.4746339,45.5604292 C33.3421551,45.7629418 33.1724204,45.9425196 32.9613828,46.0612135 C32.937339,46.4942572 32.3899267,46.7928836 31.944879,46.7928836 C31.6855158,47.0483593 31.2783191,47.1088885 30.9339695,47.0183311 C30.6562759,47.1030956 30.4266699,47.1983818 30.2350339,47.3816244 C30.0795826,47.17391 30.0193542,47.0493051 30.0623235,46.8762294 C29.7615384,46.9286014 29.5745445,47.0059179 29.2624517,47.2170607 C29.1696094,47.0403203 29.1311632,46.9769538 29.1572304,46.7660474 C29.1619916,46.7272709 29.1702045,46.6901495 29.1815123,46.6550379 C29.0549849,46.6423882 28.9603572,46.6501908 28.6940904,46.8049422 C28.5977963,46.5809133 28.5533986,46.3708345 28.7571755,46.1300182 C28.8388291,46.033668 28.9164357,45.982833 29.000946,45.9574155 C28.9924949,45.4509565 29.6229891,44.9235724 30.231106,45.0951112 C30.7906592,45.2529363 31.1084654,45.4401984 31.7013466,45.1563497 C31.7687167,45.0449854 31.7583613,45.0467587 31.8004974,44.9800821 C31.8567979,44.8912981 31.8920303,44.8430639 31.9598766,44.7625554 C31.8827461,44.7700033 31.8388246,44.7718948 31.761456,44.7710673 C31.6330242,44.7695304 31.5585123,44.7684664 31.4336514,44.7382018 C31.3392617,44.7152669 31.1990461,44.6546195 31.1990461,44.6546195 C31.6411181,44.4335462 31.7069409,44.1573818 32.053195,43.3820882 C32.391117,42.6254735 33.0244679,42.3815835 34.0078818,42.348718 C34.8158475,42.3216454 34.9478502,41.5688138 34.4554291,41.5728333 C33.8532637,41.7850401 33.1648026,42.1824992 32.7514164,42.4416398 C31.9729697,42.8529308 31.1886906,43.2518086 30.377273,43.5947679 C30.3202584,43.6187667 29.6701244,43.8411405 29.8166486,44.0090144 C29.9849549,44.2020694 30.1439771,44.1746421 30.4071492,44.2198025 C30.056015,44.4861545 29.7967708,44.7106563 29.3307741,44.715858 C29.1713948,44.9297199 28.8864405,45.0685114 28.6186263,45.0647283 C28.442226,45.2495078 28.1579858,45.3543699 27.9023125,45.3283613 C27.712581,45.5247264 27.4075108,45.6356178 27.1349354,45.6079541 C26.8690257,45.86142 26.4474266,45.9098906 26.1171223,45.7618779 C25.9653609,45.6939008 25.3764077,45.3460944 25.2573791,45.347986 C24.8626805,45.3537788 24.9621884,46.0032852 24.2919386,46.1563815 C24.1339877,46.1925571 24.0131738,46.1931482 23.8711727,46.1548446 C23.6746566,46.3062858 23.3829176,46.3606675 23.1436702,46.2922175 C22.8440754,46.5013505 22.6379179,46.4423582 22.3039238,46.3897498 C22.4602083,46.2852424 22.6106604,45.935781 22.3189214,45.89996 C22.1324037,45.8770252 21.9018454,46.0665335 22.021231,46.2373629 C22.0964571,46.3448258 22.1866807,46.4972128 22.0092091,46.7570626 C21.9610026,46.8276406 21.8575668,46.9142966 21.7321107,46.9502358 C21.6696207,47.0697573 21.5736837,47.1730825 21.4377531,47.2619847 C21.2731366,47.3695659 21.103878,47.3933283 20.953664,47.4052686 C20.9890155,47.215051 20.9837782,47.1229568 20.9335482,46.970097 C20.899268,46.962649 20.8649877,46.9534278 20.8364209,46.942315 C20.8074969,46.931084 20.7751212,46.9142966 20.7444118,46.8964452 C20.5891986,47.0670382 20.3375722,47.1010859 20.1170123,47.0089917 C19.7646878,47.1416357 19.5781701,47.2877569 19.4080783,47.4620147 C19.2876214,47.3219228 19.1947792,47.1268581 19.2084675,46.8790667 C18.9967157,46.7814162 18.6702204,46.7922925 18.3465817,47.0707031 C18.1842268,46.8497479 18.1989864,46.5192019 18.3826474,46.2612436 C18.4484702,46.1687947 18.5026282,46.1160681 18.5905903,46.0627504 C18.6015409,45.7004029 18.7543735,45.5486071 18.9811229,45.410052 C19.0256396,44.9601027 19.5866211,44.7283895 19.9795344,44.8007407 C20.4487449,44.8869239 20.7553624,45.0978302 21.1939826,44.8473198 L22.5194845,44.0829026 L22.8033676,43.929097 L22.7612315,43.929097 C22.484133,43.929097 22.0382521,43.6329532 21.9388633,43.4051413 L21.8551862,43.2540548 L21.7581779,43.2540548 C21.4809605,43.2540548 21.1751761,42.9579111 21.0757873,42.7300991 L20.9966333,42.548748 C20.7595284,42.4853815 20.5394447,42.2371174 20.453506,42.0401611 L20.3892306,41.8927394 C20.1266537,41.8647211 19.8710994,41.587138 19.7768288,41.3711482 L19.6339945,41.0552615 C19.790279,41.1986637 20.0910641,41.2016192 20.2263996,41.054434 C20.4338663,40.8285136 20.1847396,40.3954699 19.9558477,40.5713828 C19.7001744,40.767748 19.481876,40.8869148 19.1558568,40.6670236 C19.0618243,40.6035389 18.9767189,40.5200749 18.9169665,40.4230154 C18.7659193,40.3957063 18.6417725,40.324419 18.5206015,40.1759334 C18.4052628,40.0346592 18.360151,39.9075716 18.3608652,39.7256294 L18.3615793,39.5291461 C18.5823773,39.6135559 18.6825993,39.661199 18.8497154,39.6362543 C18.8666175,39.564967 18.9036353,39.5059747 18.9905262,39.4482829 C19.0518259,39.4076148 19.1062219,39.4033589 19.1829953,39.4064326 C19.223465,39.4080877 19.2457234,39.4155356 19.2852409,39.424284 C19.3413033,39.4368154 19.3699892,39.4763012 19.4266468,39.4661342 C19.5293684,39.4475735 19.5879305,39.315166 19.5379385,39.2238993 C19.5216316,39.194344 19.506753,39.1788571 19.47771,39.1614786 C19.3936759,39.2068755 19.3236871,39.2276824 19.2461995,39.2421054 C19.1627605,39.2578288 19.0099278,39.2553461 18.9455334,39.2361943 C18.5410744,39.1157271 18.4099049,38.6207355 18.5985652,38.2687915 C18.5882097,38.1755151 18.5516679,38.096307 18.4915585,38.0026759 C18.4360912,37.916611 18.3940741,37.8721599 18.3109922,37.8117489 C18.4041916,37.6292156 18.6346308,37.5672678 18.8703074,37.5814543 C19.0036193,37.5894933 19.1451443,37.6756765 19.2536983,37.7594952 C19.2933348,37.655106 19.3427317,37.5656127 19.4043884,37.4895966 C19.3622523,37.2617846 19.2853599,37.1116439 19.1140778,36.9453069 C19.2552457,36.8354795 19.4667594,36.74374 19.723623,36.8182192 C19.9434687,36.8819404 20.0492851,37.0027623 20.1084423,37.1622425 C20.186644,37.16307 20.2600847,37.1795028 20.3291212,37.2089398 C20.4164882,37.0926103 20.4518396,36.973207 20.4130363,36.7034266 C20.7137024,36.7631282 20.9771126,36.9727341 21.0625751,37.3065904 C21.0857857,37.3972659 21.0916181,37.4629968 21.0854286,37.5310921 C21.3239618,37.7720266 21.3722874,38.201169 21.145538,38.5100806 C20.7809536,39.0064908 20.8548703,39.2516813 21.2233827,39.7196002 C21.5547582,40.1404671 22.1971552,40.580604 22.7035027,40.8549951 C22.7223092,40.7608911 22.7580177,40.6692698 22.8147943,40.582732 C22.692314,39.9859522 22.867643,39.3416475 23.1604532,38.81781 C22.9287047,38.3189172 22.9388221,37.8413042 23.0799899,37.3240871 C23.3895832,37.2746707 23.6881068,37.2637944 23.9919867,37.3564797 C24.2042146,37.1123532 24.6341457,37.0390561 24.9443341,37.0317264 C25.1352559,36.7647833 25.4350888,36.7536705 25.77801,36.7536705 C26.1209312,36.7536705 26.4206451,36.7649015 26.6114479,37.0317264 C26.9215173,37.0391744 27.3514484,37.1123532 27.5637953,37.3564797 C27.8676752,37.2637944 28.1664368,37.2746707 28.475792,37.3240871 C28.617674,37.8440233 28.6268392,38.3222274 28.3927101,38.8233664 C28.6277915,39.3100825 28.8179991,39.9132462 28.6971851,40.4563537 C29.4728941,40.7441038 30.7724478,40.9636402 31.5757715,40.8250852 C32.2722075,40.7049726 32.707852,40.6283653 33.3878621,40.442049 C35.2630378,39.9283785 35.7461746,39.6101275 37.6944339,39.9186844 C38.0947269,39.9820509 38.8191346,40.2322066 39.2412099,40.027566 C39.6532867,39.8276542 39.4639123,39.3736854 39.0819497,39.3766409 C38.7298632,39.3792418 38.7571208,39.6932369 38.8534148,39.8515348 C38.5759593,39.8567366 38.353614,39.8628841 38.182689,39.6066991 C38.1044872,39.6113097 38.036641,39.6148563 37.945227,39.6006698 C37.8484568,39.5856557 37.7938227,39.5693412 37.7046703,39.5290278 C37.5764766,39.5608293 37.4829202,39.5735972 37.3678196,39.5648488 C37.2115351,39.5529085 36.9889517,39.4932069 36.9889517,39.4932069 C36.9572901,39.4995908 36.8913483,39.5258359 36.8265968,39.5350571 C36.7312549,39.5484161 36.6548386,39.5369486 36.5799696,39.5290278 C36.3514348,39.5051472 36.3096558,39.51094 36.1530142,39.549953 C36.060172,39.5730061 36.010537,39.5915668 35.9243604,39.6306979 C35.8398501,39.6690016 35.793548,39.6950102 35.7168936,39.7471457 C35.76022,39.6528053 35.7874776,39.6006698 35.8402072,39.5111765 C35.868417,39.4632969 35.9116243,39.3976843 35.9328114,39.3658828 C35.5009758,39.4606961 35.1666247,39.5324562 34.6462319,39.6694744 C33.5767604,39.9511952 31.8721526,40.5379262 30.7486421,40.3761999 C29.9863833,40.2664907 29.1854402,39.9828784 29.0816473,39.0686751 C29.0084448,38.423661 29.5130068,37.9640176 30.0843438,37.7429443 C30.4959445,37.5837005 30.773043,37.5500075 31.1807157,37.5513079 C31.6871822,37.5530813 31.9370231,37.6294521 32.4600345,37.7012122 C32.6100105,37.7217827 32.8087882,37.7532295 33.0313716,37.7370332 C33.2341962,37.7222556 33.3515584,37.7047589 33.5427182,37.6355995 C33.7310214,37.567386 33.8342191,37.511231 33.9937174,37.3906455 C33.9175391,37.5431507 33.8681422,37.6266147 33.771253,37.7670614 C33.6673411,37.9173203 33.5241497,38.0821204 33.4764193,38.1314186 C33.0794591,38.5436554 32.5441877,39.0215049 31.4976887,38.7765509 C31.3353338,39.0932651 30.8843346,39.1828766 30.4933259,39.0991761 C30.6197342,39.0067272 30.7460235,38.7825801 30.5385567,38.6839838 C30.1470718,38.4981403 29.7115464,39.2097128 30.6679407,39.425348 C31.9524968,39.7147531 33.3911949,39.0585081 34.5823135,38.71082 C35.4343199,38.4620829 36.2012208,38.1763426 37.1002434,38.0538656 C37.1934427,37.5670313 37.8396487,37.2510265 38.3068358,37.2802271 C38.3068358,37.2802271 38.4130092,37.2883843 38.4802604,37.2980785 C38.5547722,37.3088366 38.5966703,37.3166392 38.6698728,37.3340177 C38.5888144,37.3667649 38.545607,37.3635729 38.4685956,37.4265847 C38.3129062,37.5539088 38.237085,37.755121 38.3486148,37.9006511 C38.3819428,37.9441565 38.4325299,37.9897898 38.4987098,38.0418071 C38.787473,38.2687915 39.3423841,38.3323944 39.6716171,38.4958941 C40.2971121,38.8064608 40.6399143,39.3083091 40.4955327,39.977322 C40.3322255,40.7345278 39.554374,41.1959446 38.7758082,41.1628427 C38.8306804,41.2588382 39.0892104,41.6862073 39.2762042,41.9535051 C39.3490497,42.0575396 39.408683,42.1712682 39.5453278,42.2443288 C39.6190065,42.2841693 39.6664988,42.3108873 39.7517233,42.3108873 Z" id="Shape" sketch:type="MSShapeGroup"></path>
            </g>
        </g>
    </g>
</svg>