<?xml version="1.0" encoding="UTF-8" standalone="no"?>
<svg width="60px" height="60px" viewBox="0 0 60 60" version="1.1" xmlns="http://www.w3.org/2000/svg" xmlns:xlink="http://www.w3.org/1999/xlink" xmlns:sketch="http://www.bohemiancoding.com/sketch/ns">
    <!-- Generator: Sketch 3.4.4 (17249) - http://www.bohemiancoding.com/sketch -->
    <title>parliament-phase</title>
    <desc>Created with Sketch.</desc>
    <defs></defs>
    <g id="Page-1" stroke="none" stroke-width="1" fill="none" fill-rule="evenodd" sketch:type="MSPage">
        <g id="Artboard-3" sketch:type="MSArtboardGroup" transform="translate(-120.000000, -63.000000)" fill="#FFFFFF">
            <g id="parliament-phase" sketch:type="MSLayerGroup" transform="translate(120.000000, 63.000000)">
                <path d="M30.0203105,13.0230359 C29.5404284,12.6492242 29.2283155,12.474727 28.6577444,12.2608987 C28.016563,12.0205912 27.5647912,11.9319577 26.932199,11.9319577 C26.1653024,11.9319577 25.5280252,12.0178214 24.6489107,12.1916538 C23.4449666,12.4296347 22.8188443,12.8321415 21.651042,13.143799 C20.4766583,13.4571183 19.780372,13.6599782 18.5660539,13.5939462 C17.9267688,13.5591576 17.5631204,13.5008811 16.9451411,13.3342502 C16.6672736,13.9171261 16.4763024,14.2345447 16.091125,14.7538261 C15.6246288,15.3825698 15.2789397,15.673066 14.7141691,16.2166108 C14.1521872,16.7577182 13.7358879,16.959581 13.2064782,17.532264 C12.7205725,18.0579713 12.3836957,18.3394934 12.099693,18.9950488 C11.9406247,19.362213 11.8113398,19.5821348 11.8208215,19.981761 C11.8277375,20.2699306 11.8529475,20.4489702 11.9951719,20.7001353 C12.169857,21.0088014 12.3515697,21.1684525 12.6836499,21.2974142 C12.9694374,21.4084276 13.1802643,21.4640451 13.4679481,21.3580173 C13.7884273,21.2399132 13.96222,21.0364994 14.0517935,20.7088879 C14.1044444,20.5167748 14.1273119,20.3828275 14.0517935,20.1982482 C14.0007042,20.0731643 13.9492803,20.0050273 13.8426399,19.9212686 C14.1212883,19.9930617 14.2764524,20.0583181 14.5224171,20.20689 C14.8349762,20.3956793 14.9753044,20.559762 15.2195958,20.8300942 C15.5570303,21.2035735 15.6878768,21.465153 15.9341762,21.9034456 C16.5881856,23.0666492 16.8071555,23.8366525 16.9799443,25.1579561 C17.0890388,25.9916647 17.0493275,26.4731661 17.014859,27.3131899 C16.9568537,28.7258967 16.8467553,29.5290268 16.5185793,30.90484 C16.3055215,31.7976007 16.1948652,32.3128935 15.8296551,33.1556871 C15.0656587,34.9194933 14.3506322,35.8719708 12.8665896,37.1026467 L12.4656839,38.677996 C12.7560449,39.9698289 12.9981054,40.6914162 13.5463668,41.8979394 C14.0347266,42.9726203 14.3240836,43.5927223 15.0453569,44.5292458 C15.7612758,45.4587894 16.2350227,45.9577958 17.191552,46.64116 C18.4707914,47.5553035 19.3769007,47.8239737 20.8929577,48.2510763 C22.1217771,48.5973008 22.889343,48.6403988 24.1435955,48.9782032 C25.1044752,49.2370129 25.668688,49.350353 26.5837212,49.7227244 C27.462278,50.0800281 27.9347979,50.3555674 28.7101722,50.899777 C29.2511829,51.2795714 29.5422132,51.5179955 30.0204221,51.9731284 C30.4986309,51.5181063 30.7896612,51.2795714 31.3305604,50.899777 C32.1059347,50.3555674 32.5785662,50.0800281 33.4570114,49.7227244 C34.3720446,49.3504638 34.936369,49.2370129 35.8971371,48.9782032 C37.151278,48.6403988 37.9189555,48.5973008 39.1477749,48.2510763 C40.6639435,47.8239737 41.5699412,47.5553035 42.8492922,46.64116 C43.8058214,45.9577958 44.2795683,45.4587894 44.9953757,44.5292458 C45.716649,43.5927223 46.0061176,42.9726203 46.4943658,41.8979394 C47.0425157,40.6914162 47.2846877,39.9699397 47.5750487,38.677996 L47.174143,37.1026467 C45.6901004,35.8720816 44.9750739,34.9196041 44.2110775,33.1556871 C43.846202,32.3130043 44.2023767,33.0864422 43.5225995,30.9051723 C43.2675994,30.0865314 43.0838789,28.7260075 43.0258736,27.3130791 C42.9912935,26.4730553 42.9518053,25.9915539 43.0607883,25.1578453 C43.2335771,23.8365417 43.4526585,23.0665384 44.1065564,21.9033348 C44.3529673,21.465153 44.4837023,21.2035735 44.8211368,20.8299834 C45.0655398,20.5596513 45.2057564,20.3955685 45.5183156,20.2067792 C45.7642802,20.0582074 45.9194443,19.992951 46.1980927,19.9211578 C46.0915638,20.0049165 46.0401399,20.0730535 45.9889391,20.1981375 C45.9135323,20.3827167 45.9362882,20.516664 45.9889391,20.7087771 C46.0787357,21.0363886 46.2523054,21.2398024 46.5727845,21.3579065 C46.8604683,21.4639343 47.0714067,21.4083168 47.3570827,21.2973034 C47.6891629,21.1683417 47.8708756,21.0088014 48.0455607,20.7000245 C48.1877851,20.4487486 48.2129951,20.269709 48.2199111,19.9816502 C48.2295043,19.582024 48.1001079,19.3621022 47.9410396,18.994938 C47.6571485,18.3393826 47.3202717,18.0578606 46.8342544,17.5321532 C46.3049563,16.9594702 45.8886569,16.7576074 45.3265635,16.2165001 C44.7619045,15.6729553 44.4161038,15.382459 43.9496076,14.7537153 C43.5644302,14.2344339 43.3735706,13.9170153 43.0955915,13.3341394 C42.4776122,13.5007703 42.1140753,13.558936 41.4746787,13.5938355 C40.2603606,13.6599782 39.5640743,13.4571183 38.3896906,13.1436882 C37.2218883,12.8320307 36.595766,12.4296347 35.3918219,12.191543 C34.5127074,12.0178214 33.8754302,11.931847 33.1085336,11.931847 C32.476053,11.931847 32.0241696,12.0204804 31.3829883,12.260788 C30.8121941,12.474727 30.5001926,12.6492242 30.0203105,13.0230359 Z M39.1401896,20.5613276 L39.6672567,20.5614384 C39.9770272,20.5614384 40.2146257,20.8658944 40.2757544,21.1705719 C40.4882544,21.2608673 40.6421915,21.4950813 40.6899343,21.7330622 C40.9473885,21.8425245 41.1183925,22.1604971 41.1197311,22.4440134 C41.3484057,22.6674806 41.4883992,23.0500448 41.4144425,23.300656 C41.4144425,23.300656 41.3354661,23.1794497 41.2566012,23.1411157 C41.1942455,23.1107588 41.1512993,23.107435 41.0819161,23.107435 L40.7077821,23.107435 C40.7889895,23.2865854 40.808622,23.594476 40.7663451,23.8100769 C41.0828085,24.1839994 41.1014371,24.8456483 40.5014172,24.9409293 C40.3400064,24.9665222 40.2536677,24.9566617 40.1215942,24.9209868 C39.8931427,24.9952173 39.7808132,25.0690047 39.5854916,25.3354591 C39.4747238,25.2006254 39.388943,25.1413517 39.3519088,24.979928 C39.3370729,24.9158903 39.3282605,24.8621563 39.3294876,24.8097517 C39.2296516,24.8670311 39.1062788,24.9012658 38.9458719,24.8813233 C38.5541132,25.0163785 38.4069806,25.091717 38.0805894,25.3774492 C37.9735028,25.2375191 37.9175054,25.1335963 37.9142705,24.9576589 C37.9127088,24.8724599 37.91784,24.7981186 37.9372495,24.730314 C37.7125906,24.7769574 37.5670197,24.8506339 37.3308713,25.0220289 C37.2463174,24.8652585 37.1991324,24.7639947 37.2423017,24.5543765 C37.2808975,24.3665844 37.3608778,24.249699 37.4850314,24.1612871 C37.4362847,23.7830437 37.7708189,23.3258057 38.3059176,23.3509555 C38.6841789,23.3686822 39.3487855,23.5244555 39.1372893,22.8639145 C39.104494,22.7614321 39.0667906,22.7322938 39.0150321,22.6500863 L38.5188639,22.6500863 C38.3833323,22.947784 38.1311209,23.0905947 37.7225184,23.110094 C37.809861,23.0261138 37.7579909,22.890837 37.7243032,22.8349979 C37.6013766,22.6314732 37.4305957,22.6715799 37.1137977,22.4999633 C36.55572,22.1976124 36.4460678,22.1585028 36.2569929,21.3971413 C36.2077999,21.1986023 36.1835939,20.8376424 36.1350702,20.577614 C35.8879901,20.8620167 35.5919401,21.1101904 35.2829505,21.3403051 C35.1531079,21.4371371 34.8413296,21.7247528 34.8732325,21.9150932 C34.928449,22.2453637 35.013226,22.3735498 34.8463492,22.6149653 C34.8185736,22.6551827 34.7754043,22.7154535 34.7208571,22.7716249 C34.6397612,22.8549404 34.5893413,22.8883995 34.4845971,22.9536559 C34.4187835,23.1690353 34.2443214,23.4054651 34.044761,23.5134871 C33.9685733,23.8353375 33.6436322,24.1191862 33.3288421,24.2831581 C33.3288421,24.2831581 33.3626413,24.2082628 33.371119,24.1571878 C33.38272,24.0879429 33.3812699,24.0450664 33.3621951,23.9774834 L33.2575625,23.6066631 C33.1334089,23.7964495 32.9743406,23.9647423 32.7765649,24.0759773 C32.7540321,24.4818079 32.2410201,24.7616681 31.8239399,24.7616681 C31.5808755,25.0010893 31.1992677,25.0578147 30.8765576,24.9729481 C30.6163147,25.0523859 30.4011375,25.1416841 30.2215442,25.3134115 C30.0758617,25.1187502 30.0194181,25.0019756 30.0596872,24.8397763 C29.7778039,24.8888571 29.602561,24.961315 29.3100806,25.1591892 C29.2230727,24.9935554 29.1870425,24.934171 29.2114716,24.7365183 C29.2159336,24.7001786 29.2236304,24.66539 29.2342275,24.6324848 C29.1156514,24.6206301 29.0269702,24.6279423 28.777436,24.7729689 C28.6871932,24.5630183 28.6455856,24.3661412 28.8365568,24.1404582 C28.9130791,24.0501628 28.9858088,24.0025223 29.0650083,23.9787021 C29.0570884,23.5040698 29.6479613,23.0098274 30.2178631,23.1705864 C30.7422531,23.3184935 31.0400879,23.4939878 31.5957114,23.2279765 C31.6588479,23.1236106 31.6491432,23.1252725 31.6886314,23.0627859 C31.7413939,22.9795812 31.7744123,22.9343782 31.837995,22.8589289 C31.7657115,22.8659088 31.7245501,22.8676815 31.6520435,22.8669059 C31.5316825,22.8654656 31.4618531,22.8644685 31.3448386,22.8361058 C31.2563806,22.8146122 31.1249763,22.7577759 31.1249763,22.7577759 C31.5392678,22.5505952 31.6009542,22.2917854 31.9254491,21.5652125 C32.2421356,20.8561447 32.8356857,20.6275811 33.7573002,20.596781 C34.5144922,20.5714096 34.6381996,19.8658872 34.176723,19.8696541 C33.6123986,20.0685254 32.9672015,20.4410076 32.5797932,20.6838634 C31.8502653,21.0693082 31.1152716,21.4431199 30.3548448,21.764527 C30.301413,21.7870178 29.6921345,21.9954172 29.8294509,22.1527417 C29.9871806,22.3336648 30.1362095,22.307961 30.3828435,22.3502835 C30.0537751,22.5998976 29.8108223,22.8102913 29.3741095,22.8151661 C29.2247459,23.0155886 28.9576985,23.1456582 28.7067142,23.1421129 C28.5413992,23.3152805 28.2750211,23.4135529 28.0354147,23.3891787 C27.8576062,23.5732039 27.5717072,23.6771267 27.3162609,23.6512014 C27.0670613,23.8887391 26.6719561,23.9341638 26.3624088,23.7954524 C26.2201843,23.7317471 25.6682418,23.4057975 25.5566932,23.4075701 C25.1867981,23.4129989 25.2800527,24.0216893 24.6519225,24.1651648 C24.5038975,24.1990671 24.3906757,24.199621 24.2575982,24.1637245 C24.0734315,24.3056488 23.8000258,24.3566131 23.5758131,24.2924646 C23.2950453,24.4884554 23.1018431,24.4331703 22.7888378,24.3838679 C22.9353011,24.2859279 23.0762985,23.9584272 22.8028929,23.9248573 C22.6280962,23.9033636 22.4120266,24.080963 22.5239098,24.2410572 C22.5944085,24.341767 22.6789624,24.4845777 22.5126434,24.7280982 C22.4674662,24.7942409 22.3705305,24.8754513 22.2529583,24.909132 C22.1943953,25.0211426 22.1044871,25.1179747 21.9770986,25.2012901 C21.8228269,25.3021107 21.6642048,25.3243799 21.5234304,25.3355699 C21.5565604,25.1573058 21.5516522,25.0709989 21.5045787,24.9277451 C21.4724527,24.9207652 21.4403267,24.9121234 21.413555,24.901709 C21.3864487,24.8911838 21.3561075,24.8754513 21.327328,24.8587217 C21.1818686,25.0185944 20.9460549,25.0505024 20.7393553,24.9641956 C20.4091714,25.088504 20.2343748,25.2254428 20.0749718,25.3887499 C19.9620846,25.2574616 19.8750767,25.0746551 19.8879048,24.8424353 C19.6894599,24.7509213 19.383482,24.7611141 19.0801814,25.0220289 C18.9280291,24.814959 18.9418611,24.505185 19.1139806,24.2634371 C19.175667,24.1767979 19.2264216,24.1273848 19.308856,24.0774176 C19.3191185,23.7378406 19.4623469,23.5955839 19.674847,23.4657358 C19.7165662,23.0440621 20.2422947,22.8269101 20.6105167,22.8947147 C21.0502412,22.9754819 21.3375904,23.1731346 21.748647,22.9383667 L22.9908523,22.2219866 L23.2568957,22.0778464 L23.2174075,22.0778464 C22.9577223,22.0778464 22.5398613,21.8003128 22.4467182,21.5868169 L22.3682995,21.4452249 L22.2773874,21.4452249 C22.0175907,21.4452249 21.7310224,21.1676914 21.6378793,20.9541955 L21.5636995,20.7842408 C21.3414946,20.7248563 21.1352413,20.4921935 21.0547032,20.3076143 L20.9944669,20.1694568 C20.7483907,20.1431992 20.5088959,19.8830599 20.4205494,19.6806432 L20.2866911,19.3846074 C20.4331544,19.5189979 20.7150377,19.5217677 20.8418685,19.3838318 C21.0362977,19.1721086 20.8028264,18.7662781 20.5883185,18.9311363 C20.3487121,19.1151616 20.144132,19.2268398 19.8386003,19.0207669 C19.7504769,18.9612717 19.6707197,18.8830527 19.6147223,18.7920926 C19.4731671,18.7664997 19.3568219,18.6996922 19.2432654,18.5605376 C19.1351748,18.4281414 19.0928979,18.3090401 19.0935672,18.1385315 L19.0942365,17.9543954 C19.3011592,18.0335008 19.3950831,18.0781499 19.5516973,18.0547728 C19.5675372,17.9879654 19.6022288,17.9326802 19.6836593,17.8786138 C19.7411069,17.8405014 19.7920846,17.8365129 19.8640334,17.8393935 C19.9019599,17.8409446 19.9228195,17.8479245 19.9598537,17.8561231 C20.0123931,17.867867 20.0392763,17.9048715 20.0923734,17.8953434 C20.1886398,17.877949 20.2435218,17.7538622 20.1966713,17.6683309 C20.1813892,17.6406329 20.1674456,17.6261192 20.1402278,17.6098328 C20.0614744,17.6523768 19.9958839,17.6718762 19.9232657,17.6853928 C19.8450702,17.7001281 19.7018417,17.6978015 19.641494,17.6798532 C19.2624518,17.5669563 19.1395252,17.1030709 19.3163298,16.7732435 C19.306625,16.6858288 19.2723796,16.6115982 19.2160476,16.5238511 C19.1640659,16.4431946 19.1246893,16.4015369 19.0468284,16.3449223 C19.1341709,16.1738596 19.350129,16.1158047 19.5709952,16.1290997 C19.6959297,16.1366336 19.828561,16.2174008 19.9302933,16.2959523 C19.967439,16.1981231 20.0137316,16.1142536 20.0715138,16.0430145 C20.0320256,15.8295186 19.9599652,15.6888129 19.7994468,15.5329288 C19.9317434,15.4300032 20.1299653,15.3440287 20.3706872,15.4138276 C20.5767174,15.4735444 20.6758841,15.5867737 20.7313238,15.7362319 C20.8046112,15.7370074 20.8734367,15.7524075 20.9381349,15.7799946 C21.0200116,15.6709755 21.0531415,15.5590757 21.0167767,15.3062487 C21.2985484,15.3621986 21.5454055,15.5586325 21.6254974,15.8715087 C21.6472494,15.956486 21.6527152,16.0180863 21.6469147,16.0819024 C21.8704581,16.3076962 21.9157468,16.7098706 21.7032468,16.9993697 C21.3615734,17.4645847 21.4308451,17.694367 21.7761995,18.1328811 C22.0867509,18.5273001 22.6887787,18.9397781 23.1633064,19.196926 C23.1809311,19.1087357 23.2143957,19.022872 23.2676044,18.9417724 C23.1528208,18.3824951 23.3171319,17.7786796 23.5915415,17.2877609 C23.3743564,16.8202193 23.383838,16.3726202 23.5161346,15.8879059 C23.8062726,15.8415949 24.0860365,15.831402 24.37082,15.9182629 C24.5697112,15.6894777 24.9726247,15.6207867 25.2633204,15.6139177 C25.4422444,15.3637497 25.7232353,15.3533352 26.0446068,15.3533352 C26.3659783,15.3533352 26.6468577,15.3638605 26.8256701,15.6139177 C27.1162542,15.6208975 27.5191678,15.6894777 27.7181705,15.9182629 C28.0029541,15.831402 28.2829411,15.8415949 28.5728559,15.8879059 C28.7058218,16.3751684 28.714411,16.8233215 28.4949949,17.2929681 C28.7153034,17.7490981 28.8935581,18.3143581 28.7803363,18.8233359 C29.5072985,19.0930032 30.7251861,19.2987437 31.4780277,19.1688956 C32.1306985,19.0563311 32.5389664,18.984538 33.1762436,18.8099301 C34.9335803,18.3285395 35.386356,18.0302878 37.2121835,18.3194546 C37.5873215,18.378839 38.2662063,18.6132745 38.6617576,18.4214938 C39.0479389,18.2341448 38.8704651,17.8087041 38.5125056,17.8114739 C38.1825448,17.8139114 38.2080895,18.1081745 38.2983323,18.2565248 C38.0383125,18.2613996 37.8299397,18.2671608 37.6697559,18.0270749 C37.5964685,18.0313958 37.5328858,18.0347195 37.4472165,18.0214245 C37.3565274,18.0073539 37.3053266,17.9920646 37.2217767,17.9542846 C37.1016389,17.9840876 37.0139617,17.9960532 36.9060942,17.9878546 C36.7596309,17.9766646 36.551035,17.9207147 36.551035,17.9207147 C36.5213631,17.9266975 36.4595651,17.9512932 36.3988827,17.959935 C36.3095323,17.9724545 36.2379181,17.9617077 36.167754,17.9542846 C35.9535807,17.9319047 35.9144271,17.9373335 35.7676292,17.9738948 C35.6806212,17.9954992 35.6341055,18.0128935 35.5533443,18.0495656 C35.4741448,18.0854622 35.4307524,18.1098364 35.3589151,18.1586956 C35.3995188,18.0702837 35.4250634,18.0214245 35.4744794,17.9375551 C35.5009164,17.8926844 35.5414086,17.8311949 35.5612642,17.8013919 C35.1565659,17.8902469 34.8432259,17.9574976 34.3555354,18.0859053 C33.3532712,18.3499223 31.7557837,18.8997823 30.7028764,18.748219 C29.9885192,18.6454042 29.2379086,18.3796145 29.1406383,17.5228612 C29.0720359,16.9183809 29.5448904,16.4876222 30.0803237,16.2804414 C30.4660587,16.1312048 30.7257439,16.0996291 31.1077979,16.1008478 C31.5824372,16.1025097 31.8165777,16.1740812 32.3067222,16.2413319 C32.4472735,16.2606097 32.6335596,16.2900803 32.8421555,16.2749018 C33.0322343,16.2610528 33.1422213,16.2446556 33.3213683,16.1798424 C33.4978382,16.1159155 33.5945508,16.0632894 33.744026,15.9502817 C33.6726349,16.0932032 33.6263422,16.1714222 33.5355416,16.3030429 C33.4381597,16.4438594 33.3039667,16.5983032 33.2592357,16.6445034 C32.8872212,17.0308346 32.3855871,17.4786552 31.4048518,17.2490945 C31.2526995,17.5459059 30.8300418,17.6298861 30.4636047,17.5514455 C30.5820693,17.4648062 30.7004224,17.2547449 30.5059931,17.1623445 C30.1391098,16.9881797 29.7309535,17.6550358 30.6272465,17.8571202 C31.831079,18.1283386 33.1793669,17.5133331 34.2956338,17.1874943 C35.0940987,16.9543882 35.8128063,16.6866043 36.6553329,16.571824 C36.7426755,16.1155831 37.3482728,15.8194365 37.7861011,15.8468021 C37.7861011,15.8468021 37.8856025,15.8544468 37.9486274,15.8635317 C38.0184568,15.8736137 38.057722,15.880926 38.1263243,15.8972124 C38.0503597,15.9279017 38.0098676,15.9249104 37.9376957,15.9839624 C37.7917901,16.1032852 37.7207336,16.291853 37.8252547,16.4282377 C37.8564883,16.4690091 37.9038964,16.5117748 37.9659175,16.5605232 C38.2365344,16.7732435 38.7565739,16.8328496 39.0651174,16.9860747 C39.6513053,17.2771249 39.9725653,17.7474363 39.8372568,18.3744073 C39.6842121,19.0840291 38.955242,19.5164497 38.2256026,19.485428 C38.2770265,19.5753909 38.5193101,19.9759035 38.6945529,20.2264038 C38.7628207,20.3239007 38.8187065,20.4304824 38.9467643,20.4989518 C39.0158129,20.5362886 39.0603208,20.5613276 39.1401896,20.5613276 Z M39.1401896,31.1106382 L39.6672567,31.110749 C39.9770272,31.110749 40.2146257,31.415205 40.2757544,31.7198826 C40.4882544,31.810178 40.6421915,32.0443919 40.6899343,32.2823728 C40.9473885,32.3918351 41.1183925,32.7098077 41.1197311,32.9933241 C41.3484057,33.2167912 41.4883992,33.5993555 41.4144425,33.8499666 C41.4144425,33.8499666 41.3354661,33.7287604 41.2566012,33.6904264 C41.1942455,33.6600694 41.1512993,33.6567457 41.0819161,33.6567457 L40.7077821,33.6567457 C40.7889895,33.8358961 40.808622,34.1437866 40.7663451,34.3593876 C41.0828085,34.73331 41.1014371,35.394959 40.5014172,35.4902399 C40.3400064,35.5158329 40.2536677,35.5059724 40.1215942,35.4702974 C39.8931427,35.5445279 39.7808132,35.6183153 39.5854916,35.8847697 C39.4747238,35.749936 39.388943,35.6906624 39.3519088,35.5292387 C39.3370729,35.465201 39.3282605,35.4114669 39.3294876,35.3590624 C39.2296516,35.4163418 39.1062788,35.4505765 38.9458719,35.4306339 C38.5541132,35.5656892 38.4069806,35.6410276 38.0805894,35.9267598 C37.9735028,35.7868297 37.9175054,35.682907 37.9142705,35.5069695 C37.9127088,35.4217706 37.91784,35.3474293 37.9372495,35.2796246 C37.7125906,35.326268 37.5670197,35.3999446 37.3308713,35.5713396 C37.2463174,35.4145691 37.1991324,35.3133054 37.2423017,35.1036872 C37.2808975,34.915895 37.3608778,34.7990096 37.4850314,34.7105977 C37.4362847,34.3323543 37.7708189,33.8751164 38.3059176,33.9002661 C38.6841789,33.9179928 39.3487855,34.0737662 39.1372893,33.4132252 C39.104494,33.3107427 39.0667906,33.2816045 39.0150321,33.1993969 L38.5188639,33.1993969 C38.3833323,33.4970946 38.1311209,33.6399053 37.7225184,33.6594047 C37.809861,33.5754245 37.7579909,33.4401476 37.7243032,33.3843085 C37.6013766,33.1807839 37.4305957,33.2208905 37.1137977,33.049274 C36.55572,32.746923 36.4460678,32.7078135 36.2569929,31.9464519 C36.2077999,31.7479129 36.1835939,31.3869531 36.1350702,31.1269246 C35.8879901,31.4113273 35.5919401,31.659501 35.2829505,31.8896157 C35.1531079,31.9864478 34.8413296,32.2740634 34.8732325,32.4644038 C34.928449,32.7946743 35.013226,32.9228605 34.8463492,33.1642759 C34.8185736,33.2044933 34.7754043,33.2647641 34.7208571,33.3209356 C34.6397612,33.404251 34.5893413,33.4377102 34.4845971,33.5029666 C34.4187835,33.7183459 34.2443214,33.9547757 34.044761,34.0627978 C33.9685733,34.3846481 33.6436322,34.6684968 33.3288421,34.8324687 C33.3288421,34.8324687 33.3626413,34.7575735 33.371119,34.7064984 C33.38272,34.6372535 33.3812699,34.5943771 33.3621951,34.526794 L33.2575625,34.1559737 C33.1334089,34.3457602 32.9743406,34.514053 32.7765649,34.625288 C32.7540321,35.0311185 32.2410201,35.3109787 31.8239399,35.3109787 C31.5808755,35.5503999 31.1992677,35.6071253 30.8765576,35.5222588 C30.6163147,35.6016965 30.4011375,35.6909948 30.2215442,35.8627221 C30.0758617,35.6680609 30.0194181,35.5512863 30.0596872,35.389087 C29.7778039,35.4381678 29.602561,35.5106256 29.3100806,35.7084999 C29.2230727,35.5428661 29.1870425,35.4834816 29.2114716,35.285829 C29.2159336,35.2494893 29.2236304,35.2147006 29.2342275,35.1817954 C29.1156514,35.1699407 29.0269702,35.177253 28.777436,35.3222795 C28.6871932,35.112329 28.6455856,34.9154518 28.8365568,34.6897688 C28.9130791,34.5994735 28.9858088,34.551833 29.0650083,34.5280128 C29.0570884,34.0533805 29.6479613,33.559138 30.2178631,33.719897 C30.7422531,33.8678041 31.0400879,34.0432984 31.5957114,33.7772872 C31.6588479,33.6729213 31.6491432,33.6745832 31.6886314,33.6120966 C31.7413939,33.5288919 31.7744123,33.4836888 31.837995,33.4082396 C31.7657115,33.4152194 31.7245501,33.4169921 31.6520435,33.4162166 C31.5316825,33.4147763 31.4618531,33.4137791 31.3448386,33.3854164 C31.2563806,33.3639228 31.1249763,33.3070866 31.1249763,33.3070866 C31.5392678,33.0999058 31.6009542,32.8410961 31.9254491,32.1145232 C32.2421356,31.4054553 32.8356857,31.1768918 33.7573002,31.1460916 C34.5144922,31.1207203 34.6381996,30.4151978 34.176723,30.4189647 C33.6123986,30.6178361 32.9672015,30.9903183 32.5797932,31.233174 C31.8502653,31.6186188 31.1152716,31.9924305 30.3548448,32.3138377 C30.301413,32.3363284 29.6921345,32.5447279 29.8294509,32.7020523 C29.9871806,32.8829754 30.1362095,32.8572717 30.3828435,32.8995942 C30.0537751,33.1492082 29.8108223,33.3596019 29.3741095,33.3644768 C29.2247459,33.5648992 28.9576985,33.6949689 28.7067142,33.6914235 C28.5413992,33.8645912 28.2750211,33.9628635 28.0354147,33.9384893 C27.8576062,34.1225146 27.5717072,34.2264373 27.3162609,34.2005121 C27.0670613,34.4380498 26.6719561,34.4834744 26.3624088,34.344763 C26.2201843,34.2810577 25.6682418,33.9551081 25.5566932,33.9568808 C25.1867981,33.9623096 25.2800527,34.571 24.6519225,34.7144754 C24.5038975,34.7483777 24.3906757,34.7489317 24.2575982,34.7130351 C24.0734315,34.8549595 23.8000258,34.9059237 23.5758131,34.8417753 C23.2950453,35.037766 23.1018431,34.9824809 22.7888378,34.9331785 C22.9353011,34.8352385 23.0762985,34.5077378 22.8028929,34.4741679 C22.6280962,34.4526743 22.4120266,34.6302736 22.5239098,34.7903678 C22.5944085,34.8910776 22.6789624,35.0338883 22.5126434,35.2774088 C22.4674662,35.3435515 22.3705305,35.424762 22.2529583,35.4584427 C22.1943953,35.5704532 22.1044871,35.6672853 21.9770986,35.7506008 C21.8228269,35.8514214 21.6642048,35.8736905 21.5234304,35.8848805 C21.5565604,35.7066164 21.5516522,35.6203096 21.5045787,35.4770557 C21.4724527,35.4700758 21.4403267,35.4614341 21.413555,35.4510196 C21.3864487,35.4404944 21.3561075,35.424762 21.327328,35.4080324 C21.1818686,35.567905 20.9460549,35.5998131 20.7393553,35.5135062 C20.4091714,35.6378147 20.2343748,35.7747534 20.0749718,35.9380606 C19.9620846,35.8067722 19.8750767,35.6239657 19.8879048,35.391746 C19.6894599,35.3002319 19.383482,35.3104248 19.0801814,35.5713396 C18.9280291,35.3642696 18.9418611,35.0544956 19.1139806,34.8127478 C19.175667,34.7261086 19.2264216,34.6766954 19.308856,34.6267283 C19.3191185,34.2871513 19.4623469,34.1448945 19.674847,34.0150465 C19.7165662,33.5933727 20.2422947,33.3762207 20.6105167,33.4440253 C21.0502412,33.5247926 21.3375904,33.7224452 21.748647,33.4876773 L22.9908523,32.7712972 L23.2568957,32.627157 L23.2174075,32.627157 C22.9577223,32.627157 22.5398613,32.3496235 22.4467182,32.1361276 L22.3682995,31.9945356 L22.2773874,31.9945356 C22.0175907,31.9945356 21.7310224,31.717002 21.6378793,31.5035061 L21.5636995,31.3335514 C21.3414946,31.274167 21.1352413,31.0415041 21.0547032,30.8569249 L20.9944669,30.7187675 C20.7483907,30.6925098 20.5088959,30.4323705 20.4205494,30.2299538 L20.2866911,29.933918 C20.4331544,30.0683085 20.7150377,30.0710783 20.8418685,29.9331425 C21.0362977,29.7214193 20.8028264,29.3155887 20.5883185,29.480447 C20.3487121,29.6644723 20.144132,29.7761504 19.8386003,29.5700776 C19.7504769,29.5105824 19.6707197,29.4323633 19.6147223,29.3414032 C19.4731671,29.3158103 19.3568219,29.2490028 19.2432654,29.1098483 C19.1351748,28.977452 19.0928979,28.8583508 19.0935672,28.6878421 L19.0942365,28.5037061 C19.3011592,28.5828114 19.3950831,28.6274606 19.5516973,28.6040835 C19.5675372,28.537276 19.6022288,28.4819909 19.6836593,28.4279244 C19.7411069,28.3898121 19.7920846,28.3858235 19.8640334,28.3887041 C19.9019599,28.3902552 19.9228195,28.3972351 19.9598537,28.4054337 C20.0123931,28.4171776 20.0392763,28.4541821 20.0923734,28.444654 C20.1886398,28.4272597 20.2435218,28.3031728 20.1966713,28.2176415 C20.1813892,28.1899436 20.1674456,28.1754298 20.1402278,28.1591434 C20.0614744,28.2016875 19.9958839,28.2211869 19.9232657,28.2347035 C19.8450702,28.2494388 19.7018417,28.2471122 19.641494,28.2291639 C19.2624518,28.116267 19.1395252,27.6523815 19.3163298,27.3225542 C19.306625,27.2351394 19.2723796,27.1609089 19.2160476,27.0731617 C19.1640659,26.9925053 19.1246893,26.9508475 19.0468284,26.8942329 C19.1341709,26.7231703 19.350129,26.6651154 19.5709952,26.6784104 C19.6959297,26.6859442 19.828561,26.7667115 19.9302933,26.8452629 C19.967439,26.7474337 20.0137316,26.6635643 20.0715138,26.5923251 C20.0320256,26.3788292 19.9599652,26.2381236 19.7994468,26.0822395 C19.9317434,25.9793138 20.1299653,25.8933394 20.3706872,25.9631382 C20.5767174,26.022855 20.6758841,26.1360843 20.7313238,26.2855425 C20.8046112,26.286318 20.8734367,26.3017181 20.9381349,26.3293053 C21.0200116,26.2202861 21.0531415,26.1083863 21.0167767,25.8555593 C21.2985484,25.9115092 21.5454055,26.1079432 21.6254974,26.4208193 C21.6472494,26.5057967 21.6527152,26.567397 21.6469147,26.6312131 C21.8704581,26.8570068 21.9157468,27.2591813 21.7032468,27.5486803 C21.3615734,28.0138953 21.4308451,28.2436776 21.7761995,28.6821917 C22.0867509,29.0766107 22.6887787,29.4890888 23.1633064,29.7462366 C23.1809311,29.6580463 23.2143957,29.5721826 23.2676044,29.491083 C23.1528208,28.9318058 23.3171319,28.3279902 23.5915415,27.8370715 C23.3743564,27.3695299 23.383838,26.9219309 23.5161346,26.4372165 C23.8062726,26.3909055 24.0860365,26.3807127 24.37082,26.4675735 C24.5697112,26.2387883 24.9726247,26.1700974 25.2633204,26.1632283 C25.4422444,25.9130603 25.7232353,25.9026459 26.0446068,25.9026459 C26.3659783,25.9026459 26.6468577,25.9131711 26.8256701,26.1632283 C27.1162542,26.1702082 27.5191678,26.2387883 27.7181705,26.4675735 C28.0029541,26.3807127 28.2829411,26.3909055 28.5728559,26.4372165 C28.7058218,26.9244791 28.714411,27.3726321 28.4949949,27.8422787 C28.7153034,28.2984088 28.8935581,28.8636688 28.7803363,29.3726465 C29.5072985,29.6423139 30.7251861,29.8480543 31.4780277,29.7182063 C32.1306985,29.6056418 32.5389664,29.5338487 33.1762436,29.3592407 C34.9335803,28.8778501 35.386356,28.5795985 37.2121835,28.8687652 C37.5873215,28.9281496 38.2662063,29.1625852 38.6617576,28.9708045 C39.0479389,28.7834555 38.8704651,28.3580148 38.5125056,28.3607846 C38.1825448,28.363222 38.2080895,28.6574852 38.2983323,28.8058354 C38.0383125,28.8107103 37.8299397,28.8164715 37.6697559,28.5763855 C37.5964685,28.5807064 37.5328858,28.5840302 37.4472165,28.5707351 C37.3565274,28.5566646 37.3053266,28.5413753 37.2217767,28.5035953 C37.1016389,28.5333983 37.0139617,28.5453638 36.9060942,28.5371652 C36.7596309,28.5259752 36.551035,28.4700253 36.551035,28.4700253 C36.5213631,28.4760081 36.4595651,28.5006039 36.3988827,28.5092457 C36.3095323,28.5217651 36.2379181,28.5110183 36.167754,28.5035953 C35.9535807,28.4812153 35.9144271,28.4866441 35.7676292,28.5232054 C35.6806212,28.5448098 35.6341055,28.5622042 35.5533443,28.5988763 C35.4741448,28.6347728 35.4307524,28.659147 35.3589151,28.7080062 C35.3995188,28.6195943 35.4250634,28.5707351 35.4744794,28.4868657 C35.5009164,28.441995 35.5414086,28.3805055 35.5612642,28.3507025 C35.1565659,28.4395576 34.8432259,28.5068082 34.3555354,28.635216 C33.3532712,28.899233 31.7557837,29.4490929 30.7028764,29.2975297 C29.9885192,29.1947148 29.2379086,28.9289252 29.1406383,28.0721718 C29.0720359,27.4676915 29.5448904,27.0369328 30.0803237,26.8297521 C30.4660587,26.6805154 30.7257439,26.6489398 31.1077979,26.6501585 C31.5824372,26.6518203 31.8165777,26.7233919 32.3067222,26.7906425 C32.4472735,26.8099203 32.6335596,26.8393909 32.8421555,26.8242125 C33.0322343,26.8103635 33.1422213,26.7939663 33.3213683,26.7291531 C33.4978382,26.6652262 33.5945508,26.6126 33.744026,26.4995923 C33.6726349,26.6425138 33.6263422,26.7207329 33.5355416,26.8523536 C33.4381597,26.99317 33.3039667,27.1476139 33.2592357,27.1938141 C32.8872212,27.5801452 32.3855871,28.0279659 31.4048518,27.7984052 C31.2526995,28.0952165 30.8300418,28.1791968 30.4636047,28.1007561 C30.5820693,28.0141169 30.7004224,27.8040556 30.5059931,27.7116552 C30.1391098,27.5374904 29.7309535,28.2043465 30.6272465,28.4064308 C31.831079,28.6776493 33.1793669,28.0626437 34.2956338,27.7368049 C35.0940987,27.5036989 35.8128063,27.235915 36.6553329,27.1211346 C36.7426755,26.6648938 37.3482728,26.3687472 37.7861011,26.3961128 C37.7861011,26.3961128 37.8856025,26.4037574 37.9486274,26.4128423 C38.0184568,26.4229244 38.057722,26.4302367 38.1263243,26.4465231 C38.0503597,26.4772124 38.0098676,26.474221 37.9376957,26.5332731 C37.7917901,26.6525959 37.7207336,26.8411636 37.8252547,26.9775484 C37.8564883,27.0183198 37.9038964,27.0610854 37.9659175,27.1098338 C38.2365344,27.3225542 38.7565739,27.3821602 39.0651174,27.5353853 C39.6513053,27.8264355 39.9725653,28.2967469 39.8372568,28.923718 C39.6842121,29.6333397 38.955242,30.0657603 38.2256026,30.0347386 C38.2770265,30.1247016 38.5193101,30.5252141 38.6945529,30.7757145 C38.7628207,30.8732113 38.8187065,30.9797931 38.9467643,31.0482624 C39.0158129,31.0855993 39.0603208,31.1106382 39.1401896,31.1106382 Z M39.1401896,41.6599489 L39.6672567,41.6600597 C39.9770272,41.6600597 40.2146257,41.9645157 40.2757544,42.2691932 C40.4882544,42.3594886 40.6421915,42.5937026 40.6899343,42.8316835 C40.9473885,42.9411458 41.1183925,43.2591184 41.1197311,43.5426347 C41.3484057,43.7661019 41.4883992,44.1486661 41.4144425,44.3992773 C41.4144425,44.3992773 41.3354661,44.278071 41.2566012,44.239737 C41.1942455,44.2093801 41.1512993,44.2060563 41.0819161,44.2060563 L40.7077821,44.2060563 C40.7889895,44.3852067 40.808622,44.6930973 40.7663451,44.9086982 C41.0828085,45.2826207 41.1014371,45.9442696 40.5014172,46.0395506 C40.3400064,46.0651435 40.2536677,46.055283 40.1215942,46.0196081 C39.8931427,46.0938386 39.7808132,46.167626 39.5854916,46.4340804 C39.4747238,46.2992467 39.388943,46.239973 39.3519088,46.0785493 C39.3370729,46.0145116 39.3282605,45.9607776 39.3294876,45.908373 C39.2296516,45.9656524 39.1062788,45.9998871 38.9458719,45.9799446 C38.5541132,46.1149998 38.4069806,46.1903383 38.0805894,46.4760705 C37.9735028,46.3361404 37.9175054,46.2322176 37.9142705,46.0562802 C37.9127088,45.9710812 37.91784,45.8967399 37.9372495,45.8289353 C37.7125906,45.8755787 37.5670197,45.9492552 37.3308713,46.1206502 C37.2463174,45.9638798 37.1991324,45.862616 37.2423017,45.6529978 C37.2808975,45.4652057 37.3608778,45.3483203 37.4850314,45.2599084 C37.4362847,44.881665 37.7708189,44.424427 38.3059176,44.4495768 C38.6841789,44.4673035 39.3487855,44.6230768 39.1372893,43.9625358 C39.104494,43.8600534 39.0667906,43.8309151 39.0150321,43.7487076 L38.5188639,43.7487076 C38.3833323,44.0464053 38.1311209,44.189216 37.7225184,44.2087153 C37.809861,44.1247351 37.7579909,43.9894583 37.7243032,43.9336192 C37.6013766,43.7300945 37.4305957,43.7702012 37.1137977,43.5985846 C36.55572,43.2962337 36.4460678,43.2571241 36.2569929,42.4957626 C36.2077999,42.2972236 36.1835939,41.9362637 36.1350702,41.6762353 C35.8879901,41.960638 35.5919401,42.2088117 35.2829505,42.4389264 C35.1531079,42.5357584 34.8413296,42.8233741 34.8732325,43.0137145 C34.928449,43.343985 35.013226,43.4721711 34.8463492,43.7135866 C34.8185736,43.753804 34.7754043,43.8140748 34.7208571,43.8702462 C34.6397612,43.9535617 34.5893413,43.9870208 34.4845971,44.0522772 C34.4187835,44.2676566 34.2443214,44.5040864 34.044761,44.6121084 C33.9685733,44.9339588 33.6436322,45.2178075 33.3288421,45.3817794 C33.3288421,45.3817794 33.3626413,45.3068841 33.371119,45.2558091 C33.38272,45.1865642 33.3812699,45.1436877 33.3621951,45.0761047 L33.2575625,44.7052844 C33.1334089,44.8950708 32.9743406,45.0633636 32.7765649,45.1745986 C32.7540321,45.5804292 32.2410201,45.8602894 31.8239399,45.8602894 C31.5808755,46.0997106 31.1992677,46.156436 30.8765576,46.0715694 C30.6163147,46.1510072 30.4011375,46.2403054 30.2215442,46.4120328 C30.0758617,46.2173715 30.0194181,46.1005969 30.0596872,45.9383976 C29.7778039,45.9874784 29.602561,46.0599363 29.3100806,46.2578105 C29.2230727,46.0921767 29.1870425,46.0327923 29.2114716,45.8351396 C29.2159336,45.7987999 29.2236304,45.7640113 29.2342275,45.7311061 C29.1156514,45.7192514 29.0269702,45.7265636 28.777436,45.8715902 C28.6871932,45.6616396 28.6455856,45.4647625 28.8365568,45.2390795 C28.9130791,45.1487841 28.9858088,45.1011436 29.0650083,45.0773234 C29.0570884,44.6026911 29.6479613,44.1084487 30.2178631,44.2692077 C30.7422531,44.4171148 31.0400879,44.5926091 31.5957114,44.3265978 C31.6588479,44.2222319 31.6491432,44.2238938 31.6886314,44.1614072 C31.7413939,44.0782025 31.7744123,44.0329995 31.837995,43.9575502 C31.7657115,43.9645301 31.7245501,43.9663028 31.6520435,43.9655272 C31.5316825,43.9640869 31.4618531,43.9630898 31.3448386,43.9347271 C31.2563806,43.9132335 31.1249763,43.8563972 31.1249763,43.8563972 C31.5392678,43.6492165 31.6009542,43.3904067 31.9254491,42.6638338 C32.2421356,41.954766 32.8356857,41.7262024 33.7573002,41.6954023 C34.5144922,41.6700309 34.6381996,40.9645085 34.176723,40.9682754 C33.6123986,41.1671467 32.9672015,41.5396289 32.5797932,41.7824847 C31.8502653,42.1679295 31.1152716,42.5417412 30.3548448,42.8631483 C30.301413,42.8856391 29.6921345,43.0940385 29.8294509,43.251363 C29.9871806,43.4322861 30.1362095,43.4065823 30.3828435,43.4489048 C30.0537751,43.6985189 29.8108223,43.9089126 29.3741095,43.9137874 C29.2247459,44.1142099 28.9576985,44.2442795 28.7067142,44.2407342 C28.5413992,44.4139018 28.2750211,44.5121742 28.0354147,44.4878 C27.8576062,44.6718252 27.5717072,44.775748 27.3162609,44.7498227 C27.0670613,44.9873604 26.6719561,45.0327851 26.3624088,44.8940737 C26.2201843,44.8303684 25.6682418,44.5044188 25.5566932,44.5061914 C25.1867981,44.5116202 25.2800527,45.1203106 24.6519225,45.2637861 C24.5038975,45.2976884 24.3906757,45.2982423 24.2575982,45.2623458 C24.0734315,45.4042701 23.8000258,45.4552344 23.5758131,45.3910859 C23.2950453,45.5870767 23.1018431,45.5317916 22.7888378,45.4824892 C22.9353011,45.3845492 23.0762985,45.0570485 22.8028929,45.0234786 C22.6280962,45.0019849 22.4120266,45.1795843 22.5239098,45.3396785 C22.5944085,45.4403883 22.6789624,45.583199 22.5126434,45.8267195 C22.4674662,45.8928622 22.3705305,45.9740726 22.2529583,46.0077533 C22.1943953,46.1197639 22.1044871,46.216596 21.9770986,46.2999114 C21.8228269,46.400732 21.6642048,46.4230012 21.5234304,46.4341912 C21.5565604,46.2559271 21.5516522,46.1696202 21.5045787,46.0263664 C21.4724527,46.0193865 21.4403267,46.0107447 21.413555,46.0003303 C21.3864487,45.9898051 21.3561075,45.9740726 21.327328,45.957343 C21.1818686,46.1172157 20.9460549,46.1491237 20.7393553,46.0628169 C20.4091714,46.1871253 20.2343748,46.3240641 20.0749718,46.4873712 C19.9620846,46.3560829 19.8750767,46.1732764 19.8879048,45.9410566 C19.6894599,45.8495426 19.383482,45.8597354 19.0801814,46.1206502 C18.9280291,45.9135803 18.9418611,45.6038063 19.1139806,45.3620584 C19.175667,45.2754192 19.2264216,45.2260061 19.308856,45.1760389 C19.3191185,44.8364619 19.4623469,44.6942052 19.674847,44.5643571 C19.7165662,44.1426834 20.2422947,43.9255314 20.6105167,43.993336 C21.0502412,44.0741032 21.3375904,44.2717559 21.748647,44.036988 L22.9908523,43.3206079 L23.2568957,43.1764677 L23.2174075,43.1764677 C22.9577223,43.1764677 22.5398613,42.8989341 22.4467182,42.6854382 L22.3682995,42.5438462 L22.2773874,42.5438462 C22.0175907,42.5438462 21.7310224,42.2663127 21.6378793,42.0528168 L21.5636995,41.8828621 C21.3414946,41.8234776 21.1352413,41.5908148 21.0547032,41.4062356 L20.9944669,41.2680781 C20.7483907,41.2418204 20.5088959,40.9816812 20.4205494,40.7792645 L20.2866911,40.4832287 C20.4331544,40.6176192 20.7150377,40.620389 20.8418685,40.4824531 C21.0362977,40.2707299 20.8028264,39.8648994 20.5883185,40.0297576 C20.3487121,40.2137829 20.144132,40.3254611 19.8386003,40.1193882 C19.7504769,40.059893 19.6707197,39.981674 19.6147223,39.8907139 C19.4731671,39.865121 19.3568219,39.7983135 19.2432654,39.6591589 C19.1351748,39.5267627 19.0928979,39.4076614 19.0935672,39.2371528 L19.0942365,39.0530167 C19.3011592,39.1321221 19.3950831,39.1767712 19.5516973,39.1533941 C19.5675372,39.0865866 19.6022288,39.0313015 19.6836593,38.9772351 C19.7411069,38.9391227 19.7920846,38.9351342 19.8640334,38.9380148 C19.9019599,38.9395659 19.9228195,38.9465458 19.9598537,38.9547444 C20.0123931,38.9664883 20.0392763,39.0034928 20.0923734,38.9939647 C20.1886398,38.9765703 20.2435218,38.8524835 20.1966713,38.7669522 C20.1813892,38.7392542 20.1674456,38.7247405 20.1402278,38.7084541 C20.0614744,38.7509981 19.9958839,38.7704975 19.9232657,38.7840141 C19.8450702,38.7987494 19.7018417,38.7964228 19.641494,38.7784745 C19.2624518,38.6655776 19.1395252,38.2016922 19.3163298,37.8718648 C19.306625,37.7844501 19.2723796,37.7102195 19.2160476,37.6224724 C19.1640659,37.5418159 19.1246893,37.5001582 19.0468284,37.4435436 C19.1341709,37.2724809 19.350129,37.214426 19.5709952,37.227721 C19.6959297,37.2352549 19.828561,37.3160221 19.9302933,37.3945736 C19.967439,37.2967444 20.0137316,37.2128749 20.0715138,37.1416358 C20.0320256,36.9281399 19.9599652,36.7874342 19.7994468,36.6315501 C19.9317434,36.5286245 20.1299653,36.44265 20.3706872,36.5124489 C20.5767174,36.5721657 20.6758841,36.6853949 20.7313238,36.8348532 C20.8046112,36.8356287 20.8734367,36.8510288 20.9381349,36.8786159 C21.0200116,36.7695968 21.0531415,36.657697 21.0167767,36.40487 C21.2985484,36.4608199 21.5454055,36.6572538 21.6254974,36.97013 C21.6472494,37.0551073 21.6527152,37.1167076 21.6469147,37.1805237 C21.8704581,37.4063175 21.9157468,37.8084919 21.7032468,38.097991 C21.3615734,38.563206 21.4308451,38.7929883 21.7761995,39.2315024 C22.0867509,39.6259214 22.6887787,40.0383994 23.1633064,40.2955473 C23.1809311,40.207357 23.2143957,40.1214933 23.2676044,40.0403937 C23.1528208,39.4811164 23.3171319,38.8773009 23.5915415,38.3863822 C23.3743564,37.9188406 23.383838,37.4712415 23.5161346,36.9865272 C23.8062726,36.9402162 24.0860365,36.9300233 24.37082,37.0168842 C24.5697112,36.788099 24.9726247,36.719408 25.2633204,36.712539 C25.4422444,36.462371 25.7232353,36.4519565 26.0446068,36.4519565 C26.3659783,36.4519565 26.6468577,36.4624818 26.8256701,36.712539 C27.1162542,36.7195188 27.5191678,36.788099 27.7181705,37.0168842 C28.0029541,36.9300233 28.2829411,36.9402162 28.5728559,36.9865272 C28.7058218,37.4737897 28.714411,37.9219428 28.4949949,38.3915894 C28.7153034,38.8477194 28.8935581,39.4129794 28.7803363,39.9219572 C29.5072985,40.1916245 30.7251861,40.397365 31.4780277,40.2675169 C32.1306985,40.1549524 32.5389664,40.0831593 33.1762436,39.9085514 C34.9335803,39.4271608 35.386356,39.1289091 37.2121835,39.4180759 C37.5873215,39.4774603 38.2662063,39.7118958 38.6617576,39.5201151 C39.0479389,39.3327661 38.8704651,38.9073254 38.5125056,38.9100952 C38.1825448,38.9125327 38.2080895,39.2067958 38.2983323,39.3551461 C38.0383125,39.3600209 37.8299397,39.3657821 37.6697559,39.1256962 C37.5964685,39.1300171 37.5328858,39.1333408 37.4472165,39.1200458 C37.3565274,39.1059752 37.3053266,39.0906859 37.2217767,39.0529059 C37.1016389,39.0827089 37.0139617,39.0946745 36.9060942,39.0864759 C36.7596309,39.0752859 36.551035,39.019336 36.551035,39.019336 C36.5213631,39.0253188 36.4595651,39.0499145 36.3988827,39.0585563 C36.3095323,39.0710758 36.2379181,39.060329 36.167754,39.0529059 C35.9535807,39.030526 35.9144271,39.0359548 35.7676292,39.0725161 C35.6806212,39.0941205 35.6341055,39.1115148 35.5533443,39.1481869 C35.4741448,39.1840835 35.4307524,39.2084577 35.3589151,39.2573169 C35.3995188,39.168905 35.4250634,39.1200458 35.4744794,39.0361764 C35.5009164,38.9913057 35.5414086,38.9298162 35.5612642,38.9000132 C35.1565659,38.9888682 34.8432259,39.0561189 34.3555354,39.1845266 C33.3532712,39.4485436 31.7557837,39.9984036 30.7028764,39.8468403 C29.9885192,39.7440255 29.2379086,39.4782358 29.1406383,38.6214825 C29.0720359,38.0170022 29.5448904,37.5862435 30.0803237,37.3790627 C30.4660587,37.2298261 30.7257439,37.1982504 31.1077979,37.1994691 C31.5824372,37.201131 31.8165777,37.2727025 32.3067222,37.3399532 C32.4472735,37.359231 32.6335596,37.3887016 32.8421555,37.3735231 C33.0322343,37.3596741 33.1422213,37.3432769 33.3213683,37.2784637 C33.4978382,37.2145368 33.5945508,37.1619107 33.744026,37.048903 C33.6726349,37.1918245 33.6263422,37.2700435 33.5355416,37.4016642 C33.4381597,37.5424807 33.3039667,37.6969245 33.2592357,37.7431247 C32.8872212,38.1294559 32.3855871,38.5772765 31.4048518,38.3477158 C31.2526995,38.6445272 30.8300418,38.7285074 30.4636047,38.6500668 C30.5820693,38.5634275 30.7004224,38.3533662 30.5059931,38.2609658 C30.1391098,38.086801 29.7309535,38.7536571 30.6272465,38.9557415 C31.831079,39.2269599 33.1793669,38.6119544 34.2956338,38.2861156 C35.0940987,38.0530095 35.8128063,37.7852256 36.6553329,37.6704453 C36.7426755,37.2142044 37.3482728,36.9180578 37.7861011,36.9454234 C37.7861011,36.9454234 37.8856025,36.9530681 37.9486274,36.962153 C38.0184568,36.972235 38.057722,36.9795473 38.1263243,36.9958337 C38.0503597,37.026523 38.0098676,37.0235317 37.9376957,37.0825837 C37.7917901,37.2019065 37.7207336,37.3904743 37.8252547,37.526859 C37.8564883,37.5676304 37.9038964,37.6103961 37.9659175,37.6591445 C38.2365344,37.8718648 38.7565739,37.9314709 39.0651174,38.084696 C39.6513053,38.3757462 39.9725653,38.8460575 39.8372568,39.4730286 C39.6842121,40.1826504 38.955242,40.615071 38.2256026,40.5840493 C38.2770265,40.6740122 38.5193101,41.0745248 38.6945529,41.3250251 C38.7628207,41.422522 38.8187065,41.5291037 38.9467643,41.5975731 C39.0158129,41.6349099 39.0603208,41.6599489 39.1401896,41.6599489 Z" id="Shape" sketch:type="MSShapeGroup"></path>
            </g>
        </g>
    </g>
</svg>