<?xml version="1.0" encoding="UTF-8" standalone="no"?>
<svg width="60px" height="60px" viewBox="0 0 60 60" version="1.1" xmlns="http://www.w3.org/2000/svg" xmlns:xlink="http://www.w3.org/1999/xlink" xmlns:sketch="http://www.bohemiancoding.com/sketch/ns">
    <!-- Generator: Sketch 3.4.4 (17249) - http://www.bohemiancoding.com/sketch -->
    <title>sign-phase-document</title>
    <desc>Created with Sketch.</desc>
    <defs></defs>
    <g id="Page-1" stroke="none" stroke-width="1" fill="none" fill-rule="evenodd" sketch:type="MSPage">
        <g id="Artboard-3" sketch:type="MSArtboardGroup" transform="translate(-120.000000, -123.000000)" fill="#FFFFFF">
            <g id="sign-phase-document" sketch:type="MSLayerGroup" transform="translate(136.000000, 137.000000)">
                <path d="M23.0228495,23.5674194 L23.0228495,33.8709677 L6.398,33.8709677 L6.398,29.1666667 C6.398,28.8549032 6.14524731,28.6021505 5.83348387,28.6021505 L1.1291828,28.6021505 L1.1291828,1.12903226 L23.0228495,1.12903226 L23.0228495,11.4325806 C23.0228495,11.7443441 23.2756022,11.9970968 23.5873656,11.9970968 C23.899129,11.9970968 24.1518817,11.7443441 24.1518817,11.4325806 L24.1518817,0.564516129 C24.1518817,0.252752688 23.899129,0 23.5873656,0 L0.564666667,0 C0.252903226,0 0.000150537634,0.252752688 0.000150537634,0.564516129 L0.000150537634,29.1666667 C0.00986021505,29.2682043 0.010311828,29.2730968 0.0112150538,29.2778387 C0.0293548387,29.3468602 0.035,29.3620645 0.0410215054,29.377043 C0.073688172,29.4457634 0.0812150538,29.4578065 0.0888924731,29.4696989 C0.140150538,29.539172 0.152494624,29.5529462 0.165516129,29.5659677 L5.43410753,34.8345591 C5.49725806,34.8886774 5.50809677,34.8970323 5.51946237,34.9046344 C5.58901075,34.9442258 5.60278495,34.951 5.61693548,34.956871 C5.69092473,34.9817097 5.70643011,34.9857742 5.72223656,34.9889355 C5.79569892,34.9990215 5.81451613,35 5.8334086,35 L23.5872903,35 C23.8990538,35 24.1518065,34.7472473 24.1518065,34.4354839 L24.1518065,23.5674194 C24.1518817,23.2556559 23.899129,23.0029032 23.5873656,23.0029032 C23.2756022,23.0029032 23.0228495,23.2556559 23.0228495,23.5674194 Z M5.26896774,33.0726667 L1.92748387,29.7311828 L5.26896774,29.7311828 L5.26896774,33.0726667 L5.26896774,33.0726667 Z" id="Shape" sketch:type="MSShapeGroup"></path>
                <path d="M19.8239247,30.483871 C20.1356882,30.483871 20.3884409,30.2311183 20.3884409,29.9193548 C20.3884409,29.6075914 20.1356882,29.3548387 19.8239247,29.3548387 L14.9765376,29.3548387 C14.6647742,29.3548387 14.4120215,29.6075914 14.4120215,29.9193548 C14.4120215,30.2311183 14.6647742,30.483871 14.9765376,30.483871 L19.8239247,30.483871 L19.8239247,30.483871 Z" id="Shape" sketch:type="MSShapeGroup"></path>
                <path d="M19.8239247,5.2688172 L4.32810753,5.2688172 C4.01634409,5.2688172 3.7635914,5.52156989 3.7635914,5.83333333 C3.7635914,6.14509677 4.01634409,6.39784946 4.32810753,6.39784946 L19.8239247,6.39784946 C20.1356882,6.39784946 20.3884409,6.14509677 20.3884409,5.83333333 C20.3884409,5.52156989 20.1356882,5.2688172 19.8239247,5.2688172 L19.8239247,5.2688172 Z" id="Shape" sketch:type="MSShapeGroup"></path>
                <path d="M19.8239247,8.27956989 L4.32810753,8.27956989 C4.01634409,8.27956989 3.7635914,8.53232258 3.7635914,8.84408602 C3.7635914,9.15584946 4.01634409,9.40860215 4.32810753,9.40860215 L19.8239247,9.40860215 C20.1356882,9.40860215 20.3884409,9.15584946 20.3884409,8.84408602 C20.3884409,8.53232258 20.1356882,8.27956989 19.8239247,8.27956989 L19.8239247,8.27956989 Z" id="Shape" sketch:type="MSShapeGroup"></path>
                <path d="M19.8239247,11.2903226 L4.32810753,11.2903226 C4.01634409,11.2903226 3.7635914,11.5430753 3.7635914,11.8548387 C3.7635914,12.1666022 4.01634409,12.4193548 4.32810753,12.4193548 L19.8239247,12.4193548 C20.1356882,12.4193548 20.3884409,12.1666022 20.3884409,11.8548387 C20.3884409,11.5430753 20.1356882,11.2903226 19.8239247,11.2903226 L19.8239247,11.2903226 Z" id="Shape" sketch:type="MSShapeGroup"></path>
                <path d="M20.3884409,14.8655914 C20.3884409,14.553828 20.1356882,14.3010753 19.8239247,14.3010753 L4.32810753,14.3010753 C4.01634409,14.3010753 3.7635914,14.553828 3.7635914,14.8655914 C3.7635914,15.1773548 4.01634409,15.4301075 4.32810753,15.4301075 L19.8239247,15.4301075 C20.1356882,15.4301075 20.3884409,15.1773548 20.3884409,14.8655914 L20.3884409,14.8655914 Z" id="Shape" sketch:type="MSShapeGroup"></path>
                <path d="M17.708043,17.8763441 C17.708043,17.5645806 17.4552903,17.311828 17.1435269,17.311828 L4.32810753,17.311828 C4.01634409,17.311828 3.7635914,17.5645806 3.7635914,17.8763441 C3.7635914,18.1881075 4.01634409,18.4408602 4.32810753,18.4408602 L17.1436022,18.4408602 C17.4553656,18.4408602 17.708043,18.1881075 17.708043,17.8763441 L17.708043,17.8763441 Z" id="Shape" sketch:type="MSShapeGroup"></path>
                <path d="M4.32810753,20.3225806 C4.01634409,20.3225806 3.7635914,20.5753333 3.7635914,20.8870968 C3.7635914,21.1988602 4.01634409,21.4516129 4.32810753,21.4516129 L12.0760538,21.4516129 C12.3878172,21.4516129 12.6405699,21.1988602 12.6405699,20.8870968 C12.6405699,20.5753333 12.3878172,20.3225806 12.0760538,20.3225806 L4.32810753,20.3225806 L4.32810753,20.3225806 Z" id="Shape" sketch:type="MSShapeGroup"></path>
                <path d="M28.4434759,8.97137359 L28.8116237,8.60322581 L28.8116989,8.60322581 L28.8117742,8.60322581 L30.5680968,6.84682796 C31.0579462,6.35697849 31.71,6.08721505 32.4042796,6.08721505 C33.0985591,6.08721505 33.7506129,6.35705376 34.2404624,6.84690323 C35.2529785,7.85934409 35.2529785,9.50682796 34.2405376,10.5193441 L32.4842151,12.2756667 L32.4841398,12.2756667 L32.4840645,12.2756667 L32.1119378,12.6477934 L28.4434759,8.97137359 Z M27.2040738,10.2107006 L15.8032151,21.6117849 C15.7873333,21.6275914 15.772957,21.6443763 15.7594086,21.6615376 C15.7559462,21.6659785 15.7527849,21.6706452 15.7493978,21.6751613 C15.7392366,21.6888602 15.7296774,21.7028602 15.7209462,21.7171613 C15.7193656,21.7197204 15.7174839,21.7219785 15.7159785,21.7245376 L12.3913548,27.3710538 C12.2509785,27.5395806 12.1746559,27.7498817 12.1746559,27.9719247 C12.1746559,28.2232473 12.2725054,28.4595161 12.4502151,28.6372258 C12.6279247,28.8149355 12.8641935,28.9127849 13.1155161,28.9127849 C13.3375591,28.9127849 13.5478602,28.8363871 13.7163871,28.696086 L19.3629032,25.3714624 C19.3655376,25.3698817 19.3677957,25.368 19.3704301,25.3664194 C19.3847312,25.3576882 19.3985806,25.3482043 19.4122043,25.3381183 C19.4167957,25.3347312 19.4214624,25.3314946 19.4259785,25.327957 C19.4431398,25.3144086 19.4598495,25.3000323 19.4756559,25.2841505 L30.8363409,13.9233906 L27.2040738,10.2107006 Z M15.8166882,26.1492151 L14.9382258,25.2707527 L16.3188817,22.925828 L18.1616129,24.7685591 L15.8166882,26.1492151 Z" id="Shape" sketch:type="MSShapeGroup"></path>
            </g>
        </g>
    </g>
</svg>