<?xml version="1.0" encoding="UTF-8" standalone="no"?>
<svg width="60px" height="60px" viewBox="0 0 60 60" version="1.1" xmlns="http://www.w3.org/2000/svg" xmlns:xlink="http://www.w3.org/1999/xlink" xmlns:sketch="http://www.bohemiancoding.com/sketch/ns">
    <!-- Generator: Sketch 3.4.4 (17249) - http://www.bohemiancoding.com/sketch -->
    <title>sign-phase</title>
    <desc>Created with Sketch.</desc>
    <defs></defs>
    <g id="Page-1" stroke="none" stroke-width="1" fill="none" fill-rule="evenodd" sketch:type="MSPage">
        <g id="Artboard-3" sketch:type="MSArtboardGroup" transform="translate(-60.000000, -63.000000)" fill="#FFFFFF">
            <g id="sign-phase" sketch:type="MSLayerGroup" transform="translate(60.000000, 63.000000)">
                <path d="M36.9591425,27.1231765 L42.4582359,29.143077 L37.8849302,41.5948504 C37.4569852,42.7659932 35.1360968,46.430629 33.5198911,47.1781063 L33.1276082,48.2479688 C33.0277543,48.5190007 32.7709873,48.6887522 32.498529,48.6887522 C32.4214989,48.6887522 32.3444688,48.6744874 32.2674387,48.6473842 C31.9208032,48.5190007 31.7410663,48.1352767 31.8694498,47.7857882 L32.2403355,46.7744115 C31.4201076,45.1810296 32.0320689,40.5535175 32.3915427,39.5749499 L36.9591425,27.1231765 L36.9591425,27.1231765 Z M44.9174933,13.9481761 C43.4054209,13.3947005 41.635155,14.5387402 41.1287534,15.9210026 L37.816459,24.9449364 L43.3141259,26.9619839 L46.6221409,17.9394766 C47.038674,16.8097017 46.4324186,14.5030781 44.9174933,13.9481761 L44.9174933,13.9481761 Z M34.9677717,26.6567165 C35.1218319,26.7137758 35.2801716,26.740879 35.4342318,26.740879 C35.9791484,26.740879 36.491256,26.4070819 36.6923901,25.8650182 L40.1872744,16.4388161 C40.4454679,15.7441187 40.0902735,14.9723911 39.3955761,14.7156241 C38.6951728,14.4617101 37.9291512,14.812625 37.6709577,15.5073224 L34.1760734,24.9335246 C33.91788,25.628222 34.2730743,26.3999495 34.9677717,26.6567165 L34.9677717,26.6567165 Z M29.3417213,44.332272 C28.980821,43.9913424 28.5314787,43.5662504 27.8039722,43.2424387 C27.2048492,42.9756863 26.6214175,42.9628479 26.194899,42.9528625 C26.150678,42.9528625 26.0993246,42.9514361 26.0479712,42.9500096 C25.7812188,42.2196501 25.2405816,41.7603224 24.4289125,41.5805855 C23.3547706,41.3537747 22.4974541,41.8601763 21.9026105,42.2510327 C21.9553904,41.9514712 22.0424059,41.5948504 22.1065976,41.3380834 C22.3120112,40.510723 22.5231308,39.654833 22.3662176,38.8531493 C22.2421135,38.2197907 21.7071823,37.7490512 21.0624118,37.7034037 C19.4005586,37.6106823 18.0425465,38.5050874 16.8457269,39.3139035 C15.5889951,40.1626611 14.783032,40.6690627 13.9813483,40.3823395 C13.0027807,40.0342776 12.9043534,37.3852979 13.3750929,35.0258944 C13.7959055,32.9004342 14.5790448,28.9433693 16.586107,27.1460003 C17.2622601,26.5411713 18.2408277,25.8864155 19.0453643,26.2045212 C19.9911228,26.5754069 20.7728357,28.1331268 20.9468666,29.9889816 C21.0196173,30.772121 21.7029028,31.3469938 22.500307,31.2756696 C23.2848729,31.202919 23.8611722,30.5067951 23.786995,29.7222292 C23.5045513,26.6980845 22.0866268,24.3329751 20.0881236,23.5469827 C18.8913041,23.0819491 16.9883753,22.9564186 14.6817516,25.02054 C12.1725674,27.2672514 11.2453532,31.0773885 10.5734795,34.4709924 C10.2368294,36.1656547 9.41660151,41.7888521 13.0227515,43.0712607 C15.2195359,43.8544 17.0040666,42.6461686 18.4376824,41.6790129 C18.7001553,41.502129 18.9583488,41.328098 19.2094099,41.1726113 C18.9711872,42.2068117 18.8228329,43.3137628 19.4476326,44.246683 C20.3791262,45.6474896 21.6957704,45.8001234 23.35905,44.7045841 C23.4232418,44.6632161 23.4974189,44.6147157 23.5673166,44.5662152 C23.7213768,44.8886005 23.9938351,45.2437948 24.4888248,45.486297 C25.0879479,45.7801526 25.6870709,45.7944174 26.1235748,45.8058293 C26.3104441,45.8101087 26.5657846,45.8158147 26.6428147,45.8500503 C26.9109936,45.9684484 27.0693333,46.1139497 27.3774537,46.4049523 C27.608544,46.6232043 27.8524726,46.8500151 28.1620195,47.0839584 C28.4187865,47.2765337 28.7183481,47.3678286 29.0150566,47.3678286 C29.4487075,47.3678286 29.878079,47.1695474 30.1576698,46.7972352 C30.6298358,46.1667296 30.5014523,45.2723245 29.8709466,44.8001585 C29.6641065,44.6403924 29.5000609,44.4820527 29.3417213,44.332272 L29.3417213,44.332272 Z" id="Shape" sketch:type="MSShapeGroup"></path>
            </g>
        </g>
    </g>
</svg>