<svg width="60" height="60" viewBox="0 0 60 60" fill="none" xmlns="http://www.w3.org/2000/svg">
<path d="M41.666 17.7376L37.1918 39.8468L38.4384 45.8521L41.9237 40.804L46.4036 18.6989L41.666 17.7376Z" stroke="white" stroke-width="2" stroke-linecap="round" stroke-linejoin="round"/>
<path d="M42.1458 15.3684L46.8834 16.3273" stroke="white" stroke-width="2" stroke-linecap="round"/>
<path d="M48.7727 19.1755L47.1752 27.0718" stroke="white" stroke-width="2" stroke-linecap="round"/>
<path d="M42.6248 13L47.3624 13.9589" stroke="white" stroke-width="2" stroke-linecap="round"/>
<path d="M20.2076 31.5184C18.5055 30.485 16.2116 31.1756 14.7219 32.4911C13.7701 33.3615 13.0323 34.4401 12.5661 35.6426C12.0999 36.8451 11.9178 38.1392 12.0341 39.4237C12.1687 40.7058 12.5673 41.9463 13.2048 43.0668C13.8423 44.1874 14.7049 45.1639 15.7383 45.9348C16.3812 46.4594 17.1472 46.8115 17.964 46.9577C20.0779 47.2389 21.9357 45.3585 22.6271 43.3418C22.9595 42.5021 23.0295 41.5814 22.8281 40.7011C22.7197 40.2646 22.4877 39.8686 22.1599 39.5606C21.8322 39.2527 21.4225 39.0458 20.9801 38.9649C20.4064 38.9552 19.8486 39.1537 19.4102 39.5238C18.9717 39.8938 18.6822 40.4103 18.5955 40.9775C18.4622 42.1285 18.7707 43.2872 19.4587 44.2196C19.9832 45.1075 20.7231 45.8487 21.61 46.3749C22.4969 46.9011 23.5021 47.1952 24.5327 47.23C26.5874 47.1627 28.57 45.2887 28.2839 43.2527C28.0105 43.7821 27.92 44.3872 28.0265 44.9734C28.133 45.5597 28.4305 46.0943 28.8726 46.4938C29.3148 46.8932 29.8767 47.1352 30.4707 47.1818C31.0647 47.2285 31.6575 47.0773 32.1566 46.7518C32.643 46.4349 33.0199 45.9647 33.5289 45.6851C33.7697 45.5234 34.0611 45.4549 34.3488 45.4925C34.6364 45.5301 34.9005 45.6712 35.0916 45.8894" stroke="white" stroke-width="2" stroke-linecap="round" stroke-linejoin="round"/>
</svg>
