<?xml version="1.0" encoding="UTF-8" standalone="no"?>
<svg
   xmlns:dc="http://purl.org/dc/elements/1.1/"
   xmlns:cc="http://creativecommons.org/ns#"
   xmlns:rdf="http://www.w3.org/1999/02/22-rdf-syntax-ns#"
   xmlns:svg="http://www.w3.org/2000/svg"
   xmlns="http://www.w3.org/2000/svg"
   id="svg898"
   version="1.1"
   viewBox="0 0 311.65481 66.517731"
   height="66.517731mm"
   width="311.65482mm">
  <defs
     id="defs892">
    <clipPath
       clipPathUnits="userSpaceOnUse"
       id="clipPath1477">
      <path
         d="M 0,1024 H 1024 V 0 H 0 Z"
         id="path1475" />
    </clipPath>
    <linearGradient
       x1="0"
       y1="0"
       x2="1"
       y2="0"
       gradientUnits="userSpaceOnUse"
       gradientTransform="matrix(0,-229.56932,-229.56932,0,512.77063,629.99451)"
       spreadMethod="pad"
       id="linearGradient1499">
      <stop
         style="stop-opacity:1;stop-color:#fbfbfb"
         offset="0"
         id="stop1495" />
      <stop
         style="stop-opacity:1;stop-color:#f2f2f2"
         offset="1"
         id="stop1497" />
    </linearGradient>
    <clipPath
       clipPathUnits="userSpaceOnUse"
       id="clipPath1509">
      <path
         d="M 0,1024 H 1024 V 0 H 0 Z"
         id="path1507" />
    </clipPath>
  </defs>
  <metadata
     id="metadata895">
    <rdf:RDF>
      <cc:Work
         rdf:about="">
        <dc:format>image/svg+xml</dc:format>
        <dc:type
           rdf:resource="http://purl.org/dc/dcmitype/StillImage" />
        <dc:title></dc:title>
      </cc:Work>
    </rdf:RDF>
  </metadata>
  <g
     transform="translate(12.117743,-73.270289)"
     id="layer1">
    <g
       id="g1469"
       transform="matrix(0.35277777,0,0,-0.35277777,-81.864272,287.70354)">
      <g
         id="g1503">
        <g
           transform="translate(309.5166,555.5176)"
           id="g1515">
          <path
             id="path1517"
             style="fill:#00afab;fill-opacity:1;fill-rule:nonzero;stroke:none"
             d="m 0,0 c -3.76,0 -6.808,-3.047 -6.808,-6.807 0,-3.76 3.048,-6.807 6.808,-6.807 3.76,0 6.808,3.047 6.808,6.807 C 6.808,-3.047 3.76,0 0,0" />
        </g>
        <g
           transform="translate(291.979,607.8423)"
           id="g1519">
          <path
             id="path1521"
             style="fill:#00afab;fill-opacity:1;fill-rule:nonzero;stroke:none"
             d="m 0,0 c -6.244,0 -12.496,-0.618 -18.597,-1.839 -2.525,-0.502 -4.337,-2.723 -4.337,-5.294 v -123.63 c 0,-2.98 2.416,-5.404 5.402,-5.404 2.98,0 5.403,2.424 5.403,5.404 l -0.007,119.083 c 4.011,0.583 8.077,0.874 12.136,0.874 46.031,0 83.477,-37.445 83.477,-83.468 0,-26.444 -12.74,-51.598 -34.065,-67.29 -2.403,-1.765 -2.919,-5.145 -1.155,-7.555 1.059,-1.438 2.695,-2.199 4.358,-2.199 1.113,0 2.233,0.347 3.197,1.053 24.088,17.714 38.463,46.125 38.463,75.991 C 94.275,-42.291 51.984,0 0,0" />
        </g>
        <g
           transform="translate(309.5137,513.8081)"
           id="g1523">
          <path
             id="path1525"
             style="fill:#00afab;fill-opacity:1;fill-rule:nonzero;stroke:none"
             d="m 0,0 c -2.979,0 -5.403,-2.416 -5.403,-5.404 l 0.007,-77.435 c -4.004,-0.584 -8.07,-0.875 -12.135,-0.875 -46.032,0 -83.477,37.444 -83.477,83.47 0,26.437 12.746,51.583 34.092,67.275 2.403,1.771 2.919,5.152 1.154,7.554 -1.764,2.403 -5.152,2.912 -7.554,1.154 -24.101,-17.721 -38.491,-46.126 -38.491,-75.983 0,-51.985 42.292,-94.276 94.276,-94.276 6.258,0 12.515,0.618 18.597,1.833 2.525,0.508 4.337,2.729 4.337,5.301 V -5.404 C 5.403,-2.416 2.987,0 0,0" />
        </g>
        <g
           transform="matrix(1.6269504,0,0,1.6269504,476.74642,521.69212)"
           id="g1527">
          <path
             id="path1529"
             style="fill:#00afab;fill-opacity:1;fill-rule:nonzero;stroke:none"
             d="m 0,0 c -9.108,1.324 -10.867,3.448 -10.867,7.71 0,4.032 3.082,6.897 9.028,6.897 6.02,0 9.176,-2.35 10.133,-7.855 h 8.959 c -1.031,10.06 -7.785,15.199 -19.092,15.199 -10.935,0 -18.279,-6.463 -18.279,-15.048 0,-9.841 5.946,-13.655 18.503,-15.345 8.518,-1.4 10.934,-3.232 10.934,-8.078 0,-4.846 -4.107,-8.071 -9.909,-8.071 -8.885,0 -11.01,4.406 -11.668,9.686 h -9.4 c 0.733,-9.903 6.753,-17.036 21.068,-17.036 11.599,0 19.309,7.133 19.309,16.229 C 18.719,-5.213 12.333,-1.684 0,0" />
        </g>
        <g
           transform="matrix(1.6269504,0,0,1.6269504,580.68528,498.04097)"
           id="g1531">
          <path
             id="path1533"
             style="fill:#00afab;fill-opacity:1;fill-rule:nonzero;stroke:none"
             d="m 0,0 -13.806,35.829 h -13.066 v -52.493 h 8.811 v 39.643 l 15.93,-39.643 H 1.024 L 16.662,22.979 V -16.664 H 26.43 V 35.829 H 13.507 Z" />
        </g>
        <g
           transform="matrix(1.6269504,0,0,1.6269504,679.61151,556.3325)"
           id="g1535">
          <path
             id="path1537"
             style="fill:#00afab;fill-opacity:1;fill-rule:nonzero;stroke:none"
             d="m 0,0 -17.545,-52.494 h 9.177 l 14.165,44.49 7.204,-22.617 H 6.664 l -2.41,-7.561 h 11.155 l 4.56,-14.312 H 30.102 L 12.774,0 Z" />
        </g>
        <g
           transform="matrix(1.6269504,0,0,1.6269504,903.60793,556.32924)"
           id="g1539">
          <path
             id="path1541"
             style="fill:#00afab;fill-opacity:1;fill-rule:nonzero;stroke:none"
             d="m 0,0 h -39.054 v -7.71 h 14.607 v -44.784 h 9.842 V -7.71 H 0 Z" />
        </g>
        <path
           id="path1543"
           style="fill:#00afab;fill-opacity:1;fill-rule:nonzero;stroke:none;stroke-width:1.62695"
           d="m 960.4873,470.92883 h 16.0107 v 85.4035 h -16.0107 z" />
        <path
           id="path1545"
           style="fill:#00afab;fill-opacity:1;fill-rule:nonzero;stroke:none;stroke-width:1.62695"
           d="m 901.96259,503.77207 h 32.01192 v 12.29975 h -32.01192 z" />
        <g
           transform="matrix(1.6269504,0,0,1.6269504,1036.9448,556.3325)"
           id="g1547">
          <path
             id="path1549"
             style="fill:#00afab;fill-opacity:1;fill-rule:nonzero;stroke:none"
             d="m 0,0 h -15.93 v -52.493 h 9.767 l -0.007,7.711 V -7.71 h 5.654 c 12.332,0 17.477,-6.829 17.477,-18.128 v -0.599 c 0,-9.753 -4.059,-16.023 -12.325,-17.781 v -7.983 c 15.163,1.758 22.527,11.966 22.527,25.839 v 0.666 C 27.163,-10.425 18.278,0 0,0" />
        </g>
        <g
           transform="matrix(1.6269504,0,0,1.6269504,816.51532,530.76904)"
           id="g1551">
          <path
             id="path1553"
             style="fill:#00afab;fill-opacity:1;fill-rule:nonzero;stroke:none"
             d="m 0,0 v 0.298 c 0,10.71 -8.077,15.414 -19.602,15.414 h -17.619 v -52.493 h 9.76 V 8.151 h 7.859 c 6.238,0 9.985,-2.056 9.985,-8.078 v -0.292 c 0,-5.577 -3.448,-8.374 -9.985,-8.374 h -1.615 v -6.97 L -7.486,-36.781 H 3.082 l -14.756,22.682 C -5.138,-12.408 0,-8.227 0,0" />
        </g>
      </g>
    </g>
  </g>
</svg>
