<?xml version="1.0" encoding="UTF-8"?>
<svg width="949.95" height="316.65" version="1.1" viewBox="0 0 949.95 316.65" xml:space="preserve" xmlns="http://www.w3.org/2000/svg"><defs><clipPath id="clipPath18"><path d="m0 1024h1024v-1024h-1024z"/></clipPath><clipPath id="clipPath30"><path d="m188.21 630c-17.487 0-31.665-14.179-31.665-31.665v-166.24c0-17.486 14.178-31.666 31.665-31.666h649.13c17.487 0 31.665 14.18 31.665 31.666v166.24c0 17.486-14.178 31.665-31.665 31.665z"/></clipPath><linearGradient id="linearGradient40" x2="1" gradientTransform="matrix(0 -229.57 -229.57 0 512.77 629.99)" gradientUnits="userSpaceOnUse"><stop stop-color="#fbfbfb" offset="0"/><stop stop-color="#f2f2f2" offset="1"/></linearGradient><clipPath id="clipPath50"><path d="m0 1024h1024v-1024h-1024z"/></clipPath></defs><g transform="matrix(1.3333 0 0 -1.3333 -208.72 839.99)"><g clip-path="url(#clipPath18)"><g transform="translate(869 432.09)"><path d="m0 0c0-17.486-14.178-31.665-31.665-31.665h-649.13c-17.487 0-31.664 14.179-31.664 31.665v166.24c0 17.487 14.177 31.665 31.664 31.665h649.13c17.487 0 31.665-14.178 31.665-31.665z" fill="#f8f8f8"/></g></g><g clip-path="url(#clipPath30)"><path d="m188.21 630c-17.487 0-31.665-14.179-31.665-31.665v-166.24c0-17.486 14.178-31.666 31.665-31.666h649.13c17.487 0 31.665 14.18 31.665 31.666v166.24c0 17.486-14.178 31.665-31.665 31.665z" fill="url(#linearGradient40)"/></g><g clip-path="url(#clipPath50)"><g transform="translate(837.34 400.42)" fill="#6f6f6f"><path d="m0 0h-649.13c-17.487 0-31.664 14.178-31.664 31.665v-7.099c0-17.939 14.542-32.482 32.481-32.482h647.5c17.939 0 32.482 14.543 32.482 32.482v7.099c0-17.487-14.178-31.665-31.665-31.665" fill="#6f6f6f"/></g><g fill="#2e5c94"><g transform="matrix(.71235 0 0 .71235 280.47 543.45)"><path d="m0 0c-3.76 0-6.808-3.047-6.808-6.807s3.048-6.807 6.808-6.807 6.808 3.047 6.808 6.807-3.048 6.807-6.808 6.807" fill="#2e5c94"/></g><g transform="matrix(.71235 0 0 .71235 267.98 580.72)"><path d="m0 0c-6.244 0-12.496-0.618-18.597-1.839-2.525-0.502-4.337-2.723-4.337-5.294v-123.63c0-2.98 2.416-5.404 5.402-5.404 2.98 0 5.403 2.424 5.403 5.404l-7e-3 119.08c4.011 0.583 8.077 0.874 12.136 0.874 46.031 0 83.477-37.445 83.477-83.468 0-26.444-12.74-51.598-34.065-67.29-2.403-1.765-2.919-5.145-1.155-7.555 1.059-1.438 2.695-2.199 4.358-2.199 1.113 0 2.233 0.347 3.197 1.053 24.088 17.714 38.463 46.125 38.463 75.991 0 51.983-42.291 94.274-94.275 94.274" fill="#2e5c94"/></g><g transform="matrix(.71235 0 0 .71235 280.47 513.74)"><path d="m0 0c-2.979 0-5.403-2.416-5.403-5.404l7e-3 -77.435c-4.004-0.584-8.07-0.875-12.135-0.875-46.032 0-83.477 37.444-83.477 83.47 0 26.437 12.746 51.583 34.092 67.275 2.403 1.771 2.919 5.152 1.154 7.554-1.764 2.403-5.152 2.912-7.554 1.154-24.101-17.721-38.491-46.126-38.491-75.983 0-51.985 42.292-94.276 94.276-94.276 6.258 0 12.515 0.618 18.597 1.833 2.525 0.508 4.337 2.729 4.337 5.301v81.982c0 2.988-2.416 5.404-5.403 5.404" fill="#2e5c94"/></g></g><g fill="#2e5c94"><g transform="matrix(1.16 0 0 1.16 390.42 519.36)"><path d="m0 0c-9.108 1.324-10.867 3.448-10.867 7.71 0 4.032 3.082 6.897 9.028 6.897 6.02 0 9.176-2.35 10.133-7.855h8.959c-1.031 10.06-7.785 15.199-19.092 15.199-10.935 0-18.279-6.463-18.279-15.048 0-9.841 5.946-13.655 18.503-15.345 8.518-1.4 10.934-3.232 10.934-8.078s-4.107-8.071-9.909-8.071c-8.885 0-11.01 4.406-11.668 9.686h-9.4c0.733-9.903 6.753-17.036 21.068-17.036 11.599 0 19.309 7.133 19.309 16.229 0 10.499-6.386 14.028-18.719 15.712" fill="#2e5c94"/></g><g transform="matrix(1.16 0 0 1.16 464.53 502.5)"><path d="m0 0-13.806 35.829h-13.066v-52.493h8.811v39.643l15.93-39.643h3.155l15.638 39.643v-39.643h9.768v52.493h-12.923z" fill="#2e5c94"/></g><g transform="matrix(1.16 0 0 1.16 535.06 544.06)"><path d="m0 0-17.545-52.494h9.177l14.165 44.49 7.204-22.617h-6.337l-2.41-7.561h11.155l4.56-14.312h10.133l-17.328 52.494z" fill="#2e5c94"/></g><g transform="matrix(1.16 0 0 1.16 694.77 544.06)"><path d="m0 0h-39.054v-7.71h14.607v-44.784h9.842v44.784h14.605z" fill="#2e5c94"/></g><path d="m735.33 483.17h11.416v60.893h-11.416z"/><path d="m693.6 506.58h22.825v8.7698h-22.825z"/><g transform="matrix(1.16 0 0 1.16 789.84 544.06)"><path d="m0 0h-15.93v-52.493h9.767l-7e-3 7.711v37.072h5.654c12.332 0 17.477-6.829 17.477-18.128v-0.599c0-9.753-4.059-16.023-12.325-17.781v-7.983c15.163 1.758 22.527 11.966 22.527 25.839v0.666c0 15.271-8.885 25.696-27.163 25.696" fill="#2e5c94"/></g><g transform="matrix(1.16 0 0 1.16 632.68 525.83)"><path d="m0 0v0.298c0 10.71-8.077 15.414-19.602 15.414h-17.619v-52.493h9.76v44.932h7.859c6.238 0 9.985-2.056 9.985-8.078v-0.292c0-5.577-3.448-8.374-9.985-8.374h-1.615v-6.97l13.731-21.218h10.568l-14.756 22.682c6.536 1.691 11.674 5.872 11.674 14.099" fill="#2e5c94"/></g></g></g></g></svg>
