<svg xmlns="http://www.w3.org/2000/svg" width="32" height="32" viewBox="0 0 32 32"><defs><style>.a{fill:none;stroke:#1c71a2;stroke-miterlimit:10;stroke-width:2px;}.b{fill:#1c71a2;}</style></defs><g transform="translate(1 1)"><path class="a" d="M275.116,158.505h0a15,15,0,0,1-15-15h0a15,15,0,0,1,15-15h0a15,15,0,0,1,15,15h0A15,15,0,0,1,275.116,158.505Z" transform="translate(-260.116 -128.505)"/><path class="b" d="M269.007,150.813a9.327,9.327,0,0,0,14.349-8.282,6.646,6.646,0,0,0,1.636-1.7,6.539,6.539,0,0,1-1.883.516,3.284,3.284,0,0,0,1.442-1.814,6.58,6.58,0,0,1-2.082.8,3.282,3.282,0,0,0-5.588,2.991,9.306,9.306,0,0,1-6.759-3.426,3.283,3.283,0,0,0,1.014,4.379,3.268,3.268,0,0,1-1.486-.411,3.284,3.284,0,0,0,2.63,3.258,3.283,3.283,0,0,1-1.48.055,3.28,3.28,0,0,0,3.063,2.278A6.6,6.6,0,0,1,269.007,150.813Z" transform="translate(-261.999 -130.79)"/></g></svg>