<svg xmlns="http://www.w3.org/2000/svg" width="52" height="51.999" viewBox="0 0 52 51.999">
  <path id="Number_1" data-name="Number 1" d="M-5762.122-884.044a25.915,25.915,0,0,1-8.263-5.571,25.914,25.914,0,0,1-5.572-8.264A25.838,25.838,0,0,1-5778-908a25.833,25.833,0,0,1,2.043-10.12,25.9,25.9,0,0,1,5.572-8.264,25.9,25.9,0,0,1,8.263-5.573A25.842,25.842,0,0,1-5752-934a25.84,25.84,0,0,1,10.12,2.043,25.911,25.911,0,0,1,8.264,5.571,25.905,25.905,0,0,1,5.573,8.266A25.828,25.828,0,0,1-5726-908a25.838,25.838,0,0,1-2.043,10.12,25.9,25.9,0,0,1-5.573,8.264,25.91,25.91,0,0,1-8.264,5.571A25.84,25.84,0,0,1-5752-882,25.842,25.842,0,0,1-5762.122-884.044Zm.78-46.071a23.911,23.911,0,0,0-7.629,5.145,23.907,23.907,0,0,0-5.144,7.629A23.842,23.842,0,0,0-5776-908a23.847,23.847,0,0,0,1.885,9.341,23.907,23.907,0,0,0,5.144,7.629,23.929,23.929,0,0,0,7.629,5.143A23.841,23.841,0,0,0-5752-884a23.848,23.848,0,0,0,9.342-1.885,23.929,23.929,0,0,0,7.629-5.143,23.925,23.925,0,0,0,5.145-7.629A23.873,23.873,0,0,0-5728-908a23.868,23.868,0,0,0-1.885-9.341,23.926,23.926,0,0,0-5.145-7.629,23.911,23.911,0,0,0-7.629-5.145A23.848,23.848,0,0,0-5752-932,23.841,23.841,0,0,0-5761.342-930.115Zm2.662,36.156v-2.332h5.941v-19.4c0-.754.038-1.469.038-1.469h-.076a6.371,6.371,0,0,1-1.316,1.581l-2.82,2.82-1.655-1.692,5.98-5.941h2.407v24.1h5.83v2.332Z" transform="translate(5778 934)" fill="#08488f"/>
</svg>
