<svg xmlns="http://www.w3.org/2000/svg" width="52" height="52.001" viewBox="0 0 52 52.001">
  <path id="Number_2" data-name="Number 2" d="M-5762.121-884.041a25.91,25.91,0,0,1-8.264-5.573,25.914,25.914,0,0,1-5.572-8.264A25.841,25.841,0,0,1-5778-908a25.839,25.839,0,0,1,2.043-10.12,25.914,25.914,0,0,1,5.572-8.264,25.9,25.9,0,0,1,8.263-5.573A25.847,25.847,0,0,1-5752-934a25.84,25.84,0,0,1,10.12,2.043,25.9,25.9,0,0,1,8.266,5.573,25.919,25.919,0,0,1,5.571,8.264A25.838,25.838,0,0,1-5726-908a25.84,25.84,0,0,1-2.043,10.122,25.919,25.919,0,0,1-5.571,8.264,25.922,25.922,0,0,1-8.266,5.573A25.84,25.84,0,0,1-5752-882,25.834,25.834,0,0,1-5762.121-884.041Zm.779-46.074a23.934,23.934,0,0,0-7.629,5.145,23.907,23.907,0,0,0-5.144,7.629A23.847,23.847,0,0,0-5776-908a23.849,23.849,0,0,0,1.885,9.343,23.907,23.907,0,0,0,5.144,7.629,23.906,23.906,0,0,0,7.629,5.143A23.842,23.842,0,0,0-5752-884a23.85,23.85,0,0,0,9.342-1.887,23.906,23.906,0,0,0,7.629-5.143,23.926,23.926,0,0,0,5.145-7.629A23.875,23.875,0,0,0-5728-908a23.873,23.873,0,0,0-1.885-9.341,23.926,23.926,0,0,0-5.145-7.629,23.934,23.934,0,0,0-7.629-5.145A23.848,23.848,0,0,0-5752-932,23.841,23.841,0,0,0-5761.342-930.115Zm1.45,35.665a8.72,8.72,0,0,1-.145-1.626c0-8.921,13-10.078,13-16.94,0-2.781-2.1-4.875-5.274-4.875-3.718,0-5.671,3.466-5.671,3.466l-1.876-1.263a8.936,8.936,0,0,1,7.693-4.587c4.839,0,7.729,3.142,7.729,7.116,0,8.524-12.822,9.714-12.858,16.47h13.255v2.239Z" transform="translate(5778 934)" fill="#08488f"/>
</svg>
