<svg xmlns="http://www.w3.org/2000/svg" width="52" height="52.003" viewBox="0 0 52 52.003">
  <path id="Mobiil_ikoon_number_4" data-name="Mobiil ikoon number 4" d="M10508.879-884.043a25.9,25.9,0,0,1-8.265-5.571,25.92,25.92,0,0,1-5.571-8.265A25.859,25.859,0,0,1,10493-908a25.859,25.859,0,0,1,2.043-10.12,25.92,25.92,0,0,1,5.571-8.265,25.951,25.951,0,0,1,8.265-5.573A25.85,25.85,0,0,1,10519-934a25.87,25.87,0,0,1,10.122,2.043,25.911,25.911,0,0,1,8.263,5.573,25.878,25.878,0,0,1,5.573,8.265A25.841,25.841,0,0,1,10545-908a25.841,25.841,0,0,1-2.043,10.12,25.878,25.878,0,0,1-5.573,8.265,25.859,25.859,0,0,1-8.263,5.571A25.825,25.825,0,0,1,10519-882,25.805,25.805,0,0,1,10508.879-884.043Zm.778-46.072a23.949,23.949,0,0,0-7.627,5.145,23.935,23.935,0,0,0-5.146,7.63A23.885,23.885,0,0,0,10495-908a23.894,23.894,0,0,0,1.884,9.342,23.935,23.935,0,0,0,5.146,7.63,23.9,23.9,0,0,0,7.627,5.142A23.845,23.845,0,0,0,10519-884a23.838,23.838,0,0,0,9.342-1.887,23.888,23.888,0,0,0,7.63-5.142,23.932,23.932,0,0,0,5.145-7.63A23.841,23.841,0,0,0,10543-908a23.833,23.833,0,0,0-1.884-9.342,23.932,23.932,0,0,0-5.145-7.63,23.939,23.939,0,0,0-7.63-5.145A23.835,23.835,0,0,0,10519-932,23.842,23.842,0,0,0,10509.657-930.115Zm12.43,35.409v-6.889h-12.437v-1.591l12.224-16.358h2.651v15.794h3.533v2.154h-3.533v6.889Zm-1.2-19.891-8.268,10.776v.071h9.469v-10.39c0-1.059.106-2.332.106-2.332h-.071A20.058,20.058,0,0,1,10520.886-914.6Z" transform="translate(-10493 934)" fill="#08488f"/>
</svg>
