<svg xmlns="http://www.w3.org/2000/svg" width="52" height="52.001" viewBox="0 0 52 52.001">
  <path id="Number_5" data-name="Number 5" d="M-5762.122-884.043a25.916,25.916,0,0,1-8.263-5.571,25.914,25.914,0,0,1-5.572-8.264A25.846,25.846,0,0,1-5778-908a25.839,25.839,0,0,1,2.043-10.12,25.914,25.914,0,0,1,5.572-8.264,25.9,25.9,0,0,1,8.263-5.573A25.84,25.84,0,0,1-5752-934a25.842,25.842,0,0,1,10.122,2.043,25.891,25.891,0,0,1,8.264,5.573,25.9,25.9,0,0,1,5.573,8.264A25.838,25.838,0,0,1-5726-908a25.845,25.845,0,0,1-2.043,10.122,25.9,25.9,0,0,1-5.573,8.264,25.911,25.911,0,0,1-8.264,5.571A25.843,25.843,0,0,1-5752-882,25.841,25.841,0,0,1-5762.122-884.043Zm.78-46.072a23.934,23.934,0,0,0-7.629,5.145,23.907,23.907,0,0,0-5.144,7.629A23.847,23.847,0,0,0-5776-908a23.854,23.854,0,0,0,1.885,9.343,23.923,23.923,0,0,0,5.144,7.629,23.93,23.93,0,0,0,7.629,5.143A23.839,23.839,0,0,0-5752-884a23.85,23.85,0,0,0,9.343-1.885,23.93,23.93,0,0,0,7.629-5.143,23.914,23.914,0,0,0,5.143-7.629A23.855,23.855,0,0,0-5728-908a23.848,23.848,0,0,0-1.887-9.341,23.9,23.9,0,0,0-5.143-7.629,23.934,23.934,0,0,0-7.629-5.145A23.85,23.85,0,0,0-5752-932,23.839,23.839,0,0,0-5761.342-930.115Zm1.392,32.314,1.555-1.7a6.907,6.907,0,0,0,5.617,2.9,5.9,5.9,0,0,0,6.185-5.829c0-3.393-2.757-5.831-6.291-5.831a8.418,8.418,0,0,0-4.521,1.344l-1.555-.567,1.341-12.049h12.013v2.193h-9.893l-.7,6.359a11.529,11.529,0,0,1-.248,1.414h.071a7.832,7.832,0,0,1,3.779-.954c4.982,0,8.551,3.6,8.551,8.091a8.3,8.3,0,0,1-8.623,8.161A8.943,8.943,0,0,1-5759.95-897.8Z" transform="translate(5778 934)" fill="#08488f"/>
</svg>
