<svg xmlns="http://www.w3.org/2000/svg" width="52" height="52.001" viewBox="0 0 52 52.001">
  <path id="Number_6" data-name="Number 6" d="M-5762.122-884.043a25.892,25.892,0,0,1-8.263-5.571,25.914,25.914,0,0,1-5.572-8.264A25.841,25.841,0,0,1-5778-908a25.839,25.839,0,0,1,2.043-10.12,25.914,25.914,0,0,1,5.572-8.264,25.9,25.9,0,0,1,8.263-5.573A25.842,25.842,0,0,1-5752-934a25.84,25.84,0,0,1,10.12,2.043,25.891,25.891,0,0,1,8.264,5.573,25.9,25.9,0,0,1,5.573,8.264A25.838,25.838,0,0,1-5726-908a25.84,25.84,0,0,1-2.043,10.122,25.9,25.9,0,0,1-5.573,8.264,25.887,25.887,0,0,1-8.264,5.571A25.815,25.815,0,0,1-5752-882,25.817,25.817,0,0,1-5762.122-884.043Zm.78-46.072a23.934,23.934,0,0,0-7.629,5.145,23.907,23.907,0,0,0-5.144,7.629A23.847,23.847,0,0,0-5776-908a23.849,23.849,0,0,0,1.885,9.343,23.923,23.923,0,0,0,5.144,7.629,23.906,23.906,0,0,0,7.629,5.143A23.841,23.841,0,0,0-5752-884a23.848,23.848,0,0,0,9.342-1.885,23.906,23.906,0,0,0,7.629-5.143,23.942,23.942,0,0,0,5.145-7.629A23.875,23.875,0,0,0-5728-908a23.873,23.873,0,0,0-1.885-9.341,23.926,23.926,0,0,0-5.145-7.629,23.934,23.934,0,0,0-7.629-5.145A23.848,23.848,0,0,0-5752-932,23.841,23.841,0,0,0-5761.342-930.115Zm.951,24.174c0-6.218,3.251-14.027,10.918-14.027a9.957,9.957,0,0,1,4.556,1.024l-.918,2.156a8.01,8.01,0,0,0-3.6-.883c-5.2,0-7.847,5.123-8.269,9.964h.071a7.717,7.717,0,0,1,6.288-2.9c4.522,0,7.74,3.321,7.74,8.02,0,5.158-3.464,8.3-7.809,8.3C-5756.823-894.28-5760.391-899.226-5760.391-905.94Zm2.651,1.768c0,3.322,2.577,7.6,6.289,7.6,3.357,0,5.333-2.543,5.333-5.971,0-3.532-2.226-5.866-5.618-5.866C-5755.056-908.414-5757.74-906.187-5757.74-904.173Z" transform="translate(5778 934)" fill="#08488f"/>
</svg>
