<svg xmlns="http://www.w3.org/2000/svg" width="122" height="122.001" viewBox="0 0 122 122.001">
  <path id="N2idete_ikoon" data-name="N2idete ikoon" d="M-5740.747-816.793a61.022,61.022,0,0,1-10.362-5.624,61.431,61.431,0,0,1-9.025-7.449,61.344,61.344,0,0,1-7.447-9.027,60.9,60.9,0,0,1-5.624-10.364A60.616,60.616,0,0,1-5778-873a60.616,60.616,0,0,1,4.795-23.744,60.946,60.946,0,0,1,5.624-10.362,61.274,61.274,0,0,1,7.447-9.027,61.436,61.436,0,0,1,9.025-7.449,61.026,61.026,0,0,1,10.362-5.624A60.637,60.637,0,0,1-5717-934a60.622,60.622,0,0,1,23.743,4.793,61.063,61.063,0,0,1,10.362,5.624,61.447,61.447,0,0,1,9.027,7.449,61.335,61.335,0,0,1,7.447,9.027,60.931,60.931,0,0,1,5.625,10.362A60.624,60.624,0,0,1-5656-873a60.63,60.63,0,0,1-4.795,23.744,60.944,60.944,0,0,1-5.625,10.364,61.405,61.405,0,0,1-7.447,9.027,61.443,61.443,0,0,1-9.027,7.449,61.059,61.059,0,0,1-10.362,5.624A60.6,60.6,0,0,1-5717-812,60.614,60.614,0,0,1-5740.747-816.793Zm1.163-109.664a57.957,57.957,0,0,0-9.853,5.349,58.4,58.4,0,0,0-8.588,7.085,58.42,58.42,0,0,0-7.084,8.587,58.054,58.054,0,0,0-5.349,9.853A57.676,57.676,0,0,0-5775.016-873a57.682,57.682,0,0,0,4.558,22.583,58.125,58.125,0,0,0,5.349,9.855,58.337,58.337,0,0,0,7.085,8.587,58.324,58.324,0,0,0,8.587,7.085,57.959,57.959,0,0,0,9.853,5.35A57.662,57.662,0,0,0-5717-814.983a57.648,57.648,0,0,0,22.58-4.558,57.926,57.926,0,0,0,9.854-5.35,58.386,58.386,0,0,0,8.588-7.085,58.393,58.393,0,0,0,7.085-8.588,57.987,57.987,0,0,0,5.349-9.853,57.636,57.636,0,0,0,4.56-22.583,57.631,57.631,0,0,0-4.56-22.583,57.985,57.985,0,0,0-5.349-9.853,58.457,58.457,0,0,0-7.085-8.587,58.378,58.378,0,0,0-8.588-7.085,57.924,57.924,0,0,0-9.854-5.349,57.65,57.65,0,0,0-22.58-4.56A57.658,57.658,0,0,0-5739.584-926.457Zm14.476,81.473-28.939-28.94a1.492,1.492,0,0,1,0-2.11,1.492,1.492,0,0,1,2.11,0l27.884,27.885,47.917-47.918a1.492,1.492,0,0,1,2.11,0,1.493,1.493,0,0,1,0,2.11L-5723-844.984a1.487,1.487,0,0,1-1.056.437A1.488,1.488,0,0,1-5725.108-844.984Z" transform="translate(5778 934)" fill="#27c982"/>
</svg>
