<svg xmlns="http://www.w3.org/2000/svg" width="204.001" height="203.998" viewBox="0 0 204.001 203.998">
  <path id="Omavalitsuse_ikoon_yleval" data-name="Omavalitsuse ikoon yleval" d="M-5696.555-732.075a101.461,101.461,0,0,1-19.148-5.944,101.985,101.985,0,0,1-17.327-9.4,102.746,102.746,0,0,1-15.094-12.455,102.763,102.763,0,0,1-12.455-15.094,102.119,102.119,0,0,1-9.4-17.327,101.556,101.556,0,0,1-5.945-19.15A102.779,102.779,0,0,1-5778-832a102.78,102.78,0,0,1,2.072-20.554,101.51,101.51,0,0,1,5.945-19.148,102.068,102.068,0,0,1,9.4-17.327,102.763,102.763,0,0,1,12.455-15.094,102.647,102.647,0,0,1,15.094-12.453,101.894,101.894,0,0,1,17.327-9.405,101.466,101.466,0,0,1,19.148-5.944A102.77,102.77,0,0,1-5676-934a102.767,102.767,0,0,1,20.554,2.072,101.469,101.469,0,0,1,19.15,5.944,102.024,102.024,0,0,1,17.327,9.405,102.745,102.745,0,0,1,15.094,12.453,102.725,102.725,0,0,1,12.454,15.094,101.973,101.973,0,0,1,9.405,17.327,101.435,101.435,0,0,1,5.944,19.148A102.674,102.674,0,0,1-5574-832a102.673,102.673,0,0,1-2.073,20.554,101.48,101.48,0,0,1-5.944,19.15,102.024,102.024,0,0,1-9.405,17.327,102.725,102.725,0,0,1-12.454,15.094,102.844,102.844,0,0,1-15.094,12.455,102.115,102.115,0,0,1-17.327,9.4,101.464,101.464,0,0,1-19.15,5.944A102.661,102.661,0,0,1-5676-730,102.664,102.664,0,0,1-5696.555-732.075Zm.8-195.934a97.52,97.52,0,0,0-18.393,5.71,98.032,98.032,0,0,0-16.646,9.034,98.783,98.783,0,0,0-14.5,11.968,98.792,98.792,0,0,0-11.968,14.505,98.053,98.053,0,0,0-9.036,16.646,97.471,97.471,0,0,0-5.709,18.393A98.75,98.75,0,0,0-5774-832a98.751,98.751,0,0,0,1.991,19.752,97.47,97.47,0,0,0,5.709,18.393,98.013,98.013,0,0,0,9.036,16.647,98.8,98.8,0,0,0,11.968,14.505,98.779,98.779,0,0,0,14.5,11.968,98.039,98.039,0,0,0,16.646,9.035,97.52,97.52,0,0,0,18.393,5.709A98.76,98.76,0,0,0-5676-734a98.74,98.74,0,0,0,19.752-1.991,97.471,97.471,0,0,0,18.393-5.709,97.978,97.978,0,0,0,16.647-9.035,98.783,98.783,0,0,0,14.505-11.968,98.8,98.8,0,0,0,11.968-14.505,97.976,97.976,0,0,0,9.035-16.647,97.47,97.47,0,0,0,5.709-18.393A98.715,98.715,0,0,0-5578-832a98.714,98.714,0,0,0-1.991-19.752,97.471,97.471,0,0,0-5.709-18.393,98.016,98.016,0,0,0-9.035-16.646A98.792,98.792,0,0,0-5606.7-901.3a98.787,98.787,0,0,0-14.505-11.968,97.971,97.971,0,0,0-16.647-9.034,97.471,97.471,0,0,0-18.393-5.71A98.736,98.736,0,0,0-5676-930,98.756,98.756,0,0,0-5695.753-928.009Zm-21.812,148.1a2,2,0,0,1-2-2v-61.007h-18.845a2,2,0,0,1-1.893-1.353,2,2,0,0,1,.669-2.229l61.924-47.876a2,2,0,0,1,1.224-.418,2,2,0,0,1,1.223.418l61.921,47.876a2,2,0,0,1,.67,2.229,2,2,0,0,1-1.892,1.353h-18.844v61.007a2,2,0,0,1-2,2Zm80.156-4v-61.007a2,2,0,0,1,2-2h14.987l-56.065-43.349-56.067,43.349h14.988a2,2,0,0,1,2,2v61.007h24.727v-39.625a2,2,0,0,1,2-2h24.7a2,2,0,0,1,2,2v39.625Zm-28.728,0v-37.625h-20.7v37.625Z" transform="translate(5778 934)" fill="#004691"/>
</svg>
