<svg xmlns="http://www.w3.org/2000/svg" width="70.435" height="39.308" viewBox="0 0 70.435 39.308">
  <g id="Group_399" data-name="Group 399" transform="translate(-334.884 -1350.179)">
    <path id="Union_13" data-name="Union 13" d="M-4570.8-891.982a1,1,0,0,1,0-1.415l16.837-16.949H-4620a1,1,0,0,1-1-1,1,1,0,0,1,1-1h66.031l-16.835-16.949a1,1,0,0,1,0-1.415,1,1,0,0,1,1.414,0l18.531,18.655.009.01.005.005a1,1,0,0,1-.015,1.394l-18.531,18.654a1,1,0,0,1-.708.295A1,1,0,0,1-4570.8-891.982Z" transform="translate(4955.884 2281.179)" fill="#fcb13c"/>
  </g>
</svg>
