<svg xmlns="http://www.w3.org/2000/svg" width="52" height="52.001" viewBox="0 0 52 52.001">
  <path id="Seaduse_ikoon" data-name="Seaduse ikoon" d="M-5762.121-884.041a25.91,25.91,0,0,1-8.264-5.573,25.914,25.914,0,0,1-5.572-8.264A25.841,25.841,0,0,1-5778-908a25.839,25.839,0,0,1,2.043-10.12,25.914,25.914,0,0,1,5.572-8.264,25.9,25.9,0,0,1,8.263-5.573A25.847,25.847,0,0,1-5752-934a25.84,25.84,0,0,1,10.12,2.043,25.9,25.9,0,0,1,8.266,5.573,25.919,25.919,0,0,1,5.571,8.264A25.838,25.838,0,0,1-5726-908a25.84,25.84,0,0,1-2.043,10.122,25.919,25.919,0,0,1-5.571,8.264,25.922,25.922,0,0,1-8.266,5.573A25.84,25.84,0,0,1-5752-882,25.834,25.834,0,0,1-5762.121-884.041Zm.779-46.074a23.934,23.934,0,0,0-7.629,5.145,23.907,23.907,0,0,0-5.144,7.629A23.847,23.847,0,0,0-5776-908a23.849,23.849,0,0,0,1.885,9.343,23.907,23.907,0,0,0,5.144,7.629,23.906,23.906,0,0,0,7.629,5.143A23.842,23.842,0,0,0-5752-884a23.85,23.85,0,0,0,9.342-1.887,23.906,23.906,0,0,0,7.629-5.143,23.926,23.926,0,0,0,5.145-7.629A23.875,23.875,0,0,0-5728-908a23.873,23.873,0,0,0-1.885-9.341,23.926,23.926,0,0,0-5.145-7.629,23.934,23.934,0,0,0-7.629-5.145A23.848,23.848,0,0,0-5752-932,23.841,23.841,0,0,0-5761.342-930.115Zm2.284,34.448,1.1-2.059a10.81,10.81,0,0,0,5.853,1.662c2.449,0,4.136-1.119,4.136-3.036s-1.65-2.6-4.649-3.577c-2.741-.9-5.558-1.953-5.558-5.2a4.5,4.5,0,0,1,3.037-4.3c-1.723-.867-3.037-2.133-3.037-4.41,0-3.218,2.6-5.168,5.922-5.168,2.928,0,4.943,1.047,6.04,2.638l-1.755,1.446a5.261,5.261,0,0,0-4.285-1.952c-1.829,0-3.364,1.121-3.364,2.891,0,2.024,1.646,2.639,4.463,3.579,3.332,1.119,5.78,2.278,5.78,5.061a4.992,4.992,0,0,1-3.034,4.59c1.79.832,3,1.988,3,4.3,0,3.218-2.671,5.349-6.657,5.349A12.789,12.789,0,0,1-5759.058-895.667Zm3.4-12.4c0,1.916,1.572,2.53,4.172,3.4,2.046-.251,3.622-1.3,3.622-3.07,0-1.846-1.576-2.422-4.5-3.4A3.248,3.248,0,0,0-5755.656-908.063Z" transform="translate(5778 934)" fill="#08488f"/>
</svg>
