<svg xmlns="http://www.w3.org/2000/svg" width="72" height="72.002" viewBox="0 0 72 72.002">
  <g id="Tagasiside_ikoon_ringis" data-name="Tagasiside ikoon ringis" transform="translate(-1123.116 -1335.933)">
    <path id="Path_235_-_Outline" data-name="Path 235 - Outline" d="M35.494-.5A36.01,36.01,0,0,1,49.507,68.667,36.01,36.01,0,0,1,21.481,2.324,35.776,35.776,0,0,1,35.494-.5Z" transform="translate(1123.622 1336.438)" fill="#074691"/>
    <path id="Union_49" data-name="Union 49" d="M-3530.077-892.113a1,1,0,0,1-.671-.386l-6.718-8.393-10.409,3.952a1,1,0,0,1-.867-.076,1,1,0,0,1-.48-.724l-4.769-35.125a1.007,1.007,0,0,1,.019-.37v0c0-.014.007-.028.011-.042l0-.009,0-.01a.992.992,0,0,1,.182-.337l0,0,.009-.01.01-.011,0-.005a1,1,0,0,1,.181-.159.983.983,0,0,1,.106-.064h0l.015-.008.006,0,.009,0,.012-.006h0a1,1,0,0,1,.49-.087h.031l.015,0,.014,0,.014,0,.015,0,.013,0,.016,0,.009,0,.019,0,.01,0,.018,0,.011,0,.013,0,.016,0,.008,0,.022.007h0a.987.987,0,0,1,.172.077l39.563,21.767a1,1,0,0,1,.517.925,1,1,0,0,1-.6.869l-10.747,4.607-5.24,12.943a.992.992,0,0,1-.224.352l0,0-.009.009-.016.015h0a1,1,0,0,1-.14.109l-.009.006-.007,0-.014.009h0a.989.989,0,0,1-.134.067,1,1,0,0,1-.376.074A1.15,1.15,0,0,1-3530.077-892.113Zm-1.363-4.451-.868-6.286-3.194,1.213Zm1.965-.389,3.74-9.238-19.335-17.874,14.382,19.234a1,1,0,0,1,.194.5Zm-17.934-2.3,9.863-3.745a.963.963,0,0,1,.1-.038l4.363-1.656-18.405-24.616Zm23.063-8.374,8.646-3.706-31.258-17.2Z" transform="translate(4696.893 2285.278)" fill="#fff"/>
  </g>
</svg>
