<svg xmlns="http://www.w3.org/2000/svg" width="72" height="72.002" viewBox="0 0 72 72.002">
  <g id="Ettepanek_ringis_ikoon" data-name="Ettepanek ringis ikoon" transform="translate(-245.932 -1335.933)">
    <path id="Path_235_-_Outline" data-name="Path 235 - Outline" d="M35.494-.5A36.01,36.01,0,0,1,49.507,68.667,36.01,36.01,0,0,1,21.481,2.324,35.776,35.776,0,0,1,35.494-.5Z" transform="translate(246.438 1336.438)" fill="#fcb13c"/>
    <path id="Union_46" data-name="Union 46" d="M-3541.91-892.067a5.334,5.334,0,0,1-3.853,1.037l-.044-.007A7.044,7.044,0,0,1-3549-892.5a12.574,12.574,0,0,1-4.954-8.728.073.073,0,0,1,0-.014,11.4,11.4,0,0,1,.721-5.124,11.4,11.4,0,0,1,2.921-4.27l.011-.01a8.426,8.426,0,0,1,3.745-1.926,5.682,5.682,0,0,1,4.216.609,1,1,0,0,1,.336,1.373,1,1,0,0,1-1.374.337c-1.695-1.029-4.093-.227-5.59,1.1a9.386,9.386,0,0,0-2.4,3.511,9.394,9.394,0,0,0-.595,4.213,10.568,10.568,0,0,0,4.179,7.34l.035.027a5.037,5.037,0,0,0,2.272,1.05,3.239,3.239,0,0,0,1.983-.415,10.348,10.348,0,0,1-1.112-1.413,6.627,6.627,0,0,1-1.238-4.685c0-.012,0-.024,0-.037a3.942,3.942,0,0,1,3.953-3.334,1.073,1.073,0,0,1,.161.015,3.892,3.892,0,0,1,3.076,2.889l0,.018a6.507,6.507,0,0,1-.285,3.831,8.788,8.788,0,0,1-1.48,2.658,5.323,5.323,0,0,0,2.865.8,4.133,4.133,0,0,0,2.922-1.469,3.69,3.69,0,0,0,.386-.552,4.3,4.3,0,0,1,.469-2.353,1,1,0,0,1,1.056-.527,1,1,0,0,1,.823.847,4.629,4.629,0,0,1-.273,2.311c.007.023.014.045.021.068a2.322,2.322,0,0,0,1.154,1.365,2.338,2.338,0,0,0,2.345-.12,5.9,5.9,0,0,0,.64-.516,6.485,6.485,0,0,1,1.083-.82,2.479,2.479,0,0,1,3.2.449,1,1,0,0,1-.095,1.411,1,1,0,0,1-1.411-.094.474.474,0,0,0-.619-.081.83.83,0,0,1-.076.047,4.656,4.656,0,0,0-.763.589,7.548,7.548,0,0,1-.868.689,4.34,4.34,0,0,1-4.355.222,4.308,4.308,0,0,1-1.514-1.292,6.079,6.079,0,0,1-4.065,1.824c-.066,0-.132,0-.2,0A7.569,7.569,0,0,1-3541.91-892.067Zm-1.95-7.208a4.63,4.63,0,0,0,.88,3.272c.011.016.022.031.032.048a8.312,8.312,0,0,0,.974,1.224,6.916,6.916,0,0,0,1.159-2.081c0-.014.01-.028.015-.042a4.5,4.5,0,0,0,.205-2.663,1.886,1.886,0,0,0-1.41-1.377A1.936,1.936,0,0,0-3543.861-899.275Zm22.244,6.618a1,1,0,0,1-.781-.764l-1.566-7.041a1.006,1.006,0,0,1,0-.411l5.3-26.806a1,1,0,0,1,.425-.637,1,1,0,0,1,.556-.169,1.013,1.013,0,0,1,.195.019l5.7,1.13a1,1,0,0,1,.787,1.174l-5.3,26.8a1.008,1.008,0,0,1-.161.379l-4.13,5.914a1,1,0,0,1-.821.427A1,1,0,0,1-3521.616-892.657Zm-.349-8.034,1.026,4.616,2.708-3.877,5.067-25.617-3.734-.741Zm10.443-14.224a1,1,0,0,1-.787-1.175l1.978-9.984a1,1,0,0,1,1.175-.787,1,1,0,0,1,.787,1.175l-1.978,9.984a1,1,0,0,1-.98.806A.972.972,0,0,1-3511.523-914.916Zm-.061-13.513-5.818-1.151a1,1,0,0,1-.787-1.175,1,1,0,0,1,1.175-.787l5.818,1.151a1,1,0,0,1,.787,1.175,1,1,0,0,1-.98.805A1.036,1.036,0,0,1-3511.584-928.428Zm.474-2.439-5.816-1.151a1,1,0,0,1-.787-1.175,1,1,0,0,1,1.175-.787l5.816,1.151a1,1,0,0,1,.787,1.175,1,1,0,0,1-.98.805A.972.972,0,0,1-3511.11-930.867Z" transform="translate(3811.901 2284.02)" fill="#fff"/>
  </g>
</svg>
