<svg xmlns="http://www.w3.org/2000/svg" width="72" height="72.002" viewBox="0 0 72 72.002">
  <g id="Esindaja_kaasamise_ikoon_ringis" data-name="Esindaja kaasamise ikoon ringis" transform="translate(-770.82 -1335.933)">
    <path id="Path_235_-_Outline" data-name="Path 235 - Outline" d="M35.494-.5A36.01,36.01,0,0,1,49.507,68.667,36.01,36.01,0,0,1,21.481,2.324,35.776,35.776,0,0,1,35.494-.5Z" transform="translate(771.326 1336.438)" fill="#2272a0"/>
    <path id="Union_47" data-name="Union 47" d="M-3509.489-898.474l-6.649-3.244a15.849,15.849,0,0,1-5.766,1.076,15.851,15.851,0,0,1-11.285-4.675,16.079,16.079,0,0,1-2.285-2.874,13.286,13.286,0,0,1-5.108,1.024,13.345,13.345,0,0,1-4.78-.878l-5.452,2.659a.988.988,0,0,1-.437.1,1,1,0,0,1-.623-.218,1,1,0,0,1-.353-1.006l1.281-5.576a13.376,13.376,0,0,1-3.054-8.5,13.327,13.327,0,0,1,3.929-9.485,13.333,13.333,0,0,1,9.488-3.929,13.131,13.131,0,0,1,5.486,1.19,13.512,13.512,0,0,1,4.21,3.012,15.847,15.847,0,0,1,8.983-2.762,15.857,15.857,0,0,1,11.285,4.674,15.857,15.857,0,0,1,4.675,11.286,15.918,15.918,0,0,1-3.7,10.19l1.567,6.814a1,1,0,0,1-.352,1.007,1,1,0,0,1-.624.217A1,1,0,0,1-3509.489-898.474Zm-6.172-5.236,5.167,2.52-1.211-5.266a1,1,0,0,1,.228-.888,13.93,13.93,0,0,0,3.533-9.257,13.865,13.865,0,0,0-4.09-9.871,13.864,13.864,0,0,0-9.87-4.089,13.865,13.865,0,0,0-9.871,4.089,13.868,13.868,0,0,0-4.088,9.871,13.871,13.871,0,0,0,4.088,9.87,13.868,13.868,0,0,0,9.871,4.089,13.88,13.88,0,0,0,5.416-1.091,1,1,0,0,1,.388-.079A1,1,0,0,1-3515.661-903.71Zm-32.995-24.947a11.339,11.339,0,0,0-3.344,8.071,11.384,11.384,0,0,0,2.887,7.571,1,1,0,0,1,.228.889l-.925,4.025,3.969-1.936a1,1,0,0,1,.826-.023,11.37,11.37,0,0,0,4.432.892,11.288,11.288,0,0,0,4.156-.8,15.908,15.908,0,0,1-1.437-6.638,15.855,15.855,0,0,1,4.675-11.286q.35-.35.717-.675a11.494,11.494,0,0,0-3.455-2.429,11.147,11.147,0,0,0-4.656-1.01A11.343,11.343,0,0,0-3548.656-928.657Zm21.954,18.991a9.764,9.764,0,0,1-3.45-3.351,1,1,0,0,1,.329-1.375,1,1,0,0,1,1.375.328,7.638,7.638,0,0,0,6.544,3.673,7.647,7.647,0,0,0,3.8-1.01,7.755,7.755,0,0,0,2.742-2.663,1,1,0,0,1,1.375-.328,1,1,0,0,1,.328,1.375,9.751,9.751,0,0,1-3.451,3.351,9.652,9.652,0,0,1-4.8,1.275A9.656,9.656,0,0,1-3526.7-909.666Zm7.323-7.508v-3.437a1,1,0,0,1,1-1,1,1,0,0,1,1,1v3.437a1,1,0,0,1-1,1A1,1,0,0,1-3519.38-917.174Zm-7.05,0v-3.437a1,1,0,0,1,1-1,1,1,0,0,1,1,1v3.437a1,1,0,0,1-1,1A1,1,0,0,1-3526.43-917.174Z" transform="translate(4336.742 2289.427)" fill="#fff"/>
  </g>
</svg>
