<svg xmlns="http://www.w3.org/2000/svg" width="72" height="72.002" viewBox="0 0 72 72.002">
  <g id="Edastastamise_ikoon_ringis" data-name="Edastastamise ikoon ringis" transform="translate(-420.453 -1335.933)">
    <path id="Path_235_-_Outline" data-name="Path 235 - Outline" d="M35.494-.5A36.01,36.01,0,0,1,49.507,68.667,36.01,36.01,0,0,1,21.481,2.324,35.776,35.776,0,0,1,35.494-.5Z" transform="translate(420.959 1336.438)" fill="#27c982"/>
    <path id="Union_50" data-name="Union 50" d="M-3527.146-893.217h-8.345a1.007,1.007,0,0,1-.147.011,1.01,1.01,0,0,1-.147-.011h-9.916a1,1,0,0,1-1-1v-21.038h-6.3a1,1,0,0,1-.946-.677,1,1,0,0,1,.335-1.115l21.682-16.745a1,1,0,0,1,.611-.209,1,1,0,0,1,.612.209l21.681,16.745a1,1,0,0,1,.336,1.115,1,1,0,0,1-.947.677h-6.3v21.038a1,1,0,0,1-1,1h-9.916a1.009,1.009,0,0,1-.147.011A1.013,1.013,0,0,1-3527.146-893.217Zm9.21-2v-21.038a1,1,0,0,1,1-1h4.369l-18.751-14.483-18.751,14.483h4.368a1,1,0,0,1,1,1v21.038h8.062v-13.549a1,1,0,0,1,1-1h8.64a1,1,0,0,1,1,1v13.549Zm-10.064,0v-12.549h-6.639v12.549Z" transform="translate(3987.602 2283.668)" fill="#fff"/>
  </g>
</svg>
