<svg xmlns="http://www.w3.org/2000/svg" width="204.001" height="204" viewBox="0 0 204.001 204">
  <path id="Naerunaod" d="M-5696.553-732.072a101.553,101.553,0,0,1-19.15-5.944,102,102,0,0,1-17.327-9.405,102.644,102.644,0,0,1-15.094-12.453,102.759,102.759,0,0,1-12.455-15.094,102.021,102.021,0,0,1-9.4-17.327,101.556,101.556,0,0,1-5.945-19.15A102.784,102.784,0,0,1-5778-832a102.78,102.78,0,0,1,2.072-20.554,101.556,101.556,0,0,1,5.945-19.15,102.021,102.021,0,0,1,9.4-17.327,102.763,102.763,0,0,1,12.455-15.094,102.647,102.647,0,0,1,15.094-12.453,102,102,0,0,1,17.327-9.405,101.447,101.447,0,0,1,19.15-5.944A102.659,102.659,0,0,1-5676-934a102.66,102.66,0,0,1,20.554,2.072,101.421,101.421,0,0,1,19.148,5.944,101.968,101.968,0,0,1,17.327,9.405,102.669,102.669,0,0,1,15.094,12.453,102.725,102.725,0,0,1,12.454,15.094,102.029,102.029,0,0,1,9.405,17.327,101.48,101.48,0,0,1,5.944,19.15A102.674,102.674,0,0,1-5574-832a102.677,102.677,0,0,1-2.073,20.555,101.48,101.48,0,0,1-5.944,19.15,102.029,102.029,0,0,1-9.405,17.327,102.722,102.722,0,0,1-12.454,15.094,102.665,102.665,0,0,1-15.094,12.453,101.968,101.968,0,0,1-17.327,9.405,101.528,101.528,0,0,1-19.148,5.944A102.767,102.767,0,0,1-5676-730,102.766,102.766,0,0,1-5696.553-732.072Zm.8-195.937a97.486,97.486,0,0,0-18.393,5.71,97.989,97.989,0,0,0-16.647,9.034,98.7,98.7,0,0,0-14.5,11.969,98.718,98.718,0,0,0-11.968,14.505,98,98,0,0,0-9.036,16.646,97.47,97.47,0,0,0-5.709,18.393A98.751,98.751,0,0,0-5774-832a98.754,98.754,0,0,0,1.991,19.753,97.47,97.47,0,0,0,5.709,18.393,98.01,98.01,0,0,0,9.036,16.647A98.872,98.872,0,0,0-5745.3-762.7a98.783,98.783,0,0,0,14.5,11.968,97.985,97.985,0,0,0,16.647,9.034,97.375,97.375,0,0,0,18.393,5.709A98.627,98.627,0,0,0-5676-734a98.628,98.628,0,0,0,19.752-1.991,97.393,97.393,0,0,0,18.393-5.709,98.009,98.009,0,0,0,16.646-9.034A98.787,98.787,0,0,0-5606.7-762.7a98.872,98.872,0,0,0,11.968-14.505,97.973,97.973,0,0,0,9.035-16.647,97.47,97.47,0,0,0,5.709-18.393A98.719,98.719,0,0,0-5578-832a98.715,98.715,0,0,0-1.991-19.752,97.47,97.47,0,0,0-5.709-18.393,97.963,97.963,0,0,0-9.035-16.646A98.718,98.718,0,0,0-5606.7-901.3a98.7,98.7,0,0,0-14.505-11.969,98.013,98.013,0,0,0-16.646-9.034,97.5,97.5,0,0,0-18.393-5.71A98.736,98.736,0,0,0-5676-930,98.734,98.734,0,0,0-5695.751-928.009Zm8.338,177.349a29.211,29.211,0,0,1-9.318-6.283,29.211,29.211,0,0,1-6.282-9.318,29.131,29.131,0,0,1-2.306-11.414,29.135,29.135,0,0,1,2.306-11.412,29.242,29.242,0,0,1,6.282-9.318,29.231,29.231,0,0,1,9.318-6.282,29.149,29.149,0,0,1,11.412-2.3,29.158,29.158,0,0,1,11.414,2.3,29.242,29.242,0,0,1,9.318,6.282,29.234,29.234,0,0,1,6.282,9.318,29.135,29.135,0,0,1,2.306,11.412,29.131,29.131,0,0,1-2.306,11.414,29.2,29.2,0,0,1-6.282,9.318,29.222,29.222,0,0,1-9.318,6.283,29.158,29.158,0,0,1-11.414,2.3A29.149,29.149,0,0,1-5687.414-750.661Zm1.558-50.343a25.229,25.229,0,0,0-8.048,5.426,25.224,25.224,0,0,0-5.426,8.048,25.15,25.15,0,0,0-1.988,9.853,25.164,25.164,0,0,0,1.988,9.856,25.2,25.2,0,0,0,5.427,8.048,25.207,25.207,0,0,0,8.047,5.426,25.162,25.162,0,0,0,9.854,1.99,25.163,25.163,0,0,0,9.855-1.99,25.222,25.222,0,0,0,8.048-5.426,25.246,25.246,0,0,0,5.428-8.048,25.19,25.19,0,0,0,1.988-9.856,25.176,25.176,0,0,0-1.988-9.853,25.246,25.246,0,0,0-5.428-8.048,25.222,25.222,0,0,0-8.048-5.426,25.163,25.163,0,0,0-9.855-1.99A25.162,25.162,0,0,0-5685.856-801Zm1.121,38.609a17.8,17.8,0,0,1-6.282-6.1,2,2,0,0,1,.657-2.752,2,2,0,0,1,2.75.657,13.762,13.762,0,0,0,4.865,4.724,13.565,13.565,0,0,0,6.744,1.791,13.564,13.564,0,0,0,6.742-1.791,13.794,13.794,0,0,0,4.866-4.724,2,2,0,0,1,2.751-.655,2,2,0,0,1,.655,2.751,17.791,17.791,0,0,1-6.282,6.1,17.579,17.579,0,0,1-8.732,2.32A17.586,17.586,0,0,1-5684.735-762.395Zm13.077-15.565V-785.7a2,2,0,0,1,2-2,2,2,0,0,1,2,2v7.743a2,2,0,0,1-2,2A2,2,0,0,1-5671.658-777.96Zm-12.684,0V-785.7a2,2,0,0,1,2-2,2,2,0,0,1,2,2v7.743a2,2,0,0,1-2,2A2,2,0,0,1-5684.342-777.96Zm51.253-27.028a29.183,29.183,0,0,1-9.318-6.282,29.231,29.231,0,0,1-6.283-9.318,29.123,29.123,0,0,1-2.3-11.412,29.133,29.133,0,0,1,2.3-11.412,29.207,29.207,0,0,1,6.283-9.318,29.211,29.211,0,0,1,9.318-6.283,29.133,29.133,0,0,1,11.412-2.3,29.132,29.132,0,0,1,11.414,2.3,29.216,29.216,0,0,1,9.317,6.283,29.207,29.207,0,0,1,6.283,9.318,29.159,29.159,0,0,1,2.3,11.412,29.149,29.149,0,0,1-2.3,11.412,29.207,29.207,0,0,1-6.283,9.318,29.188,29.188,0,0,1-9.317,6.282,29.133,29.133,0,0,1-11.414,2.306A29.135,29.135,0,0,1-5633.089-804.988Zm1.559-50.341a25.233,25.233,0,0,0-8.049,5.426,25.24,25.24,0,0,0-5.426,8.049A25.159,25.159,0,0,0-5647-832a25.167,25.167,0,0,0,1.989,9.855,25.233,25.233,0,0,0,5.426,8.048,25.256,25.256,0,0,0,8.049,5.426,25.16,25.16,0,0,0,9.854,1.988,25.162,25.162,0,0,0,9.855-1.988,25.227,25.227,0,0,0,8.048-5.426,25.249,25.249,0,0,0,5.426-8.048,25.167,25.167,0,0,0,1.989-9.855,25.159,25.159,0,0,0-1.989-9.853,25.256,25.256,0,0,0-5.426-8.049,25.227,25.227,0,0,0-8.048-5.426,25.137,25.137,0,0,0-9.855-1.99A25.135,25.135,0,0,0-5631.53-855.329Zm-110.208,50.341a29.181,29.181,0,0,1-9.318-6.282,29.207,29.207,0,0,1-6.283-9.318A29.141,29.141,0,0,1-5759.645-832a29.152,29.152,0,0,1,2.306-11.412,29.207,29.207,0,0,1,6.283-9.318,29.209,29.209,0,0,1,9.318-6.283,29.134,29.134,0,0,1,11.413-2.3,29.123,29.123,0,0,1,11.412,2.3,29.226,29.226,0,0,1,9.319,6.283,29.208,29.208,0,0,1,6.281,9.318A29.135,29.135,0,0,1-5701.008-832a29.124,29.124,0,0,1-2.306,11.412,29.188,29.188,0,0,1-6.282,9.318,29.176,29.176,0,0,1-9.318,6.282,29.124,29.124,0,0,1-11.412,2.306A29.135,29.135,0,0,1-5741.738-804.988Zm1.559-50.341a25.228,25.228,0,0,0-8.049,5.426,25.224,25.224,0,0,0-5.426,8.049,25.151,25.151,0,0,0-1.99,9.853,25.158,25.158,0,0,0,1.99,9.855,25.217,25.217,0,0,0,5.426,8.048,25.251,25.251,0,0,0,8.049,5.426,25.154,25.154,0,0,0,9.854,1.988,25.161,25.161,0,0,0,9.854-1.988,25.222,25.222,0,0,0,8.048-5.426,25.217,25.217,0,0,0,5.426-8.048,25.157,25.157,0,0,0,1.988-9.855,25.15,25.15,0,0,0-1.988-9.853,25.224,25.224,0,0,0-5.426-8.049,25.222,25.222,0,0,0-8.048-5.426,25.136,25.136,0,0,0-9.854-1.99A25.13,25.13,0,0,0-5740.179-855.329Zm109.777,38.606a17.791,17.791,0,0,1-6.282-6.1,2,2,0,0,1,.657-2.751,2,2,0,0,1,2.751.655,13.777,13.777,0,0,0,4.865,4.724,13.566,13.566,0,0,0,6.743,1.791,13.571,13.571,0,0,0,6.743-1.791,13.783,13.783,0,0,0,4.864-4.724,2,2,0,0,1,2.751-.655,2,2,0,0,1,.657,2.751,17.779,17.779,0,0,1-6.282,6.1,17.56,17.56,0,0,1-8.732,2.322A17.566,17.566,0,0,1-5630.4-816.724Zm-108.665,0a17.787,17.787,0,0,1-6.282-6.1,2,2,0,0,1,.657-2.751,2,2,0,0,1,2.751.655,13.777,13.777,0,0,0,4.865,4.724,13.564,13.564,0,0,0,6.742,1.791,13.574,13.574,0,0,0,6.744-1.791,13.783,13.783,0,0,0,4.864-4.724,2,2,0,0,1,2.75-.655,2,2,0,0,1,.657,2.751,17.783,17.783,0,0,1-6.282,6.1,17.566,17.566,0,0,1-8.734,2.322A17.56,17.56,0,0,1-5739.067-816.724Zm121.736-15.994v-7.742a2,2,0,0,1,2-2,2,2,0,0,1,2,2v7.742a2,2,0,0,1-2,2A2,2,0,0,1-5617.331-832.718Zm-12.677,0v-7.742a2,2,0,0,1,2-2,2,2,0,0,1,2,2v7.742a2,2,0,0,1-2,2A2,2,0,0,1-5630.007-832.718Zm-95.984,0v-7.742a2,2,0,0,1,2-2,2,2,0,0,1,2,2v7.742a2,2,0,0,1-2,2A2,2,0,0,1-5725.992-832.718Zm-12.677,0v-7.742a2,2,0,0,1,2-2,2,2,0,0,1,2,2v7.742a2,2,0,0,1-2,2A2,2,0,0,1-5738.668-832.718Zm51.255-26.595a29.206,29.206,0,0,1-9.318-6.282,29.21,29.21,0,0,1-6.282-9.318,29.124,29.124,0,0,1-2.306-11.412,29.129,29.129,0,0,1,2.306-11.412,29.21,29.21,0,0,1,6.282-9.318,29.187,29.187,0,0,1,9.318-6.283A29.124,29.124,0,0,1-5676-915.644a29.133,29.133,0,0,1,11.414,2.306,29.2,29.2,0,0,1,9.318,6.283,29.2,29.2,0,0,1,6.282,9.318,29.129,29.129,0,0,1,2.306,11.412,29.124,29.124,0,0,1-2.306,11.412,29.2,29.2,0,0,1-6.282,9.318,29.217,29.217,0,0,1-9.318,6.282A29.133,29.133,0,0,1-5676-857.007,29.124,29.124,0,0,1-5687.414-859.313Zm1.558-50.341a25.207,25.207,0,0,0-8.047,5.426,25.234,25.234,0,0,0-5.427,8.049,25.15,25.15,0,0,0-1.988,9.853,25.157,25.157,0,0,0,1.988,9.855,25.24,25.24,0,0,0,5.426,8.048,25.277,25.277,0,0,0,8.048,5.426,25.161,25.161,0,0,0,9.854,1.988,25.162,25.162,0,0,0,9.855-1.988,25.27,25.27,0,0,0,8.048-5.426,25.262,25.262,0,0,0,5.428-8.048,25.183,25.183,0,0,0,1.988-9.855,25.176,25.176,0,0,0-1.988-9.853,25.251,25.251,0,0,0-5.428-8.049,25.222,25.222,0,0,0-8.048-5.426,25.138,25.138,0,0,0-9.855-1.99A25.137,25.137,0,0,0-5685.856-909.654Zm1.121,38.6a17.786,17.786,0,0,1-6.282-6.1,2,2,0,0,1,.657-2.751,2,2,0,0,1,2.75.657,13.758,13.758,0,0,0,4.865,4.723,13.566,13.566,0,0,0,6.744,1.791,13.565,13.565,0,0,0,6.742-1.791,13.777,13.777,0,0,0,4.866-4.723,2,2,0,0,1,2.751-.657,2,2,0,0,1,.655,2.751,17.778,17.778,0,0,1-6.282,6.1,17.58,17.58,0,0,1-8.732,2.322A17.586,17.586,0,0,1-5684.735-871.059Zm13.077-15.748v-7.743a2,2,0,0,1,2-2,2,2,0,0,1,2,2v7.743a2,2,0,0,1-2,2A2,2,0,0,1-5671.658-886.806Zm-12.684,0v-7.743a2,2,0,0,1,2-2,2,2,0,0,1,2,2v7.743a2,2,0,0,1-2,2A2,2,0,0,1-5684.342-886.806Z" transform="translate(5778 934)" fill="#004691"/>
</svg>
