<?xml version="1.0" encoding="UTF-8" standalone="no"?>
<svg width="24px" height="19px" viewBox="0 0 24 19" version="1.1" xmlns="http://www.w3.org/2000/svg" xmlns:xlink="http://www.w3.org/1999/xlink" xmlns:sketch="http://www.bohemiancoding.com/sketch/ns">
    <!-- Generator: Sketch 3.4.4 (17249) - http://www.bohemiancoding.com/sketch -->
    <title>mobilemenu_mainmenu</title>
    <desc>Created with Sketch.</desc>
    <defs></defs>
    <g id="Page-1" stroke="none" stroke-width="1" fill="none" fill-rule="evenodd" sketch:type="MSPage">
        <g id="13e---mobile-view---Topic---admin-role---Create-singing-phase" sketch:type="MSArtboardGroup" transform="translate(-283.000000, -16.000000)" fill="#FFFFFF">
            <g id="menu" sketch:type="MSLayerGroup">
                <g transform="translate(283.000000, 16.000000)" id="mobilemenu_mainmenu" sketch:type="MSShapeGroup">
                    <path d="M0,17.5 C0,16.6715729 0.666946292,16 1.50130749,16 L22.4986925,16 C23.3278417,16 24,16.6657972 24,17.5 L24,17.5 C24,18.3284271 23.3330537,19 22.4986925,19 L1.50130749,19 C0.672158257,19 0,18.3342028 0,17.5 L0,17.5 Z M0,9.5 C0,8.67157288 0.666946292,8 1.50130749,8 L22.4986925,8 C23.3278417,8 24,8.66579723 24,9.5 L24,9.5 C24,10.3284271 23.3330537,11 22.4986925,11 L1.50130749,11 C0.672158257,11 0,10.3342028 0,9.5 L0,9.5 Z M0,1.5 C0,0.671572875 0.666946292,0 1.50130749,0 L22.4986925,0 C23.3278417,0 24,0.665797234 24,1.5 L24,1.5 C24,2.32842712 23.3330537,3 22.4986925,3 L1.50130749,3 C0.672158257,3 0,2.33420277 0,1.5 L0,1.5 Z"></path>
                </g>
            </g>
        </g>
    </g>
</svg>