<?xml version="1.0" encoding="UTF-8" standalone="no"?>
<svg width="20px" height="20px" viewBox="0 0 20 20" version="1.1" xmlns="http://www.w3.org/2000/svg" xmlns:xlink="http://www.w3.org/1999/xlink" xmlns:sketch="http://www.bohemiancoding.com/sketch/ns">
    <!-- Generator: Sketch 3.4.4 (17249) - http://www.bohemiancoding.com/sketch -->
    <title>Fill 1</title>
    <desc>Created with Sketch.</desc>
    <defs></defs>
    <g id="Page-1" stroke="none" stroke-width="1" fill="none" fill-rule="evenodd" sketch:type="MSPage">
        <g id="00a-Home" sketch:type="MSArtboardGroup" transform="translate(-731.000000, -2034.000000)" fill="#FFFFFF">
            <g id="Footer" sketch:type="MSLayerGroup" transform="translate(0.000000, 1983.000000)">
                <g id="twitter" transform="translate(731.000000, 51.000000)" sketch:type="MSShapeGroup">
                    <path d="M1.10337828,0.00789513109 C0.493865169,0.00789513109 7.49063656e-06,0.501827715 7.49063656e-06,1.11134082 L7.49063656e-06,18.8965843 C7.49063656e-06,19.5059476 0.493865169,20.00003 1.10337828,20.00003 L18.8886217,20.00003 C19.4979101,20.00003 19.9919925,19.5059476 19.9919925,18.8965843 L19.9919925,1.11134082 C19.9919925,0.501827715 19.4979101,0.00789513109 18.8886217,0.00789513109 L1.10337828,0.00789513109 Z M7.97680832,15.589 C6.51175637,15.589 5.14809019,15.1595444 4.00000749,14.4234801 C4.20296402,14.4474389 4.40948199,14.4596959 4.61886763,14.4596959 C5.83429415,14.4596959 6.95291393,14.0449486 7.84077934,13.3491703 C6.70555488,13.3282179 5.74747797,12.5781853 5.41737298,11.5474917 C5.57574197,11.5777872 5.7382737,11.5940219 5.90543069,11.5940219 C6.14205913,11.5940219 6.37124089,11.5623388 6.58895201,11.503043 C5.40210961,11.2647494 4.50790758,10.2162024 4.50790758,8.95924102 C4.50790758,8.9483254 4.50790758,8.93745603 4.50809259,8.92663292 C4.85790121,9.1209402 5.25789392,9.23763558 5.68318682,9.25109509 C4.98708479,8.78588618 4.52904503,7.99182108 4.52904503,7.09179123 C4.52904503,6.61636048 4.6569798,6.17071642 4.88028748,5.78755966 C6.15982014,7.35709629 8.07139494,8.38991744 10.2275074,8.49810233 C10.1832899,8.3082353 10.1603023,8.11022781 10.1603023,7.90690126 C10.1603023,6.47422616 11.3218908,5.31268395 12.7546584,5.31268395 C13.5008058,5.31268395 14.1750303,5.62775684 14.6482872,6.13195672 C15.2392107,6.01558511 15.7944273,5.79967785 16.295667,5.50241222 C16.101961,6.10818287 15.6906364,6.61659174 15.1549847,6.93767747 C15.679767,6.87495891 16.1797579,6.73550724 16.6450131,6.52917428 C16.2971933,7.04942382 15.8573308,7.50635352 15.3504945,7.87211929 C15.3554898,7.98335685 15.3579875,8.09524196 15.3579875,8.20772835 C15.3579875,11.6359268 12.7485993,15.589 7.97680832,15.589 Z" id="Fill-1"></path>
                </g>
            </g>
        </g>
    </g>
</svg>