<svg height="512" viewBox="0 0 60 55" width="512" xmlns="http://www.w3.org/2000/svg"><g id="Page-1" fill="none" fill-rule="evenodd"><g id="002---API" fill="rgb(0,0,0)" fill-rule="nonzero"><path id="Shape" d="m50.5 35h-37.5c-7.17970175 0-13-5.8202983-13-13s5.82029825-13 13-13c.085 0 .1694.0005.2529.0024 2.3847004-5.46763456 7.7827498-9.00241816 13.7478-9.00241816s11.3630996 3.5347836 13.7478 9.00241816c4.5269735.10207522 8.5740845 2.8473006 10.3428 7.0157 5.1237701.316728 9.0691027 4.6466287 8.9092664 9.7776898-.1598363 5.1310612-4.3670171 9.2070052-9.5005664 9.2042102zm-37.5-24c-6.07513225 0-11 4.9248678-11 11s4.92486775 11 11 11h37.5c4.1421356 0 7.5-3.3578644 7.5-7.5s-3.3578644-7.5-7.5-7.5h-.1c-.4239029-.0000114-.8017403-.2672906-.9429-.667-1.3462715-3.8181038-4.9667986-6.3614526-9.0152-6.333-.0977 0-.1948.0005-.292.0073-.4387092.0279128-.8450022-.2314206-1.0044-.6411-1.9230599-5.04284193-6.7623782-8.37262753-12.1594493-8.36654194-5.3970712.00608558-10.228868 3.34677606-12.1405507 8.39394194-.1595185.424165-.5847748.6876301-1.0356.6416-.2692044-.0253245-.5395136-.0370727-.8099-.0352z"/><path id="Shape" d="m6.7705 28c-.30185083.0005429-.58768565-.135737-.7773-.3706-1.73245124-2.1445708-2.38301828-4.9664435-1.76436752-7.6530478.61865076-2.6866042 2.43785594-4.9397566 4.93376752-6.1106522.4994311-.2359637 1.0955863-.0223811 1.33155.47705s.0223811 1.0955863-.47705 1.33155c-2.44487847 1.1597053-4.00710635 3.6197349-4.0171 6.3257-.00614342 1.5920592.54061699 3.1368721 1.5469 4.3706.24255369.2994659.29144355.7116607.12567268 1.0595575-.16577086.3478967-.51670004.5695799-.90207268.5698425z"/><path id="Shape" d="m17 29.0005c-.3214095-.0004569-.6230586-.1551919-.8109292-.415977-.1878707-.2607851-.2391186-.5959101-.1377708-.900923l4-12c.1747429-.5239525.7411475-.8070429 1.2651-.6323s.8070429.7411475.6323 1.2651l-4 12c-.1360024.4084775-.5181765.6840602-.9487.6841z"/><path id="Shape" d="m25 29.0005c-.4305235-.0000398-.8126976-.2756225-.9487-.6841l-4-12c-.1747429-.5239525.1083475-1.0903571.6323-1.2651s1.0903571.1083475 1.2651.6323l4 12c.1013478.3050129.0500999.6401379-.1377708.900923-.1878706.2607851-.4895197.4155201-.8109292.415977z"/><path id="Shape" d="m23.33 24h-4.66c-.5522847 0-1-.4477153-1-1s.4477153-1 1-1h4.66c.5522847 0 1 .4477153 1 1s-.4477153 1-1 1z"/><path id="Shape" d="m28 29c-.5522847 0-1-.4477153-1-1v-12c0-.5522847.4477153-1 1-1s1 .4477153 1 1v12c0 .5522847-.4477153 1-1 1z"/><path id="Shape" d="m32 23h-4c-.5522847 0-1-.4477153-1-1v-6c0-.5522847.4477153-1 1-1h4c2.209139 0 4 1.790861 4 4s-1.790861 4-4 4zm-3-2h3c1.1045695 0 2-.8954305 2-2s-.8954305-2-2-2h-3z"/><path id="Shape" d="m40 29c-.5522847 0-1-.4477153-1-1v-12c0-.5522847.4477153-1 1-1s1 .4477153 1 1v12c0 .5522847-.4477153 1-1 1z"/><path id="Shape" d="m43 17h-6c-.5522847 0-1-.4477153-1-1s.4477153-1 1-1h6c.5522847 0 1 .4477153 1 1s-.4477153 1-1 1z"/><path id="Shape" d="m43 29h-6c-.5522847 0-1-.4477153-1-1s.4477153-1 1-1h6c.5522847 0 1 .4477153 1 1s-.4477153 1-1 1z"/><path id="Shape" d="m24.0464 55.0005c-.2521817-.0002492-.5016286-.0522556-.7329-.1528l-6.2564-2.5938c-.4611402-.1904211-.8266293-.5578555-1.0146-1.02-.1857256-.4560363-.1776373-.9680576.0224-1.418l1.49-3.602c-1.4662758-1.1151746-2.7745909-2.4239943-3.8892-3.8907l-3.6343 1.501c-.45269149.1891816-.96245309.1883167-1.4145-.0024-.45179007-.1864383-.81134472-.5442312-1-.9951l-2.591-6.2857c-.39251479-.9322074.04064293-2.0064832.97-2.4057l3.5435-1.4605c.33047067-.1360646.7084278-.0854895.9914985.1326742s.4282499.5707717.38085.925-.2801778.6562612-.6106485.7923258l-3.3711 1.3883 2.4765 6.0054 4.2212-1.7432c.4326366-.1781903.9309959-.0328355 1.2.35 1.2327529 1.7608218 2.7643148 3.2921806 4.5253 4.5247.3843921.2686558.5302209.7684915.3506 1.2017l-1.7422 4.2119 6.001 2.4878 1.7437-4.2144c.1793941-.4337949.636377-.6844159 1.0986-.6025 2.1128591.3764434 4.2758861.3734635 6.3877-.0088.4624125-.0824756.9200919.1671677 1.1011.6006l1.7529 4.2216 5.9927-2.4848-1.7432-4.2222c-.1792698-.4345086-.0317325-.9352197.3545-1.2031 1.7615646-1.2263089 3.2924569-2.7543912 4.522-4.5137.268826-.3831334.7677384-.5280674 1.2-.3486l4.22 1.7461 2.49-6.0044-2.4072-1.002c-.4516416-.1690115-.71816-.6364498-.633572-1.1112023.0845879-.4747525.4961499-.8213753.978372-.8239977.1350751-.0000978.2688959.0259125.3941.0766l2.57 1.07c.4573261.1867831.8196177.5506618 1.0044 1.0088.1851558.4532097.1839339.9611862-.0034 1.4135l-2.6016 6.274c-.1876967.458766-.5520682.82273-1.011044 1.0099131-.4589759.1871831-.9739592.1818446-1.428956-.0148131l-3.61-1.4942c-1.1126434 1.4657569-2.420684 2.7723172-3.8877 3.8833l1.499 3.6314c.192767.4443106.1973487.9477546.0127 1.3955-.1883714.4634016-.5552477.8315392-1.018 1.0215l-6.2661 2.5981c-.4538254.1901033-.9648404.190759-1.4191521.0018209-.4543118-.188938-.8141617-.551767-.9993479-1.0076209l-1.5054-3.626c-1.8230308.2542899-3.6723548.2569144-5.4961.0078l-1.499 3.6226c-.2841259.6932306-.958305 1.146658-1.7075 1.1484zm-.1411-1.9105v.001zm.1865-.0844h.001zm18.01-2.3892.0029.0073zm-24.1968-.0171-.0015.003zm24.2719-.1929-.0009.0005zm-24.3584-.0014h.001zm32.7167-8.345-.0005.0009zm-41.2706-.083h-.0014zm41.4566-.0015.001.0005zm2.4985-6.001h.0015zm-46.3471-.2016v.0015z"/><path id="Shape" d="m30 44c-6.2081155-.0246571-11.7664651-3.8521423-14.0039-9.6431-.1312616-.334563-.0728971-.7138322.1528792-.9934518.2257762-.2796196.5842361-.4165796.9389443-.3587509.3547081.0578287.6511047.3015511.7763765.6384027 1.9212177 5.0324229 6.7490166 8.3569788 12.1357 8.3569788s10.2144823-3.3245559 12.1357-8.3569788c.1252718-.3368516.4216684-.580574.7763765-.6384027.3547082-.0578287.7131681.0791313.9389443.3587509.2257763.2796196.2841408.6588888.1528792.9934518-2.2374349 5.7909577-7.7957845 9.6184429-14.0039 9.6431z"/><path id="Shape" d="m19 12.0005c-.3214095-.0004569-.6230586-.1551919-.8109292-.415977-.1878707-.2607851-.2391186-.5959101-.1377708-.900923 2.2026-6.6074 7.7153-6.6836 7.9487-6.6836.5522847-.00135308 1.0010969.44526526 1.00245.99755s-.4452653 1.00109689-.99755 1.00245c-.1939.0029-4.3267.1274-6.0562 5.3164-.1360024.4084775-.5181765.6840602-.9487.6841z"/></g></g></svg>