<?xml version="1.0" encoding="UTF-8"?>
<!-- Created with Inkscape (http://www.inkscape.org/) -->
<svg width="25.312mm" height="26.277mm" version="1.1" viewBox="0 0 25.312 26.277" xmlns="http://www.w3.org/2000/svg" xmlns:cc="http://creativecommons.org/ns#" xmlns:dc="http://purl.org/dc/elements/1.1/" xmlns:rdf="http://www.w3.org/1999/02/22-rdf-syntax-ns#">
 <defs>
  <clipPath id="clipPath172">
   <path d="M 0,595.276 H 841.89 V 0 H 0 Z"/>
  </clipPath>
  <clipPath id="clipPath310">
   <path d="M 0,595.276 H 841.89 V 0 H 0 Z"/>
  </clipPath>
 </defs>
 <metadata>
  <rdf:RDF>
   <cc:Work rdf:about="">
    <dc:format>image/svg+xml</dc:format>
    <dc:type rdf:resource="http://purl.org/dc/dcmitype/StillImage"/>
    <dc:title/>
   </cc:Work>
  </rdf:RDF>
 </metadata>
 <g transform="translate(-103.77 -124.49)">
  <g transform="matrix(.35278 0 0 -.35278 -51.586 217.25)">
   <g clip-path="url(#clipPath172)">
    <g transform="translate(491.13 262.95)">
     <path transform="matrix(.75 0 0 -.75 -50.745 0)" d="m67.658-0.0019531-0.001953 0.0019531h-41.68c-1.8133 0-3.2832 1.4699-3.2832 3.2832l0.16992 24.77h-12.281c-5.836 0-10.582 4.7474-10.582 10.582v28.051c0 5.8347 4.746 10.584 10.582 10.584h12.162l-0.05078 18.762c-0.0048 1.8147 1.4699 3.2852 3.2832 3.2852h66.406c1.8133 0 3.2832-1.4705 3.2832-3.2852v-68.025h-0.0039l2e-3 -2e-3 -28.004-28.004zm-41.537 3.4277h38.111v21.297c0 3.7 3.0109 6.7109 6.7109 6.7109h21.297v64.455h-66.119v-18.619h28.885c5.836 0 10.584-4.7493 10.584-10.584v-28.051c0-5.8347-4.748-10.582-10.584-10.582h-28.885zm41.539 1.1035 23.475 23.477h-20.191c-1.8133 0-3.2832-1.4685-3.2832-3.2832zm-57.078 27.049h44.424c3.8907 0 7.0547 3.166 7.0547 7.0566v28.051c0 3.892-3.164 7.0566-7.0547 7.0566-19.346-0.38623-33.5-0.15591-44.424 0-3.8907 0-7.0547-3.1646-7.0547-7.0566v-28.051c-3e-7 -3.8907 3.164-7.0566 7.0547-7.0566z" fill="#003168"/>
    </g>
   </g>
  </g>
  <text x="71.91571" y="148.53867" fill="#003168" font-family="Aino" font-size="2.4178px" font-weight="bold" stroke-width=".35278"><tspan x="71.91571" y="150.67786"/> <tspan x="113.32774 115.34539 116.32823 118.47668 119.44428 121.46508 123.71508" y="148.33798">DIGIDOC</tspan></text>
  <g transform="matrix(.35278 0 0 -.35278 -51.586 217.25)">
   <g clip-path="url(#clipPath310)">
    <g transform="translate(467.02 218.43)">
     <path d="m0 0h-3.328v10.198h3.449s4.857 0.363 4.857-4.966-4.978-5.232-4.978-5.232m1.672 16.399h-11.22c-0.51 0-0.927-0.417-0.927-0.927v-20.692c0-0.509 0.417-0.927 0.927-0.927h10.574c10.514 0 11.353 8.254 11.353 10.531v1.744c-0.363 9.036-7.729 10.271-10.707 10.271" fill="#003168"/>
    </g>
    <g transform="translate(446.81 224.1)">
     <path d="m0 0v-10.891c0-0.51 0.417-0.927 0.927-0.927h5.293c0.509 0 0.926 0.417 0.926 0.927v13.749z" fill="#003168"/>
    </g>
    <g transform="translate(453.01 234.82)">
     <path d="m0 0h-5.278c-0.508 0-0.924-0.416-0.924-0.924v-7.164l7.127 2.85v4.314c0 0.508-0.416 0.924-0.925 0.924m0-0.579c0.187 0 0.346-0.158 0.346-0.345v-3.922l-5.97-2.387v6.309c0 0.187 0.158 0.345 0.346 0.345h5.278" fill="#003168"/>
    </g>
   </g>
  </g>
 </g>
</svg>
