<?xml version="1.0" encoding="UTF-8" standalone="no"?>
<!-- Generator: Adobe Illustrator 19.0.0, SVG Export Plug-In . SVG Version: 6.00 Build 0)  -->

<svg
   xmlns:dc="http://purl.org/dc/elements/1.1/"
   xmlns:cc="http://creativecommons.org/ns#"
   xmlns:rdf="http://www.w3.org/1999/02/22-rdf-syntax-ns#"
   xmlns:svg="http://www.w3.org/2000/svg"
   xmlns="http://www.w3.org/2000/svg"
   xmlns:sodipodi="http://sodipodi.sourceforge.net/DTD/sodipodi-0.dtd"
   xmlns:inkscape="http://www.inkscape.org/namespaces/inkscape"
   version="1.1"
   id="Capa_1"
   x="0px"
   y="0px"
   viewBox="0 0 512 512"
   style="enable-background:new 0 0 512 512;"
   xml:space="preserve"
   sodipodi:docname="doc.svg"
   inkscape:version="0.92.4 5da689c313, 2019-01-14"><metadata
   id="metadata57"><rdf:RDF><cc:Work
       rdf:about=""><dc:format>image/svg+xml</dc:format><dc:type
         rdf:resource="http://purl.org/dc/dcmitype/StillImage" /></cc:Work></rdf:RDF></metadata><defs
   id="defs55" /><sodipodi:namedview
   pagecolor="#ffffff"
   bordercolor="#666666"
   borderopacity="1"
   objecttolerance="10"
   gridtolerance="10"
   guidetolerance="10"
   inkscape:pageopacity="0"
   inkscape:pageshadow="2"
   inkscape:window-width="1190"
   inkscape:window-height="891"
   id="namedview53"
   showgrid="false"
   inkscape:zoom="0.921875"
   inkscape:cx="244.32298"
   inkscape:cy="245.19355"
   inkscape:window-x="1112"
   inkscape:window-y="477"
   inkscape:window-maximized="0"
   inkscape:current-layer="g6" />
<g
   id="g6">
	<path
   style="fill:#1565C0;"
   d="M 288.01172 10.626953 C 287.21233 10.620844 286.40683 10.703609 285.61133 10.880859 L 8.2773438 74.880859 C 3.3963438 76.002859 -0.047 80.368953 0 85.376953 L 0 448.04492 C 0.002 453.30792 3.8429219 457.78203 9.0449219 458.58203 L 286.37891 501.25 C 292.20191 502.145 297.64797 498.15013 298.54297 492.32812 C 298.62497 491.79312 298.66602 491.25389 298.66602 490.71289 L 298.66602 21.376953 C 298.67602 18.123953 297.19925 15.044672 294.65625 13.013672 C 292.758 11.471672 290.40989 10.645281 288.01172 10.626953 z M 53.171875 181.08594 C 57.718968 181.05675 61.951219 183.96011 63.402344 188.52148 C 63.465344 188.71948 63.522219 188.92009 63.574219 189.12109 L 96 302.55078 L 128.42773 189.09961 C 130.76973 183.43861 137.25792 180.74784 142.91992 183.08984 C 145.64192 184.21584 147.80369 186.37761 148.92969 189.09961 L 181.33398 302.55078 L 213.76172 189.12109 C 215.29672 183.50709 221.09108 180.20133 226.70508 181.73633 C 226.78508 181.75833 226.86531 181.78169 226.94531 181.80469 C 232.60531 183.42669 235.87972 189.32728 234.26172 194.98828 L 191.5957 344.32031 C 190.2817 348.89631 186.09398 352.04892 181.33398 352.04492 C 176.58098 352.03992 172.40575 348.88831 171.09375 344.32031 L 138.66797 230.86914 L 106.24023 344.32031 C 103.89823 349.98131 97.410047 352.67208 91.748047 350.33008 C 89.026047 349.20408 86.864281 347.04231 85.738281 344.32031 L 43.072266 194.98828 C 41.286266 189.37428 44.389906 183.37584 50.003906 181.58984 C 51.056531 181.25497 52.122546 181.09267 53.171875 181.08594 z "
   id="path2" />
	<path
   style="fill:#1565C0;"
   d="M501.334,458.71H288c-5.891,0-10.667-4.776-10.667-10.667c0-5.891,4.776-10.667,10.667-10.667   h202.667V74.71H288c-5.891,0-10.667-4.776-10.667-10.667S282.109,53.377,288,53.377h213.333c5.891,0,10.667,4.776,10.667,10.667   v384C512,453.935,507.225,458.71,501.334,458.71z"
   id="path4" />
</g>

<g
   id="g20">
	<path
   style="fill:#1565C0;"
   d="M458.667,138.71H288c-5.891,0-10.667-4.776-10.667-10.667c0-5.891,4.776-10.667,10.667-10.667   h170.667c5.891,0,10.667,4.776,10.667,10.667C469.334,133.935,464.558,138.71,458.667,138.71z"
   id="path10" />
	<path
   style="fill:#1565C0;"
   d="M458.667,202.71H288c-5.891,0-10.667-4.776-10.667-10.667s4.776-10.667,10.667-10.667h170.667   c5.891,0,10.667,4.776,10.667,10.667S464.558,202.71,458.667,202.71z"
   id="path12" />
	<path
   style="fill:#1565C0;"
   d="M458.667,266.71H288c-5.891,0-10.667-4.776-10.667-10.667c0-5.891,4.776-10.667,10.667-10.667   h170.667c5.891,0,10.667,4.776,10.667,10.667C469.334,261.935,464.558,266.71,458.667,266.71z"
   id="path14" />
	<path
   style="fill:#1565C0;"
   d="M458.667,330.71H288c-5.891,0-10.667-4.776-10.667-10.667c0-5.891,4.776-10.667,10.667-10.667   h170.667c5.891,0,10.667,4.776,10.667,10.667C469.334,325.935,464.558,330.71,458.667,330.71z"
   id="path16" />
	<path
   style="fill:#1565C0;"
   d="M458.667,394.71H288c-5.891,0-10.667-4.776-10.667-10.667c0-5.891,4.776-10.667,10.667-10.667   h170.667c5.891,0,10.667,4.776,10.667,10.667C469.334,389.935,464.558,394.71,458.667,394.71z"
   id="path18" />
</g>
<g
   id="g22">
</g>
<g
   id="g24">
</g>
<g
   id="g26">
</g>
<g
   id="g28">
</g>
<g
   id="g30">
</g>
<g
   id="g32">
</g>
<g
   id="g34">
</g>
<g
   id="g36">
</g>
<g
   id="g38">
</g>
<g
   id="g40">
</g>
<g
   id="g42">
</g>
<g
   id="g44">
</g>
<g
   id="g46">
</g>
<g
   id="g48">
</g>
<g
   id="g50">
</g>
</svg>