<?xml version="1.0" encoding="UTF-8" standalone="no"?>
<svg width="24px" height="24px" viewBox="0 0 24 24" version="1.1" xmlns="http://www.w3.org/2000/svg" xmlns:xlink="http://www.w3.org/1999/xlink" xmlns:sketch="http://www.bohemiancoding.com/sketch/ns">
    <!-- Generator: Sketch 3.4.4 (17249) - http://www.bohemiancoding.com/sketch -->
    <title>facebook-logo</title>
    <desc>Created with Sketch.</desc>
    <defs></defs>
    <g id="Page-1" stroke="none" stroke-width="1" fill="none" fill-rule="evenodd" sketch:type="MSPage">
        <g id="Artboard-3" sketch:type="MSArtboardGroup" transform="translate(-24.000000, 0.000000)" fill="#000000">
            <path d="M46.6754242,0 L25.3246657,0 C24.5928668,0 24,0.592864583 24,1.3245708 L24,22.6754292 C24,23.4069556 24.5928668,24 25.3246657,24 L36.8191597,24 L36.8191597,14.7059732 L33.6915243,14.7059732 L33.6915243,11.083861 L36.8191597,11.083861 L36.8191597,8.41268818 C36.8191597,5.31276087 38.7124128,3.62480985 41.4778357,3.62480985 C42.8024115,3.62480985 43.9408452,3.72345575 44.2727535,3.76751819 L44.2727535,7.00709645 L42.3546815,7.00799568 C40.8507979,7.00799568 40.559625,7.72261647 40.559625,8.77130246 L40.559625,11.083861 L44.1463208,11.083861 L43.6792572,14.7059732 L40.559625,14.7059732 L40.559625,24 L46.6754242,24 C47.4069533,24 48,23.4069556 48,22.6754292 L48,1.3245708 C48,0.592864583 47.4069533,0 46.6754242,0" id="facebook-logo" sketch:type="MSShapeGroup"></path>
        </g>
    </g>
</svg>