<svg width="16" height="16" viewBox="0 0 16 16" fill="none" xmlns="http://www.w3.org/2000/svg">
<path fill-rule="evenodd" clip-rule="evenodd" d="M15.8223 4.06667C15.8223 3.67394 15.5039 3.35556 15.1112 3.35556H0.888932C0.496256 3.35556 0.177821 3.67394 0.177821 4.06667C0.177821 4.4594 0.496256 4.77778 0.888932 4.77778H15.1112C15.5039 4.77778 15.8223 4.4594 15.8223 4.06667ZM12.9778 8.33334C12.9778 7.94061 12.6594 7.62223 12.2667 7.62223H3.73338C3.3407 7.62223 3.02227 7.94061 3.02227 8.33334C3.02227 8.72607 3.3407 9.04445 3.73338 9.04445H12.2667C12.6594 9.04445 12.9778 8.72607 12.9778 8.33334ZM10.1334 12.6C10.1334 12.2073 9.815 11.8889 9.42227 11.8889H6.57782C6.18509 11.8889 5.86671 12.2073 5.86671 12.6C5.86671 12.9927 6.18509 13.3111 6.57782 13.3111H9.42227C9.815 13.3111 10.1334 12.9927 10.1334 12.6Z" fill="black"/>
</svg>
