<svg id="Capa_1" enable-background="new 0 0 511.962 511.962" height="512" viewBox="0 0 511.962 511.962" width="512" xmlns="http://www.w3.org/2000/svg"><path id="XMLID_322_" d="m485.05 66.889-64-63.962c-1.875-1.874-4.418-2.927-7.069-2.927h-296c-5.523 0-10 4.477-10 10v321.962h-31.3c-29.059 0-52.7 23.641-52.7 52.7v74.601c0 29.059 23.641 52.7 52.7 52.7h261.301 45.3 94.7c5.523 0 10-4.477 10-10v-200.874c0-5.523-4.477-10-10-10s-10 4.477-10 10v190.873h-43.418c7.138-8.993 11.418-20.353 11.418-32.7v-74.601c0-29.059-23.641-52.7-52.7-52.7h-255.3v-311.961h276v53.962c0 5.523 4.477 10 10 10h54v127.127c0 5.523 4.477 10 10 10s10-4.477 10-10v-137.127c-.001-2.653-1.055-5.198-2.932-7.073zm-69.069 317.773v74.601c0 18.031-14.669 32.7-32.7 32.7h-45.3-261.3c-18.031 0-32.7-14.669-32.7-32.7v-74.601c0-18.031 14.669-32.7 32.7-32.7h306.601c18.03 0 32.699 14.669 32.699 32.7zm8-350.53 29.848 29.83h-29.848z"/><path id="XMLID_324_" d="m477.981 246.092c-2.63 0-5.21 1.06-7.07 2.93-1.86 1.86-2.93 4.43-2.93 7.07 0 2.63 1.07 5.21 2.93 7.07s4.44 2.93 7.07 2.93 5.21-1.07 7.07-2.93 2.93-4.44 2.93-7.07c0-2.64-1.07-5.21-2.93-7.07-1.86-1.87-4.44-2.93-7.07-2.93z"/><path id="XMLID_325_" d="m107.981 381.962v30h-24v-30c0-5.523-4.477-10-10-10s-10 4.477-10 10v80c0 5.523 4.477 10 10 10s10-4.477 10-10v-30h24v30c0 5.523 4.477 10 10 10s10-4.477 10-10v-80c0-5.523-4.477-10-10-10s-10 4.477-10 10z"/><path id="XMLID_874_" d="m241.981 471.962c5.523 0 10-4.477 10-10v-51.492l14.191 17.739c1.897 2.372 4.771 3.753 7.809 3.753s5.911-1.381 7.809-3.753l14.191-17.739v51.492c0 5.523 4.477 10 10 10s10-4.477 10-10v-80c0-4.247-2.683-8.031-6.69-9.437-4.007-1.405-8.466-.126-11.119 3.189l-24.191 30.239-24.191-30.239c-2.653-3.316-7.112-4.596-11.119-3.189-4.007 1.406-6.69 5.189-6.69 9.437v80c0 5.523 4.477 10 10 10z"/><path id="XMLID_875_" d="m345.981 471.962h40c5.523 0 10-4.477 10-10s-4.477-10-10-10h-30v-70c0-5.523-4.477-10-10-10s-10 4.477-10 10v80c0 5.523 4.477 10 10 10z"/><path id="XMLID_876_" d="m157.981 391.962h12v70c0 5.523 4.477 10 10 10s10-4.477 10-10v-70h12c5.523 0 10-4.477 10-10s-4.477-10-10-10h-44c-5.523 0-10 4.477-10 10s4.477 10 10 10z"/><path id="XMLID_882_" d="m238.993 146.95c-3.905-3.905-10.237-3.905-14.143 0l-53.941 53.941c-3.905 3.905-3.905 10.237 0 14.143l53.941 53.941c1.953 1.953 4.512 2.929 7.071 2.929s5.119-.976 7.071-2.929c3.905-3.905 3.905-10.237 0-14.143l-46.87-46.87 46.87-46.87c3.906-3.905 3.906-10.237.001-14.142z"/><path id="XMLID_883_" d="m356.969 268.974c1.953 1.953 4.512 2.929 7.071 2.929s5.119-.976 7.071-2.929l53.941-53.941c3.905-3.905 3.905-10.237 0-14.143l-53.941-53.941c-3.905-3.905-10.237-3.905-14.143 0s-3.905 10.237 0 14.143l46.87 46.87-46.87 46.87c-3.905 3.905-3.905 10.237.001 14.142z"/><path id="XMLID_894_" d="m307.786 134.265-38.583 142.156c-1.447 5.33 1.702 10.823 7.032 12.27.877.238 1.758.352 2.625.352 4.403 0 8.437-2.93 9.645-7.383l38.583-142.156c1.447-5.33-1.702-10.823-7.032-12.27-5.329-1.447-10.824 1.7-12.27 7.031z"/></svg>