<?xml version="1.0" encoding="iso-8859-1"?>
<!-- Generator: Adobe Illustrator 19.0.0, SVG Export Plug-In . SVG Version: 6.00 Build 0)  -->
<svg version="1.1" id="Capa_1" xmlns="http://www.w3.org/2000/svg" xmlns:xlink="http://www.w3.org/1999/xlink" x="0px" y="0px"
	 viewBox="0 0 512 512" style="enable-background:new 0 0 512 512;" xml:space="preserve">
<g>
	<g>
		<path d="M160,208.011h-32v64h32c17.632,0,32-14.368,32-32C192,222.379,177.632,208.011,160,208.011z"/>
	</g>
</g>
<g>
	<g>
		<path d="M496,80.011H288v-48c0-4.768-2.112-9.28-5.792-12.32c-3.648-3.04-8.544-4.352-13.152-3.392l-256,48
			C5.472,65.707,0,72.299,0,80.011v352c0,7.68,5.472,14.304,13.056,15.712l256,48c0.96,0.192,1.952,0.288,2.944,0.288
			c3.712,0,7.328-1.28,10.208-3.68c3.68-3.04,5.792-7.584,5.792-12.32v-48h208c8.832,0,16-7.168,16-16v-320
			C512,87.179,504.832,80.011,496,80.011z M160,304.011h-32v48c0,8.832-7.168,16-16,16c-8.832,0-16-7.168-16-16v-160
			c0-8.832,7.168-16,16-16h48c35.296,0,64,28.704,64,64S195.296,304.011,160,304.011z M480,400.011H288v-32h144
			c8.832,0,16-7.168,16-16c0-8.832-7.168-16-16-16H288v-112v-112h192V400.011z"/>
	</g>
</g>
<g>
	<g>
		<path d="M352,240.011v-94.4c-36.512,7.424-64,39.712-64,78.4c0,44.192,35.808,80,80,80c38.688,0,70.976-27.488,78.4-64H352z"/>
	</g>
</g>
<g>
	<g>
		<path d="M384,145.611v62.4h62.4C440.032,176.683,415.328,151.979,384,145.611z"/>
	</g>
</g>
<g>
</g>
<g>
</g>
<g>
</g>
<g>
</g>
<g>
</g>
<g>
</g>
<g>
</g>
<g>
</g>
<g>
</g>
<g>
</g>
<g>
</g>
<g>
</g>
<g>
</g>
<g>
</g>
<g>
</g>
</svg>
