<?xml version="1.0" encoding="UTF-8" standalone="no"?>
<svg width="24px" height="24px" viewBox="0 0 24 24" version="1.1" xmlns="http://www.w3.org/2000/svg" xmlns:xlink="http://www.w3.org/1999/xlink" xmlns:sketch="http://www.bohemiancoding.com/sketch/ns">
    <!-- Generator: Sketch 3.4.4 (17249) - http://www.bohemiancoding.com/sketch -->
    <title>rss</title>
    <desc>Created with Sketch.</desc>
    <defs></defs>
    <g id="Page-1" stroke="none" stroke-width="1" fill="none" fill-rule="evenodd" sketch:type="MSPage">
        <g id="Artboard-3" sketch:type="MSArtboardGroup" transform="translate(-48.000000, 0.000000)" fill="#000000">
            <path d="M53.4399896,18.5515848 C54.021357,19.1323384 54.374898,19.9200497 54.3770741,20.7971505 C54.3748422,21.6724659 54.021357,22.4604561 53.4421657,23.0385872 L53.4399338,23.0396474 C52.8597382,23.6172762 52.0671166,23.9704267 51.185775,23.9704267 C50.3055494,23.9704267 49.5149366,23.6162161 48.9348526,23.038643 C48.3562194,22.4604561 48,21.6734702 48,20.7971505 C48,19.9200497 48.3562194,19.1304971 48.9348526,18.5510826 L48.9348526,18.5515848 C49.5152156,17.9735095 50.3058284,17.6177924 51.185775,17.6177924 C52.0671724,17.6177924 52.8590128,17.9745139 53.4399896,18.5515848 L53.4399896,18.5515848 Z M53.4399896,18.5510826 L53.4399896,18.5546826 L53.4475896,18.5546826 L53.4399896,18.5510826 L53.4399896,18.5510826 Z M48.9413924,23.0461872 C48.9413924,23.0461872 48.9413924,23.0461872 48.9413924,23.0385872 L48.9337924,23.0385872 L48.9413924,23.0461872 L48.9413924,23.0461872 Z M48.0025667,8.16107245 L48.0025667,12.7437697 C50.9943852,12.7456111 53.8239409,13.9209006 55.9415043,16.0417003 C58.0586771,18.1558041 59.2290005,20.9896563 59.2337992,23.9917418 L59.2353615,23.9917418 L59.2353615,24.0000558 L63.8369188,24.0000558 C63.8332919,19.6347505 62.0588352,15.6805148 59.1900529,12.8096681 C56.3208243,9.93921189 52.3682068,8.16380659 48.0025667,8.16107245 L48.0025667,8.16107245 Z M48.0109366,0 L48.0109366,4.58046532 C58.7053848,4.58827714 67.3990007,13.2953406 67.4062546,24 L72,24 C71.9968753,17.3838839 69.3078209,11.3898125 64.9619894,7.04096792 C60.6145956,2.69362987 54.6244859,0.00284573732 48.0109366,0 L48.0109366,0 Z" id="rss" sketch:type="MSShapeGroup"></path>
        </g>
    </g>
</svg>