<?xml version="1.0" encoding="UTF-8" standalone="no"?>
<svg width="24px" height="24px" viewBox="0 0 24 24" version="1.1" xmlns="http://www.w3.org/2000/svg" xmlns:xlink="http://www.w3.org/1999/xlink" xmlns:sketch="http://www.bohemiancoding.com/sketch/ns">
    <!-- Generator: Sketch 3.4.4 (17249) - http://www.bohemiancoding.com/sketch -->
    <title>twitter-logo</title>
    <desc>Created with Sketch.</desc>
    <defs></defs>
    <g id="Page-1" stroke="none" stroke-width="1" fill="none" fill-rule="evenodd" sketch:type="MSPage">
        <g id="Artboard-3" sketch:type="MSArtboardGroup" fill="#000000">
            <path d="M7.53001277,22.5146871 C16.5925926,22.5146871 21.5478927,15.0051086 21.5478927,8.49680715 C21.5478927,8.28224777 21.5478927,8.06768838 21.5376756,7.8633461 C22.4980843,7.16858238 23.3358876,6.30012771 24,5.30906769 C23.1213282,5.69731801 22.1711367,5.96296296 21.1698595,6.08556833 C22.1915709,5.47254151 22.9680715,4.51213282 23.3358876,3.35759898 C22.385696,3.91954023 21.3333333,4.32822478 20.2094508,4.55300128 C19.3103448,3.59259259 18.0332056,3 16.6130268,3 C13.8952746,3 11.688378,5.20689655 11.688378,7.92464879 C11.688378,8.31289911 11.7292465,8.69093231 11.8212005,9.04853129 C7.72413793,8.84418902 4.09706258,6.88250319 1.66538953,3.899106 C1.24648787,4.62452107 1.00127714,5.47254151 1.00127714,6.37164751 C1.00127714,8.07790549 1.8697318,9.59003831 3.19795658,10.4687101 C2.3908046,10.4482759 1.63473819,10.2234994 0.970625798,9.85568327 L0.970625798,9.91698595 C0.970625798,12.3077905 2.66666667,14.2899106 4.92464879,14.7496807 C4.51596424,14.862069 4.07662835,14.9233716 3.62707535,14.9233716 C3.31034483,14.9233716 3.00383142,14.8927203 2.69731801,14.8314176 C3.32056194,16.7931034 5.13920817,18.2132822 7.29501916,18.2541507 C5.6091954,19.5721584 3.48403576,20.3588761 1.17496807,20.3588761 C0.776500639,20.3588761 0.388250319,20.3384419 1.77635684e-15,20.2873563 C2.15581098,21.697318 4.75095785,22.5146871 7.53001277,22.5146871" id="Shape" sketch:type="MSShapeGroup"></path>
        </g>
    </g>
</svg>