<svg id="Layer_1" enable-background="new 0 0 512 512" height="512" viewBox="0 0 512 512" width="512" xmlns="http://www.w3.org/2000/svg"><g><path d="m448 0h-332v52h-52v376.485l83.515 83.515h248.485v-52h52zm-304 491.515-59.515-59.515h59.515zm240 8.485h-228v-80h-80v-356h308zm52-52h-40v-396h-268v-40h308z"/><path d="m118 356h224v12h-224z"/><path d="m182 388h160v12h-160z"/><path d="m182 420h160v12h-160z"/><path d="m188 208h36v84h-18v12h48v-12h-18v-84h36v10h12v-22h-108v22h12z"/><path d="m348 164h-236v172h236zm-12 160h-212v-148h212z"/><path d="m118 100h160v12h-160z"/><path d="m118 132h128v12h-128z"/></g></svg>